<?xml version="1.0" encoding="utf-8" standalone="no"?>
<!DOCTYPE svg PUBLIC "-//W3C//DTD SVG 1.1//EN"
  "http://www.w3.org/Graphics/SVG/1.1/DTD/svg11.dtd">
<svg xmlns:xlink="http://www.w3.org/1999/xlink" width="460.8pt" height="345.6pt" viewBox="0 0 460.8 345.6" xmlns="http://www.w3.org/2000/svg" version="1.1">
 <metadata>
  <rdf:RDF xmlns:dc="http://purl.org/dc/elements/1.1/" xmlns:cc="http://creativecommons.org/ns#" xmlns:rdf="http://www.w3.org/1999/02/22-rdf-syntax-ns#">
   <cc:Work>
    <dc:type rdf:resource="http://purl.org/dc/dcmitype/StillImage"/>
    <dc:date>2024-02-28T08:47:12.045329</dc:date>
    <dc:format>image/svg+xml</dc:format>
    <dc:creator>
     <cc:Agent>
      <dc:title>Matplotlib v3.8.3, https://matplotlib.org/</dc:title>
     </cc:Agent>
    </dc:creator>
   </cc:Work>
  </rdf:RDF>
 </metadata>
 <defs>
  <style type="text/css">*{stroke-linejoin: round; stroke-linecap: butt}</style>
 </defs>
 <g id="figure_1">
  <g id="patch_1">
   <path d="M 0 345.6 
L 460.8 345.6 
L 460.8 0 
L 0 0 
z
" style="fill: #ffffff"/>
  </g>
  <g id="axes_1">
   <g id="patch_2">
    <path d="M 57.6 307.584 
L 414.72 307.584 
L 414.72 41.472 
L 57.6 41.472 
z
" style="fill: #ffffff"/>
   </g>
   <g id="matplotlib.axis_1">
    <g id="xtick_1">
     <g id="line2d_1">
      <path d="M 73.832727 307.584 
L 73.832727 41.472 
" clip-path="url(#p42b4dd196a)" style="fill: none; stroke: #dddddd; stroke-linecap: square"/>
     </g>
     <g id="line2d_2">
      <defs>
       <path id="mfabe9429a0" d="M 0 0 
L 0 3.5 
" style="stroke: #000000; stroke-width: 0.8"/>
      </defs>
      <g>
       <use xlink:href="#mfabe9429a0" x="73.832727" y="307.584" style="stroke: #000000; stroke-width: 0.8"/>
      </g>
     </g>
     <g id="text_1">
      <!-- 0.000 -->
      <g transform="translate(59.518665 322.182437) scale(0.1 -0.1)">
       <defs>
        <path id="DejaVuSans-30" d="M 2034 4250 
Q 1547 4250 1301 3770 
Q 1056 3291 1056 2328 
Q 1056 1369 1301 889 
Q 1547 409 2034 409 
Q 2525 409 2770 889 
Q 3016 1369 3016 2328 
Q 3016 3291 2770 3770 
Q 2525 4250 2034 4250 
z
M 2034 4750 
Q 2819 4750 3233 4129 
Q 3647 3509 3647 2328 
Q 3647 1150 3233 529 
Q 2819 -91 2034 -91 
Q 1250 -91 836 529 
Q 422 1150 422 2328 
Q 422 3509 836 4129 
Q 1250 4750 2034 4750 
z
" transform="scale(0.015625)"/>
        <path id="DejaVuSans-2e" d="M 684 794 
L 1344 794 
L 1344 0 
L 684 0 
L 684 794 
z
" transform="scale(0.015625)"/>
       </defs>
       <use xlink:href="#DejaVuSans-30"/>
       <use xlink:href="#DejaVuSans-2e" x="63.623047"/>
       <use xlink:href="#DejaVuSans-30" x="95.410156"/>
       <use xlink:href="#DejaVuSans-30" x="159.033203"/>
       <use xlink:href="#DejaVuSans-30" x="222.65625"/>
      </g>
     </g>
    </g>
    <g id="xtick_2">
     <g id="line2d_3">
      <path d="M 138.763636 307.584 
L 138.763636 41.472 
" clip-path="url(#p42b4dd196a)" style="fill: none; stroke: #dddddd; stroke-linecap: square"/>
     </g>
     <g id="line2d_4">
      <g>
       <use xlink:href="#mfabe9429a0" x="138.763636" y="307.584" style="stroke: #000000; stroke-width: 0.8"/>
      </g>
     </g>
     <g id="text_2">
      <!-- 0.005 -->
      <g transform="translate(124.449574 322.182437) scale(0.1 -0.1)">
       <defs>
        <path id="DejaVuSans-35" d="M 691 4666 
L 3169 4666 
L 3169 4134 
L 1269 4134 
L 1269 2991 
Q 1406 3038 1543 3061 
Q 1681 3084 1819 3084 
Q 2600 3084 3056 2656 
Q 3513 2228 3513 1497 
Q 3513 744 3044 326 
Q 2575 -91 1722 -91 
Q 1428 -91 1123 -41 
Q 819 9 494 109 
L 494 744 
Q 775 591 1075 516 
Q 1375 441 1709 441 
Q 2250 441 2565 725 
Q 2881 1009 2881 1497 
Q 2881 1984 2565 2268 
Q 2250 2553 1709 2553 
Q 1456 2553 1204 2497 
Q 953 2441 691 2322 
L 691 4666 
z
" transform="scale(0.015625)"/>
       </defs>
       <use xlink:href="#DejaVuSans-30"/>
       <use xlink:href="#DejaVuSans-2e" x="63.623047"/>
       <use xlink:href="#DejaVuSans-30" x="95.410156"/>
       <use xlink:href="#DejaVuSans-30" x="159.033203"/>
       <use xlink:href="#DejaVuSans-35" x="222.65625"/>
      </g>
     </g>
    </g>
    <g id="xtick_3">
     <g id="line2d_5">
      <path d="M 203.694545 307.584 
L 203.694545 41.472 
" clip-path="url(#p42b4dd196a)" style="fill: none; stroke: #dddddd; stroke-linecap: square"/>
     </g>
     <g id="line2d_6">
      <g>
       <use xlink:href="#mfabe9429a0" x="203.694545" y="307.584" style="stroke: #000000; stroke-width: 0.8"/>
      </g>
     </g>
     <g id="text_3">
      <!-- 0.010 -->
      <g transform="translate(189.380483 322.182437) scale(0.1 -0.1)">
       <defs>
        <path id="DejaVuSans-31" d="M 794 531 
L 1825 531 
L 1825 4091 
L 703 3866 
L 703 4441 
L 1819 4666 
L 2450 4666 
L 2450 531 
L 3481 531 
L 3481 0 
L 794 0 
L 794 531 
z
" transform="scale(0.015625)"/>
       </defs>
       <use xlink:href="#DejaVuSans-30"/>
       <use xlink:href="#DejaVuSans-2e" x="63.623047"/>
       <use xlink:href="#DejaVuSans-30" x="95.410156"/>
       <use xlink:href="#DejaVuSans-31" x="159.033203"/>
       <use xlink:href="#DejaVuSans-30" x="222.65625"/>
      </g>
     </g>
    </g>
    <g id="xtick_4">
     <g id="line2d_7">
      <path d="M 268.625455 307.584 
L 268.625455 41.472 
" clip-path="url(#p42b4dd196a)" style="fill: none; stroke: #dddddd; stroke-linecap: square"/>
     </g>
     <g id="line2d_8">
      <g>
       <use xlink:href="#mfabe9429a0" x="268.625455" y="307.584" style="stroke: #000000; stroke-width: 0.8"/>
      </g>
     </g>
     <g id="text_4">
      <!-- 0.015 -->
      <g transform="translate(254.311392 322.182437) scale(0.1 -0.1)">
       <use xlink:href="#DejaVuSans-30"/>
       <use xlink:href="#DejaVuSans-2e" x="63.623047"/>
       <use xlink:href="#DejaVuSans-30" x="95.410156"/>
       <use xlink:href="#DejaVuSans-31" x="159.033203"/>
       <use xlink:href="#DejaVuSans-35" x="222.65625"/>
      </g>
     </g>
    </g>
    <g id="xtick_5">
     <g id="line2d_9">
      <path d="M 333.556364 307.584 
L 333.556364 41.472 
" clip-path="url(#p42b4dd196a)" style="fill: none; stroke: #dddddd; stroke-linecap: square"/>
     </g>
     <g id="line2d_10">
      <g>
       <use xlink:href="#mfabe9429a0" x="333.556364" y="307.584" style="stroke: #000000; stroke-width: 0.8"/>
      </g>
     </g>
     <g id="text_5">
      <!-- 0.020 -->
      <g transform="translate(319.242301 322.182437) scale(0.1 -0.1)">
       <defs>
        <path id="DejaVuSans-32" d="M 1228 531 
L 3431 531 
L 3431 0 
L 469 0 
L 469 531 
Q 828 903 1448 1529 
Q 2069 2156 2228 2338 
Q 2531 2678 2651 2914 
Q 2772 3150 2772 3378 
Q 2772 3750 2511 3984 
Q 2250 4219 1831 4219 
Q 1534 4219 1204 4116 
Q 875 4013 500 3803 
L 500 4441 
Q 881 4594 1212 4672 
Q 1544 4750 1819 4750 
Q 2544 4750 2975 4387 
Q 3406 4025 3406 3419 
Q 3406 3131 3298 2873 
Q 3191 2616 2906 2266 
Q 2828 2175 2409 1742 
Q 1991 1309 1228 531 
z
" transform="scale(0.015625)"/>
       </defs>
       <use xlink:href="#DejaVuSans-30"/>
       <use xlink:href="#DejaVuSans-2e" x="63.623047"/>
       <use xlink:href="#DejaVuSans-30" x="95.410156"/>
       <use xlink:href="#DejaVuSans-32" x="159.033203"/>
       <use xlink:href="#DejaVuSans-30" x="222.65625"/>
      </g>
     </g>
    </g>
    <g id="xtick_6">
     <g id="line2d_11">
      <path d="M 398.487273 307.584 
L 398.487273 41.472 
" clip-path="url(#p42b4dd196a)" style="fill: none; stroke: #dddddd; stroke-linecap: square"/>
     </g>
     <g id="line2d_12">
      <g>
       <use xlink:href="#mfabe9429a0" x="398.487273" y="307.584" style="stroke: #000000; stroke-width: 0.8"/>
      </g>
     </g>
     <g id="text_6">
      <!-- 0.025 -->
      <g transform="translate(384.17321 322.182437) scale(0.1 -0.1)">
       <use xlink:href="#DejaVuSans-30"/>
       <use xlink:href="#DejaVuSans-2e" x="63.623047"/>
       <use xlink:href="#DejaVuSans-30" x="95.410156"/>
       <use xlink:href="#DejaVuSans-32" x="159.033203"/>
       <use xlink:href="#DejaVuSans-35" x="222.65625"/>
      </g>
     </g>
    </g>
    <g id="xtick_7">
     <g id="line2d_13">
      <path d="M 60.846545 307.584 
L 60.846545 41.472 
" clip-path="url(#p42b4dd196a)" style="fill: none; stroke-dasharray: 0.8,1.32; stroke-dashoffset: 0; stroke: #eeeeee; stroke-width: 0.8"/>
     </g>
     <g id="line2d_14">
      <defs>
       <path id="mdface8fe8b" d="M 0 0 
L 0 2 
" style="stroke: #000000; stroke-width: 0.6"/>
      </defs>
      <g>
       <use xlink:href="#mdface8fe8b" x="60.846545" y="307.584" style="stroke: #000000; stroke-width: 0.6"/>
      </g>
     </g>
    </g>
    <g id="xtick_8">
     <g id="line2d_15">
      <path d="M 86.818909 307.584 
L 86.818909 41.472 
" clip-path="url(#p42b4dd196a)" style="fill: none; stroke-dasharray: 0.8,1.32; stroke-dashoffset: 0; stroke: #eeeeee; stroke-width: 0.8"/>
     </g>
     <g id="line2d_16">
      <g>
       <use xlink:href="#mdface8fe8b" x="86.818909" y="307.584" style="stroke: #000000; stroke-width: 0.6"/>
      </g>
     </g>
    </g>
    <g id="xtick_9">
     <g id="line2d_17">
      <path d="M 99.805091 307.584 
L 99.805091 41.472 
" clip-path="url(#p42b4dd196a)" style="fill: none; stroke-dasharray: 0.8,1.32; stroke-dashoffset: 0; stroke: #eeeeee; stroke-width: 0.8"/>
     </g>
     <g id="line2d_18">
      <g>
       <use xlink:href="#mdface8fe8b" x="99.805091" y="307.584" style="stroke: #000000; stroke-width: 0.6"/>
      </g>
     </g>
    </g>
    <g id="xtick_10">
     <g id="line2d_19">
      <path d="M 112.791273 307.584 
L 112.791273 41.472 
" clip-path="url(#p42b4dd196a)" style="fill: none; stroke-dasharray: 0.8,1.32; stroke-dashoffset: 0; stroke: #eeeeee; stroke-width: 0.8"/>
     </g>
     <g id="line2d_20">
      <g>
       <use xlink:href="#mdface8fe8b" x="112.791273" y="307.584" style="stroke: #000000; stroke-width: 0.6"/>
      </g>
     </g>
    </g>
    <g id="xtick_11">
     <g id="line2d_21">
      <path d="M 125.777455 307.584 
L 125.777455 41.472 
" clip-path="url(#p42b4dd196a)" style="fill: none; stroke-dasharray: 0.8,1.32; stroke-dashoffset: 0; stroke: #eeeeee; stroke-width: 0.8"/>
     </g>
     <g id="line2d_22">
      <g>
       <use xlink:href="#mdface8fe8b" x="125.777455" y="307.584" style="stroke: #000000; stroke-width: 0.6"/>
      </g>
     </g>
    </g>
    <g id="xtick_12">
     <g id="line2d_23">
      <path d="M 151.749818 307.584 
L 151.749818 41.472 
" clip-path="url(#p42b4dd196a)" style="fill: none; stroke-dasharray: 0.8,1.32; stroke-dashoffset: 0; stroke: #eeeeee; stroke-width: 0.8"/>
     </g>
     <g id="line2d_24">
      <g>
       <use xlink:href="#mdface8fe8b" x="151.749818" y="307.584" style="stroke: #000000; stroke-width: 0.6"/>
      </g>
     </g>
    </g>
    <g id="xtick_13">
     <g id="line2d_25">
      <path d="M 164.736 307.584 
L 164.736 41.472 
" clip-path="url(#p42b4dd196a)" style="fill: none; stroke-dasharray: 0.8,1.32; stroke-dashoffset: 0; stroke: #eeeeee; stroke-width: 0.8"/>
     </g>
     <g id="line2d_26">
      <g>
       <use xlink:href="#mdface8fe8b" x="164.736" y="307.584" style="stroke: #000000; stroke-width: 0.6"/>
      </g>
     </g>
    </g>
    <g id="xtick_14">
     <g id="line2d_27">
      <path d="M 177.722182 307.584 
L 177.722182 41.472 
" clip-path="url(#p42b4dd196a)" style="fill: none; stroke-dasharray: 0.8,1.32; stroke-dashoffset: 0; stroke: #eeeeee; stroke-width: 0.8"/>
     </g>
     <g id="line2d_28">
      <g>
       <use xlink:href="#mdface8fe8b" x="177.722182" y="307.584" style="stroke: #000000; stroke-width: 0.6"/>
      </g>
     </g>
    </g>
    <g id="xtick_15">
     <g id="line2d_29">
      <path d="M 190.708364 307.584 
L 190.708364 41.472 
" clip-path="url(#p42b4dd196a)" style="fill: none; stroke-dasharray: 0.8,1.32; stroke-dashoffset: 0; stroke: #eeeeee; stroke-width: 0.8"/>
     </g>
     <g id="line2d_30">
      <g>
       <use xlink:href="#mdface8fe8b" x="190.708364" y="307.584" style="stroke: #000000; stroke-width: 0.6"/>
      </g>
     </g>
    </g>
    <g id="xtick_16">
     <g id="line2d_31">
      <path d="M 216.680727 307.584 
L 216.680727 41.472 
" clip-path="url(#p42b4dd196a)" style="fill: none; stroke-dasharray: 0.8,1.32; stroke-dashoffset: 0; stroke: #eeeeee; stroke-width: 0.8"/>
     </g>
     <g id="line2d_32">
      <g>
       <use xlink:href="#mdface8fe8b" x="216.680727" y="307.584" style="stroke: #000000; stroke-width: 0.6"/>
      </g>
     </g>
    </g>
    <g id="xtick_17">
     <g id="line2d_33">
      <path d="M 229.666909 307.584 
L 229.666909 41.472 
" clip-path="url(#p42b4dd196a)" style="fill: none; stroke-dasharray: 0.8,1.32; stroke-dashoffset: 0; stroke: #eeeeee; stroke-width: 0.8"/>
     </g>
     <g id="line2d_34">
      <g>
       <use xlink:href="#mdface8fe8b" x="229.666909" y="307.584" style="stroke: #000000; stroke-width: 0.6"/>
      </g>
     </g>
    </g>
    <g id="xtick_18">
     <g id="line2d_35">
      <path d="M 242.653091 307.584 
L 242.653091 41.472 
" clip-path="url(#p42b4dd196a)" style="fill: none; stroke-dasharray: 0.8,1.32; stroke-dashoffset: 0; stroke: #eeeeee; stroke-width: 0.8"/>
     </g>
     <g id="line2d_36">
      <g>
       <use xlink:href="#mdface8fe8b" x="242.653091" y="307.584" style="stroke: #000000; stroke-width: 0.6"/>
      </g>
     </g>
    </g>
    <g id="xtick_19">
     <g id="line2d_37">
      <path d="M 255.639273 307.584 
L 255.639273 41.472 
" clip-path="url(#p42b4dd196a)" style="fill: none; stroke-dasharray: 0.8,1.32; stroke-dashoffset: 0; stroke: #eeeeee; stroke-width: 0.8"/>
     </g>
     <g id="line2d_38">
      <g>
       <use xlink:href="#mdface8fe8b" x="255.639273" y="307.584" style="stroke: #000000; stroke-width: 0.6"/>
      </g>
     </g>
    </g>
    <g id="xtick_20">
     <g id="line2d_39">
      <path d="M 281.611636 307.584 
L 281.611636 41.472 
" clip-path="url(#p42b4dd196a)" style="fill: none; stroke-dasharray: 0.8,1.32; stroke-dashoffset: 0; stroke: #eeeeee; stroke-width: 0.8"/>
     </g>
     <g id="line2d_40">
      <g>
       <use xlink:href="#mdface8fe8b" x="281.611636" y="307.584" style="stroke: #000000; stroke-width: 0.6"/>
      </g>
     </g>
    </g>
    <g id="xtick_21">
     <g id="line2d_41">
      <path d="M 294.597818 307.584 
L 294.597818 41.472 
" clip-path="url(#p42b4dd196a)" style="fill: none; stroke-dasharray: 0.8,1.32; stroke-dashoffset: 0; stroke: #eeeeee; stroke-width: 0.8"/>
     </g>
     <g id="line2d_42">
      <g>
       <use xlink:href="#mdface8fe8b" x="294.597818" y="307.584" style="stroke: #000000; stroke-width: 0.6"/>
      </g>
     </g>
    </g>
    <g id="xtick_22">
     <g id="line2d_43">
      <path d="M 307.584 307.584 
L 307.584 41.472 
" clip-path="url(#p42b4dd196a)" style="fill: none; stroke-dasharray: 0.8,1.32; stroke-dashoffset: 0; stroke: #eeeeee; stroke-width: 0.8"/>
     </g>
     <g id="line2d_44">
      <g>
       <use xlink:href="#mdface8fe8b" x="307.584" y="307.584" style="stroke: #000000; stroke-width: 0.6"/>
      </g>
     </g>
    </g>
    <g id="xtick_23">
     <g id="line2d_45">
      <path d="M 320.570182 307.584 
L 320.570182 41.472 
" clip-path="url(#p42b4dd196a)" style="fill: none; stroke-dasharray: 0.8,1.32; stroke-dashoffset: 0; stroke: #eeeeee; stroke-width: 0.8"/>
     </g>
     <g id="line2d_46">
      <g>
       <use xlink:href="#mdface8fe8b" x="320.570182" y="307.584" style="stroke: #000000; stroke-width: 0.6"/>
      </g>
     </g>
    </g>
    <g id="xtick_24">
     <g id="line2d_47">
      <path d="M 346.542545 307.584 
L 346.542545 41.472 
" clip-path="url(#p42b4dd196a)" style="fill: none; stroke-dasharray: 0.8,1.32; stroke-dashoffset: 0; stroke: #eeeeee; stroke-width: 0.8"/>
     </g>
     <g id="line2d_48">
      <g>
       <use xlink:href="#mdface8fe8b" x="346.542545" y="307.584" style="stroke: #000000; stroke-width: 0.6"/>
      </g>
     </g>
    </g>
    <g id="xtick_25">
     <g id="line2d_49">
      <path d="M 359.528727 307.584 
L 359.528727 41.472 
" clip-path="url(#p42b4dd196a)" style="fill: none; stroke-dasharray: 0.8,1.32; stroke-dashoffset: 0; stroke: #eeeeee; stroke-width: 0.8"/>
     </g>
     <g id="line2d_50">
      <g>
       <use xlink:href="#mdface8fe8b" x="359.528727" y="307.584" style="stroke: #000000; stroke-width: 0.6"/>
      </g>
     </g>
    </g>
    <g id="xtick_26">
     <g id="line2d_51">
      <path d="M 372.514909 307.584 
L 372.514909 41.472 
" clip-path="url(#p42b4dd196a)" style="fill: none; stroke-dasharray: 0.8,1.32; stroke-dashoffset: 0; stroke: #eeeeee; stroke-width: 0.8"/>
     </g>
     <g id="line2d_52">
      <g>
       <use xlink:href="#mdface8fe8b" x="372.514909" y="307.584" style="stroke: #000000; stroke-width: 0.6"/>
      </g>
     </g>
    </g>
    <g id="xtick_27">
     <g id="line2d_53">
      <path d="M 385.501091 307.584 
L 385.501091 41.472 
" clip-path="url(#p42b4dd196a)" style="fill: none; stroke-dasharray: 0.8,1.32; stroke-dashoffset: 0; stroke: #eeeeee; stroke-width: 0.8"/>
     </g>
     <g id="line2d_54">
      <g>
       <use xlink:href="#mdface8fe8b" x="385.501091" y="307.584" style="stroke: #000000; stroke-width: 0.6"/>
      </g>
     </g>
    </g>
    <g id="xtick_28">
     <g id="line2d_55">
      <path d="M 411.473455 307.584 
L 411.473455 41.472 
" clip-path="url(#p42b4dd196a)" style="fill: none; stroke-dasharray: 0.8,1.32; stroke-dashoffset: 0; stroke: #eeeeee; stroke-width: 0.8"/>
     </g>
     <g id="line2d_56">
      <g>
       <use xlink:href="#mdface8fe8b" x="411.473455" y="307.584" style="stroke: #000000; stroke-width: 0.6"/>
      </g>
     </g>
    </g>
    <g id="text_7">
     <!-- Sphere radial position (m) -->
     <g transform="translate(171.067031 335.860562) scale(0.1 -0.1)">
      <defs>
       <path id="DejaVuSans-53" d="M 3425 4513 
L 3425 3897 
Q 3066 4069 2747 4153 
Q 2428 4238 2131 4238 
Q 1616 4238 1336 4038 
Q 1056 3838 1056 3469 
Q 1056 3159 1242 3001 
Q 1428 2844 1947 2747 
L 2328 2669 
Q 3034 2534 3370 2195 
Q 3706 1856 3706 1288 
Q 3706 609 3251 259 
Q 2797 -91 1919 -91 
Q 1588 -91 1214 -16 
Q 841 59 441 206 
L 441 856 
Q 825 641 1194 531 
Q 1563 422 1919 422 
Q 2459 422 2753 634 
Q 3047 847 3047 1241 
Q 3047 1584 2836 1778 
Q 2625 1972 2144 2069 
L 1759 2144 
Q 1053 2284 737 2584 
Q 422 2884 422 3419 
Q 422 4038 858 4394 
Q 1294 4750 2059 4750 
Q 2388 4750 2728 4690 
Q 3069 4631 3425 4513 
z
" transform="scale(0.015625)"/>
       <path id="DejaVuSans-70" d="M 1159 525 
L 1159 -1331 
L 581 -1331 
L 581 3500 
L 1159 3500 
L 1159 2969 
Q 1341 3281 1617 3432 
Q 1894 3584 2278 3584 
Q 2916 3584 3314 3078 
Q 3713 2572 3713 1747 
Q 3713 922 3314 415 
Q 2916 -91 2278 -91 
Q 1894 -91 1617 61 
Q 1341 213 1159 525 
z
M 3116 1747 
Q 3116 2381 2855 2742 
Q 2594 3103 2138 3103 
Q 1681 3103 1420 2742 
Q 1159 2381 1159 1747 
Q 1159 1113 1420 752 
Q 1681 391 2138 391 
Q 2594 391 2855 752 
Q 3116 1113 3116 1747 
z
" transform="scale(0.015625)"/>
       <path id="DejaVuSans-68" d="M 3513 2113 
L 3513 0 
L 2938 0 
L 2938 2094 
Q 2938 2591 2744 2837 
Q 2550 3084 2163 3084 
Q 1697 3084 1428 2787 
Q 1159 2491 1159 1978 
L 1159 0 
L 581 0 
L 581 4863 
L 1159 4863 
L 1159 2956 
Q 1366 3272 1645 3428 
Q 1925 3584 2291 3584 
Q 2894 3584 3203 3211 
Q 3513 2838 3513 2113 
z
" transform="scale(0.015625)"/>
       <path id="DejaVuSans-65" d="M 3597 1894 
L 3597 1613 
L 953 1613 
Q 991 1019 1311 708 
Q 1631 397 2203 397 
Q 2534 397 2845 478 
Q 3156 559 3463 722 
L 3463 178 
Q 3153 47 2828 -22 
Q 2503 -91 2169 -91 
Q 1331 -91 842 396 
Q 353 884 353 1716 
Q 353 2575 817 3079 
Q 1281 3584 2069 3584 
Q 2775 3584 3186 3129 
Q 3597 2675 3597 1894 
z
M 3022 2063 
Q 3016 2534 2758 2815 
Q 2500 3097 2075 3097 
Q 1594 3097 1305 2825 
Q 1016 2553 972 2059 
L 3022 2063 
z
" transform="scale(0.015625)"/>
       <path id="DejaVuSans-72" d="M 2631 2963 
Q 2534 3019 2420 3045 
Q 2306 3072 2169 3072 
Q 1681 3072 1420 2755 
Q 1159 2438 1159 1844 
L 1159 0 
L 581 0 
L 581 3500 
L 1159 3500 
L 1159 2956 
Q 1341 3275 1631 3429 
Q 1922 3584 2338 3584 
Q 2397 3584 2469 3576 
Q 2541 3569 2628 3553 
L 2631 2963 
z
" transform="scale(0.015625)"/>
       <path id="DejaVuSans-20" transform="scale(0.015625)"/>
       <path id="DejaVuSans-61" d="M 2194 1759 
Q 1497 1759 1228 1600 
Q 959 1441 959 1056 
Q 959 750 1161 570 
Q 1363 391 1709 391 
Q 2188 391 2477 730 
Q 2766 1069 2766 1631 
L 2766 1759 
L 2194 1759 
z
M 3341 1997 
L 3341 0 
L 2766 0 
L 2766 531 
Q 2569 213 2275 61 
Q 1981 -91 1556 -91 
Q 1019 -91 701 211 
Q 384 513 384 1019 
Q 384 1609 779 1909 
Q 1175 2209 1959 2209 
L 2766 2209 
L 2766 2266 
Q 2766 2663 2505 2880 
Q 2244 3097 1772 3097 
Q 1472 3097 1187 3025 
Q 903 2953 641 2809 
L 641 3341 
Q 956 3463 1253 3523 
Q 1550 3584 1831 3584 
Q 2591 3584 2966 3190 
Q 3341 2797 3341 1997 
z
" transform="scale(0.015625)"/>
       <path id="DejaVuSans-64" d="M 2906 2969 
L 2906 4863 
L 3481 4863 
L 3481 0 
L 2906 0 
L 2906 525 
Q 2725 213 2448 61 
Q 2172 -91 1784 -91 
Q 1150 -91 751 415 
Q 353 922 353 1747 
Q 353 2572 751 3078 
Q 1150 3584 1784 3584 
Q 2172 3584 2448 3432 
Q 2725 3281 2906 2969 
z
M 947 1747 
Q 947 1113 1208 752 
Q 1469 391 1925 391 
Q 2381 391 2643 752 
Q 2906 1113 2906 1747 
Q 2906 2381 2643 2742 
Q 2381 3103 1925 3103 
Q 1469 3103 1208 2742 
Q 947 2381 947 1747 
z
" transform="scale(0.015625)"/>
       <path id="DejaVuSans-69" d="M 603 3500 
L 1178 3500 
L 1178 0 
L 603 0 
L 603 3500 
z
M 603 4863 
L 1178 4863 
L 1178 4134 
L 603 4134 
L 603 4863 
z
" transform="scale(0.015625)"/>
       <path id="DejaVuSans-6c" d="M 603 4863 
L 1178 4863 
L 1178 0 
L 603 0 
L 603 4863 
z
" transform="scale(0.015625)"/>
       <path id="DejaVuSans-6f" d="M 1959 3097 
Q 1497 3097 1228 2736 
Q 959 2375 959 1747 
Q 959 1119 1226 758 
Q 1494 397 1959 397 
Q 2419 397 2687 759 
Q 2956 1122 2956 1747 
Q 2956 2369 2687 2733 
Q 2419 3097 1959 3097 
z
M 1959 3584 
Q 2709 3584 3137 3096 
Q 3566 2609 3566 1747 
Q 3566 888 3137 398 
Q 2709 -91 1959 -91 
Q 1206 -91 779 398 
Q 353 888 353 1747 
Q 353 2609 779 3096 
Q 1206 3584 1959 3584 
z
" transform="scale(0.015625)"/>
       <path id="DejaVuSans-73" d="M 2834 3397 
L 2834 2853 
Q 2591 2978 2328 3040 
Q 2066 3103 1784 3103 
Q 1356 3103 1142 2972 
Q 928 2841 928 2578 
Q 928 2378 1081 2264 
Q 1234 2150 1697 2047 
L 1894 2003 
Q 2506 1872 2764 1633 
Q 3022 1394 3022 966 
Q 3022 478 2636 193 
Q 2250 -91 1575 -91 
Q 1294 -91 989 -36 
Q 684 19 347 128 
L 347 722 
Q 666 556 975 473 
Q 1284 391 1588 391 
Q 1994 391 2212 530 
Q 2431 669 2431 922 
Q 2431 1156 2273 1281 
Q 2116 1406 1581 1522 
L 1381 1569 
Q 847 1681 609 1914 
Q 372 2147 372 2553 
Q 372 3047 722 3315 
Q 1072 3584 1716 3584 
Q 2034 3584 2315 3537 
Q 2597 3491 2834 3397 
z
" transform="scale(0.015625)"/>
       <path id="DejaVuSans-74" d="M 1172 4494 
L 1172 3500 
L 2356 3500 
L 2356 3053 
L 1172 3053 
L 1172 1153 
Q 1172 725 1289 603 
Q 1406 481 1766 481 
L 2356 481 
L 2356 0 
L 1766 0 
Q 1100 0 847 248 
Q 594 497 594 1153 
L 594 3053 
L 172 3053 
L 172 3500 
L 594 3500 
L 594 4494 
L 1172 4494 
z
" transform="scale(0.015625)"/>
       <path id="DejaVuSans-6e" d="M 3513 2113 
L 3513 0 
L 2938 0 
L 2938 2094 
Q 2938 2591 2744 2837 
Q 2550 3084 2163 3084 
Q 1697 3084 1428 2787 
Q 1159 2491 1159 1978 
L 1159 0 
L 581 0 
L 581 3500 
L 1159 3500 
L 1159 2956 
Q 1366 3272 1645 3428 
Q 1925 3584 2291 3584 
Q 2894 3584 3203 3211 
Q 3513 2838 3513 2113 
z
" transform="scale(0.015625)"/>
       <path id="DejaVuSans-28" d="M 1984 4856 
Q 1566 4138 1362 3434 
Q 1159 2731 1159 2009 
Q 1159 1288 1364 580 
Q 1569 -128 1984 -844 
L 1484 -844 
Q 1016 -109 783 600 
Q 550 1309 550 2009 
Q 550 2706 781 3412 
Q 1013 4119 1484 4856 
L 1984 4856 
z
" transform="scale(0.015625)"/>
       <path id="DejaVuSans-6d" d="M 3328 2828 
Q 3544 3216 3844 3400 
Q 4144 3584 4550 3584 
Q 5097 3584 5394 3201 
Q 5691 2819 5691 2113 
L 5691 0 
L 5113 0 
L 5113 2094 
Q 5113 2597 4934 2840 
Q 4756 3084 4391 3084 
Q 3944 3084 3684 2787 
Q 3425 2491 3425 1978 
L 3425 0 
L 2847 0 
L 2847 2094 
Q 2847 2600 2669 2842 
Q 2491 3084 2119 3084 
Q 1678 3084 1418 2786 
Q 1159 2488 1159 1978 
L 1159 0 
L 581 0 
L 581 3500 
L 1159 3500 
L 1159 2956 
Q 1356 3278 1631 3431 
Q 1906 3584 2284 3584 
Q 2666 3584 2933 3390 
Q 3200 3197 3328 2828 
z
" transform="scale(0.015625)"/>
       <path id="DejaVuSans-29" d="M 513 4856 
L 1013 4856 
Q 1481 4119 1714 3412 
Q 1947 2706 1947 2009 
Q 1947 1309 1714 600 
Q 1481 -109 1013 -844 
L 513 -844 
Q 928 -128 1133 580 
Q 1338 1288 1338 2009 
Q 1338 2731 1133 3434 
Q 928 4138 513 4856 
z
" transform="scale(0.015625)"/>
      </defs>
      <use xlink:href="#DejaVuSans-53"/>
      <use xlink:href="#DejaVuSans-70" x="63.476562"/>
      <use xlink:href="#DejaVuSans-68" x="126.953125"/>
      <use xlink:href="#DejaVuSans-65" x="190.332031"/>
      <use xlink:href="#DejaVuSans-72" x="251.855469"/>
      <use xlink:href="#DejaVuSans-65" x="290.71875"/>
      <use xlink:href="#DejaVuSans-20" x="352.242188"/>
      <use xlink:href="#DejaVuSans-72" x="384.029297"/>
      <use xlink:href="#DejaVuSans-61" x="425.142578"/>
      <use xlink:href="#DejaVuSans-64" x="486.421875"/>
      <use xlink:href="#DejaVuSans-69" x="549.898438"/>
      <use xlink:href="#DejaVuSans-61" x="577.681641"/>
      <use xlink:href="#DejaVuSans-6c" x="638.960938"/>
      <use xlink:href="#DejaVuSans-20" x="666.744141"/>
      <use xlink:href="#DejaVuSans-70" x="698.53125"/>
      <use xlink:href="#DejaVuSans-6f" x="762.007812"/>
      <use xlink:href="#DejaVuSans-73" x="823.189453"/>
      <use xlink:href="#DejaVuSans-69" x="875.289062"/>
      <use xlink:href="#DejaVuSans-74" x="903.072266"/>
      <use xlink:href="#DejaVuSans-69" x="942.28125"/>
      <use xlink:href="#DejaVuSans-6f" x="970.064453"/>
      <use xlink:href="#DejaVuSans-6e" x="1031.246094"/>
      <use xlink:href="#DejaVuSans-20" x="1094.625"/>
      <use xlink:href="#DejaVuSans-28" x="1126.412109"/>
      <use xlink:href="#DejaVuSans-6d" x="1165.425781"/>
      <use xlink:href="#DejaVuSans-29" x="1262.837891"/>
     </g>
    </g>
   </g>
   <g id="matplotlib.axis_2">
    <g id="ytick_1">
     <g id="line2d_57">
      <path d="M 57.6 295.488 
L 414.72 295.488 
" clip-path="url(#p42b4dd196a)" style="fill: none; stroke: #dddddd; stroke-linecap: square"/>
     </g>
     <g id="line2d_58">
      <defs>
       <path id="m664f159b24" d="M 0 0 
L -3.5 0 
" style="stroke: #000000; stroke-width: 0.8"/>
      </defs>
      <g>
       <use xlink:href="#m664f159b24" x="57.6" y="295.488" style="stroke: #000000; stroke-width: 0.8"/>
      </g>
     </g>
     <g id="text_8">
      <!-- 40 -->
      <g transform="translate(37.875 299.287219) scale(0.1 -0.1)">
       <defs>
        <path id="DejaVuSans-34" d="M 2419 4116 
L 825 1625 
L 2419 1625 
L 2419 4116 
z
M 2253 4666 
L 3047 4666 
L 3047 1625 
L 3713 1625 
L 3713 1100 
L 3047 1100 
L 3047 0 
L 2419 0 
L 2419 1100 
L 313 1100 
L 313 1709 
L 2253 4666 
z
" transform="scale(0.015625)"/>
       </defs>
       <use xlink:href="#DejaVuSans-34"/>
       <use xlink:href="#DejaVuSans-30" x="63.623047"/>
      </g>
     </g>
    </g>
    <g id="ytick_2">
     <g id="line2d_59">
      <path d="M 57.6 264.67657 
L 414.72 264.67657 
" clip-path="url(#p42b4dd196a)" style="fill: none; stroke: #dddddd; stroke-linecap: square"/>
     </g>
     <g id="line2d_60">
      <g>
       <use xlink:href="#m664f159b24" x="57.6" y="264.67657" style="stroke: #000000; stroke-width: 0.8"/>
      </g>
     </g>
     <g id="text_9">
      <!-- 45 -->
      <g transform="translate(37.875 268.475789) scale(0.1 -0.1)">
       <use xlink:href="#DejaVuSans-34"/>
       <use xlink:href="#DejaVuSans-35" x="63.623047"/>
      </g>
     </g>
    </g>
    <g id="ytick_3">
     <g id="line2d_61">
      <path d="M 57.6 233.865141 
L 414.72 233.865141 
" clip-path="url(#p42b4dd196a)" style="fill: none; stroke: #dddddd; stroke-linecap: square"/>
     </g>
     <g id="line2d_62">
      <g>
       <use xlink:href="#m664f159b24" x="57.6" y="233.865141" style="stroke: #000000; stroke-width: 0.8"/>
      </g>
     </g>
     <g id="text_10">
      <!-- 50 -->
      <g transform="translate(37.875 237.664359) scale(0.1 -0.1)">
       <use xlink:href="#DejaVuSans-35"/>
       <use xlink:href="#DejaVuSans-30" x="63.623047"/>
      </g>
     </g>
    </g>
    <g id="ytick_4">
     <g id="line2d_63">
      <path d="M 57.6 203.053711 
L 414.72 203.053711 
" clip-path="url(#p42b4dd196a)" style="fill: none; stroke: #dddddd; stroke-linecap: square"/>
     </g>
     <g id="line2d_64">
      <g>
       <use xlink:href="#m664f159b24" x="57.6" y="203.053711" style="stroke: #000000; stroke-width: 0.8"/>
      </g>
     </g>
     <g id="text_11">
      <!-- 55 -->
      <g transform="translate(37.875 206.85293) scale(0.1 -0.1)">
       <use xlink:href="#DejaVuSans-35"/>
       <use xlink:href="#DejaVuSans-35" x="63.623047"/>
      </g>
     </g>
    </g>
    <g id="ytick_5">
     <g id="line2d_65">
      <path d="M 57.6 172.242281 
L 414.72 172.242281 
" clip-path="url(#p42b4dd196a)" style="fill: none; stroke: #dddddd; stroke-linecap: square"/>
     </g>
     <g id="line2d_66">
      <g>
       <use xlink:href="#m664f159b24" x="57.6" y="172.242281" style="stroke: #000000; stroke-width: 0.8"/>
      </g>
     </g>
     <g id="text_12">
      <!-- 60 -->
      <g transform="translate(37.875 176.0415) scale(0.1 -0.1)">
       <defs>
        <path id="DejaVuSans-36" d="M 2113 2584 
Q 1688 2584 1439 2293 
Q 1191 2003 1191 1497 
Q 1191 994 1439 701 
Q 1688 409 2113 409 
Q 2538 409 2786 701 
Q 3034 994 3034 1497 
Q 3034 2003 2786 2293 
Q 2538 2584 2113 2584 
z
M 3366 4563 
L 3366 3988 
Q 3128 4100 2886 4159 
Q 2644 4219 2406 4219 
Q 1781 4219 1451 3797 
Q 1122 3375 1075 2522 
Q 1259 2794 1537 2939 
Q 1816 3084 2150 3084 
Q 2853 3084 3261 2657 
Q 3669 2231 3669 1497 
Q 3669 778 3244 343 
Q 2819 -91 2113 -91 
Q 1303 -91 875 529 
Q 447 1150 447 2328 
Q 447 3434 972 4092 
Q 1497 4750 2381 4750 
Q 2619 4750 2861 4703 
Q 3103 4656 3366 4563 
z
" transform="scale(0.015625)"/>
       </defs>
       <use xlink:href="#DejaVuSans-36"/>
       <use xlink:href="#DejaVuSans-30" x="63.623047"/>
      </g>
     </g>
    </g>
    <g id="ytick_6">
     <g id="line2d_67">
      <path d="M 57.6 141.430851 
L 414.72 141.430851 
" clip-path="url(#p42b4dd196a)" style="fill: none; stroke: #dddddd; stroke-linecap: square"/>
     </g>
     <g id="line2d_68">
      <g>
       <use xlink:href="#m664f159b24" x="57.6" y="141.430851" style="stroke: #000000; stroke-width: 0.8"/>
      </g>
     </g>
     <g id="text_13">
      <!-- 65 -->
      <g transform="translate(37.875 145.23007) scale(0.1 -0.1)">
       <use xlink:href="#DejaVuSans-36"/>
       <use xlink:href="#DejaVuSans-35" x="63.623047"/>
      </g>
     </g>
    </g>
    <g id="ytick_7">
     <g id="line2d_69">
      <path d="M 57.6 110.619422 
L 414.72 110.619422 
" clip-path="url(#p42b4dd196a)" style="fill: none; stroke: #dddddd; stroke-linecap: square"/>
     </g>
     <g id="line2d_70">
      <g>
       <use xlink:href="#m664f159b24" x="57.6" y="110.619422" style="stroke: #000000; stroke-width: 0.8"/>
      </g>
     </g>
     <g id="text_14">
      <!-- 70 -->
      <g transform="translate(37.875 114.41864) scale(0.1 -0.1)">
       <defs>
        <path id="DejaVuSans-37" d="M 525 4666 
L 3525 4666 
L 3525 4397 
L 1831 0 
L 1172 0 
L 2766 4134 
L 525 4134 
L 525 4666 
z
" transform="scale(0.015625)"/>
       </defs>
       <use xlink:href="#DejaVuSans-37"/>
       <use xlink:href="#DejaVuSans-30" x="63.623047"/>
      </g>
     </g>
    </g>
    <g id="ytick_8">
     <g id="line2d_71">
      <path d="M 57.6 79.807992 
L 414.72 79.807992 
" clip-path="url(#p42b4dd196a)" style="fill: none; stroke: #dddddd; stroke-linecap: square"/>
     </g>
     <g id="line2d_72">
      <g>
       <use xlink:href="#m664f159b24" x="57.6" y="79.807992" style="stroke: #000000; stroke-width: 0.8"/>
      </g>
     </g>
     <g id="text_15">
      <!-- 75 -->
      <g transform="translate(37.875 83.607211) scale(0.1 -0.1)">
       <use xlink:href="#DejaVuSans-37"/>
       <use xlink:href="#DejaVuSans-35" x="63.623047"/>
      </g>
     </g>
    </g>
    <g id="ytick_9">
     <g id="line2d_73">
      <path d="M 57.6 48.996562 
L 414.72 48.996562 
" clip-path="url(#p42b4dd196a)" style="fill: none; stroke: #dddddd; stroke-linecap: square"/>
     </g>
     <g id="line2d_74">
      <g>
       <use xlink:href="#m664f159b24" x="57.6" y="48.996562" style="stroke: #000000; stroke-width: 0.8"/>
      </g>
     </g>
     <g id="text_16">
      <!-- 80 -->
      <g transform="translate(37.875 52.795781) scale(0.1 -0.1)">
       <defs>
        <path id="DejaVuSans-38" d="M 2034 2216 
Q 1584 2216 1326 1975 
Q 1069 1734 1069 1313 
Q 1069 891 1326 650 
Q 1584 409 2034 409 
Q 2484 409 2743 651 
Q 3003 894 3003 1313 
Q 3003 1734 2745 1975 
Q 2488 2216 2034 2216 
z
M 1403 2484 
Q 997 2584 770 2862 
Q 544 3141 544 3541 
Q 544 4100 942 4425 
Q 1341 4750 2034 4750 
Q 2731 4750 3128 4425 
Q 3525 4100 3525 3541 
Q 3525 3141 3298 2862 
Q 3072 2584 2669 2484 
Q 3125 2378 3379 2068 
Q 3634 1759 3634 1313 
Q 3634 634 3220 271 
Q 2806 -91 2034 -91 
Q 1263 -91 848 271 
Q 434 634 434 1313 
Q 434 1759 690 2068 
Q 947 2378 1403 2484 
z
M 1172 3481 
Q 1172 3119 1398 2916 
Q 1625 2713 2034 2713 
Q 2441 2713 2670 2916 
Q 2900 3119 2900 3481 
Q 2900 3844 2670 4047 
Q 2441 4250 2034 4250 
Q 1625 4250 1398 4047 
Q 1172 3844 1172 3481 
z
" transform="scale(0.015625)"/>
       </defs>
       <use xlink:href="#DejaVuSans-38"/>
       <use xlink:href="#DejaVuSans-30" x="63.623047"/>
      </g>
     </g>
    </g>
    <g id="ytick_10">
     <g id="line2d_75">
      <path d="M 57.6 301.650286 
L 414.72 301.650286 
" clip-path="url(#p42b4dd196a)" style="fill: none; stroke-dasharray: 0.8,1.32; stroke-dashoffset: 0; stroke: #eeeeee; stroke-width: 0.8"/>
     </g>
     <g id="line2d_76">
      <defs>
       <path id="m53489b933d" d="M 0 0 
L -2 0 
" style="stroke: #000000; stroke-width: 0.6"/>
      </defs>
      <g>
       <use xlink:href="#m53489b933d" x="57.6" y="301.650286" style="stroke: #000000; stroke-width: 0.6"/>
      </g>
     </g>
    </g>
    <g id="ytick_11">
     <g id="line2d_77">
      <path d="M 57.6 289.325714 
L 414.72 289.325714 
" clip-path="url(#p42b4dd196a)" style="fill: none; stroke-dasharray: 0.8,1.32; stroke-dashoffset: 0; stroke: #eeeeee; stroke-width: 0.8"/>
     </g>
     <g id="line2d_78">
      <g>
       <use xlink:href="#m53489b933d" x="57.6" y="289.325714" style="stroke: #000000; stroke-width: 0.6"/>
      </g>
     </g>
    </g>
    <g id="ytick_12">
     <g id="line2d_79">
      <path d="M 57.6 283.163428 
L 414.72 283.163428 
" clip-path="url(#p42b4dd196a)" style="fill: none; stroke-dasharray: 0.8,1.32; stroke-dashoffset: 0; stroke: #eeeeee; stroke-width: 0.8"/>
     </g>
     <g id="line2d_80">
      <g>
       <use xlink:href="#m53489b933d" x="57.6" y="283.163428" style="stroke: #000000; stroke-width: 0.6"/>
      </g>
     </g>
    </g>
    <g id="ytick_13">
     <g id="line2d_81">
      <path d="M 57.6 277.001142 
L 414.72 277.001142 
" clip-path="url(#p42b4dd196a)" style="fill: none; stroke-dasharray: 0.8,1.32; stroke-dashoffset: 0; stroke: #eeeeee; stroke-width: 0.8"/>
     </g>
     <g id="line2d_82">
      <g>
       <use xlink:href="#m53489b933d" x="57.6" y="277.001142" style="stroke: #000000; stroke-width: 0.6"/>
      </g>
     </g>
    </g>
    <g id="ytick_14">
     <g id="line2d_83">
      <path d="M 57.6 270.838856 
L 414.72 270.838856 
" clip-path="url(#p42b4dd196a)" style="fill: none; stroke-dasharray: 0.8,1.32; stroke-dashoffset: 0; stroke: #eeeeee; stroke-width: 0.8"/>
     </g>
     <g id="line2d_84">
      <g>
       <use xlink:href="#m53489b933d" x="57.6" y="270.838856" style="stroke: #000000; stroke-width: 0.6"/>
      </g>
     </g>
    </g>
    <g id="ytick_15">
     <g id="line2d_85">
      <path d="M 57.6 258.514284 
L 414.72 258.514284 
" clip-path="url(#p42b4dd196a)" style="fill: none; stroke-dasharray: 0.8,1.32; stroke-dashoffset: 0; stroke: #eeeeee; stroke-width: 0.8"/>
     </g>
     <g id="line2d_86">
      <g>
       <use xlink:href="#m53489b933d" x="57.6" y="258.514284" style="stroke: #000000; stroke-width: 0.6"/>
      </g>
     </g>
    </g>
    <g id="ytick_16">
     <g id="line2d_87">
      <path d="M 57.6 252.351998 
L 414.72 252.351998 
" clip-path="url(#p42b4dd196a)" style="fill: none; stroke-dasharray: 0.8,1.32; stroke-dashoffset: 0; stroke: #eeeeee; stroke-width: 0.8"/>
     </g>
     <g id="line2d_88">
      <g>
       <use xlink:href="#m53489b933d" x="57.6" y="252.351998" style="stroke: #000000; stroke-width: 0.6"/>
      </g>
     </g>
    </g>
    <g id="ytick_17">
     <g id="line2d_89">
      <path d="M 57.6 246.189712 
L 414.72 246.189712 
" clip-path="url(#p42b4dd196a)" style="fill: none; stroke-dasharray: 0.8,1.32; stroke-dashoffset: 0; stroke: #eeeeee; stroke-width: 0.8"/>
     </g>
     <g id="line2d_90">
      <g>
       <use xlink:href="#m53489b933d" x="57.6" y="246.189712" style="stroke: #000000; stroke-width: 0.6"/>
      </g>
     </g>
    </g>
    <g id="ytick_18">
     <g id="line2d_91">
      <path d="M 57.6 240.027427 
L 414.72 240.027427 
" clip-path="url(#p42b4dd196a)" style="fill: none; stroke-dasharray: 0.8,1.32; stroke-dashoffset: 0; stroke: #eeeeee; stroke-width: 0.8"/>
     </g>
     <g id="line2d_92">
      <g>
       <use xlink:href="#m53489b933d" x="57.6" y="240.027427" style="stroke: #000000; stroke-width: 0.6"/>
      </g>
     </g>
    </g>
    <g id="ytick_19">
     <g id="line2d_93">
      <path d="M 57.6 227.702855 
L 414.72 227.702855 
" clip-path="url(#p42b4dd196a)" style="fill: none; stroke-dasharray: 0.8,1.32; stroke-dashoffset: 0; stroke: #eeeeee; stroke-width: 0.8"/>
     </g>
     <g id="line2d_94">
      <g>
       <use xlink:href="#m53489b933d" x="57.6" y="227.702855" style="stroke: #000000; stroke-width: 0.6"/>
      </g>
     </g>
    </g>
    <g id="ytick_20">
     <g id="line2d_95">
      <path d="M 57.6 221.540569 
L 414.72 221.540569 
" clip-path="url(#p42b4dd196a)" style="fill: none; stroke-dasharray: 0.8,1.32; stroke-dashoffset: 0; stroke: #eeeeee; stroke-width: 0.8"/>
     </g>
     <g id="line2d_96">
      <g>
       <use xlink:href="#m53489b933d" x="57.6" y="221.540569" style="stroke: #000000; stroke-width: 0.6"/>
      </g>
     </g>
    </g>
    <g id="ytick_21">
     <g id="line2d_97">
      <path d="M 57.6 215.378283 
L 414.72 215.378283 
" clip-path="url(#p42b4dd196a)" style="fill: none; stroke-dasharray: 0.8,1.32; stroke-dashoffset: 0; stroke: #eeeeee; stroke-width: 0.8"/>
     </g>
     <g id="line2d_98">
      <g>
       <use xlink:href="#m53489b933d" x="57.6" y="215.378283" style="stroke: #000000; stroke-width: 0.6"/>
      </g>
     </g>
    </g>
    <g id="ytick_22">
     <g id="line2d_99">
      <path d="M 57.6 209.215997 
L 414.72 209.215997 
" clip-path="url(#p42b4dd196a)" style="fill: none; stroke-dasharray: 0.8,1.32; stroke-dashoffset: 0; stroke: #eeeeee; stroke-width: 0.8"/>
     </g>
     <g id="line2d_100">
      <g>
       <use xlink:href="#m53489b933d" x="57.6" y="209.215997" style="stroke: #000000; stroke-width: 0.6"/>
      </g>
     </g>
    </g>
    <g id="ytick_23">
     <g id="line2d_101">
      <path d="M 57.6 196.891425 
L 414.72 196.891425 
" clip-path="url(#p42b4dd196a)" style="fill: none; stroke-dasharray: 0.8,1.32; stroke-dashoffset: 0; stroke: #eeeeee; stroke-width: 0.8"/>
     </g>
     <g id="line2d_102">
      <g>
       <use xlink:href="#m53489b933d" x="57.6" y="196.891425" style="stroke: #000000; stroke-width: 0.6"/>
      </g>
     </g>
    </g>
    <g id="ytick_24">
     <g id="line2d_103">
      <path d="M 57.6 190.729139 
L 414.72 190.729139 
" clip-path="url(#p42b4dd196a)" style="fill: none; stroke-dasharray: 0.8,1.32; stroke-dashoffset: 0; stroke: #eeeeee; stroke-width: 0.8"/>
     </g>
     <g id="line2d_104">
      <g>
       <use xlink:href="#m53489b933d" x="57.6" y="190.729139" style="stroke: #000000; stroke-width: 0.6"/>
      </g>
     </g>
    </g>
    <g id="ytick_25">
     <g id="line2d_105">
      <path d="M 57.6 184.566853 
L 414.72 184.566853 
" clip-path="url(#p42b4dd196a)" style="fill: none; stroke-dasharray: 0.8,1.32; stroke-dashoffset: 0; stroke: #eeeeee; stroke-width: 0.8"/>
     </g>
     <g id="line2d_106">
      <g>
       <use xlink:href="#m53489b933d" x="57.6" y="184.566853" style="stroke: #000000; stroke-width: 0.6"/>
      </g>
     </g>
    </g>
    <g id="ytick_26">
     <g id="line2d_107">
      <path d="M 57.6 178.404567 
L 414.72 178.404567 
" clip-path="url(#p42b4dd196a)" style="fill: none; stroke-dasharray: 0.8,1.32; stroke-dashoffset: 0; stroke: #eeeeee; stroke-width: 0.8"/>
     </g>
     <g id="line2d_108">
      <g>
       <use xlink:href="#m53489b933d" x="57.6" y="178.404567" style="stroke: #000000; stroke-width: 0.6"/>
      </g>
     </g>
    </g>
    <g id="ytick_27">
     <g id="line2d_109">
      <path d="M 57.6 166.079995 
L 414.72 166.079995 
" clip-path="url(#p42b4dd196a)" style="fill: none; stroke-dasharray: 0.8,1.32; stroke-dashoffset: 0; stroke: #eeeeee; stroke-width: 0.8"/>
     </g>
     <g id="line2d_110">
      <g>
       <use xlink:href="#m53489b933d" x="57.6" y="166.079995" style="stroke: #000000; stroke-width: 0.6"/>
      </g>
     </g>
    </g>
    <g id="ytick_28">
     <g id="line2d_111">
      <path d="M 57.6 159.917709 
L 414.72 159.917709 
" clip-path="url(#p42b4dd196a)" style="fill: none; stroke-dasharray: 0.8,1.32; stroke-dashoffset: 0; stroke: #eeeeee; stroke-width: 0.8"/>
     </g>
     <g id="line2d_112">
      <g>
       <use xlink:href="#m53489b933d" x="57.6" y="159.917709" style="stroke: #000000; stroke-width: 0.6"/>
      </g>
     </g>
    </g>
    <g id="ytick_29">
     <g id="line2d_113">
      <path d="M 57.6 153.755423 
L 414.72 153.755423 
" clip-path="url(#p42b4dd196a)" style="fill: none; stroke-dasharray: 0.8,1.32; stroke-dashoffset: 0; stroke: #eeeeee; stroke-width: 0.8"/>
     </g>
     <g id="line2d_114">
      <g>
       <use xlink:href="#m53489b933d" x="57.6" y="153.755423" style="stroke: #000000; stroke-width: 0.6"/>
      </g>
     </g>
    </g>
    <g id="ytick_30">
     <g id="line2d_115">
      <path d="M 57.6 147.593137 
L 414.72 147.593137 
" clip-path="url(#p42b4dd196a)" style="fill: none; stroke-dasharray: 0.8,1.32; stroke-dashoffset: 0; stroke: #eeeeee; stroke-width: 0.8"/>
     </g>
     <g id="line2d_116">
      <g>
       <use xlink:href="#m53489b933d" x="57.6" y="147.593137" style="stroke: #000000; stroke-width: 0.6"/>
      </g>
     </g>
    </g>
    <g id="ytick_31">
     <g id="line2d_117">
      <path d="M 57.6 135.268565 
L 414.72 135.268565 
" clip-path="url(#p42b4dd196a)" style="fill: none; stroke-dasharray: 0.8,1.32; stroke-dashoffset: 0; stroke: #eeeeee; stroke-width: 0.8"/>
     </g>
     <g id="line2d_118">
      <g>
       <use xlink:href="#m53489b933d" x="57.6" y="135.268565" style="stroke: #000000; stroke-width: 0.6"/>
      </g>
     </g>
    </g>
    <g id="ytick_32">
     <g id="line2d_119">
      <path d="M 57.6 129.10628 
L 414.72 129.10628 
" clip-path="url(#p42b4dd196a)" style="fill: none; stroke-dasharray: 0.8,1.32; stroke-dashoffset: 0; stroke: #eeeeee; stroke-width: 0.8"/>
     </g>
     <g id="line2d_120">
      <g>
       <use xlink:href="#m53489b933d" x="57.6" y="129.10628" style="stroke: #000000; stroke-width: 0.6"/>
      </g>
     </g>
    </g>
    <g id="ytick_33">
     <g id="line2d_121">
      <path d="M 57.6 122.943994 
L 414.72 122.943994 
" clip-path="url(#p42b4dd196a)" style="fill: none; stroke-dasharray: 0.8,1.32; stroke-dashoffset: 0; stroke: #eeeeee; stroke-width: 0.8"/>
     </g>
     <g id="line2d_122">
      <g>
       <use xlink:href="#m53489b933d" x="57.6" y="122.943994" style="stroke: #000000; stroke-width: 0.6"/>
      </g>
     </g>
    </g>
    <g id="ytick_34">
     <g id="line2d_123">
      <path d="M 57.6 116.781708 
L 414.72 116.781708 
" clip-path="url(#p42b4dd196a)" style="fill: none; stroke-dasharray: 0.8,1.32; stroke-dashoffset: 0; stroke: #eeeeee; stroke-width: 0.8"/>
     </g>
     <g id="line2d_124">
      <g>
       <use xlink:href="#m53489b933d" x="57.6" y="116.781708" style="stroke: #000000; stroke-width: 0.6"/>
      </g>
     </g>
    </g>
    <g id="ytick_35">
     <g id="line2d_125">
      <path d="M 57.6 104.457136 
L 414.72 104.457136 
" clip-path="url(#p42b4dd196a)" style="fill: none; stroke-dasharray: 0.8,1.32; stroke-dashoffset: 0; stroke: #eeeeee; stroke-width: 0.8"/>
     </g>
     <g id="line2d_126">
      <g>
       <use xlink:href="#m53489b933d" x="57.6" y="104.457136" style="stroke: #000000; stroke-width: 0.6"/>
      </g>
     </g>
    </g>
    <g id="ytick_36">
     <g id="line2d_127">
      <path d="M 57.6 98.29485 
L 414.72 98.29485 
" clip-path="url(#p42b4dd196a)" style="fill: none; stroke-dasharray: 0.8,1.32; stroke-dashoffset: 0; stroke: #eeeeee; stroke-width: 0.8"/>
     </g>
     <g id="line2d_128">
      <g>
       <use xlink:href="#m53489b933d" x="57.6" y="98.29485" style="stroke: #000000; stroke-width: 0.6"/>
      </g>
     </g>
    </g>
    <g id="ytick_37">
     <g id="line2d_129">
      <path d="M 57.6 92.132564 
L 414.72 92.132564 
" clip-path="url(#p42b4dd196a)" style="fill: none; stroke-dasharray: 0.8,1.32; stroke-dashoffset: 0; stroke: #eeeeee; stroke-width: 0.8"/>
     </g>
     <g id="line2d_130">
      <g>
       <use xlink:href="#m53489b933d" x="57.6" y="92.132564" style="stroke: #000000; stroke-width: 0.6"/>
      </g>
     </g>
    </g>
    <g id="ytick_38">
     <g id="line2d_131">
      <path d="M 57.6 85.970278 
L 414.72 85.970278 
" clip-path="url(#p42b4dd196a)" style="fill: none; stroke-dasharray: 0.8,1.32; stroke-dashoffset: 0; stroke: #eeeeee; stroke-width: 0.8"/>
     </g>
     <g id="line2d_132">
      <g>
       <use xlink:href="#m53489b933d" x="57.6" y="85.970278" style="stroke: #000000; stroke-width: 0.6"/>
      </g>
     </g>
    </g>
    <g id="ytick_39">
     <g id="line2d_133">
      <path d="M 57.6 73.645706 
L 414.72 73.645706 
" clip-path="url(#p42b4dd196a)" style="fill: none; stroke-dasharray: 0.8,1.32; stroke-dashoffset: 0; stroke: #eeeeee; stroke-width: 0.8"/>
     </g>
     <g id="line2d_134">
      <g>
       <use xlink:href="#m53489b933d" x="57.6" y="73.645706" style="stroke: #000000; stroke-width: 0.6"/>
      </g>
     </g>
    </g>
    <g id="ytick_40">
     <g id="line2d_135">
      <path d="M 57.6 67.48342 
L 414.72 67.48342 
" clip-path="url(#p42b4dd196a)" style="fill: none; stroke-dasharray: 0.8,1.32; stroke-dashoffset: 0; stroke: #eeeeee; stroke-width: 0.8"/>
     </g>
     <g id="line2d_136">
      <g>
       <use xlink:href="#m53489b933d" x="57.6" y="67.48342" style="stroke: #000000; stroke-width: 0.6"/>
      </g>
     </g>
    </g>
    <g id="ytick_41">
     <g id="line2d_137">
      <path d="M 57.6 61.321134 
L 414.72 61.321134 
" clip-path="url(#p42b4dd196a)" style="fill: none; stroke-dasharray: 0.8,1.32; stroke-dashoffset: 0; stroke: #eeeeee; stroke-width: 0.8"/>
     </g>
     <g id="line2d_138">
      <g>
       <use xlink:href="#m53489b933d" x="57.6" y="61.321134" style="stroke: #000000; stroke-width: 0.6"/>
      </g>
     </g>
    </g>
    <g id="ytick_42">
     <g id="line2d_139">
      <path d="M 57.6 55.158848 
L 414.72 55.158848 
" clip-path="url(#p42b4dd196a)" style="fill: none; stroke-dasharray: 0.8,1.32; stroke-dashoffset: 0; stroke: #eeeeee; stroke-width: 0.8"/>
     </g>
     <g id="line2d_140">
      <g>
       <use xlink:href="#m53489b933d" x="57.6" y="55.158848" style="stroke: #000000; stroke-width: 0.6"/>
      </g>
     </g>
    </g>
    <g id="ytick_43">
     <g id="line2d_141">
      <path d="M 57.6 42.834276 
L 414.72 42.834276 
" clip-path="url(#p42b4dd196a)" style="fill: none; stroke-dasharray: 0.8,1.32; stroke-dashoffset: 0; stroke: #eeeeee; stroke-width: 0.8"/>
     </g>
     <g id="line2d_142">
      <g>
       <use xlink:href="#m53489b933d" x="57.6" y="42.834276" style="stroke: #000000; stroke-width: 0.6"/>
      </g>
     </g>
    </g>
    <g id="text_17">
     <!-- Temperature (℃) -->
     <g transform="translate(31.795312 217.303781) rotate(-90) scale(0.1 -0.1)">
      <defs>
       <path id="DejaVuSans-54" d="M -19 4666 
L 3928 4666 
L 3928 4134 
L 2272 4134 
L 2272 0 
L 1638 0 
L 1638 4134 
L -19 4134 
L -19 4666 
z
" transform="scale(0.015625)"/>
       <path id="DejaVuSans-75" d="M 544 1381 
L 544 3500 
L 1119 3500 
L 1119 1403 
Q 1119 906 1312 657 
Q 1506 409 1894 409 
Q 2359 409 2629 706 
Q 2900 1003 2900 1516 
L 2900 3500 
L 3475 3500 
L 3475 0 
L 2900 0 
L 2900 538 
Q 2691 219 2414 64 
Q 2138 -91 1772 -91 
Q 1169 -91 856 284 
Q 544 659 544 1381 
z
M 1991 3584 
L 1991 3584 
z
" transform="scale(0.015625)"/>
       <path id="DejaVuSans-2103" d="M 1600 4347 
Q 1350 4347 1178 4173 
Q 1006 4000 1006 3750 
Q 1006 3503 1178 3333 
Q 1350 3163 1600 3163 
Q 1850 3163 2022 3333 
Q 2194 3503 2194 3750 
Q 2194 3997 2020 4172 
Q 1847 4347 1600 4347 
z
M 1600 4750 
Q 1800 4750 1984 4673 
Q 2169 4597 2303 4453 
Q 2447 4313 2519 4134 
Q 2591 3956 2591 3750 
Q 2591 3338 2302 3052 
Q 2013 2766 1594 2766 
Q 1172 2766 890 3047 
Q 609 3328 609 3750 
Q 609 4169 896 4459 
Q 1184 4750 1600 4750 
z
M 6738 4306 
L 6738 3641 
Q 6419 3938 6058 4084 
Q 5697 4231 5291 4231 
Q 4491 4231 4066 3742 
Q 3641 3253 3641 2328 
Q 3641 1406 4066 917 
Q 4491 428 5291 428 
Q 5697 428 6058 575 
Q 6419 722 6738 1019 
L 6738 359 
Q 6407 134 6036 21 
Q 5666 -91 5254 -91 
Q 4194 -91 3584 557 
Q 2975 1206 2975 2328 
Q 2975 3453 3584 4101 
Q 4194 4750 5254 4750 
Q 5672 4750 6042 4639 
Q 6413 4528 6738 4306 
z
" transform="scale(0.015625)"/>
      </defs>
      <use xlink:href="#DejaVuSans-54"/>
      <use xlink:href="#DejaVuSans-65" x="44.083984"/>
      <use xlink:href="#DejaVuSans-6d" x="105.607422"/>
      <use xlink:href="#DejaVuSans-70" x="203.019531"/>
      <use xlink:href="#DejaVuSans-65" x="266.496094"/>
      <use xlink:href="#DejaVuSans-72" x="328.019531"/>
      <use xlink:href="#DejaVuSans-61" x="369.132812"/>
      <use xlink:href="#DejaVuSans-74" x="430.412109"/>
      <use xlink:href="#DejaVuSans-75" x="469.621094"/>
      <use xlink:href="#DejaVuSans-72" x="533"/>
      <use xlink:href="#DejaVuSans-65" x="571.863281"/>
      <use xlink:href="#DejaVuSans-20" x="633.386719"/>
      <use xlink:href="#DejaVuSans-28" x="665.173828"/>
      <use xlink:href="#DejaVuSans-2103" x="704.1875"/>
      <use xlink:href="#DejaVuSans-29" x="816.492188"/>
     </g>
    </g>
   </g>
   <g id="line2d_143">
    <path d="M 73.832727 295.488 
L 80.45833 295.488 
L 87.083933 295.488 
L 93.709536 295.488 
L 100.335139 295.488 
L 106.960742 295.488 
L 113.586345 295.488 
L 120.211948 295.488 
L 126.837551 295.488 
L 133.463154 295.488 
L 140.088757 295.488 
L 146.71436 295.488 
L 153.339963 295.488 
L 159.965566 295.488 
L 166.591169 295.488 
L 173.216772 295.488 
L 179.842375 295.488 
L 186.467978 295.488 
L 193.093581 295.488 
L 199.719184 295.488 
L 206.344787 295.488 
L 212.97039 295.488 
L 219.595993 295.488 
L 226.221596 295.488 
L 232.847199 295.488 
L 239.472801 295.488 
L 246.098404 295.488 
L 252.724007 295.488 
L 259.34961 295.488 
L 265.975213 295.488 
L 272.600816 295.488 
L 279.226419 295.488 
L 285.852022 295.488 
L 292.477625 295.488 
L 299.103228 295.488 
L 305.728831 295.488 
L 312.354434 295.488 
L 318.980037 295.488 
L 325.60564 295.488 
L 332.231243 295.488 
L 338.856846 295.488 
L 345.482449 295.488 
L 352.108052 295.488 
L 358.733655 295.488 
L 365.359258 295.488 
L 371.984861 295.488 
L 378.610464 295.488 
L 385.236067 295.488 
L 391.86167 295.488 
L 398.487273 295.488 
" clip-path="url(#p42b4dd196a)" style="fill: none; stroke: #1f77b4; stroke-width: 1.5; stroke-linecap: square"/>
   </g>
   <g id="line2d_144">
    <path d="M 73.832727 294.503918 
L 80.45833 294.499334 
L 87.083933 294.472257 
L 93.709536 294.425798 
L 100.335139 294.359153 
L 106.960742 294.270908 
L 113.586345 294.15917 
L 120.211948 294.021573 
L 126.837551 293.855267 
L 133.463154 293.656896 
L 140.088757 293.422576 
L 146.71436 293.147869 
L 153.339963 292.827759 
L 159.965566 292.456634 
L 166.591169 292.028263 
L 173.216772 291.535783 
L 179.842375 290.971689 
L 186.467978 290.32783 
L 193.093581 289.59542 
L 199.719184 288.765052 
L 206.344787 287.826726 
L 212.97039 286.769889 
L 219.595993 285.583495 
L 226.221596 284.256068 
L 232.847199 282.775794 
L 239.472801 281.130616 
L 246.098404 279.308355 
L 252.724007 277.296843 
L 259.34961 275.084066 
L 265.975213 272.658326 
L 272.600816 270.008414 
L 279.226419 267.123784 
L 285.852022 263.994746 
L 292.477625 260.612649 
L 299.103228 256.970072 
L 305.728831 253.061007 
L 312.354434 248.881033 
L 318.980037 244.427481 
L 325.60564 239.699576 
L 332.231243 234.698563 
L 338.856846 229.427812 
L 345.482449 223.892884 
L 352.108052 218.101579 
L 358.733655 212.063944 
L 365.359258 205.79225 
L 371.984861 199.300933 
L 378.610464 192.6065 
L 385.236067 185.727404 
L 391.86167 178.683884 
L 398.487273 171.497778 
" clip-path="url(#p42b4dd196a)" style="fill: none; stroke: #ff7f0e; stroke-width: 1.5; stroke-linecap: square"/>
   </g>
   <g id="line2d_145">
    <path d="M 73.832727 275.962274 
L 80.45833 275.938915 
L 87.083933 275.801302 
L 93.709536 275.568108 
L 100.335139 275.239842 
L 106.960742 274.815815 
L 113.586345 274.294905 
L 120.211948 273.675688 
L 126.837551 272.956493 
L 133.463154 272.135423 
L 140.088757 271.210383 
L 146.71436 270.179103 
L 153.339963 269.039163 
L 159.965566 267.788023 
L 166.591169 266.423046 
L 173.216772 264.941535 
L 179.842375 263.340762 
L 186.467978 261.618005 
L 193.093581 259.770579 
L 199.719184 257.79588 
L 206.344787 255.691413 
L 212.97039 253.454839 
L 219.595993 251.08401 
L 226.221596 248.577007 
L 232.847199 245.932178 
L 239.472801 243.148178 
L 246.098404 240.224005 
L 252.724007 237.159033 
L 259.34961 233.953048 
L 265.975213 230.606278 
L 272.600816 227.11942 
L 279.226419 223.493672 
L 285.852022 219.730747 
L 292.477625 215.832898 
L 299.103228 211.802932 
L 305.728831 207.644221 
L 312.354434 203.360706 
L 318.980037 198.956903 
L 325.60564 194.437899 
L 332.231243 189.809343 
L 338.856846 185.077436 
L 345.482449 180.248914 
L 352.108052 175.331025 
L 358.733655 170.331504 
L 365.359258 165.25854 
L 371.984861 160.120745 
L 378.610464 154.927111 
L 385.236067 149.68697 
L 391.86167 144.409949 
L 398.487273 139.105919 
" clip-path="url(#p42b4dd196a)" style="fill: none; stroke: #2ca02c; stroke-width: 1.5; stroke-linecap: square"/>
   </g>
   <g id="line2d_146">
    <path d="M 73.832727 241.819214 
L 80.45833 241.790652 
L 87.083933 241.622454 
L 93.709536 241.337976 
L 100.335139 240.938694 
L 106.960742 240.424943 
L 113.586345 239.796853 
L 120.211948 239.054502 
L 126.837551 238.197961 
L 133.463154 237.227318 
L 140.088757 236.142687 
L 146.71436 234.944219 
L 153.339963 233.632114 
L 159.965566 232.206631 
L 166.591169 230.668097 
L 173.216772 229.016918 
L 179.842375 227.253591 
L 186.467978 225.378714 
L 193.093581 223.392999 
L 199.719184 221.297281 
L 206.344787 219.09253 
L 212.97039 216.779861 
L 219.595993 214.360546 
L 226.221596 211.836022 
L 232.847199 209.207904 
L 239.472801 206.477989 
L 246.098404 203.648266 
L 252.724007 200.720925 
L 259.34961 197.698359 
L 265.975213 194.583173 
L 272.600816 191.378186 
L 279.226419 188.086432 
L 285.852022 184.711165 
L 292.477625 181.255856 
L 299.103228 177.724194 
L 305.728831 174.12008 
L 312.354434 170.447626 
L 318.980037 166.711149 
L 325.60564 162.915163 
L 332.231243 159.064371 
L 338.856846 155.163655 
L 345.482449 151.218067 
L 352.108052 147.232813 
L 358.733655 143.213243 
L 365.359258 139.164836 
L 371.984861 135.093183 
L 378.610464 131.003971 
L 385.236067 126.902967 
L 391.86167 122.795997 
L 398.487273 118.688933 
" clip-path="url(#p42b4dd196a)" style="fill: none; stroke: #d62728; stroke-width: 1.5; stroke-linecap: square"/>
   </g>
   <g id="line2d_147">
    <path d="M 73.832727 206.769923 
L 80.45833 206.743709 
L 87.083933 206.589356 
L 93.709536 206.328433 
L 100.335139 205.962508 
L 106.960742 205.492188 
L 113.586345 204.917968 
L 120.211948 204.240374 
L 126.837551 203.46 
L 133.463154 202.577523 
L 140.088757 201.593705 
L 146.71436 200.509404 
L 153.339963 199.325569 
L 159.965566 198.043249 
L 166.591169 196.663593 
L 173.216772 195.18785 
L 179.842375 193.617375 
L 186.467978 191.953628 
L 193.093581 190.198177 
L 199.719184 188.352698 
L 206.344787 186.41898 
L 212.97039 184.398923 
L 219.595993 182.294541 
L 226.221596 180.107961 
L 232.847199 177.841425 
L 239.472801 175.497291 
L 246.098404 173.07803 
L 252.724007 170.586228 
L 259.34961 168.024584 
L 265.975213 165.395909 
L 272.600816 162.703124 
L 279.226419 159.949258 
L 285.852022 157.137444 
L 292.477625 154.270917 
L 299.103228 151.353012 
L 305.728831 148.387155 
L 312.354434 145.376863 
L 318.980037 142.325738 
L 325.60564 139.237458 
L 332.231243 136.115775 
L 338.856846 132.964507 
L 345.482449 129.787532 
L 352.108052 126.588777 
L 358.733655 123.372216 
L 365.359258 120.141859 
L 371.984861 116.901742 
L 378.610464 113.655922 
L 385.236067 110.408467 
L 391.86167 107.163445 
L 398.487273 103.92492 
" clip-path="url(#p42b4dd196a)" style="fill: none; stroke: #9467bd; stroke-width: 1.5; stroke-linecap: square"/>
   </g>
   <g id="line2d_148">
    <path d="M 73.832727 176.191012 
L 80.45833 176.168976 
L 87.083933 176.039224 
L 93.709536 175.819929 
L 100.335139 175.51247 
L 106.960742 175.117442 
L 113.586345 174.63537 
L 120.211948 174.06683 
L 126.837551 173.412471 
L 133.463154 172.673033 
L 140.088757 171.849348 
L 146.71436 170.942341 
L 153.339963 169.953031 
L 159.965566 168.882533 
L 166.591169 167.732053 
L 173.216772 166.502894 
L 179.842375 165.196449 
L 186.467978 163.814205 
L 193.093581 162.357739 
L 199.719184 160.828719 
L 206.344787 159.228903 
L 212.97039 157.560133 
L 219.595993 155.824341 
L 226.221596 154.023541 
L 232.847199 152.159831 
L 239.472801 150.235388 
L 246.098404 148.252469 
L 252.724007 146.213406 
L 259.34961 144.120606 
L 265.975213 141.976544 
L 272.600816 139.783764 
L 279.226419 137.544877 
L 285.852022 135.262551 
L 292.477625 132.939516 
L 299.103228 130.578552 
L 305.728831 128.182493 
L 312.354434 125.754217 
L 318.980037 123.296644 
L 325.60564 120.812732 
L 332.231243 118.305472 
L 338.856846 115.777883 
L 345.482449 113.233007 
L 352.108052 110.673905 
L 358.733655 108.103652 
L 365.359258 105.525329 
L 371.984861 102.942022 
L 378.610464 100.356815 
L 385.236067 97.772781 
L 391.86167 95.192985 
L 398.487273 92.620468 
" clip-path="url(#p42b4dd196a)" style="fill: none; stroke: #8c564b; stroke-width: 1.5; stroke-linecap: square"/>
   </g>
   <g id="line2d_149">
    <path d="M 73.832727 150.938692 
L 80.45833 150.920742 
L 87.083933 150.815056 
L 93.709536 150.636445 
L 100.335139 150.386054 
L 106.960742 150.064393 
L 113.586345 149.671924 
L 120.211948 149.209154 
L 126.837551 148.67666 
L 133.463154 148.075097 
L 140.088757 147.405201 
L 146.71436 146.667788 
L 153.339963 145.863757 
L 159.965566 144.994085 
L 166.591169 144.059831 
L 173.216772 143.062131 
L 179.842375 142.002199 
L 186.467978 140.881326 
L 193.093581 139.700876 
L 199.719184 138.462285 
L 206.344787 137.167063 
L 212.97039 135.816788 
L 219.595993 134.413103 
L 226.221596 132.957719 
L 232.847199 131.452411 
L 239.472801 129.89901 
L 246.098404 128.29941 
L 252.724007 126.655559 
L 259.34961 124.969458 
L 265.975213 123.243158 
L 272.600816 121.478758 
L 279.226419 119.678404 
L 285.852022 117.84428 
L 292.477625 115.978611 
L 299.103228 114.083656 
L 305.728831 112.161708 
L 312.354434 110.215086 
L 318.980037 108.246136 
L 325.60564 106.257227 
L 332.231243 104.250745 
L 338.856846 102.229089 
L 345.482449 100.194672 
L 352.108052 98.149913 
L 358.733655 96.097235 
L 365.359258 94.03906 
L 371.984861 91.977808 
L 378.610464 89.915889 
L 385.236067 87.855703 
L 391.86167 85.799635 
L 398.487273 83.750051 
" clip-path="url(#p42b4dd196a)" style="fill: none; stroke: #e377c2; stroke-width: 1.5; stroke-linecap: square"/>
   </g>
   <g id="line2d_150">
    <path d="M 73.832727 130.508601 
L 80.45833 130.494156 
L 87.083933 130.409107 
L 93.709536 130.265379 
L 100.335139 130.063896 
L 106.960742 129.805078 
L 113.586345 129.489308 
L 120.211948 129.117006 
L 126.837551 128.688652 
L 133.463154 128.204789 
L 140.088757 127.666027 
L 146.71436 127.073044 
L 153.339963 126.426582 
L 159.965566 125.727453 
L 166.591169 124.976531 
L 173.216772 124.174754 
L 179.842375 123.323124 
L 186.467978 122.422705 
L 193.093581 121.47462 
L 199.719184 120.480049 
L 206.344787 119.440232 
L 212.97039 118.356462 
L 219.595993 117.230084 
L 226.221596 116.062498 
L 232.847199 114.855151 
L 239.472801 113.609536 
L 246.098404 112.327195 
L 252.724007 111.00971 
L 259.34961 109.658704 
L 265.975213 108.27584 
L 272.600816 106.862814 
L 279.226419 105.421359 
L 285.852022 103.953237 
L 292.477625 102.460238 
L 299.103228 100.944178 
L 305.728831 99.406898 
L 312.354434 97.850256 
L 318.980037 96.276131 
L 325.60564 94.686414 
L 332.231243 93.08301 
L 338.856846 91.467832 
L 345.482449 89.842801 
L 352.108052 88.209839 
L 358.733655 86.570871 
L 365.359258 84.927819 
L 371.984861 83.282599 
L 378.610464 81.637121 
L 385.236067 79.993282 
L 391.86167 78.352966 
L 398.487273 76.718043 
" clip-path="url(#p42b4dd196a)" style="fill: none; stroke: #7f7f7f; stroke-width: 1.5; stroke-linecap: square"/>
   </g>
   <g id="line2d_151">
    <path d="M 73.832727 114.111662 
L 80.45833 114.100094 
L 87.083933 114.031979 
L 93.709536 113.91687 
L 100.335139 113.755509 
L 106.960742 113.548235 
L 113.586345 113.295358 
L 120.211948 112.997218 
L 126.837551 112.654205 
L 133.463154 112.266758 
L 140.088757 111.835373 
L 146.71436 111.360597 
L 153.339963 110.843034 
L 159.965566 110.283339 
L 166.591169 109.68222 
L 173.216772 109.040437 
L 179.842375 108.3588 
L 186.467978 107.638168 
L 193.093581 106.87945 
L 199.719184 106.083597 
L 206.344787 105.251612 
L 212.97039 104.384536 
L 219.595993 103.483456 
L 226.221596 102.549498 
L 232.847199 101.583828 
L 239.472801 100.587649 
L 246.098404 99.5622 
L 252.724007 98.508752 
L 259.34961 97.428612 
L 265.975213 96.323112 
L 272.600816 95.193616 
L 279.226419 94.041512 
L 285.852022 92.868212 
L 292.477625 91.67515 
L 299.103228 90.463782 
L 305.728831 89.235577 
L 312.354434 87.992024 
L 318.980037 86.734623 
L 325.60564 85.464885 
L 332.231243 84.18433 
L 338.856846 82.894485 
L 345.482449 81.59688 
L 352.108052 80.29305 
L 358.733655 78.984526 
L 365.359258 77.672838 
L 371.984861 76.359514 
L 378.610464 75.046071 
L 385.236067 73.734018 
L 391.86167 72.424855 
L 398.487273 71.120066 
" clip-path="url(#p42b4dd196a)" style="fill: none; stroke: #bcbd22; stroke-width: 1.5; stroke-linecap: square"/>
   </g>
   <g id="line2d_152">
    <path d="M 73.832727 100.993485 
L 80.45833 100.984238 
L 87.083933 100.929789 
L 93.709536 100.837776 
L 100.335139 100.708792 
L 106.960742 100.543109 
L 113.586345 100.340975 
L 120.211948 100.102665 
L 126.837551 99.82849 
L 133.463154 99.518804 
L 140.088757 99.174005 
L 146.71436 98.794532 
L 153.339963 98.380871 
L 159.965566 97.933547 
L 166.591169 97.453128 
L 173.216772 96.940225 
L 179.842375 96.395487 
L 186.467978 95.819604 
L 193.093581 95.213304 
L 199.719184 94.577352 
L 206.344787 93.91255 
L 212.97039 93.219734 
L 219.595993 92.499774 
L 226.221596 91.753573 
L 232.847199 90.982066 
L 239.472801 90.186214 
L 246.098404 89.367012 
L 252.724007 88.525477 
L 259.34961 87.662653 
L 265.975213 86.779608 
L 272.600816 85.877432 
L 279.226419 84.957236 
L 285.852022 84.020148 
L 292.477625 83.067316 
L 299.103228 82.099902 
L 305.728831 81.119081 
L 312.354434 80.126042 
L 318.980037 79.121982 
L 325.60564 78.108109 
L 332.231243 77.085635 
L 338.856846 76.05578 
L 345.482449 75.019765 
L 352.108052 73.978813 
L 358.733655 72.934146 
L 365.359258 71.886986 
L 371.984861 70.838549 
L 378.610464 69.790045 
L 385.236067 68.742678 
L 391.86167 67.697642 
L 398.487273 66.65612 
" clip-path="url(#p42b4dd196a)" style="fill: none; stroke: #17becf; stroke-width: 1.5; stroke-linecap: square"/>
   </g>
   <g id="line2d_153">
    <path d="M 73.832727 90.511805 
L 80.45833 90.504419 
L 87.083933 90.460929 
L 93.709536 90.387433 
L 100.335139 90.284408 
L 106.960742 90.15207 
L 113.586345 89.990618 
L 120.211948 89.800272 
L 126.837551 89.58128 
L 133.463154 89.333927 
L 140.088757 89.05853 
L 146.71436 88.755442 
L 153.339963 88.425049 
L 159.965566 88.067774 
L 166.591169 87.68407 
L 173.216772 87.274426 
L 179.842375 86.839362 
L 186.467978 86.379429 
L 193.093581 85.895209 
L 199.719184 85.387315 
L 206.344787 84.856387 
L 212.97039 84.303095 
L 219.595993 83.728134 
L 226.221596 83.132226 
L 232.847199 82.516118 
L 239.472801 81.88058 
L 246.098404 81.226405 
L 252.724007 80.554406 
L 259.34961 79.86542 
L 265.975213 79.160298 
L 272.600816 78.439911 
L 279.226419 77.705147 
L 285.852022 76.956908 
L 292.477625 76.19611 
L 299.103228 75.423681 
L 305.728831 74.64056 
L 312.354434 73.847696 
L 318.980037 73.046044 
L 325.60564 72.23657 
L 332.231243 71.420242 
L 338.856846 70.598031 
L 345.482449 69.770914 
L 352.108052 68.939866 
L 358.733655 68.105864 
L 365.359258 67.269881 
L 371.984861 66.432888 
L 378.610464 65.59585 
L 385.236067 64.759729 
L 391.86167 63.925477 
L 398.487273 63.094037 
" clip-path="url(#p42b4dd196a)" style="fill: none; stroke: #1f77b4; stroke-width: 1.5; stroke-linecap: square"/>
   </g>
   <g id="line2d_154">
    <path d="M 73.832727 82.141024 
L 80.45833 82.135126 
L 87.083933 82.100399 
L 93.709536 82.041713 
L 100.335139 81.959447 
L 106.960742 81.853776 
L 113.586345 81.724857 
L 120.211948 81.572866 
L 126.837551 81.398003 
L 133.463154 81.200493 
L 140.088757 80.980592 
L 146.71436 80.73858 
L 153.339963 80.474767 
L 159.965566 80.18949 
L 166.591169 79.883111 
L 173.216772 79.556022 
L 179.842375 79.208636 
L 186.467978 78.841395 
L 193.093581 78.454765 
L 199.719184 78.049233 
L 206.344787 77.625313 
L 212.97039 77.183538 
L 219.595993 76.724465 
L 226.221596 76.24867 
L 232.847199 75.756749 
L 239.472801 75.249318 
L 246.098404 74.72701 
L 252.724007 74.190475 
L 259.34961 73.64038 
L 265.975213 73.077405 
L 272.600816 72.502248 
L 279.226419 71.915615 
L 285.852022 71.318228 
L 292.477625 70.710818 
L 299.103228 70.094126 
L 305.728831 69.468901 
L 312.354434 68.835902 
L 318.980037 68.195891 
L 325.60564 67.549639 
L 332.231243 66.897918 
L 338.856846 66.241505 
L 345.482449 65.581179 
L 352.108052 64.917718 
L 358.733655 64.251901 
L 365.359258 63.584507 
L 371.984861 62.916309 
L 378.610464 62.248079 
L 385.236067 61.580583 
L 391.86167 60.914582 
L 398.487273 60.250828 
" clip-path="url(#p42b4dd196a)" style="fill: none; stroke: #ff7f0e; stroke-width: 1.5; stroke-linecap: square"/>
   </g>
   <g id="line2d_155">
    <path d="M 73.832727 75.457405 
L 80.45833 75.452696 
L 87.083933 75.42497 
L 93.709536 75.378115 
L 100.335139 75.312434 
L 106.960742 75.228065 
L 113.586345 75.125136 
L 120.211948 75.003787 
L 126.837551 74.864176 
L 133.463154 74.706485 
L 140.088757 74.530916 
L 146.71436 74.337695 
L 153.339963 74.127068 
L 159.965566 73.899304 
L 166.591169 73.654694 
L 173.216772 73.393549 
L 179.842375 73.1162 
L 186.467978 72.822999 
L 193.093581 72.514319 
L 199.719184 72.190549 
L 206.344787 71.852098 
L 212.97039 71.499394 
L 219.595993 71.13288 
L 226.221596 70.753016 
L 232.847199 70.360279 
L 239.472801 69.95516 
L 246.098404 69.538164 
L 252.724007 69.109812 
L 259.34961 68.670634 
L 265.975213 68.221176 
L 272.600816 67.761992 
L 279.226419 67.293648 
L 285.852022 66.816719 
L 292.477625 66.33179 
L 299.103228 65.839451 
L 305.728831 65.340302 
L 312.354434 64.834947 
L 318.980037 64.323996 
L 325.60564 63.808064 
L 332.231243 63.287766 
L 338.856846 62.763724 
L 345.482449 62.236559 
L 352.108052 61.706893 
L 358.733655 61.175347 
L 365.359258 60.642543 
L 371.984861 60.109098 
L 378.610464 59.575628 
L 385.236067 59.042745 
L 391.86167 58.511056 
L 398.487273 57.981163 
" clip-path="url(#p42b4dd196a)" style="fill: none; stroke: #2ca02c; stroke-width: 1.5; stroke-linecap: square"/>
   </g>
   <g id="line2d_156">
    <path d="M 73.832727 70.121336 
L 80.45833 70.117576 
L 87.083933 70.095441 
L 93.709536 70.058034 
L 100.335139 70.005596 
L 106.960742 69.93824 
L 113.586345 69.856065 
L 120.211948 69.759185 
L 126.837551 69.647725 
L 133.463154 69.52183 
L 140.088757 69.381663 
L 146.71436 69.227403 
L 153.339963 69.059247 
L 159.965566 68.87741 
L 166.591169 68.682123 
L 173.216772 68.473636 
L 179.842375 68.252212 
L 186.467978 68.018134 
L 193.093581 67.771697 
L 199.719184 67.513213 
L 206.344787 67.24301 
L 212.97039 66.961427 
L 219.595993 66.668819 
L 226.221596 66.365554 
L 232.847199 66.052012 
L 239.472801 65.728585 
L 246.098404 65.395677 
L 252.724007 65.053702 
L 259.34961 64.703086 
L 265.975213 64.344262 
L 272.600816 63.977674 
L 279.226419 63.603774 
L 285.852022 63.22302 
L 292.477625 62.83588 
L 299.103228 62.442825 
L 305.728831 62.044333 
L 312.354434 61.640888 
L 318.980037 61.232975 
L 325.60564 60.821085 
L 332.231243 60.405712 
L 338.856846 59.987349 
L 345.482449 59.566493 
L 352.108052 59.143641 
L 358.733655 58.719289 
L 365.359258 58.293932 
L 371.984861 57.868065 
L 378.610464 57.442178 
L 385.236067 57.016759 
L 391.86167 56.592294 
L 398.487273 56.169263 
" clip-path="url(#p42b4dd196a)" style="fill: none; stroke: #d62728; stroke-width: 1.5; stroke-linecap: square"/>
   </g>
   <g id="line2d_157">
    <path d="M 73.832727 65.861266 
L 80.45833 65.858265 
L 87.083933 65.840593 
L 93.709536 65.810729 
L 100.335139 65.768866 
L 106.960742 65.715092 
L 113.586345 65.649489 
L 120.211948 65.572144 
L 126.837551 65.483161 
L 133.463154 65.382654 
L 140.088757 65.270752 
L 146.71436 65.147599 
L 153.339963 65.013352 
L 159.965566 64.868183 
L 166.591169 64.712277 
L 173.216772 64.545832 
L 179.842375 64.36906 
L 186.467978 64.182185 
L 193.093581 63.985444 
L 199.719184 63.779085 
L 206.344787 63.56337 
L 212.97039 63.338571 
L 219.595993 63.104969 
L 226.221596 62.86286 
L 232.847199 62.612546 
L 239.472801 62.354341 
L 246.098404 62.088566 
L 252.724007 61.815554 
L 259.34961 61.535643 
L 265.975213 61.249179 
L 272.600816 60.956517 
L 279.226419 60.658018 
L 285.852022 60.354048 
L 292.477625 60.044979 
L 299.103228 59.731188 
L 305.728831 59.413056 
L 312.354434 59.090971 
L 318.980037 58.765318 
L 325.60564 58.436492 
L 332.231243 58.104884 
L 338.856846 57.770889 
L 345.482449 57.434905 
L 352.108052 57.097327 
L 358.733655 56.758551 
L 365.359258 56.418974 
L 371.984861 56.078989 
L 378.610464 55.738988 
L 385.236067 55.399362 
L 391.86167 55.060497 
L 398.487273 54.722776 
" clip-path="url(#p42b4dd196a)" style="fill: none; stroke: #9467bd; stroke-width: 1.5; stroke-linecap: square"/>
   </g>
   <g id="line2d_158">
    <path d="M 73.832727 62.460271 
L 80.45833 62.457874 
L 87.083933 62.443766 
L 93.709536 62.419925 
L 100.335139 62.386504 
L 106.960742 62.343574 
L 113.586345 62.2912 
L 120.211948 62.229453 
L 126.837551 62.158414 
L 133.463154 62.078175 
L 140.088757 61.988839 
L 146.71436 61.890521 
L 153.339963 61.783347 
L 159.965566 61.667453 
L 166.591169 61.542987 
L 173.216772 61.410108 
L 179.842375 61.268983 
L 186.467978 61.119794 
L 193.093581 60.962727 
L 199.719184 60.797983 
L 206.344787 60.62577 
L 212.97039 60.446304 
L 219.595993 60.259811 
L 226.221596 60.066526 
L 232.847199 59.86669 
L 239.472801 59.660555 
L 246.098404 59.448378 
L 252.724007 59.230421 
L 259.34961 59.006958 
L 265.975213 58.778263 
L 272.600816 58.54462 
L 279.226419 58.306317 
L 285.852022 58.063646 
L 292.477625 57.816905 
L 299.103228 57.566394 
L 305.728831 57.312419 
L 312.354434 57.055286 
L 318.980037 56.795306 
L 325.60564 56.532791 
L 332.231243 56.268057 
L 338.856846 56.001417 
L 345.482449 55.733189 
L 352.108052 55.463688 
L 358.733655 55.193231 
L 365.359258 54.922135 
L 371.984861 54.650712 
L 378.610464 54.379278 
L 385.236067 54.108142 
L 391.86167 53.837614 
L 398.487273 53.568 
" clip-path="url(#p42b4dd196a)" style="fill: none; stroke: #8c564b; stroke-width: 1.5; stroke-linecap: square"/>
   </g>
   <g id="patch_3">
    <path d="M 57.6 307.584 
L 57.6 41.472 
" style="fill: none; stroke: #000000; stroke-width: 0.8; stroke-linejoin: miter; stroke-linecap: square"/>
   </g>
   <g id="patch_4">
    <path d="M 414.72 307.584 
L 414.72 41.472 
" style="fill: none; stroke: #000000; stroke-width: 0.8; stroke-linejoin: miter; stroke-linecap: square"/>
   </g>
   <g id="patch_5">
    <path d="M 57.6 307.584 
L 414.72 307.584 
" style="fill: none; stroke: #000000; stroke-width: 0.8; stroke-linejoin: miter; stroke-linecap: square"/>
   </g>
   <g id="patch_6">
    <path d="M 57.6 41.472 
L 414.72 41.472 
" style="fill: none; stroke: #000000; stroke-width: 0.8; stroke-linejoin: miter; stroke-linecap: square"/>
   </g>
   <g id="legend_1">
    <g id="patch_7">
     <path d="M 308.493438 299.000125 
L 407.72 299.000125 
Q 409.72 299.000125 409.72 297.000125 
L 409.72 48.472 
Q 409.72 46.472 407.72 46.472 
L 308.493438 46.472 
Q 306.493438 46.472 306.493438 48.472 
L 306.493438 297.000125 
Q 306.493438 299.000125 308.493438 299.000125 
z
" style="fill: #ffffff; opacity: 0.8; stroke: #cccccc; stroke-linejoin: miter"/>
    </g>
    <g id="text_18">
     <!-- Simulation time (s) -->
     <g transform="translate(310.493438 58.070437) scale(0.1 -0.1)">
      <use xlink:href="#DejaVuSans-53"/>
      <use xlink:href="#DejaVuSans-69" x="63.476562"/>
      <use xlink:href="#DejaVuSans-6d" x="91.259766"/>
      <use xlink:href="#DejaVuSans-75" x="188.671875"/>
      <use xlink:href="#DejaVuSans-6c" x="252.050781"/>
      <use xlink:href="#DejaVuSans-61" x="279.833984"/>
      <use xlink:href="#DejaVuSans-74" x="341.113281"/>
      <use xlink:href="#DejaVuSans-69" x="380.322266"/>
      <use xlink:href="#DejaVuSans-6f" x="408.105469"/>
      <use xlink:href="#DejaVuSans-6e" x="469.287109"/>
      <use xlink:href="#DejaVuSans-20" x="532.666016"/>
      <use xlink:href="#DejaVuSans-74" x="564.453125"/>
      <use xlink:href="#DejaVuSans-69" x="603.662109"/>
      <use xlink:href="#DejaVuSans-6d" x="631.445312"/>
      <use xlink:href="#DejaVuSans-65" x="728.857422"/>
      <use xlink:href="#DejaVuSans-20" x="790.380859"/>
      <use xlink:href="#DejaVuSans-28" x="822.167969"/>
      <use xlink:href="#DejaVuSans-73" x="861.181641"/>
      <use xlink:href="#DejaVuSans-29" x="913.28125"/>
     </g>
    </g>
    <g id="line2d_159">
     <path d="M 329.792656 69.248562 
L 339.792656 69.248562 
L 349.792656 69.248562 
" style="fill: none; stroke: #1f77b4; stroke-width: 1.5; stroke-linecap: square"/>
    </g>
    <g id="text_19">
     <!-- 0.0 -->
     <g transform="translate(357.792656 72.748562) scale(0.1 -0.1)">
      <use xlink:href="#DejaVuSans-30"/>
      <use xlink:href="#DejaVuSans-2e" x="63.623047"/>
      <use xlink:href="#DejaVuSans-30" x="95.410156"/>
     </g>
    </g>
    <g id="line2d_160">
     <path d="M 329.792656 83.926688 
L 339.792656 83.926688 
L 349.792656 83.926688 
" style="fill: none; stroke: #ff7f0e; stroke-width: 1.5; stroke-linecap: square"/>
    </g>
    <g id="text_20">
     <!-- 60.0 -->
     <g transform="translate(357.792656 87.426688) scale(0.1 -0.1)">
      <use xlink:href="#DejaVuSans-36"/>
      <use xlink:href="#DejaVuSans-30" x="63.623047"/>
      <use xlink:href="#DejaVuSans-2e" x="127.246094"/>
      <use xlink:href="#DejaVuSans-30" x="159.033203"/>
     </g>
    </g>
    <g id="line2d_161">
     <path d="M 329.792656 98.604813 
L 339.792656 98.604813 
L 349.792656 98.604813 
" style="fill: none; stroke: #2ca02c; stroke-width: 1.5; stroke-linecap: square"/>
    </g>
    <g id="text_21">
     <!-- 120.0 -->
     <g transform="translate(357.792656 102.104813) scale(0.1 -0.1)">
      <use xlink:href="#DejaVuSans-31"/>
      <use xlink:href="#DejaVuSans-32" x="63.623047"/>
      <use xlink:href="#DejaVuSans-30" x="127.246094"/>
      <use xlink:href="#DejaVuSans-2e" x="190.869141"/>
      <use xlink:href="#DejaVuSans-30" x="222.65625"/>
     </g>
    </g>
    <g id="line2d_162">
     <path d="M 329.792656 113.282938 
L 339.792656 113.282938 
L 349.792656 113.282938 
" style="fill: none; stroke: #d62728; stroke-width: 1.5; stroke-linecap: square"/>
    </g>
    <g id="text_22">
     <!-- 180.0 -->
     <g transform="translate(357.792656 116.782938) scale(0.1 -0.1)">
      <use xlink:href="#DejaVuSans-31"/>
      <use xlink:href="#DejaVuSans-38" x="63.623047"/>
      <use xlink:href="#DejaVuSans-30" x="127.246094"/>
      <use xlink:href="#DejaVuSans-2e" x="190.869141"/>
      <use xlink:href="#DejaVuSans-30" x="222.65625"/>
     </g>
    </g>
    <g id="line2d_163">
     <path d="M 329.792656 127.961062 
L 339.792656 127.961062 
L 349.792656 127.961062 
" style="fill: none; stroke: #9467bd; stroke-width: 1.5; stroke-linecap: square"/>
    </g>
    <g id="text_23">
     <!-- 240.0 -->
     <g transform="translate(357.792656 131.461062) scale(0.1 -0.1)">
      <use xlink:href="#DejaVuSans-32"/>
      <use xlink:href="#DejaVuSans-34" x="63.623047"/>
      <use xlink:href="#DejaVuSans-30" x="127.246094"/>
      <use xlink:href="#DejaVuSans-2e" x="190.869141"/>
      <use xlink:href="#DejaVuSans-30" x="222.65625"/>
     </g>
    </g>
    <g id="line2d_164">
     <path d="M 329.792656 142.639188 
L 339.792656 142.639188 
L 349.792656 142.639188 
" style="fill: none; stroke: #8c564b; stroke-width: 1.5; stroke-linecap: square"/>
    </g>
    <g id="text_24">
     <!-- 300.0 -->
     <g transform="translate(357.792656 146.139188) scale(0.1 -0.1)">
      <defs>
       <path id="DejaVuSans-33" d="M 2597 2516 
Q 3050 2419 3304 2112 
Q 3559 1806 3559 1356 
Q 3559 666 3084 287 
Q 2609 -91 1734 -91 
Q 1441 -91 1130 -33 
Q 819 25 488 141 
L 488 750 
Q 750 597 1062 519 
Q 1375 441 1716 441 
Q 2309 441 2620 675 
Q 2931 909 2931 1356 
Q 2931 1769 2642 2001 
Q 2353 2234 1838 2234 
L 1294 2234 
L 1294 2753 
L 1863 2753 
Q 2328 2753 2575 2939 
Q 2822 3125 2822 3475 
Q 2822 3834 2567 4026 
Q 2313 4219 1838 4219 
Q 1578 4219 1281 4162 
Q 984 4106 628 3988 
L 628 4550 
Q 988 4650 1302 4700 
Q 1616 4750 1894 4750 
Q 2613 4750 3031 4423 
Q 3450 4097 3450 3541 
Q 3450 3153 3228 2886 
Q 3006 2619 2597 2516 
z
" transform="scale(0.015625)"/>
      </defs>
      <use xlink:href="#DejaVuSans-33"/>
      <use xlink:href="#DejaVuSans-30" x="63.623047"/>
      <use xlink:href="#DejaVuSans-30" x="127.246094"/>
      <use xlink:href="#DejaVuSans-2e" x="190.869141"/>
      <use xlink:href="#DejaVuSans-30" x="222.65625"/>
     </g>
    </g>
    <g id="line2d_165">
     <path d="M 329.792656 157.317312 
L 339.792656 157.317312 
L 349.792656 157.317312 
" style="fill: none; stroke: #e377c2; stroke-width: 1.5; stroke-linecap: square"/>
    </g>
    <g id="text_25">
     <!-- 360.0 -->
     <g transform="translate(357.792656 160.817312) scale(0.1 -0.1)">
      <use xlink:href="#DejaVuSans-33"/>
      <use xlink:href="#DejaVuSans-36" x="63.623047"/>
      <use xlink:href="#DejaVuSans-30" x="127.246094"/>
      <use xlink:href="#DejaVuSans-2e" x="190.869141"/>
      <use xlink:href="#DejaVuSans-30" x="222.65625"/>
     </g>
    </g>
    <g id="line2d_166">
     <path d="M 329.792656 171.995437 
L 339.792656 171.995437 
L 349.792656 171.995437 
" style="fill: none; stroke: #7f7f7f; stroke-width: 1.5; stroke-linecap: square"/>
    </g>
    <g id="text_26">
     <!-- 420.0 -->
     <g transform="translate(357.792656 175.495437) scale(0.1 -0.1)">
      <use xlink:href="#DejaVuSans-34"/>
      <use xlink:href="#DejaVuSans-32" x="63.623047"/>
      <use xlink:href="#DejaVuSans-30" x="127.246094"/>
      <use xlink:href="#DejaVuSans-2e" x="190.869141"/>
      <use xlink:href="#DejaVuSans-30" x="222.65625"/>
     </g>
    </g>
    <g id="line2d_167">
     <path d="M 329.792656 186.673563 
L 339.792656 186.673563 
L 349.792656 186.673563 
" style="fill: none; stroke: #bcbd22; stroke-width: 1.5; stroke-linecap: square"/>
    </g>
    <g id="text_27">
     <!-- 480.0 -->
     <g transform="translate(357.792656 190.173563) scale(0.1 -0.1)">
      <use xlink:href="#DejaVuSans-34"/>
      <use xlink:href="#DejaVuSans-38" x="63.623047"/>
      <use xlink:href="#DejaVuSans-30" x="127.246094"/>
      <use xlink:href="#DejaVuSans-2e" x="190.869141"/>
      <use xlink:href="#DejaVuSans-30" x="222.65625"/>
     </g>
    </g>
    <g id="line2d_168">
     <path d="M 329.792656 201.351687 
L 339.792656 201.351687 
L 349.792656 201.351687 
" style="fill: none; stroke: #17becf; stroke-width: 1.5; stroke-linecap: square"/>
    </g>
    <g id="text_28">
     <!-- 540.0 -->
     <g transform="translate(357.792656 204.851687) scale(0.1 -0.1)">
      <use xlink:href="#DejaVuSans-35"/>
      <use xlink:href="#DejaVuSans-34" x="63.623047"/>
      <use xlink:href="#DejaVuSans-30" x="127.246094"/>
      <use xlink:href="#DejaVuSans-2e" x="190.869141"/>
      <use xlink:href="#DejaVuSans-30" x="222.65625"/>
     </g>
    </g>
    <g id="line2d_169">
     <path d="M 329.792656 216.029812 
L 339.792656 216.029812 
L 349.792656 216.029812 
" style="fill: none; stroke: #1f77b4; stroke-width: 1.5; stroke-linecap: square"/>
    </g>
    <g id="text_29">
     <!-- 600.0 -->
     <g transform="translate(357.792656 219.529812) scale(0.1 -0.1)">
      <use xlink:href="#DejaVuSans-36"/>
      <use xlink:href="#DejaVuSans-30" x="63.623047"/>
      <use xlink:href="#DejaVuSans-30" x="127.246094"/>
      <use xlink:href="#DejaVuSans-2e" x="190.869141"/>
      <use xlink:href="#DejaVuSans-30" x="222.65625"/>
     </g>
    </g>
    <g id="line2d_170">
     <path d="M 329.792656 230.707937 
L 339.792656 230.707937 
L 349.792656 230.707937 
" style="fill: none; stroke: #ff7f0e; stroke-width: 1.5; stroke-linecap: square"/>
    </g>
    <g id="text_30">
     <!-- 660.0 -->
     <g transform="translate(357.792656 234.207937) scale(0.1 -0.1)">
      <use xlink:href="#DejaVuSans-36"/>
      <use xlink:href="#DejaVuSans-36" x="63.623047"/>
      <use xlink:href="#DejaVuSans-30" x="127.246094"/>
      <use xlink:href="#DejaVuSans-2e" x="190.869141"/>
      <use xlink:href="#DejaVuSans-30" x="222.65625"/>
     </g>
    </g>
    <g id="line2d_171">
     <path d="M 329.792656 245.386062 
L 339.792656 245.386062 
L 349.792656 245.386062 
" style="fill: none; stroke: #2ca02c; stroke-width: 1.5; stroke-linecap: square"/>
    </g>
    <g id="text_31">
     <!-- 720.0 -->
     <g transform="translate(357.792656 248.886062) scale(0.1 -0.1)">
      <use xlink:href="#DejaVuSans-37"/>
      <use xlink:href="#DejaVuSans-32" x="63.623047"/>
      <use xlink:href="#DejaVuSans-30" x="127.246094"/>
      <use xlink:href="#DejaVuSans-2e" x="190.869141"/>
      <use xlink:href="#DejaVuSans-30" x="222.65625"/>
     </g>
    </g>
    <g id="line2d_172">
     <path d="M 329.792656 260.064187 
L 339.792656 260.064187 
L 349.792656 260.064187 
" style="fill: none; stroke: #d62728; stroke-width: 1.5; stroke-linecap: square"/>
    </g>
    <g id="text_32">
     <!-- 780.0 -->
     <g transform="translate(357.792656 263.564187) scale(0.1 -0.1)">
      <use xlink:href="#DejaVuSans-37"/>
      <use xlink:href="#DejaVuSans-38" x="63.623047"/>
      <use xlink:href="#DejaVuSans-30" x="127.246094"/>
      <use xlink:href="#DejaVuSans-2e" x="190.869141"/>
      <use xlink:href="#DejaVuSans-30" x="222.65625"/>
     </g>
    </g>
    <g id="line2d_173">
     <path d="M 329.792656 274.742312 
L 339.792656 274.742312 
L 349.792656 274.742312 
" style="fill: none; stroke: #9467bd; stroke-width: 1.5; stroke-linecap: square"/>
    </g>
    <g id="text_33">
     <!-- 840.0 -->
     <g transform="translate(357.792656 278.242312) scale(0.1 -0.1)">
      <use xlink:href="#DejaVuSans-38"/>
      <use xlink:href="#DejaVuSans-34" x="63.623047"/>
      <use xlink:href="#DejaVuSans-30" x="127.246094"/>
      <use xlink:href="#DejaVuSans-2e" x="190.869141"/>
      <use xlink:href="#DejaVuSans-30" x="222.65625"/>
     </g>
    </g>
    <g id="line2d_174">
     <path d="M 329.792656 289.420437 
L 339.792656 289.420437 
L 349.792656 289.420437 
" style="fill: none; stroke: #8c564b; stroke-width: 1.5; stroke-linecap: square"/>
    </g>
    <g id="text_34">
     <!-- 900.0 -->
     <g transform="translate(357.792656 292.920437) scale(0.1 -0.1)">
      <defs>
       <path id="DejaVuSans-39" d="M 703 97 
L 703 672 
Q 941 559 1184 500 
Q 1428 441 1663 441 
Q 2288 441 2617 861 
Q 2947 1281 2994 2138 
Q 2813 1869 2534 1725 
Q 2256 1581 1919 1581 
Q 1219 1581 811 2004 
Q 403 2428 403 3163 
Q 403 3881 828 4315 
Q 1253 4750 1959 4750 
Q 2769 4750 3195 4129 
Q 3622 3509 3622 2328 
Q 3622 1225 3098 567 
Q 2575 -91 1691 -91 
Q 1453 -91 1209 -44 
Q 966 3 703 97 
z
M 1959 2075 
Q 2384 2075 2632 2365 
Q 2881 2656 2881 3163 
Q 2881 3666 2632 3958 
Q 2384 4250 1959 4250 
Q 1534 4250 1286 3958 
Q 1038 3666 1038 3163 
Q 1038 2656 1286 2365 
Q 1534 2075 1959 2075 
z
" transform="scale(0.015625)"/>
      </defs>
      <use xlink:href="#DejaVuSans-39"/>
      <use xlink:href="#DejaVuSans-30" x="63.623047"/>
      <use xlink:href="#DejaVuSans-30" x="127.246094"/>
      <use xlink:href="#DejaVuSans-2e" x="190.869141"/>
      <use xlink:href="#DejaVuSans-30" x="222.65625"/>
     </g>
    </g>
   </g>
  </g>
 </g>
 <defs>
  <clipPath id="p42b4dd196a">
   <rect x="57.6" y="41.472" width="357.12" height="266.112"/>
  </clipPath>
 </defs>
</svg>
