<?xml version="1.0" encoding="UTF-8" standalone="no"?>
<!-- Created with Inkscape (http://www.inkscape.org/) -->

<svg
   width="1225.8328mm"
   height="182.00555mm"
   viewBox="0 0 1225.8328 182.00555"
   version="1.1"
   id="svg8"
   xmlns="http://www.w3.org/2000/svg"
   xmlns:svg="http://www.w3.org/2000/svg"
   xmlns:rdf="http://www.w3.org/1999/02/22-rdf-syntax-ns#"
   xmlns:cc="http://creativecommons.org/ns#"
   xmlns:dc="http://purl.org/dc/elements/1.1/">
  <defs
     id="defs2" />
  <metadata
     id="metadata5">
    <rdf:RDF>
      <cc:Work
         rdf:about="">
        <dc:format>image/svg+xml</dc:format>
        <dc:type
           rdf:resource="http://purl.org/dc/dcmitype/StillImage" />
      </cc:Work>
    </rdf:RDF>
  </metadata>
  <g
     id="layer1"
     transform="translate(-16.75513,159.7751)">
    <g
       aria-label="Open "
       transform="matrix(4.5754531,0,0,4.5754531,-68.357947,3929.2288)"
       style="font-style:normal;font-variant:normal;font-weight:normal;font-stretch:normal;font-size:40px;line-height:1.25;font-family:Purisa;-inkscape-font-specification:Purisa;letter-spacing:0px;word-spacing:0px;fill:#ffffff;fill-opacity:1;stroke:none"
       id="flowRoot3961">
      <path
         d="m 40.442109,-882.66414 q 0,3.24 -0.84,6.72 -0.8,3.44 -1.96,5.92 -1.12,2.48 -2.36,4.12 -1.2,1.6 -2,1.6 -0.64,0 -0.84,0.64 -0.12,0.36 -1.76,0.64 -1.6,0.32 -3.36,0.32 -1.08,0 -1.72,-0.28 -0.64,-0.24 -1.68,-1.04 -2.12,-1.68 -3.72,-5.24 -1.6,-3.6 -1.6,-6.76 0,-3.64 1.64,-7.24 1.64,-3.64 4.16,-5.44 2.4,-1.68 3.2,-1.68 0.52,0 1.64,-1.08 1.12,-1.08 1.8,-1.08 0.76,0 1.24,-0.52 0.52,-0.56 1.48,-0.56 3,0 4.84,3 1.84,2.96 1.84,7.96 z m -2.2,-0.76 q 0,-1.16 -1.16,-3.44 -1.12,-2.28 -1.56,-2.56 -0.48,-0.32 -1.52,-0.32 -1.76,0 -4.56,0.92 -6.08,1.92 -7.44,10.12 -0.4,2.48 -0.4,3.24 0,1.16 0.96,4 2.16,6.04 5.88,6.04 1.04,0 2.24,-0.48 1.4,-0.52 3.4,-3.48 2.04,-3 2.36,-4.96 0.2,-1.64 1,-4.96 0.8,-3.32 0.8,-4.12 z"
         id="path831"
         style="fill:#ffffff" />
      <path
         d="m 45.882061,-882.50414 q 1.12,-1 1.12,-1.72 0,-0.72 0.44,-1.72 0.48,-1.04 1.36,-1.04 0.56,0 0.96,0.64 0.44,0.6 0.92,0.6 0.36,0 2.96,-0.6 2.6,-0.64 4.56,-0.64 1.64,0 3.64,0.44 4.16,0.96 4.16,5.16 0,3.2 -2.48,8.52 -1.64,3.52 -4,5.44 -2.36,1.88 -5.04,1.88 -0.76,0 -1.16,-0.08 l -1.84,-0.28 0.44,2.16 q 1.44,6.8 1.44,8.52 0,0.8 -0.28,1.04 -0.28,0.28 -0.96,0.28 -0.72,0 -1.04,-0.36 -0.28,-0.32 -0.6,-1.4 -1.56,-5.6 -2.52,-16.72 -0.44,-5.48 -0.76,-6.68 -0.28,-1.24 -1.16,-1.24 -1.28,0 -1.28,-0.76 0,-0.44 1.12,-1.44 z m 5.96,13.28 q 0.6,0 1.4,0.52 0.8,0.48 1.36,0.48 1.6,0 3.68,-2.04 2.08,-2.08 3.52,-5 1.48,-2.92 1.48,-5.2 0,-1.24 -0.56,-2.24 -0.52,-1 -0.92,-1.12 -0.68,-0.28 -2.36,-0.28 -3.72,0 -6.6,0.92 l -2.68,0.88 0.08,2.56 q 0.08,2.56 0.44,6.52 0.2,2.36 0.44,3.16 0.24,0.8 0.72,0.84 z"
         id="path833"
         style="fill:#ffffff" />
      <path
         d="m 91.282012,-872.34414 q 0.2,0 0.2,0.32 0,0.72 -1.08,2.32 -1.04,1.6 -2.24,2.64 -4.2,3.72 -8.4,3.72 -1.6,0 -3.2,-0.72 -1.56,-0.76 -2.92,-2.12 -1.36,-1.36 -2.2,-3.64 -0.84,-2.28 -0.84,-5.08 0,-1.72 0.4,-2.92 0.8,-2.44 3.4,-5.16 2.64,-2.72 4.96,-2.72 0.64,0 1.92,0.12 1.92,0.16 2.68,0.4 0.8,0.24 1.8,1 1.28,0.96 2.2,2.48 0.96,1.48 0.96,2.48 0,1.28 -1,1.96 -1,0.64 -3.88,1.28 -3.76,0.84 -7.36,1.04 l -3.72,0.2 v 1.6 q 0,2.96 2.76,5.6 2.08,2 4.32,2 1.72,0 3.64,-1.04 1.96,-1.08 3.32,-2.36 1.36,-1.28 2.6,-2.32 1.24,-1.08 1.68,-1.08 z m -6.44,-9.76 q -1.24,-1.12 -1.88,-1.4 -0.6,-0.32 -1.6,-0.32 -2,0 -3,0.4 -0.96,0.36 -1.96,1.52 -3.04,3.48 -3.04,4.64 0,0.52 0.96,0.52 3.64,0 10.32,-1.52 2,-0.48 2,-1.68 0,-0.56 -1.8,-2.16 z"
         id="path835"
         style="fill:#ffffff" />
      <path
         d="m 98.281959,-885.38414 q 0,-1.36 0.8,-1.36 0.52,0 0.76,1.2 0.240001,1.16 0.880001,6.96 0.72,6.28 0.84,6.56 0.16,-0.16 1.16,-3.24 0.92,-2.88 1.44,-4 0.56,-1.16 1.92,-3.08 2.92,-4.04 4.52,-4.04 1.04,0 1.96,1.4 1.24,1.84 1.52,3.64 0.28,1.8 0.4,8.52 0.08,4.32 0.08,5.12 0,2 -0.16,2.92 -0.12,0.88 -0.4,1.08 -0.24,0.24 -0.88,0.28 -0.36,0 -0.48,-0.32 -0.12,-0.28 -0.12,-1.36 0,-0.6 0.08,-2.56 0.08,-2 0.08,-3.36 0,-3.4 -0.28,-6.64 -0.24,-3.28 -0.6,-4.2 -0.2,-0.52 -0.64,-1.08 -0.44,-0.56 -0.84,-0.56 -0.84,0 -2.68,2.88 -1.84,2.84 -3.16,6 -1.24,3.04 -1.68,4.56 -0.44,1.52 -0.68,4.04 -0.44,4.08 -0.64,4.08 -0.32,0 -0.92,-0.68 -0.44,-0.44 -0.600001,-1.88 -0.16,-1.48 -0.44,-5.8 -0.28,-4.36 -0.76,-8.8 -0.48,-4.6 -0.48,-6.28 z"
         id="path837"
         style="fill:#ffffff" />
    </g>
    <g
       aria-label="Terrace"
       transform="matrix(4.5754531,0,0,4.5754531,400.14693,3932.6206)"
       style="font-style:normal;font-variant:normal;font-weight:normal;font-stretch:normal;font-size:40px;line-height:1.25;font-family:Purisa;-inkscape-font-specification:Purisa;letter-spacing:0px;word-spacing:0px;fill:#ffffff;fill-opacity:1;stroke:none"
       id="flowRoot3961-9">
      <path
         d="m 25.002109,-888.54414 q -1.32,0 -2.76,0.32 -1.44,0.32 -1.88,0.32 -1,0 -1.72,-0.36 -0.68,-0.36 -0.68,-0.92 0,-0.68 0.88,-0.92 0.92,-0.28 4.8,-0.88 7.88,-1.2 15.08,-2.6 4.44,-0.84 5.76,-0.84 1.24,0 2.52,0.52 1.28,0.52 1.28,1.16 0,0.6 -1.04,1.04 -1.04,0.4 -2.76,0.4 -2.68,0 -5.72,0.72 l -3.08,0.72 0.6,3.36 q 0.44,3.12 1.04,11.96 0.64,8.8 0.76,9.84 0.12,1.04 0.12,1.56 0,1.24 -1.08,1.24 -1.04,0 -1.56,-2.6 -0.48,-2.6 -0.92,-10.2 -0.8,-12.96 -2.08,-14.32 -0.32,-0.32 -1.04,-0.32 -0.32,0 -2.76,0.4 -2.4,0.4 -3.76,0.4 z"
         id="path997"
         style="fill:#ffffff" />
      <path
         d="m 72.162062,-872.34414 q 0.2,0 0.2,0.32 0,0.72 -1.08,2.32 -1.04,1.6 -2.24,2.64 -4.2,3.72 -8.4,3.72 -1.6,0 -3.2,-0.72 -1.56,-0.76 -2.92,-2.12 -1.36,-1.36 -2.2,-3.64 -0.84,-2.28 -0.84,-5.08 0,-1.72 0.4,-2.92 0.8,-2.44 3.4,-5.16 2.64,-2.72 4.96,-2.72 0.64,0 1.92,0.12 1.92,0.16 2.68,0.4 0.8,0.24 1.8,1 1.28,0.96 2.2,2.48 0.96,1.48 0.96,2.48 0,1.28 -1,1.96 -1,0.64 -3.88,1.28 -3.76,0.84 -7.36,1.04 l -3.72,0.2 v 1.6 q 0,2.96 2.76,5.6 2.08,2 4.32,2 1.72,0 3.64,-1.04 1.96,-1.08 3.32,-2.36 1.36,-1.28 2.6,-2.32 1.24,-1.08 1.68,-1.08 z m -6.44,-9.76 q -1.24,-1.12 -1.88,-1.4 -0.6,-0.32 -1.6,-0.32 -2,0 -3,0.4 -0.96,0.36 -1.96,1.52 -3.04,3.48 -3.04,4.64 0,0.52 0.96,0.52 3.64,0 10.32,-1.52 2,-0.48 2,-1.68 0,-0.56 -1.8,-2.16 z"
         id="path999"
         style="fill:#ffffff" />
      <path
         d="m 90.682009,-883.18414 q 0.68,0 1.2,0.44 0.52,0.4 0.52,0.68 0,0.48 -1.52,1.08 -2.48,1 -5.08,4.84 -2.56,3.8 -3.12,7.36 -0.64,4.04 -1.04,5.28 -0.4,1.28 -1.04,1.28 -0.56,0 -0.88,-0.4 -0.28,-0.4 -0.4,-0.88 -0.08,-0.48 -0.2,-1.76 -0.04,-0.24 -0.04,-0.36 -0.96,-10.08 -0.96,-15.92 0,-2.08 0.16,-2.56 0.44,-1.28 1.12,-1.28 0.64,0 0.64,1.08 0,1.8 0.56,5.8 0.56,4 0.84,4 0.36,0 1.48,-2.2 1.4,-2.6 3.72,-4.52 2.36,-1.96 4.04,-1.96 z"
         id="path1001"
         style="fill:#ffffff" />
      <path
         d="m 111.72197,-883.18414 q 0.68,0 1.2,0.44 0.52,0.4 0.52,0.68 0,0.48 -1.52,1.08 -2.48,1 -5.08,4.84 -2.56,3.8 -3.12,7.36 -0.64,4.04 -1.04,5.28 -0.4,1.28 -1.04,1.28 -0.56,0 -0.88,-0.4 -0.28,-0.4 -0.4,-0.88 -0.08,-0.48 -0.2,-1.76 -0.04,-0.24 -0.04,-0.36 -0.959998,-10.08 -0.959998,-15.92 0,-2.08 0.16,-2.56 0.44,-1.28 1.119998,-1.28 0.64,0 0.64,1.08 0,1.8 0.56,5.8 0.56,4 0.84,4 0.36,0 1.48,-2.2 1.4,-2.6 3.72,-4.52 2.36,-1.96 4.04,-1.96 z"
         id="path1003"
         style="fill:#ffffff" />
      <path
         d="m 130.68193,-883.66414 q -1.84,0 -3.92,0.76 -2.04,0.76 -3.64,1.56 -1.6,0.76 -2.32,0.76 -0.48,0 -0.48,-0.4 0,-0.56 0.24,-0.96 0.24,-0.4 0.88,-0.76 0.64,-0.36 1.2,-0.6 0.6,-0.24 1.88,-0.68 1.28,-0.48 2.2,-0.88 2.16,-0.84 3.64,-0.84 2.64,0 4.12,2.88 0.72,1.4 0.84,2.6 0.12,1.16 0.2,6.6 0.04,3.04 0.12,5.12 0.08,2.04 0.16,2.6 l 0.08,0.52 q 0,0.56 -0.52,1.2 -0.48,0.64 -0.72,0.64 -0.8,0 -1.24,-2.52 -0.44,-2.56 -0.48,-2.56 -0.12,0 -0.36,0.44 -0.8,1.32 -3.24,2.92 -2.4,1.56 -4.04,1.56 -1,0 -2.36,-0.36 -1.32,-0.4 -1.92,-0.84 -0.44,-0.36 -0.76,-1.44 -0.28,-1.08 -0.28,-2.2 0,-1.68 0.88,-2.88 0.92,-1.24 3.24,-2.52 2.52,-1.48 4.88,-1.48 0.96,0 1.6,0.32 0.64,0.32 0.96,0.68 0.32,0.32 0.52,0.32 0.16,0 0.76,0.44 0.6,0.4 0.64,0.4 0.16,0 0.16,-0.88 0,-5.36 -0.76,-7.44 -0.72,-2.08 -2.16,-2.08 z m 1.8,12.4 q 0,-0.16 -0.12,-0.36 -0.08,-0.24 -0.4,-0.52 -0.28,-0.32 -0.76,-0.56 -0.44,-0.28 -1.24,-0.44 -0.8,-0.2 -1.8,-0.2 -1.72,0 -3.04,0.6 -1.28,0.6 -1.92,1.52 -0.64,0.92 -0.96,1.72 -0.28,0.76 -0.28,1.36 0,1 0.16,1.36 0.2,0.36 0.92,0.76 0.88,0.44 1.6,0.44 1.36,0 3.36,-0.96 2.04,-1 2.04,-1.44 0,-0.32 1.2,-1.52 1.24,-1.24 1.24,-1.76 z"
         id="path1005"
         style="fill:#ffffff" />
      <path
         d="m 158.64193,-879.82414 q 0,0.68 -0.32,1.12 -0.28,0.44 -0.68,0.44 -0.76,0 -0.96,-1.16 -0.08,-0.92 -1.32,-2.32 -0.52,-0.56 -0.84,-0.8 -0.32,-0.24 -1.52,-0.52 -1.16,-0.28 -3.08,-0.28 -1.56,0 -2.4,0.56 -0.8,0.56 -2,2.28 -2.88,4.08 -2.88,7.36 0,1.68 0.36,2.84 0.36,1.12 0.68,1.52 0.36,0.36 1.16,1.16 1.16,1.12 1.76,1.44 0.64,0.28 1.76,0.28 3.48,0 7.6,-4.72 2.16,-2.4 3.12,-2.4 0.52,0 0.52,0.76 0,0.72 -1.92,3.08 -1.88,2.36 -3.24,3.32 -3.16,2.28 -5.64,2.28 -1.8,0 -3.96,-1.08 -2.2,-1.08 -3.2,-2.92 -0.96,-1.84 -1.16,-5.36 -0.12,-1.36 -0.12,-2.16 0,-1.56 1.08,-3.56 1.12,-2.16 3.24,-4.16 2.16,-2 3.72,-2.44 1.2,-0.28 2.6,-0.28 3.04,0 5.32,1.96 2.32,1.92 2.32,3.76 z"
         id="path1007"
         style="fill:#ffffff" />
      <path
         d="m 183.92186,-872.34414 q 0.2,0 0.2,0.32 0,0.72 -1.08,2.32 -1.04,1.6 -2.24,2.64 -4.2,3.72 -8.4,3.72 -1.6,0 -3.2,-0.72 -1.56,-0.76 -2.92,-2.12 -1.36,-1.36 -2.2,-3.64 -0.84,-2.28 -0.84,-5.08 0,-1.72 0.4,-2.92 0.8,-2.44 3.4,-5.16 2.64,-2.72 4.96,-2.72 0.64,0 1.92,0.12 1.92,0.16 2.68,0.4 0.8,0.24 1.8,1 1.28,0.96 2.2,2.48 0.96,1.48 0.96,2.48 0,1.28 -1,1.96 -1,0.64 -3.88,1.28 -3.76,0.84 -7.36,1.04 l -3.72,0.2 v 1.6 q 0,2.96 2.76,5.6 2.08,2 4.32,2 1.72,0 3.64,-1.04 1.96,-1.08 3.32,-2.36 1.36,-1.28 2.6,-2.32 1.24,-1.08 1.68,-1.08 z m -6.44,-9.76 q -1.24,-1.12 -1.88,-1.4 -0.6,-0.32 -1.6,-0.32 -2,0 -3,0.4 -0.96,0.36 -1.96,1.52 -3.04,3.48 -3.04,4.64 0,0.52 0.96,0.52 3.64,0 10.32,-1.52 2,-0.48 2,-1.68 0,-0.56 -1.8,-2.16 z"
         id="path1009"
         style="fill:#ffffff" />
    </g>
    <g
       style="font-style:normal;font-weight:normal;font-size:10.5833px;line-height:1.25;font-family:sans-serif;letter-spacing:0px;word-spacing:0px;fill:#000000;fill-opacity:1;stroke:none;stroke-width:0.264583"
       id="text828" />
  </g>
</svg>
