<?xml version="1.0" encoding="utf-8"?>
<!-- Generator: Adobe Illustrator 27.9.0, SVG Export Plug-In . SVG Version: 6.00 Build 0)  -->
<svg version="1.1"
	 id="svg8" xmlns:rdf="http://www.w3.org/1999/02/22-rdf-syntax-ns#" xmlns:dc="http://purl.org/dc/elements/1.1/" xmlns:cc="http://creativecommons.org/ns#" xmlns:inkscape="http://www.inkscape.org/namespaces/inkscape" xmlns:sodipodi="http://sodipodi.sourceforge.net/DTD/sodipodi-0.dtd" xmlns:svg="http://www.w3.org/2000/svg" inkscape:export-filename="/home/jakob/Desktop/drawing.png"
	 xmlns="http://www.w3.org/2000/svg" xmlns:xlink="http://www.w3.org/1999/xlink" x="0px" y="0px" viewBox="0 0 3628.3 1814.2"
	 style="enable-background:new 0 0 3628.3 1814.2;" xml:space="preserve">
<style type="text/css">
	.st0{fill:#4CAE4F;}
</style>
<sodipodi:namedview  bordercolor="#666666" borderopacity="1.0" id="base" inkscape:current-layer="layer1" inkscape:cx="-760.71398" inkscape:cy="649.4879" inkscape:document-units="mm" inkscape:pageopacity="0.0" inkscape:pageshadow="2" inkscape:window-height="1376" inkscape:window-maximized="1" inkscape:window-width="2488" inkscape:window-x="72" inkscape:window-y="27" inkscape:zoom="0.175" pagecolor="#ffffff" showgrid="false">
	</sodipodi:namedview>
<g id="layer1" transform="translate(0,343)" inkscape:groupmode="layer" inkscape:label="Layer 1">
	
		<image style="overflow:visible;enable-background:new    ;" width="400" height="343" id="image5270" xlink:href="51A6A049.png"  transform="matrix(1.787692e-16 -2.9195 2.891 1.770201e-16 2380.4143 955.4309)">
	</image>
	<g id="flowRoot3961" transform="matrix(4.8645092,0,0,4.8645092,41.169762,4079.2931)">
		<path id="path831" class="st0" d="M130.2-834.2c0,6.1-0.8,12.5-2.4,19c-1.5,6.5-3.4,12.1-5.6,16.8c-2.1,4.7-4.3,8.6-6.7,11.7
			c-2.3,3-4.2,4.5-5.7,4.5c-1.2,0-2,0.6-2.4,1.8c-0.2,0.7-1.9,1.3-5,1.8c-3,0.6-6.2,0.9-9.5,0.9c-2,0-3.7-0.3-4.9-0.8
			c-1.2-0.5-2.8-1.4-4.8-2.9c-4-3.2-7.5-8.1-10.5-14.9c-3-6.8-4.5-13.2-4.5-19.2c0-6.9,1.5-13.7,4.6-20.5c3.1-6.9,7-12,11.8-15.4
			c4.5-3.2,7.6-4.8,9.1-4.8c1,0,2.5-1,4.6-3.1c2.1-2,3.8-3.1,5.1-3.1c1.4,0,2.6-0.5,3.5-1.5c1-1.1,2.4-1.6,4.2-1.6
			c5.7,0,10.2,2.8,13.7,8.5C128.4-851.1,130.2-843.6,130.2-834.2L130.2-834.2z M123.9-836.3c0-2.2-1.1-5.4-3.3-9.8
			c-2.1-4.3-3.6-6.7-4.4-7.3c-0.9-0.6-2.3-0.9-4.3-0.9c-3.3,0-7.6,0.9-12.9,2.6C87.5-848,80.5-838.4,77.9-823
			c-0.8,4.7-1.1,7.7-1.1,9.2c0,2.2,0.9,6,2.7,11.3c4.1,11.4,9.6,17.1,16.7,17.1c2,0,4.1-0.5,6.3-1.4c2.6-1,5.9-4.3,9.6-9.9
			c3.9-5.7,6.1-10.4,6.7-14.1c0.4-3.1,1.3-7.8,2.8-14.1C123.2-830.9,123.9-834.8,123.9-836.3L123.9-836.3z"/>
		<path id="path833" class="st0" d="M145.6-833.7c2.1-1.9,3.2-3.5,3.2-4.9c0-1.4,0.4-3,1.2-4.9c0.9-2,2.2-2.9,3.9-2.9
			c1.1,0,2,0.6,2.7,1.8c0.8,1.1,1.7,1.7,2.6,1.7c0.7,0,3.5-0.6,8.4-1.7c4.9-1.2,9.2-1.8,12.9-1.8c3.1,0,6.5,0.4,10.3,1.2
			c7.9,1.8,11.8,6.7,11.8,14.6c0,6-2.3,14.1-7,24.2c-3.1,6.7-6.9,11.8-11.3,15.4c-4.5,3.6-9.2,5.3-14.3,5.3c-1.4,0-2.5-0.1-3.3-0.2
			l-5.2-0.8l1.2,6.1c2.7,12.9,4.1,20.9,4.1,24.2c0,1.5-0.3,2.5-0.8,2.9c-0.5,0.5-1.4,0.8-2.7,0.8c-1.4,0-2.3-0.3-2.9-1
			c-0.5-0.6-1.1-1.9-1.7-4c-2.9-10.6-5.3-26.4-7.1-47.4c-0.8-10.4-1.5-16.7-2.2-18.9c-0.5-2.3-1.6-3.5-3.3-3.5
			c-2.4,0-3.6-0.7-3.6-2.2C142.4-830.5,143.5-831.8,145.6-833.7L145.6-833.7z M162.5-796.1c1.1,0,2.5,0.5,4,1.5
			c1.5,0.9,2.8,1.4,3.9,1.4c3,0,6.5-1.9,10.4-5.8c3.9-3.9,7.3-8.7,10-14.2c2.8-5.5,4.2-10.4,4.2-14.7c0-2.3-0.5-4.5-1.6-6.3
			c-1-1.9-1.9-2.9-2.6-3.2c-1.3-0.5-3.5-0.8-6.7-0.8c-7,0-13.3,0.9-18.7,2.6l-7.6,2.5l0.2,7.3c0.2,4.8,0.6,11,1.2,18.5
			c0.4,4.5,0.8,7.4,1.2,9S161.6-796.2,162.5-796.1L162.5-796.1z"/>
		<path id="path835" class="st0" d="M274.3-804.9c0.4,0,0.6,0.3,0.6,0.9c0,1.4-1,3.6-3.1,6.6c-2,3-4.1,5.5-6.3,7.5
			c-7.9,7-15.9,10.5-23.8,10.5c-3,0-6-0.7-9.1-2c-2.9-1.4-5.7-3.4-8.3-6c-2.6-2.6-4.6-6-6.2-10.3c-1.6-4.3-2.4-9.1-2.4-14.4
			c0-3.3,0.4-6,1.1-8.3c1.5-4.6,4.7-9.5,9.6-14.6c5-5.1,9.7-7.7,14.1-7.7c1.2,0,3,0.1,5.4,0.3c3.6,0.3,6.2,0.7,7.6,1.1
			c1.5,0.5,3.2,1.4,5.1,2.8c2.4,1.8,4.5,4.2,6.2,7c1.8,2.8,2.7,5.1,2.7,7c0,2.4-0.9,4.3-2.8,5.6c-1.9,1.2-5.6,2.4-11,3.6
			c-7.1,1.6-14.1,2.6-20.9,2.9l-10.5,0.6v4.5c0,5.6,2.6,10.9,7.8,15.9c3.9,3.8,8,5.7,12.2,5.7c3.3,0,6.7-1,10.3-2.9
			c3.7-2,6.8-4.3,9.4-6.7c2.6-2.4,5-4.6,7.4-6.6C271.9-803.9,273.4-804.9,274.3-804.9L274.3-804.9z M256-832.6
			c-2.3-2.1-4.1-3.4-5.3-4c-1.1-0.6-2.6-0.9-4.5-0.9c-3.8,0-6.6,0.4-8.5,1.1c-1.8,0.7-3.7,2.1-5.6,4.3c-5.7,6.6-8.6,11-8.6,13.2
			c0,1,0.9,1.5,2.7,1.5c6.9,0,16.6-1.4,29.3-4.3c3.8-0.9,5.7-2.5,5.7-4.8C261.1-827.5,259.4-829.6,256-832.6L256-832.6z"/>
		<path id="path837" class="st0" d="M294.1-841.9c0-2.6,0.8-3.9,2.3-3.9c1,0,1.7,1.1,2.2,3.4c0.5,2.2,1.3,8.8,2.5,19.7
			c1.4,11.9,2.2,18.1,2.4,18.6c0.3-0.3,1.4-3.4,3.3-9.2c1.7-5.4,3.1-9.2,4.1-11.3c1.1-2.2,2.9-5.1,5.4-8.7
			c5.5-7.6,9.8-11.5,12.8-11.5c2,0,3.8,1.3,5.6,4c2.3,3.5,3.8,6.9,4.3,10.3c0.5,3.4,0.9,11.5,1.1,24.2c0.2,8.2,0.2,13,0.2,14.5
			c0,3.8-0.2,6.5-0.5,8.3c-0.2,1.7-0.6,2.7-1.1,3.1c-0.5,0.5-1.3,0.7-2.5,0.8c-0.7,0-1.1-0.3-1.4-0.9c-0.2-0.5-0.3-1.8-0.3-3.9
			c0-1.1,0.1-3.6,0.2-7.3c0.2-3.8,0.2-7,0.2-9.5c0-6.4-0.3-12.7-0.8-18.8c-0.5-6.2-1-10.2-1.7-11.9c-0.4-1-1-2-1.8-3.1
			c-0.8-1.1-1.6-1.6-2.4-1.6c-1.6,0-4.1,2.7-7.6,8.2c-3.5,5.4-6.5,11-9,17c-2.3,5.7-3.9,10.1-4.8,12.9c-0.8,2.9-1.5,6.7-1.9,11.5
			c-0.8,7.7-1.4,11.6-1.8,11.6c-0.6,0-1.5-0.6-2.6-1.9c-0.8-0.8-1.4-2.6-1.7-5.3c-0.3-2.8-0.7-8.3-1.2-16.4
			c-0.5-8.2-1.2-16.6-2.2-24.9C294.6-832.8,294.1-838.7,294.1-841.9L294.1-841.9z"/>
	</g>
	<g id="flowRoot4788" transform="matrix(0.57230164,0,0,0.57230164,219.42434,731.77189)">
		<path id="path840" class="st0" d="M18.6,748.2H2.9l-20.1-55.6h-74.5l-19.6,55.6H-127l65.6-176.1h14.5L18.6,748.2z M-21.5,680.5
			l-32.7-92.4l-33.1,92.4H-21.5z"/>
		<path id="path842" class="st0" d="M207.3,567.3l-4.1,10.4c-5.5-2.7-11.4-4.1-17.9-4.1c-19.2,0-28.8,15.4-28.8,46.2v4.8h35.3v10.9
			h-35.3v112.7h-14.5V635.5h-20.6v-10.9h21v-4.8c0-38.9,14.7-58.3,44-58.3C195.6,561.5,202.6,563.4,207.3,567.3L207.3,567.3z"/>
		<path id="path844" class="st0" d="M254.4,751.6c-11,0-20.3-3.1-28.1-9.4c-7.6-6.5-11.4-14.8-11.4-24.9c0-30.8,27.4-46.2,82.2-46.2
			c0-11.8-2.8-20.9-8.5-27.3c-5.6-6.5-13.9-9.7-24.9-9.7c-8.9,0-22,2.7-39.4,8.2l-1.7-13.8c13.5-4.4,27.6-6.5,42.1-6.5
			c31.3,0,46.9,17.3,46.9,51.8V718c0,10.2,1.5,20.2,4.4,30.2l-12.6,2.7l-5.1-20.1C287.3,744.6,272.6,751.6,254.4,751.6L254.4,751.6z
			 M229.5,714.8c0,7.6,2.3,13.6,7,18.1c4.7,4.4,10.8,6.5,18.4,6.5c9.7,0,19.1-3,28.3-8.9c9.4-6.1,14-13.5,14-22.3v-25.2
			C252.1,683.1,229.5,693.7,229.5,714.8z"/>
		<path id="path846" class="st0" d="M395.4,634c-6.8,0-12.4,1.9-16.9,5.8c-4.5,3.7-6.8,8.6-6.8,14.8c0,4.5,2.3,9,7,13.3
			c4.8,4.4,11.6,8.1,20.3,11.1c22.1,7.6,33.1,19.8,33.1,36.5c0,11.3-4.3,20.2-12.8,26.6c-8.4,6.3-19,9.4-31.9,9.4
			c-11.9,0-23.5-3.3-34.8-9.9l5.3-11.6c11.6,6.3,21.9,9.4,30.7,9.4c19.4,0,29-7.7,29-23c0-5.6-2.3-10.7-7-15.2
			c-4.5-4.7-11.3-8.4-20.3-11.1c-22.1-6.8-33.1-18-33.1-33.6c0-10.5,3.9-18.9,11.6-25.2c7.9-6.3,17.7-9.4,29.3-9.4
			c12.7,0,22.9,2.8,30.5,8.5l-5.8,12.3C415.5,636.9,406.4,634,395.4,634L395.4,634z"/>
		<path id="path848" class="st0" d="M514.4,751.6c-10,0-17.8-3.7-23.5-11.1c-5.5-7.6-8.2-17.1-8.2-28.5v-76.4H458v-10.9h24.7v-36.8
			l14.5-6.5v43.3h39.4v10.9h-39.4v76.4c0,18.4,6.1,27.6,18.4,27.6c7.6,0,13.1-0.7,16.7-2.2l1.5,10.9
			C528.7,750.5,522.3,751.6,514.4,751.6L514.4,751.6z"/>
		<path id="path850" class="st0" d="M584.7,723.5c3.9,0,7.1,1.5,9.7,4.4c2.6,2.9,3.9,6.4,3.9,10.4c-0.3,10.3-3.3,20.2-8.9,29.8
			c-5.5,9.5-12.1,16.1-19.8,19.8l-5.1-5.6c12.6-8.4,19.6-18.9,21-31.4c-3.7,0-7-1.4-9.9-4.1c-2.7-2.7-4.1-5.9-4.1-9.4
			c0-3.7,1.3-6.9,3.9-9.7C578,724.9,581.2,723.5,584.7,723.5L584.7,723.5z"/>
		<path id="path852" class="st0" d="M853.9,738.3l-1.5,12.6c-30.6-1.5-46-23.1-46-64.8V577.2c-4.8-2.4-10.8-3.6-17.9-3.6
			c-26,0-38.9,15.2-38.9,45.5v5.6h35.3v10.9h-35.3v112.7h-14.5V635.5H717v-10.9h18.1V621c0-18.4,5-32.9,15-43.5
			c10-10.6,23.8-16,41.4-16c9.8,0,19.7,2.4,29.5,7.3v111.8c0,7.4,0.2,13.8,0.7,19.1c0.5,5.3,1.4,10.6,2.7,15.7
			c1.3,5,3.1,9.1,5.6,12.3c2.4,3.1,5.6,5.6,9.4,7.5C843.4,737.1,848.2,738.1,853.9,738.3L853.9,738.3z"/>
		<path id="path854" class="st0" d="M907.3,687.5c0.5,15.6,5.2,28.2,14,37.7c9,9.5,21,14.3,36,14.3c14,0,28.5-2.9,43.3-8.7l1.2,11.9
			c-14.4,6-29.7,9-46,8.9c-18.5,0-33.7-5.7-45.5-17.2c-11.8-11.6-17.7-26.5-17.7-44.7c0-19.5,5.6-35.6,16.9-48.4
			c11.4-12.9,26.4-19.4,44.7-19.4c34.7,0,52.4,21.9,53.2,65.6L907.3,687.5z M993.2,675.4c-0.3-12.6-4.2-22.6-11.6-30
			c-7.3-7.6-16.9-11.4-28.8-11.4s-21.9,4-30,11.9c-8.1,7.7-13,17.6-14.8,29.5L993.2,675.4z"/>
		<path id="path856" class="st0" d="M1145.8,748.2h-16.7l-41.4-53.5l-41.1,53.5h-16.4l50.3-62.9l-46.9-60.7h16l39.2,50.1l38.9-50.1
			h15.7l-47.4,60.2L1145.8,748.2z"/>
		<path id="path858" class="st0" d="M1190.2,748.2h-14.5V624.6h14.5V748.2z M1182.5,575.5c3.4,0,6.1,1.1,8.2,3.4
			c2.3,2.1,3.4,4.8,3.4,8.2s-1.1,6.1-3.4,8.2c-2.1,1.9-4.8,2.9-8.2,2.9s-6.1-1-8.2-2.9c-1.9-2.1-2.9-4.8-2.9-8.2
			c0-3.4,1-6.1,2.9-8.2C1176.4,576.6,1179.1,575.5,1182.5,575.5z"/>
		<path id="path860" class="st0" d="M1300.5,621.9c17.1,0,30.6,6,40.6,17.9c10,11.8,15,26.8,15,45c0,19.5-5.2,35.6-15.5,48.1
			c-10.3,12.4-24.4,18.6-42.3,18.6c-19.2,0-34.5-8.4-46-25.2c0,8.2-0.2,15.5-0.7,21.8h-13.3c0.6-5.6,1-15.7,1-30.2V564.4h14.5v83.7
			C1264.5,630.6,1280,621.9,1300.5,621.9L1300.5,621.9z M1253.8,698.6c0,11.6,4.1,21.4,12.3,29.3c8.2,7.7,18.3,11.6,30.2,11.6
			c30.2,0,45.2-18.1,45.2-54.2c0-15.3-3.8-27.7-11.4-37c-7.6-9.5-18.4-14.3-32.4-14.3c-12.3,0-22.7,4.3-31.2,12.8
			c-8.5,8.5-12.8,18.9-12.8,31.2V698.6z"/>
		<path id="path862" class="st0" d="M1443.9,739.5l-1.5,12.1c-30.6-1.5-46-23.3-46-65.6V564.4h14.5V681c0,9.2,0.4,16.9,1.2,23.2
			c0.8,6.3,2.3,12.3,4.4,18.1c2.3,5.8,5.6,10.2,10.2,13.1C1431.3,738.1,1437,739.5,1443.9,739.5L1443.9,739.5z"/>
		<path id="path864" class="st0" d="M1486,687.5c0.5,15.6,5.2,28.2,14,37.7c9,9.5,21,14.3,36,14.3c14,0,28.5-2.9,43.3-8.7l1.2,11.9
			c-14.4,6-29.7,9-46,8.9c-18.5,0-33.7-5.7-45.5-17.2c-11.8-11.6-17.7-26.5-17.7-44.7c0-19.5,5.6-35.6,16.9-48.4
			c11.4-12.9,26.4-19.4,44.7-19.4c34.7,0,52.4,21.9,53.2,65.6L1486,687.5z M1571.8,675.4c-0.3-12.6-4.2-22.6-11.6-30
			c-7.3-7.6-16.9-11.4-28.8-11.4c-11.9,0-21.9,4-30,11.9c-8.1,7.7-13,17.6-14.8,29.5L1571.8,675.4z"/>
		<path id="path866" class="st0" d="M1747.4,751.6c-11,0-20.3-3.1-28.1-9.4c-7.6-6.5-11.4-14.8-11.4-24.9
			c0-30.8,27.4-46.2,82.2-46.2c0-11.8-2.8-20.9-8.5-27.3c-5.6-6.5-13.9-9.7-24.9-9.7c-8.9,0-22,2.7-39.4,8.2l-1.7-13.8
			c13.5-4.4,27.6-6.5,42.1-6.5c31.3,0,46.9,17.3,46.9,51.8V718c0,10.2,1.5,20.2,4.4,30.2l-12.6,2.7l-5.1-20.1
			C1780.3,744.6,1765.6,751.6,1747.4,751.6L1747.4,751.6z M1722.5,714.8c0,7.6,2.3,13.6,7,18.1c4.7,4.4,10.8,6.5,18.4,6.5
			c9.7,0,19.1-3,28.3-8.9c9.4-6.1,14-13.5,14-22.3v-25.2C1745.1,683.1,1722.5,693.7,1722.5,714.8z"/>
		<path id="path868" class="st0" d="M1957.8,748.2h-14.5V678c0-29.3-12.3-44-36.8-44c-9.7,0-18.5,4.1-26.4,12.3
			c-7.9,8.2-11.9,17.2-11.9,26.8v75h-14.5v-93.1c0-7.3-0.8-17.4-2.4-30.5h13.5c1.6,5,2.6,12.3,2.9,22c9.4-16.4,23.2-24.7,41.6-24.7
			c32.3,0,48.4,18.7,48.4,56.1V748.2z"/>
		<path id="path870" class="st0" d="M1998.2,684.8c0-18.1,5-33.1,15-45c10.2-11.9,23.7-17.9,40.6-17.9c20.5,0,36,8.7,46.7,26.1
			v-83.7h14.5V718c0,14.5,0.3,24.6,1,30.2h-13.3c-0.5-6.3-0.7-13.5-0.7-21.8c-11.4,16.8-26.8,25.2-46,25.2
			c-18.1,0-32.3-6.2-42.6-18.6C2003.3,720.4,1998.2,704.3,1998.2,684.8L1998.2,684.8z M2057.9,739.5c11.9,0,22-3.9,30.2-11.6
			c8.2-7.9,12.3-17.7,12.3-29.3V678c0-12.4-4.3-22.8-12.8-31.2c-8.4-8.5-18.8-12.8-31.2-12.8c-14,0-24.8,4.8-32.4,14.3
			c-7.6,9.5-11.4,21.9-11.4,37C2012.7,721.4,2027.8,739.5,2057.9,739.5L2057.9,739.5z"/>
		<path id="path872" class="st0" d="M2259.4,687.5c0.5,15.6,5.2,28.2,14,37.7c9,9.5,21,14.3,36,14.3c14,0,28.5-2.9,43.3-8.7
			l1.2,11.9c-14.4,6-29.7,9-46,8.9c-18.5,0-33.7-5.7-45.5-17.2c-11.8-11.6-17.7-26.5-17.7-44.7c0-19.5,5.6-35.6,16.9-48.4
			c11.4-12.9,26.4-19.4,44.7-19.4c34.7,0,52.4,21.9,53.2,65.6L2259.4,687.5z M2345.2,675.4c-0.3-12.6-4.2-22.6-11.6-30
			c-7.3-7.6-16.9-11.4-28.8-11.4c-11.9,0-21.9,4-30,11.9c-8.1,7.7-13,17.6-14.8,29.5L2345.2,675.4z"/>
		<path id="path874" class="st0" d="M2497.8,748.2h-16.7l-41.4-53.5l-41.1,53.5h-16.4l50.3-62.9l-46.9-60.7h16l39.2,50.1l38.9-50.1
			h15.7l-47.4,60.2L2497.8,748.2z"/>
		<path id="path876" class="st0" d="M2567.7,751.6c-10,0-17.8-3.7-23.5-11.1c-5.5-7.6-8.2-17.1-8.2-28.5v-76.4h-24.7v-10.9h24.7
			v-36.8l14.5-6.5v43.3h39.4v10.9h-39.4v76.4c0,18.4,6.1,27.6,18.4,27.6c7.6,0,13.1-0.7,16.7-2.2l1.5,10.9
			C2582.1,750.5,2575.6,751.6,2567.7,751.6L2567.7,751.6z"/>
		<path id="path878" class="st0" d="M2631.3,687.5c0.5,15.6,5.2,28.2,14,37.7c9,9.5,21,14.3,36,14.3c14,0,28.5-2.9,43.3-8.7
			l1.2,11.9c-14.4,6-29.7,9-46,8.9c-18.5,0-33.7-5.7-45.5-17.2c-11.8-11.6-17.7-26.5-17.7-44.7c0-19.5,5.6-35.6,16.9-48.4
			c11.4-12.9,26.4-19.4,44.7-19.4c34.7,0,52.4,21.9,53.2,65.6L2631.3,687.5z M2717.2,675.4c-0.3-12.6-4.2-22.6-11.6-30
			c-7.3-7.6-16.9-11.4-28.8-11.4s-21.9,4-30,11.9c-8.1,7.7-13,17.6-14.8,29.5L2717.2,675.4z"/>
		<path id="path880" class="st0" d="M2877,748.2h-14.5V678c0-29.3-12.3-44-36.8-44c-9.7,0-18.5,4.1-26.4,12.3
			c-7.9,8.2-11.9,17.2-11.9,26.8v75H2773v-93.1c0-7.3-0.8-17.4-2.4-30.5h13.5c1.6,5,2.6,12.3,2.9,22c9.4-16.4,23.2-24.7,41.6-24.7
			c32.3,0,48.4,18.7,48.4,56.1V748.2z"/>
		<path id="path882" class="st0" d="M2917.4,684.8c0-18.1,5-33.1,15-45c10.2-11.9,23.7-17.9,40.6-17.9c20.5,0,36,8.7,46.7,26.1
			v-83.7h14.5V718c0,14.5,0.3,24.6,1,30.2h-13.3c-0.5-6.3-0.7-13.5-0.7-21.8c-11.4,16.8-26.8,25.2-46,25.2
			c-18.1,0-32.3-6.2-42.6-18.6C2922.5,720.4,2917.4,704.3,2917.4,684.8L2917.4,684.8z M2977.1,739.5c11.9,0,22-3.9,30.2-11.6
			c8.2-7.9,12.3-17.7,12.3-29.3V678c0-12.4-4.3-22.8-12.8-31.2c-8.4-8.5-18.8-12.8-31.2-12.8c-14,0-24.8,4.8-32.4,14.3
			c-7.6,9.5-11.4,21.9-11.4,37C2931.9,721.4,2947,739.5,2977.1,739.5L2977.1,739.5z"/>
		<path id="path884" class="st0" d="M3113.3,751.6c-11,0-20.3-3.1-28.1-9.4c-7.6-6.5-11.4-14.8-11.4-24.9
			c0-30.8,27.4-46.2,82.2-46.2c0-11.8-2.8-20.9-8.5-27.3c-5.6-6.5-13.9-9.7-24.9-9.7c-8.9,0-22,2.7-39.4,8.2l-1.7-13.8
			c13.5-4.4,27.6-6.5,42.1-6.5c31.3,0,46.9,17.3,46.9,51.8V718c0,10.2,1.5,20.2,4.4,30.2l-12.6,2.7l-5.1-20.1
			C3146.2,744.6,3131.5,751.6,3113.3,751.6L3113.3,751.6z M3088.4,714.8c0,7.6,2.3,13.6,7,18.1c4.7,4.4,10.8,6.5,18.4,6.5
			c9.7,0,19.1-3,28.3-8.9c9.4-6.1,14-13.5,14-22.3v-25.2C3110.9,683.1,3088.4,693.7,3088.4,714.8L3088.4,714.8z"/>
		<path id="path886" class="st0" d="M3280.9,621.9c17.1,0,30.6,6,40.6,17.9c10,11.8,15,26.8,15,45c0,19.5-5.2,35.6-15.5,48.1
			c-10.3,12.4-24.4,18.6-42.3,18.6c-19.2,0-34.5-8.4-46-25.2c0,8.2-0.2,15.5-0.7,21.8h-13.3c0.6-5.6,1-15.7,1-30.2V564.4h14.5v83.7
			C3244.8,630.6,3260.4,621.9,3280.9,621.9L3280.9,621.9z M3234.2,698.6c0,11.6,4.1,21.4,12.3,29.3c8.2,7.7,18.3,11.6,30.2,11.6
			c30.2,0,45.2-18.1,45.2-54.2c0-15.3-3.8-27.7-11.4-37c-7.6-9.5-18.4-14.3-32.4-14.3c-12.3,0-22.7,4.3-31.2,12.8
			c-8.5,8.5-12.8,18.9-12.8,31.2L3234.2,698.6z"/>
		<path id="path888" class="st0" d="M3424.3,739.5l-1.5,12.1c-30.6-1.5-46-23.3-46-65.6V564.4h14.5V681c0,9.2,0.4,16.9,1.2,23.2
			c0.8,6.3,2.3,12.3,4.4,18.1c2.3,5.8,5.6,10.2,10.2,13.1C3411.6,738.1,3417.4,739.5,3424.3,739.5L3424.3,739.5z"/>
		<path id="path890" class="st0" d="M3466.3,687.5c0.5,15.6,5.2,28.2,14,37.7c9,9.5,21,14.3,36,14.3c14,0,28.5-2.9,43.3-8.7
			l1.2,11.9c-14.4,6-29.7,9-46,8.9c-18.5,0-33.7-5.7-45.5-17.2c-11.8-11.6-17.7-26.5-17.7-44.7c0-19.5,5.6-35.6,16.9-48.4
			c11.4-12.9,26.4-19.4,44.7-19.4c34.7,0,52.4,21.9,53.2,65.6L3466.3,687.5z M3552.2,675.4c-0.3-12.6-4.2-22.6-11.6-30
			c-7.3-7.6-16.9-11.4-28.8-11.4s-21.9,4-30,11.9c-8.1,7.7-13,17.6-14.8,29.5L3552.2,675.4z"/>
		<path id="path892" class="st0" d="M3740.3,572.1c17.9,0,33.1,4.6,45.5,13.8c12.4,9,18.6,21.3,18.6,36.8c0,17.4-6.5,31-19.6,40.6
			c-13.1,9.5-29.6,14.3-49.6,14.3c-7.6,0-15-0.7-22.3-2.2v72.8h-14.5V576C3714,573.4,3727.9,572.1,3740.3,572.1z M3789.9,623.6
			c0-26.3-16.6-39.4-49.8-39.4c-12.4,0-21.4,0.6-27.1,1.7v76.9c6.8,1.8,15.2,2.7,25.2,2.7c16.3,0,28.9-3.7,38-11.1
			C3785.3,646.8,3789.9,636.5,3789.9,623.6L3789.9,623.6z"/>
		<path id="path894" class="st0" d="M3894.6,748.2c-14.4,32.3-33.4,51.2-57.1,56.8l-3.4-11.4c20.6-4.7,36.3-21.2,46.9-49.6
			c0-1.5-0.3-2.9-1-4.4l-51.3-115.1h15.2l46.2,104.7l43.3-104.7h15.5L3894.6,748.2z"/>
		<path id="path896" class="st0" d="M4019.9,751.6c-10,0-17.8-3.7-23.5-11.1c-5.5-7.6-8.2-17.1-8.2-28.5v-76.4h-24.7v-10.9h24.7
			v-36.8l14.5-6.5v43.3h39.4v10.9h-39.4v76.4c0,18.4,6.1,27.6,18.4,27.6c7.6,0,13.1-0.7,16.7-2.2l1.5,10.9
			C4034.3,750.5,4027.8,751.6,4019.9,751.6L4019.9,751.6z"/>
		<path id="path898" class="st0" d="M4181.9,678v70.1h-14.5V678c0-29.3-12.3-44-36.8-44c-9.7,0-18.5,4.1-26.4,12.3
			c-7.9,8.2-11.9,17.2-11.9,26.8v75h-14.5V564.4h14.5v82.2c10-16.4,23.7-24.7,41.1-24.7C4165.8,621.9,4181.9,640.6,4181.9,678
			L4181.9,678z"/>
		<path id="path900" class="st0" d="M4346.9,686.8c0,18.4-5.9,33.8-17.7,46.2c-11.6,12.4-26.5,18.6-44.8,18.6
			c-18.4,0-33.4-6.1-45-18.4c-11.6-12.4-17.4-27.9-17.4-46.4c0-18.4,5.9-33.8,17.7-46.2c11.8-12.4,26.7-18.6,44.7-18.6
			c18.2,0,33.1,6.2,44.8,18.6C4341,653,4346.9,668.4,4346.9,686.8z M4284.5,739.5c14,0,25.5-5.1,34.3-15.2
			c9-10.2,13.5-22.7,13.5-37.5s-4.4-27.3-13.3-37.5c-8.9-10.2-20.4-15.2-34.6-15.2c-14,0-25.6,5.1-34.6,15.2
			c-8.9,10.2-13.3,22.7-13.3,37.5c0,14.8,4.4,27.3,13.3,37.5C4258.9,734.4,4270.4,739.5,4284.5,739.5L4284.5,739.5z"/>
		<path id="path902" class="st0" d="M4491,748.2h-14.5V678c0-29.3-12.3-44-36.8-44c-9.7,0-18.5,4.1-26.4,12.3
			c-7.9,8.2-11.9,17.2-11.9,26.8v75H4387v-93.1c0-7.3-0.8-17.4-2.4-30.5h13.5c1.6,5,2.6,12.3,2.9,22c9.4-16.4,23.2-24.7,41.6-24.7
			c32.3,0,48.4,18.7,48.4,56.1V748.2z"/>
		<path id="path904" class="st0" d="M4698.7,567.3l-4.1,10.4c-5.5-2.7-11.4-4.1-17.9-4.1c-19.2,0-28.8,15.4-28.8,46.2v4.8h35.3v10.9
			h-35.3v112.7h-14.5V635.5h-20.6v-10.9h21v-4.8c0-38.9,14.7-58.3,44-58.3C4687.1,561.5,4694.1,563.4,4698.7,567.3L4698.7,567.3z"/>
		<path id="path906" class="st0" d="M4772.7,634.5c-1-0.3-2.4-0.5-4.4-0.5c-10.6,0-19.7,4.4-27.1,13.1c-7.3,8.5-10.9,20.1-10.9,34.6
			v66.5h-14.5V665c0-18.2-1.2-31.7-3.6-40.4h12.3c2.6,5.2,3.9,13.4,3.9,24.7c7.7-18.2,20.2-27.3,37.3-27.3c2.3,0,4.6,0.2,7,0.7
			V634.5z"/>
		<path id="path908" class="st0" d="M4836.1,751.6c-11,0-20.3-3.1-28.1-9.4c-7.6-6.5-11.4-14.8-11.4-24.9
			c0-30.8,27.4-46.2,82.2-46.2c0-11.8-2.8-20.9-8.5-27.3c-5.6-6.5-13.9-9.7-24.9-9.7c-8.9,0-22,2.7-39.4,8.2l-1.7-13.8
			c13.5-4.4,27.6-6.5,42.1-6.5c31.3,0,46.9,17.3,46.9,51.8V718c0,10.2,1.5,20.2,4.4,30.2l-12.6,2.7l-5.1-20.1
			C4869,744.6,4854.3,751.6,4836.1,751.6L4836.1,751.6z M4811.2,714.8c0,7.6,2.3,13.6,7,18.1c4.7,4.4,10.8,6.5,18.4,6.5
			c9.7,0,19.1-3,28.3-8.9c9.4-6.1,14-13.5,14-22.3v-25.2C4833.7,683.1,4811.2,693.7,4811.2,714.8L4811.2,714.8z"/>
		<path id="path910" class="st0" d="M5079.6,621.9c14.4,0,25.2,5.4,32.7,16.2c7.4,10.8,11.1,24.6,11.1,41.4v68.7h-14.5v-68.5
			c0-13.5-2.7-24.5-8.2-32.9c-5.3-8.5-13.6-12.8-24.9-12.8c-9.2,0-17.4,3.6-24.7,10.9c-7.3,7.3-10.9,15.5-10.9,24.7v78.6h-14.5v-75
			c0-26.1-10.4-39.2-31.2-39.2c-9.5,0-18.1,4.1-25.9,12.3c-7.7,8.2-11.6,17.2-11.6,26.8v75h-14.5v-93.1c0-7.3-0.8-17.4-2.4-30.5
			h13.3c1.6,5,2.6,12.3,2.9,22c9.4-16.4,23.2-24.7,41.6-24.7c16.8,0,29.3,9.2,37.5,27.6C5045,631.1,5059.8,621.9,5079.6,621.9
			L5079.6,621.9z"/>
		<path id="path912" class="st0" d="M5178,687.5c0.5,15.6,5.2,28.2,14,37.7c9,9.5,21,14.3,36,14.3c14,0,28.5-2.9,43.3-8.7l1.2,11.9
			c-14.4,6-29.7,9-46,8.9c-18.5,0-33.7-5.7-45.5-17.2c-11.8-11.6-17.7-26.5-17.7-44.7c0-19.5,5.6-35.6,16.9-48.4
			c11.4-12.9,26.4-19.4,44.8-19.4c34.7,0,52.4,21.9,53.2,65.6L5178,687.5z M5263.9,675.4c-0.3-12.6-4.2-22.6-11.6-30
			c-7.3-7.6-16.9-11.4-28.8-11.4s-21.9,4-30,11.9c-8.1,7.7-13,17.6-14.8,29.5L5263.9,675.4z"/>
		<path id="path914" class="st0" d="M5485.5,624.6l-44.5,123.6h-12.3l-35.6-109.1l-37.5,109.1h-13.3l-40.2-123.6h14.8l32.9,106.9
			l37-106.9h13.5l34.8,106.9l36-106.9H5485.5z"/>
		<path id="path916" class="st0" d="M5631.3,686.8c0,18.4-5.9,33.8-17.7,46.2c-11.6,12.4-26.5,18.6-44.8,18.6
			c-18.4,0-33.4-6.1-45-18.4c-11.6-12.4-17.4-27.9-17.4-46.4c0-18.4,5.9-33.8,17.7-46.2c11.8-12.4,26.7-18.6,44.7-18.6
			c18.2,0,33.1,6.2,44.8,18.6C5625.4,653,5631.3,668.4,5631.3,686.8z M5568.9,739.5c14,0,25.5-5.1,34.3-15.2
			c9-10.2,13.5-22.7,13.5-37.5c0-14.8-4.4-27.3-13.3-37.5c-8.9-10.2-20.4-15.2-34.6-15.2c-14,0-25.6,5.1-34.6,15.2
			c-8.9,10.2-13.3,22.7-13.3,37.5c0,14.8,4.4,27.3,13.3,37.5C5543.3,734.4,5554.8,739.5,5568.9,739.5L5568.9,739.5z"/>
		<path id="path918" class="st0" d="M5728.3,634.5c-1-0.3-2.4-0.5-4.4-0.5c-10.6,0-19.7,4.4-27.1,13.1c-7.3,8.5-10.9,20.1-10.9,34.6
			v66.5h-14.5V665c0-18.2-1.2-31.7-3.6-40.4h12.3c2.6,5.2,3.9,13.4,3.9,24.7c7.7-18.2,20.2-27.3,37.3-27.3c2.3,0,4.6,0.2,7,0.7
			L5728.3,634.5z"/>
		<path id="path920" class="st0" d="M5862,747.5l-14.3,4.1l-58.8-67.7l-12.8,12.3v52h-14.5V564.4h14.5v115.9l61.4-57.6l14.5,2.9
			l-53,50.3L5862,747.5z"/>
		<path id="path922" class="st0" d="M-39.2,833.3l-4.1,10.4c-5.5-2.7-11.4-4.1-17.9-4.1c-19.2,0-28.8,15.4-28.8,46.2v4.8h35.3v10.9
			H-90v112.7h-14.5V901.6H-125v-10.9h21v-4.8c0-38.9,14.7-58.3,44-58.3C-50.8,827.5-43.8,829.5-39.2,833.3L-39.2,833.3z"/>
		<path id="path924" class="st0" d="M93.8,952.8c0,18.4-5.9,33.8-17.7,46.2c-11.6,12.4-26.5,18.6-44.7,18.6
			c-18.4,0-33.4-6.1-45-18.4C-25.2,986.9-31,971.4-31,952.8c0-18.4,5.9-33.8,17.7-46.2C-1.5,894.2,13.4,888,31.4,888
			c18.2,0,33.1,6.2,44.7,18.6C88,919.1,93.8,934.5,93.8,952.8L93.8,952.8z M31.4,1005.6c14,0,25.5-5.1,34.3-15.2
			c9-10.2,13.5-22.7,13.5-37.5c0-14.8-4.4-27.3-13.3-37.5c-8.9-10.2-20.4-15.2-34.6-15.2c-14,0-25.6,5.1-34.6,15.2
			c-8.9,10.2-13.3,22.7-13.3,37.5s4.4,27.3,13.3,37.5C5.9,1000.5,17.4,1005.6,31.4,1005.6z"/>
		<path id="path926" class="st0" d="M190.8,900.6c-1-0.3-2.4-0.5-4.4-0.5c-10.6,0-19.7,4.4-27.1,13.1c-7.3,8.5-10.9,20.1-10.9,34.6
			v66.5H134v-83.2c0-18.2-1.2-31.7-3.6-40.4h12.3c2.6,5.2,3.9,13.4,3.9,24.7c7.7-18.2,20.2-27.3,37.3-27.3c2.3,0,4.6,0.2,7,0.7
			L190.8,900.6z"/>
		<path id="path928" class="st0" d="M353.5,1017.7c-10,0-17.8-3.7-23.5-11.1c-5.5-7.6-8.2-17.1-8.2-28.5v-76.4h-24.7v-10.9h24.7
			v-36.8l14.5-6.5v43.3h39.4v10.9h-39.4V978c0,18.4,6.1,27.6,18.4,27.6c7.6,0,13.1-0.7,16.7-2.2l1.5,10.9
			C367.9,1016.5,361.4,1017.7,353.5,1017.7L353.5,1017.7z"/>
		<path id="path930" class="st0" d="M515.6,944.1v70.1h-14.5v-70.1c0-29.3-12.3-44-36.8-44c-9.7,0-18.5,4.1-26.4,12.3
			c-7.9,8.2-11.9,17.2-11.9,26.8v75h-14.5V830.4h14.5v82.2c10-16.4,23.7-24.7,41.1-24.7C499.4,888,515.6,906.7,515.6,944.1z"/>
		<path id="path932" class="st0" d="M570.2,953.6c0.5,15.6,5.2,28.2,14,37.7c9,9.5,21,14.3,36,14.3c14,0,28.5-2.9,43.3-8.7l1.2,11.9
			c-14.4,6-29.7,9-46,8.9c-18.5,0-33.7-5.7-45.5-17.2c-11.8-11.6-17.7-26.5-17.7-44.7c0-19.5,5.6-35.6,16.9-48.4
			c11.4-12.9,26.4-19.4,44.7-19.4c34.7,0,52.4,21.9,53.2,65.6L570.2,953.6z M656.1,941.5c-0.3-12.6-4.2-22.6-11.6-30
			c-7.3-7.6-16.9-11.4-28.8-11.4c-11.9,0-21.9,4-30,11.9c-8.1,7.7-13,17.6-14.8,29.5L656.1,941.5z"/>
		<path id="path934" class="st0" d="M768.8,900.6c-1-0.3-2.4-0.5-4.4-0.5c-10.6,0-19.7,4.4-27.1,13.1c-7.3,8.5-10.9,20.1-10.9,34.6
			v66.5h-14.5v-83.2c0-18.2-1.2-31.7-3.6-40.4h12.3c2.6,5.2,3.9,13.4,3.9,24.7c7.7-18.2,20.2-27.3,37.3-27.3c2.3,0,4.6,0.2,7,0.7
			V900.6z"/>
		<path id="path936" class="st0" d="M939.3,888c14.4,0,25.2,5.4,32.7,16.2c7.4,10.8,11.1,24.6,11.1,41.4v68.7h-14.5v-68.5
			c0-13.5-2.7-24.5-8.2-32.9c-5.3-8.5-13.6-12.8-24.9-12.8c-9.2,0-17.4,3.6-24.7,10.9c-7.3,7.3-10.9,15.5-10.9,24.7v78.6h-14.5v-75
			c0-26.1-10.4-39.2-31.2-39.2c-9.5,0-18.1,4.1-25.9,12.3c-7.7,8.2-11.6,17.2-11.6,26.8v75h-14.5v-93.1c0-7.3-0.8-17.4-2.4-30.5H813
			c1.6,5,2.6,12.3,2.9,22c9.4-16.4,23.2-24.7,41.6-24.7c16.8,0,29.3,9.2,37.5,27.6C904.7,897.2,919.4,888,939.3,888L939.3,888z"/>
		<path id="path938" class="st0" d="M1062.1,1017.7c-11,0-20.3-3.1-28.1-9.4c-7.6-6.5-11.4-14.8-11.4-24.9
			c0-30.8,27.4-46.2,82.2-46.2c0-11.8-2.8-20.9-8.5-27.3c-5.6-6.5-13.9-9.7-24.9-9.7c-8.9,0-22,2.7-39.4,8.2l-1.7-13.8
			c13.5-4.4,27.6-6.5,42.1-6.5c31.3,0,46.9,17.3,46.9,51.8V984c0,10.2,1.5,20.2,4.4,30.2l-12.6,2.7l-5.1-20.1
			C1095,1010.7,1080.3,1017.7,1062.1,1017.7L1062.1,1017.7z M1037.2,980.9c0,7.6,2.3,13.6,7,18.1c4.7,4.4,10.8,6.5,18.4,6.5
			c9.7,0,19.1-3,28.3-8.9c9.4-6.1,14-13.5,14-22.3v-25.2C1059.8,949.2,1037.2,959.8,1037.2,980.9L1037.2,980.9z"/>
		<path id="path940" class="st0" d="M1215.9,1005.6l-1.5,12.1c-30.6-1.5-46-23.3-46-65.6V830.4h14.5V947c0,9.2,0.4,16.9,1.2,23.2
			c0.8,6.3,2.3,12.3,4.4,18.1c2.3,5.8,5.6,10.2,10.2,13.1C1203.3,1004.2,1209,1005.6,1215.9,1005.6L1215.9,1005.6z"/>
		<path id="path942" class="st0" d="M1376.7,900.1c-6.8,0-12.4,1.9-16.9,5.8c-4.5,3.7-6.8,8.6-6.8,14.8c0,4.5,2.3,8.9,7,13.3
			c4.8,4.4,11.6,8.1,20.3,11.1c22.1,7.6,33.1,19.8,33.1,36.5c0,11.3-4.3,20.2-12.8,26.6c-8.4,6.3-19,9.4-31.9,9.4
			c-11.9,0-23.5-3.3-34.8-9.9l5.3-11.6c11.6,6.3,21.9,9.4,30.7,9.4c19.4,0,29-7.7,29-23c0-5.6-2.3-10.7-7-15.2
			c-4.5-4.7-11.3-8.4-20.3-11.1c-22.1-6.8-33.1-18-33.1-33.6c0-10.5,3.9-18.9,11.6-25.2c7.9-6.3,17.7-9.4,29.3-9.4
			c12.7,0,22.9,2.8,30.5,8.5l-5.8,12.3C1396.8,903,1387.7,900.1,1376.7,900.1L1376.7,900.1z"/>
		<path id="path944" class="st0" d="M1495.7,1017.7c-10,0-17.8-3.7-23.5-11.1c-5.5-7.6-8.2-17.1-8.2-28.5v-76.4h-24.7v-10.9h24.7
			v-36.8l14.5-6.5v43.3h39.4v10.9h-39.4V978c0,18.4,6.1,27.6,18.4,27.6c7.6,0,13.1-0.7,16.7-2.2l1.5,10.9
			C1510.1,1016.5,1503.6,1017.7,1495.7,1017.7z"/>
		<path id="path946" class="st0" d="M1669.6,952.8c0,18.4-5.9,33.8-17.7,46.2c-11.6,12.4-26.5,18.6-44.7,18.6
			c-18.4,0-33.4-6.1-45-18.4c-11.6-12.4-17.4-27.9-17.4-46.4c0-18.4,5.9-33.8,17.7-46.2c11.8-12.4,26.7-18.6,44.7-18.6
			c18.2,0,33.1,6.2,44.7,18.6C1663.7,919.1,1669.6,934.5,1669.6,952.8z M1607.2,1005.6c14,0,25.5-5.1,34.3-15.2
			c9-10.2,13.5-22.7,13.5-37.5c0-14.8-4.4-27.3-13.3-37.5c-8.9-10.2-20.4-15.2-34.6-15.2c-14,0-25.6,5.1-34.6,15.2
			c-8.9,10.2-13.3,22.7-13.3,37.5s4.4,27.3,13.3,37.5C1581.6,1000.5,1593.2,1005.6,1607.2,1005.6z"/>
		<path id="path948" class="st0" d="M1766.6,900.6c-1-0.3-2.4-0.5-4.4-0.5c-10.6,0-19.7,4.4-27.1,13.1c-7.3,8.5-10.9,20.1-10.9,34.6
			v66.5h-14.5v-83.2c0-18.2-1.2-31.7-3.6-40.4h12.3c2.6,5.2,3.9,13.4,3.9,24.7c7.7-18.2,20.2-27.3,37.3-27.3c2.3,0,4.6,0.2,7,0.7
			L1766.6,900.6z"/>
		<path id="path950" class="st0" d="M1829.9,1017.7c-11,0-20.3-3.1-28.1-9.4c-7.6-6.5-11.4-14.8-11.4-24.9
			c0-30.8,27.4-46.2,82.2-46.2c0-11.8-2.8-20.9-8.5-27.3c-5.6-6.5-13.9-9.7-24.9-9.7c-8.9,0-22,2.7-39.4,8.2l-1.7-13.8
			c13.5-4.4,27.6-6.5,42.1-6.5c31.3,0,46.9,17.3,46.9,51.8V984c0,10.2,1.5,20.2,4.4,30.2l-12.6,2.7l-5.1-20.1
			C1862.8,1010.7,1848.1,1017.7,1829.9,1017.7L1829.9,1017.7z M1805,980.9c0,7.6,2.3,13.6,7,18.1c4.7,4.4,10.8,6.5,18.4,6.5
			c9.7,0,19.1-3,28.3-8.9c9.4-6.1,14-13.5,14-22.3v-25.2C1827.6,949.2,1805,959.8,1805,980.9L1805,980.9z"/>
		<path id="path952" class="st0" d="M1973.6,1059.8c8.2,0,15.1-2,20.6-6c5.5-3.9,8.2-9.4,8.2-16.4c0-5.8-2.2-10.8-6.5-15
			c-4.2-4-11-7.6-20.6-10.6c-5.6-1.8-10.2-3.3-13.5-4.6c-3.2-1.3-6.9-3.1-10.9-5.3c-3.9-2.3-6.8-4.9-8.7-8
			c-1.9-3.2-2.9-6.9-2.9-10.9c0-4.4,1.3-10.6,3.9-18.6c-8.4-9.8-12.6-19.8-12.6-29.8c0-12.4,4-22.8,11.9-31.2
			c8.1-8.4,18-12.6,29.8-12.6h48.4v12.8l-16.7-1.7c9.2,9.4,13.8,19.4,13.8,30c0,13.1-4.1,23.8-12.3,32.2
			c-8.2,8.2-18.7,12.3-31.4,12.3c-7.3,0-13.3-1.2-18.1-3.6c-1.3,3.2-1.9,6.6-1.9,10.2c0,6.5,9.4,12.3,28.1,17.7
			c23.4,6.6,35.1,18.5,35.1,35.8c0,11.4-4.1,20.2-12.3,26.4c-8.1,6.1-18.8,9.2-32.2,9.2c-13.1,0-24.8-3.2-35.3-9.7l5.1-11.6
			C1952.6,1056.7,1963.1,1059.7,1973.6,1059.8L1973.6,1059.8z M1973.6,964.2c8.4,0,15.4-2.8,21-8.5c5.6-5.8,8.5-13.1,8.5-22
			c0-8.4-3-15.6-8.9-21.8c-5.8-6.1-12.7-9.2-20.6-9.2c-8.2,0-15.1,3.1-20.6,9.2c-5.3,6.1-8,13.5-8,22c0,8.4,2.8,15.6,8.5,21.5
			C1959.1,961.3,1965.8,964.2,1973.6,964.2L1973.6,964.2z"/>
		<path id="path954" class="st0" d="M2066.2,953.6c0.5,15.6,5.2,28.2,14,37.7c9,9.5,21,14.3,36,14.3c14,0,28.5-2.9,43.3-8.7
			l1.2,11.9c-14.4,6-29.7,9-46,8.9c-18.5,0-33.7-5.7-45.5-17.2c-11.8-11.6-17.7-26.5-17.7-44.7c0-19.5,5.6-35.6,16.9-48.4
			c11.4-12.9,26.4-19.4,44.7-19.4c34.7,0,52.4,21.9,53.2,65.6L2066.2,953.6z M2152,941.5c-0.3-12.6-4.2-22.6-11.6-30
			c-7.3-7.6-16.9-11.4-28.8-11.4c-11.9,0-21.9,4-30,11.9c-8.1,7.7-13,17.6-14.8,29.5L2152,941.5z"/>
		<path id="path956" class="st0" d="M2356.6,888c17.9,0,32,6.3,42.3,18.9c10.3,12.4,15.5,28.3,15.5,47.7c0,18.2-5.1,33.3-15.2,45.2
			c-10,11.9-23.5,17.9-40.4,17.9c-20.5,0-36-8.8-46.7-26.4v83.7h-14.5V921.4c0-15.2-0.3-25.4-1-30.7h13.3c0.5,6.3,0.7,13.8,0.7,22.5
			C2322.1,896.4,2337.4,888,2356.6,888L2356.6,888z M2354.7,900.1c-11.9,0-22,3.9-30.2,11.6c-8.2,7.7-12.3,17.4-12.3,29v20.8
			c0,12.3,4.3,22.7,12.8,31.2c8.5,8.5,18.9,12.8,31.2,12.8c14,0,24.8-4.7,32.4-14c7.6-9.4,11.4-21.8,11.4-37.3
			c0-16.8-3.8-30-11.4-39.7C2381.1,904.9,2369.8,900.1,2354.7,900.1L2354.7,900.1z"/>
		<path id="path958" class="st0" d="M2484.8,1017.7c-11,0-20.3-3.1-28.1-9.4c-7.6-6.5-11.4-14.8-11.4-24.9
			c0-30.8,27.4-46.2,82.2-46.2c0-11.8-2.8-20.9-8.5-27.3c-5.6-6.5-13.9-9.7-24.9-9.7c-8.9,0-22,2.7-39.4,8.2l-1.7-13.8
			c13.5-4.4,27.6-6.5,42.1-6.5c31.3,0,46.9,17.3,46.9,51.8V984c0,10.2,1.5,20.2,4.4,30.2l-12.6,2.7l-5.1-20.1
			C2517.7,1010.7,2503,1017.7,2484.8,1017.7L2484.8,1017.7z M2459.9,980.9c0,7.6,2.3,13.6,7,18.1c4.7,4.4,10.8,6.5,18.4,6.5
			c9.7,0,19.1-3,28.3-8.9c9.4-6.1,14-13.5,14-22.3v-25.2C2482.5,949.2,2459.9,959.8,2459.9,980.9L2459.9,980.9z"/>
		<path id="path960" class="st0" d="M2646.8,900.1c-15.3,0-27.5,4.8-36.5,14.5c-9,9.7-13.5,22.4-13.5,38.2
			c0,15.6,4.6,28.4,13.8,38.2c9.2,9.7,21.3,14.5,36.3,14.5c13.5,0,24.8-2.9,33.9-8.7l5.1,11.9c-10.6,6-23.4,8.9-38.2,8.9
			c-20,0-35.9-5.8-47.7-17.4c-11.8-11.8-17.7-27.6-17.7-47.4c0-19.8,5.9-35.6,17.7-47.2c11.8-11.8,27.7-17.7,47.7-17.7
			c15,0,27.7,2.9,38.2,8.7l-5.1,12.1C2671.7,903,2660.4,900.1,2646.8,900.1L2646.8,900.1z"/>
		<path id="path962" class="st0" d="M2823.1,1013.5l-14.3,4.1l-58.8-67.7l-12.8,12.3v52h-14.5V830.4h14.5v115.9l61.4-57.6l14.5,2.9
			l-53,50.3L2823.1,1013.5z"/>
		<path id="path964" class="st0" d="M2854.5,953.6c0.5,15.6,5.2,28.2,14,37.7c9,9.5,21,14.3,36,14.3c14,0,28.5-2.9,43.3-8.7
			l1.2,11.9c-14.4,6-29.7,9-46,8.9c-18.5,0-33.7-5.7-45.5-17.2c-11.8-11.6-17.7-26.5-17.7-44.7c0-19.5,5.6-35.6,16.9-48.4
			c11.4-12.9,26.4-19.4,44.7-19.4c34.7,0,52.4,21.9,53.2,65.6L2854.5,953.6z M2940.4,941.5c-0.3-12.6-4.2-22.6-11.6-30
			c-7.3-7.6-16.9-11.4-28.8-11.4s-21.9,4-30,11.9c-8.1,7.7-13,17.6-14.8,29.5L2940.4,941.5z"/>
		<path id="path966" class="st0" d="M2987.6,950.9c0-18.1,5-33.1,15-45c10.2-11.9,23.7-17.9,40.6-17.9c20.5,0,36,8.7,46.7,26.1
			v-83.7h14.5V984c0,14.5,0.3,24.6,1,30.2h-13.3c-0.5-6.3-0.7-13.5-0.7-21.8c-11.4,16.8-26.8,25.2-46,25.2
			c-18.1,0-32.3-6.2-42.6-18.6C2992.6,986.5,2987.6,970.4,2987.6,950.9z M3047.3,1005.6c11.9,0,22-3.9,30.2-11.6
			c8.2-7.9,12.3-17.7,12.3-29.3v-20.6c0-12.4-4.3-22.8-12.8-31.2c-8.4-8.5-18.8-12.8-31.2-12.8c-14,0-24.8,4.8-32.4,14.3
			s-11.4,21.9-11.4,37C3002.1,987.5,3017.1,1005.6,3047.3,1005.6z"/>
		<path id="path968" class="st0" d="M3304.4,888c17.1,0,30.6,6,40.6,17.9c10,11.8,15,26.8,15,45c0,19.5-5.2,35.6-15.5,48.1
			c-10.3,12.4-24.4,18.6-42.3,18.6c-19.2,0-34.5-8.4-46-25.2c0,8.2-0.2,15.5-0.7,21.8h-13.3c0.6-5.6,1-15.7,1-30.2V830.4h14.5v83.7
			C3268.3,896.7,3283.9,888,3304.4,888z M3257.7,964.7c0,11.6,4.1,21.4,12.3,29.3c8.2,7.7,18.3,11.6,30.2,11.6
			c30.2,0,45.2-18.1,45.2-54.2c0-15.3-3.8-27.7-11.4-37c-7.6-9.5-18.4-14.3-32.4-14.3c-12.3,0-22.7,4.3-31.2,12.8
			c-8.5,8.5-12.8,18.9-12.8,31.2L3257.7,964.7z"/>
		<path id="path970" class="st0" d="M3405.9,953.6c0.5,15.6,5.2,28.2,14,37.7c9,9.5,21,14.3,36,14.3c14,0,28.5-2.9,43.3-8.7
			l1.2,11.9c-14.4,6-29.7,9-46,8.9c-18.5,0-33.7-5.7-45.5-17.2c-11.8-11.6-17.7-26.5-17.7-44.7c0-19.5,5.6-35.6,16.9-48.4
			c11.4-12.9,26.4-19.4,44.7-19.4c34.7,0,52.4,21.9,53.2,65.6L3405.9,953.6z M3491.8,941.5c-0.3-12.6-4.2-22.6-11.6-30
			c-7.3-7.6-16.9-11.4-28.8-11.4s-21.9,4-30,11.9c-8.1,7.7-13,17.6-14.8,29.5L3491.8,941.5z"/>
		<path id="path972" class="st0" d="M3538.9,950.9c0-18.1,5-33.1,15-45c10.2-11.9,23.7-17.9,40.6-17.9c20.5,0,36,8.7,46.7,26.1
			v-83.7h14.5V984c0,14.5,0.3,24.6,1,30.2h-13.3c-0.5-6.3-0.7-13.5-0.7-21.8c-11.4,16.8-26.8,25.2-46,25.2
			c-18.1,0-32.3-6.2-42.6-18.6C3544,986.5,3538.9,970.4,3538.9,950.9L3538.9,950.9z M3598.7,1005.6c11.9,0,22-3.9,30.2-11.6
			c8.2-7.9,12.3-17.7,12.3-29.3v-20.6c0-12.4-4.3-22.8-12.8-31.2c-8.4-8.5-18.8-12.8-31.2-12.8c-14,0-24.8,4.8-32.4,14.3
			c-7.6,9.5-11.4,21.9-11.4,37C3553.5,987.5,3568.5,1005.6,3598.7,1005.6L3598.7,1005.6z"/>
		<path id="path974" class="st0" d="M3829.2,900.1c-6.8,0-12.4,1.9-16.9,5.8c-4.5,3.7-6.8,8.6-6.8,14.8c0,4.5,2.3,8.9,7,13.3
			c4.8,4.4,11.6,8.1,20.3,11.1c22.1,7.6,33.1,19.8,33.1,36.5c0,11.3-4.3,20.2-12.8,26.6c-8.4,6.3-19,9.4-31.9,9.4
			c-11.9,0-23.5-3.3-34.8-9.9l5.3-11.6c11.6,6.3,21.9,9.4,30.7,9.4c19.4,0,29-7.7,29-23c0-5.6-2.3-10.7-7-15.2
			c-4.5-4.7-11.3-8.4-20.3-11.1c-22.1-6.8-33.1-18-33.1-33.6c0-10.5,3.9-18.9,11.6-25.2c7.9-6.3,17.7-9.4,29.3-9.4
			c12.7,0,22.9,2.8,30.5,8.5l-5.8,12.3C3849.2,903,3840.1,900.1,3829.2,900.1L3829.2,900.1z"/>
		<path id="path976" class="st0" d="M3922.7,1014.3h-14.5V890.7h14.5V1014.3z M3915,841.6c3.4,0,6.1,1.1,8.2,3.4
			c2.3,2.1,3.4,4.8,3.4,8.2c0,3.4-1.1,6.1-3.4,8.2c-2.1,1.9-4.8,2.9-8.2,2.9c-3.4,0-6.1-1-8.2-2.9c-1.9-2.1-2.9-4.8-2.9-8.2
			c0-3.4,1-6.1,2.9-8.2C3908.9,842.7,3911.6,841.6,3915,841.6z"/>
		<path id="path978" class="st0" d="M4109,888c14.4,0,25.2,5.4,32.7,16.2c7.4,10.8,11.1,24.6,11.1,41.4v68.7h-14.5v-68.5
			c0-13.5-2.7-24.5-8.2-32.9c-5.3-8.5-13.6-12.8-24.9-12.8c-9.2,0-17.4,3.6-24.7,10.9c-7.3,7.3-10.9,15.5-10.9,24.7v78.6H4055v-75
			c0-26.1-10.4-39.2-31.2-39.2c-9.5,0-18.1,4.1-25.9,12.3c-7.7,8.2-11.6,17.2-11.6,26.8v75h-14.5v-93.1c0-7.3-0.8-17.4-2.4-30.5
			h13.3c1.6,5,2.6,12.3,2.9,22c9.4-16.4,23.2-24.7,41.6-24.7c16.8,0,29.3,9.2,37.5,27.6C4074.4,897.2,4089.1,888,4109,888L4109,888z
			"/>
		<path id="path980" class="st0" d="M4312.1,1013.8l-13.5,3.1c-2.9-8.2-4.8-16.3-5.8-24.2c-10.8,16.6-26.3,24.9-46.4,24.9
			c-29.7,0-44.5-19.2-44.5-57.6v-69.4h14.5v66.8c0,32.1,11,48.1,33.1,48.1c11.4,0,21.3-3.9,29.5-11.6c8.2-7.9,12.3-17.4,12.3-28.5
			v-74.7h14.5V984C4305.8,992.7,4307.9,1002.7,4312.1,1013.8L4312.1,1013.8z"/>
		<path id="path982" class="st0" d="M4402.3,1005.6l-1.5,12.1c-30.6-1.5-46-23.3-46-65.6V830.4h14.5V947c0,9.2,0.4,16.9,1.2,23.2
			c0.8,6.3,2.3,12.3,4.4,18.1c2.3,5.8,5.6,10.2,10.2,13.1C4389.6,1004.2,4395.4,1005.6,4402.3,1005.6L4402.3,1005.6z"/>
		<path id="path984" class="st0" d="M4468.8,1017.7c-11,0-20.3-3.1-28.1-9.4c-7.6-6.5-11.4-14.8-11.4-24.9
			c0-30.8,27.4-46.2,82.2-46.2c0-11.8-2.8-20.9-8.5-27.3c-5.6-6.5-13.9-9.7-24.9-9.7c-8.9,0-22,2.7-39.4,8.2l-1.7-13.8
			c13.5-4.4,27.6-6.5,42.1-6.5c31.3,0,46.9,17.3,46.9,51.8V984c0,10.2,1.5,20.2,4.4,30.2l-12.6,2.7l-5.1-20.1
			C4501.7,1010.7,4487,1017.7,4468.8,1017.7L4468.8,1017.7z M4443.9,980.9c0,7.6,2.3,13.6,7,18.1c4.7,4.4,10.8,6.5,18.4,6.5
			c9.7,0,19.1-3,28.3-8.9c9.4-6.1,14-13.5,14-22.3v-25.2C4466.5,949.2,4443.9,959.8,4443.9,980.9L4443.9,980.9z"/>
		<path id="path986" class="st0" d="M4614.9,1017.7c-10,0-17.8-3.7-23.5-11.1c-5.5-7.6-8.2-17.1-8.2-28.5v-76.4h-24.7v-10.9h24.7
			v-36.8l14.5-6.5v43.3h39.4v10.9h-39.4V978c0,18.4,6.1,27.6,18.4,27.6c7.6,0,13.1-0.7,16.7-2.2l1.5,10.9
			C4629.2,1016.5,4622.8,1017.7,4614.9,1017.7L4614.9,1017.7z"/>
		<path id="path988" class="st0" d="M4687.2,1014.3h-14.5V890.7h14.5V1014.3z M4679.4,841.6c3.4,0,6.1,1.1,8.2,3.4
			c2.3,2.1,3.4,4.8,3.4,8.2c0,3.4-1.1,6.1-3.4,8.2c-2.1,1.9-4.8,2.9-8.2,2.9c-3.4,0-6.1-1-8.2-2.9c-1.9-2.1-2.9-4.8-2.9-8.2
			c0-3.4,1-6.1,2.9-8.2C4673.3,842.7,4676,841.6,4679.4,841.6z"/>
		<path id="path990" class="st0" d="M4852.1,952.8c0,18.4-5.9,33.8-17.7,46.2c-11.6,12.4-26.5,18.6-44.7,18.6
			c-18.4,0-33.4-6.1-45-18.4c-11.6-12.4-17.4-27.9-17.4-46.4c0-18.4,5.9-33.8,17.7-46.2c11.8-12.4,26.7-18.6,44.7-18.6
			c18.2,0,33.1,6.2,44.7,18.6C4846.2,919.1,4852.1,934.5,4852.1,952.8z M4789.7,1005.6c14,0,25.5-5.1,34.3-15.2
			c9-10.2,13.5-22.7,13.5-37.5c0-14.8-4.4-27.3-13.3-37.5c-8.9-10.2-20.4-15.2-34.6-15.2c-14,0-25.6,5.1-34.6,15.2
			c-8.9,10.2-13.3,22.7-13.3,37.5c0,14.8,4.4,27.3,13.3,37.5C4764.1,1000.5,4775.7,1005.6,4789.7,1005.6L4789.7,1005.6z"/>
		<path id="path992" class="st0" d="M4996.2,1014.3h-14.5v-70.1c0-29.3-12.3-44-36.8-44c-9.7,0-18.5,4.1-26.4,12.3
			c-7.9,8.2-11.9,17.2-11.9,26.8v75h-14.5v-93.1c0-7.3-0.8-17.4-2.4-30.5h13.5c1.6,5,2.6,12.3,2.9,22c9.4-16.4,23.2-24.7,41.6-24.7
			c32.3,0,48.4,18.7,48.4,56.1V1014.3z"/>
		<path id="path994" class="st0" d="M5079.9,900.1c-6.8,0-12.4,1.9-16.9,5.8c-4.5,3.7-6.8,8.6-6.8,14.8c0,4.5,2.3,8.9,7,13.3
			c4.8,4.4,11.6,8.1,20.3,11.1c22.1,7.6,33.1,19.8,33.1,36.5c0,11.3-4.3,20.2-12.8,26.6c-8.4,6.3-19,9.4-31.9,9.4
			c-11.9,0-23.5-3.3-34.8-9.9l5.3-11.6c11.6,6.3,21.9,9.4,30.7,9.4c19.4,0,29-7.7,29-23c0-5.6-2.3-10.7-7-15.2
			c-4.5-4.7-11.3-8.4-20.3-11.1c-22.1-6.8-33.1-18-33.1-33.6c0-10.5,3.9-18.9,11.6-25.2c7.9-6.3,17.7-9.4,29.3-9.4
			c12.7,0,22.9,2.8,30.5,8.5l-5.8,12.3C5100,903,5090.9,900.1,5079.9,900.1L5079.9,900.1z"/>
	</g>
	<g id="flowRoot3961-9" transform="matrix(4.8645092,0,0,4.8645092,-53.757546,4278.4719)">
		<path id="path997" class="st0" d="M50.6-775.7c-2.5,0-5.1,0.3-7.8,0.9c-2.7,0.6-4.5,0.9-5.3,0.9c-1.9,0-3.5-0.3-4.9-1
			c-1.3-0.7-1.9-1.5-1.9-2.6c0-1.3,0.8-2.2,2.5-2.6c1.7-0.5,6.3-1.4,13.6-2.5c14.9-2.3,29.1-4.7,42.7-7.4c8.4-1.6,13.8-2.4,16.3-2.4
			c2.3,0,4.7,0.5,7.1,1.5c2.4,1,3.6,2.1,3.6,3.3c0,1.1-1,2.1-2.9,2.9c-2,0.8-4.6,1.1-7.8,1.1c-5.1,0-10.5,0.7-16.2,2l-8.7,2l1.7,9.5
			c0.8,5.9,1.8,17.2,2.9,33.9c1.2,16.6,1.9,25.9,2.2,27.9c0.2,2,0.3,3.4,0.3,4.4c0,2.3-1,3.5-3.1,3.5c-2,0-3.4-2.5-4.4-7.4
			c-0.9-4.9-1.8-14.6-2.6-28.9c-1.5-24.5-3.5-38-5.9-40.6c-0.6-0.6-1.6-0.9-2.9-0.9c-0.6,0-3.2,0.4-7.8,1.1
			C56.7-776.1,53.2-775.7,50.6-775.7L50.6-775.7z"/>
		<path id="path999" class="st0" d="M184.3-729.8c0.4,0,0.6,0.3,0.6,0.9c0,1.4-1,3.6-3.1,6.6c-2,3-4.1,5.5-6.3,7.5
			c-7.9,7-15.9,10.5-23.8,10.5c-3,0-6-0.7-9.1-2c-2.9-1.4-5.7-3.4-8.3-6c-2.6-2.6-4.6-6-6.2-10.3c-1.6-4.3-2.4-9.1-2.4-14.4
			c0-3.3,0.4-6,1.1-8.3c1.5-4.6,4.7-9.5,9.6-14.6c5-5.1,9.7-7.7,14.1-7.7c1.2,0,3,0.1,5.4,0.3c3.6,0.3,6.2,0.7,7.6,1.1
			c1.5,0.5,3.2,1.4,5.1,2.8c2.4,1.8,4.5,4.2,6.2,7c1.8,2.8,2.7,5.1,2.7,7c0,2.4-0.9,4.3-2.8,5.6c-1.9,1.2-5.6,2.4-11,3.6
			c-7.1,1.6-14.1,2.6-20.9,2.9l-10.5,0.6v4.5c0,5.6,2.6,10.9,7.8,15.9c3.9,3.8,8,5.7,12.2,5.7c3.3,0,6.7-1,10.3-2.9
			c3.7-2,6.8-4.3,9.4-6.7c2.6-2.4,5-4.6,7.4-6.6C181.9-728.8,183.4-729.8,184.3-729.8L184.3-729.8z M166-757.5
			c-2.3-2.1-4.1-3.4-5.3-4c-1.1-0.6-2.6-0.9-4.5-0.9c-3.8,0-6.6,0.4-8.5,1.1c-1.8,0.7-3.7,2.1-5.6,4.3c-5.7,6.6-8.6,11-8.6,13.2
			c0,1,0.9,1.5,2.7,1.5c6.9,0,16.6-1.4,29.3-4.3c3.8-0.9,5.7-2.5,5.7-4.8C171.1-752.4,169.4-754.4,166-757.5L166-757.5z"/>
		<path id="path1001" class="st0" d="M236.8-760.5c1.3,0,2.4,0.4,3.4,1.2c1,0.8,1.5,1.4,1.5,1.9c0,0.9-1.4,1.9-4.3,3.1
			c-4.7,1.9-9.5,6.5-14.4,13.7c-4.8,7.2-7.8,14.1-8.8,20.9c-1.2,7.6-2.2,12.6-2.9,15c-0.8,2.4-1.7,3.6-2.9,3.6
			c-1.1,0-1.9-0.4-2.5-1.1c-0.5-0.8-0.9-1.6-1.1-2.5c-0.2-0.9-0.3-2.6-0.6-5c-0.1-0.5-0.1-0.8-0.1-1c-1.8-19-2.7-34.1-2.7-45.1
			c0-3.9,0.2-6.3,0.5-7.3c0.8-2.4,1.9-3.6,3.2-3.6c1.2,0,1.8,1,1.8,3.1c0,3.4,0.5,8.9,1.6,16.4c1.1,7.6,1.9,11.3,2.4,11.3
			c0.7,0,2.1-2.1,4.2-6.2c2.6-4.9,6.2-9.2,10.5-12.8C229.8-758.7,233.6-760.5,236.8-760.5z"/>
		<path id="path1003" class="st0" d="M296.4-760.5c1.3,0,2.4,0.4,3.4,1.2c1,0.8,1.5,1.4,1.5,1.9c0,0.9-1.4,1.9-4.3,3.1
			c-4.7,1.9-9.5,6.5-14.4,13.7c-4.8,7.2-7.8,14.1-8.8,20.9c-1.2,7.6-2.2,12.6-2.9,15c-0.8,2.4-1.7,3.6-2.9,3.6
			c-1.1,0-1.9-0.4-2.5-1.1c-0.5-0.8-0.9-1.6-1.1-2.5c-0.2-0.9-0.3-2.6-0.6-5c-0.1-0.5-0.1-0.8-0.1-1c-1.8-19-2.7-34.1-2.7-45.1
			c0-3.9,0.2-6.3,0.5-7.3c0.8-2.4,1.9-3.6,3.2-3.6c1.2,0,1.8,1,1.8,3.1c0,3.4,0.5,8.9,1.6,16.4c1.1,7.6,1.9,11.3,2.4,11.3
			c0.7,0,2.1-2.1,4.2-6.2c2.6-4.9,6.2-9.2,10.5-12.8C289.4-758.7,293.2-760.5,296.4-760.5L296.4-760.5z"/>
		<path id="path1005" class="st0" d="M350.2-761.9c-3.5,0-7.2,0.7-11.1,2.2c-3.9,1.4-7.3,2.9-10.3,4.4c-3,1.4-5.2,2.2-6.6,2.2
			c-0.9,0-1.4-0.4-1.4-1.1c0-1.1,0.2-2,0.7-2.7c0.5-0.8,1.3-1.5,2.5-2.2c1.2-0.7,2.3-1.2,3.4-1.7c1.1-0.5,2.9-1.1,5.3-1.9
			c2.4-0.9,4.5-1.7,6.2-2.5c4.1-1.6,7.5-2.4,10.3-2.4c5,0,8.9,2.7,11.7,8.2c1.4,2.6,2.2,5.1,2.4,7.4c0.2,2.2,0.4,8.4,0.6,18.7
			c0.1,5.7,0.2,10.6,0.3,14.5c0.2,3.9,0.3,6.3,0.5,7.4l0.2,1.5c0,1.1-0.5,2.2-1.5,3.4c-0.9,1.2-1.6,1.8-2,1.8
			c-1.5,0-2.7-2.4-3.5-7.1c-0.8-4.8-1.3-7.3-1.4-7.3c-0.2,0-0.6,0.4-1,1.2c-1.5,2.5-4.6,5.3-9.2,8.3c-4.5,2.9-8.4,4.4-11.5,4.4
			c-1.9,0-4.1-0.3-6.7-1c-2.5-0.8-4.3-1.5-5.4-2.4c-0.8-0.7-1.5-2-2.2-4.1c-0.5-2-0.8-4.1-0.8-6.2c0-3.2,0.8-5.9,2.5-8.2
			c1.7-2.3,4.8-4.7,9.2-7.1c4.8-2.8,9.4-4.2,13.8-4.2c1.8,0,3.3,0.3,4.5,0.9c1.2,0.6,2.1,1.2,2.7,1.9c0.6,0.6,1.1,0.9,1.5,0.9
			c0.3,0,1,0.4,2.2,1.2c1.1,0.8,1.7,1.1,1.8,1.1c0.3,0,0.5-0.8,0.5-2.5c0-10.1-0.7-17.2-2.2-21.1
			C354.9-759.9,352.9-761.9,350.2-761.9L350.2-761.9z M355.3-726.7c0-0.3-0.1-0.6-0.3-1c-0.2-0.5-0.5-0.9-1.1-1.5
			c-0.5-0.6-1.2-1.1-2.2-1.6c-0.8-0.5-2-0.9-3.5-1.2c-1.5-0.4-3.2-0.6-5.1-0.6c-3.3,0-6.1,0.6-8.6,1.7c-2.4,1.1-4.2,2.6-5.4,4.3
			c-1.2,1.7-2.1,3.4-2.7,4.9c-0.5,1.4-0.8,2.7-0.8,3.9c0,1.9,0.2,3.2,0.5,3.9c0.4,0.7,1.2,1.4,2.6,2.2c1.7,0.8,3.2,1.2,4.5,1.2
			c2.6,0,5.7-0.9,9.5-2.7c3.9-1.9,5.8-3.3,5.8-4.1c0-0.6,1.1-2,3.4-4.3C354.1-724.1,355.3-725.8,355.3-726.7L355.3-726.7z"/>
		<path id="path1007" class="st0" d="M429.4-751c0,1.3-0.3,2.3-0.9,3.2c-0.5,0.8-1.2,1.2-1.9,1.2c-1.4,0-2.3-1.1-2.7-3.3
			c-0.2-1.7-1.4-3.9-3.7-6.6c-1-1.1-1.8-1.8-2.4-2.3c-0.6-0.5-2-0.9-4.3-1.5c-2.2-0.5-5.1-0.8-8.7-0.8c-2.9,0-5.2,0.5-6.8,1.6
			c-1.5,1.1-3.4,3.2-5.7,6.5c-5.4,7.7-8.2,14.7-8.2,20.9c0,3.2,0.3,5.9,1,8.1c0.7,2.1,1.3,3.6,1.9,4.3c0.7,0.7,1.8,1.8,3.3,3.3
			c2.2,2.1,3.9,3.5,5,4.1c1.2,0.5,2.9,0.8,5,0.8c6.6,0,13.8-4.5,21.5-13.4c4.1-4.5,7-6.8,8.8-6.8c1,0,1.5,0.7,1.5,2.2
			c0,1.4-1.8,4.3-5.4,8.7c-3.6,4.5-6.6,7.6-9.2,9.4c-6,4.3-11.3,6.5-16,6.5c-3.4,0-7.1-1-11.2-3.1c-4.2-2-7.2-4.8-9.1-8.3
			c-1.8-3.5-2.9-8.5-3.3-15.2c-0.2-2.6-0.3-4.6-0.3-6.1c0-2.9,1-6.3,3.1-10.1c2.1-4.1,5.2-8,9.2-11.8c4.1-3.8,7.6-6.1,10.5-6.9
			c2.3-0.5,4.7-0.8,7.4-0.8c5.7,0,10.8,1.9,15.1,5.6C427.2-758,429.4-754.5,429.4-751L429.4-751z"/>
		<path id="path1009" class="st0" d="M501.1-729.8c0.4,0,0.6,0.3,0.6,0.9c0,1.4-1,3.6-3.1,6.6c-2,3-4.1,5.5-6.3,7.5
			c-7.9,7-15.9,10.5-23.8,10.5c-3,0-6-0.7-9.1-2c-2.9-1.4-5.7-3.4-8.3-6c-2.6-2.6-4.6-6-6.2-10.3c-1.6-4.3-2.4-9.1-2.4-14.4
			c0-3.3,0.4-6,1.1-8.3c1.5-4.6,4.7-9.5,9.6-14.6c5-5.1,9.7-7.7,14.1-7.7c1.2,0,3,0.1,5.4,0.3c3.6,0.3,6.2,0.7,7.6,1.1
			c1.5,0.5,3.2,1.4,5.1,2.8c2.4,1.8,4.5,4.2,6.2,7c1.8,2.8,2.7,5.1,2.7,7c0,2.4-0.9,4.3-2.8,5.6c-1.9,1.2-5.6,2.4-11,3.6
			c-7.1,1.6-14.1,2.6-20.9,2.9l-10.5,0.6v4.5c0,5.6,2.6,10.9,7.8,15.9c3.9,3.8,8,5.7,12.2,5.7c3.3,0,6.7-1,10.3-2.9
			c3.7-2,6.8-4.3,9.4-6.7c2.6-2.4,5-4.6,7.4-6.6C498.7-728.8,500.2-729.8,501.1-729.8L501.1-729.8z M482.8-757.5
			c-2.3-2.1-4.1-3.4-5.3-4c-1.1-0.6-2.6-0.9-4.5-0.9c-3.8,0-6.6,0.4-8.5,1.1c-1.8,0.7-3.7,2.1-5.6,4.3c-5.7,6.6-8.6,11-8.6,13.2
			c0,1,0.9,1.5,2.7,1.5c6.9,0,16.6-1.4,29.3-4.3c3.8-0.9,5.7-2.5,5.7-4.8C487.9-752.4,486.2-754.4,482.8-757.5L482.8-757.5z"/>
	</g>
	<g id="text828">
	</g>
</g>
</svg>
