<?xml version="1.0" encoding="utf-8" standalone="no"?>
<!DOCTYPE svg PUBLIC "-//W3C//DTD SVG 1.1//EN"
  "http://www.w3.org/Graphics/SVG/1.1/DTD/svg11.dtd">
<svg xmlns:xlink="http://www.w3.org/1999/xlink" width="460.8pt" height="345.6pt" viewBox="0 0 460.8 345.6" xmlns="http://www.w3.org/2000/svg" version="1.1">
 <metadata>
  <rdf:RDF xmlns:dc="http://purl.org/dc/elements/1.1/" xmlns:cc="http://creativecommons.org/ns#" xmlns:rdf="http://www.w3.org/1999/02/22-rdf-syntax-ns#">
   <cc:Work>
    <dc:type rdf:resource="http://purl.org/dc/dcmitype/StillImage"/>
    <dc:date>2024-03-06T13:10:13.545005</dc:date>
    <dc:format>image/svg+xml</dc:format>
    <dc:creator>
     <cc:Agent>
      <dc:title>Matplotlib v3.8.3, https://matplotlib.org/</dc:title>
     </cc:Agent>
    </dc:creator>
   </cc:Work>
  </rdf:RDF>
 </metadata>
 <defs>
  <style type="text/css">*{stroke-linejoin: round; stroke-linecap: butt}</style>
 </defs>
 <g id="figure_1">
  <g id="patch_1">
   <path d="M 0 345.6 
L 460.8 345.6 
L 460.8 0 
L 0 0 
z
" style="fill: #ffffff"/>
  </g>
  <g id="axes_1">
   <g id="patch_2">
    <path d="M 57.6 307.584 
L 414.72 307.584 
L 414.72 41.472 
L 57.6 41.472 
z
" style="fill: #ffffff"/>
   </g>
   <g id="matplotlib.axis_1">
    <g id="xtick_1">
     <g id="line2d_1">
      <path d="M 73.832727 307.584 
L 73.832727 41.472 
" clip-path="url(#p6083e3ccbe)" style="fill: none; stroke: #dddddd; stroke-linecap: square"/>
     </g>
     <g id="line2d_2">
      <defs>
       <path id="m0744dc6b31" d="M 0 0 
L 0 3.5 
" style="stroke: #000000; stroke-width: 0.8"/>
      </defs>
      <g>
       <use xlink:href="#m0744dc6b31" x="73.832727" y="307.584" style="stroke: #000000; stroke-width: 0.8"/>
      </g>
     </g>
     <g id="text_1">
      <!-- 0 -->
      <g transform="translate(70.651477 322.182437) scale(0.1 -0.1)">
       <defs>
        <path id="DejaVuSans-30" d="M 2034 4250 
Q 1547 4250 1301 3770 
Q 1056 3291 1056 2328 
Q 1056 1369 1301 889 
Q 1547 409 2034 409 
Q 2525 409 2770 889 
Q 3016 1369 3016 2328 
Q 3016 3291 2770 3770 
Q 2525 4250 2034 4250 
z
M 2034 4750 
Q 2819 4750 3233 4129 
Q 3647 3509 3647 2328 
Q 3647 1150 3233 529 
Q 2819 -91 2034 -91 
Q 1250 -91 836 529 
Q 422 1150 422 2328 
Q 422 3509 836 4129 
Q 1250 4750 2034 4750 
z
" transform="scale(0.015625)"/>
       </defs>
       <use xlink:href="#DejaVuSans-30"/>
      </g>
     </g>
    </g>
    <g id="xtick_2">
     <g id="line2d_3">
      <path d="M 138.763636 307.584 
L 138.763636 41.472 
" clip-path="url(#p6083e3ccbe)" style="fill: none; stroke: #dddddd; stroke-linecap: square"/>
     </g>
     <g id="line2d_4">
      <g>
       <use xlink:href="#m0744dc6b31" x="138.763636" y="307.584" style="stroke: #000000; stroke-width: 0.8"/>
      </g>
     </g>
     <g id="text_2">
      <!-- 2 -->
      <g transform="translate(135.582386 322.182437) scale(0.1 -0.1)">
       <defs>
        <path id="DejaVuSans-32" d="M 1228 531 
L 3431 531 
L 3431 0 
L 469 0 
L 469 531 
Q 828 903 1448 1529 
Q 2069 2156 2228 2338 
Q 2531 2678 2651 2914 
Q 2772 3150 2772 3378 
Q 2772 3750 2511 3984 
Q 2250 4219 1831 4219 
Q 1534 4219 1204 4116 
Q 875 4013 500 3803 
L 500 4441 
Q 881 4594 1212 4672 
Q 1544 4750 1819 4750 
Q 2544 4750 2975 4387 
Q 3406 4025 3406 3419 
Q 3406 3131 3298 2873 
Q 3191 2616 2906 2266 
Q 2828 2175 2409 1742 
Q 1991 1309 1228 531 
z
" transform="scale(0.015625)"/>
       </defs>
       <use xlink:href="#DejaVuSans-32"/>
      </g>
     </g>
    </g>
    <g id="xtick_3">
     <g id="line2d_5">
      <path d="M 203.694545 307.584 
L 203.694545 41.472 
" clip-path="url(#p6083e3ccbe)" style="fill: none; stroke: #dddddd; stroke-linecap: square"/>
     </g>
     <g id="line2d_6">
      <g>
       <use xlink:href="#m0744dc6b31" x="203.694545" y="307.584" style="stroke: #000000; stroke-width: 0.8"/>
      </g>
     </g>
     <g id="text_3">
      <!-- 4 -->
      <g transform="translate(200.513295 322.182437) scale(0.1 -0.1)">
       <defs>
        <path id="DejaVuSans-34" d="M 2419 4116 
L 825 1625 
L 2419 1625 
L 2419 4116 
z
M 2253 4666 
L 3047 4666 
L 3047 1625 
L 3713 1625 
L 3713 1100 
L 3047 1100 
L 3047 0 
L 2419 0 
L 2419 1100 
L 313 1100 
L 313 1709 
L 2253 4666 
z
" transform="scale(0.015625)"/>
       </defs>
       <use xlink:href="#DejaVuSans-34"/>
      </g>
     </g>
    </g>
    <g id="xtick_4">
     <g id="line2d_7">
      <path d="M 268.625455 307.584 
L 268.625455 41.472 
" clip-path="url(#p6083e3ccbe)" style="fill: none; stroke: #dddddd; stroke-linecap: square"/>
     </g>
     <g id="line2d_8">
      <g>
       <use xlink:href="#m0744dc6b31" x="268.625455" y="307.584" style="stroke: #000000; stroke-width: 0.8"/>
      </g>
     </g>
     <g id="text_4">
      <!-- 6 -->
      <g transform="translate(265.444205 322.182437) scale(0.1 -0.1)">
       <defs>
        <path id="DejaVuSans-36" d="M 2113 2584 
Q 1688 2584 1439 2293 
Q 1191 2003 1191 1497 
Q 1191 994 1439 701 
Q 1688 409 2113 409 
Q 2538 409 2786 701 
Q 3034 994 3034 1497 
Q 3034 2003 2786 2293 
Q 2538 2584 2113 2584 
z
M 3366 4563 
L 3366 3988 
Q 3128 4100 2886 4159 
Q 2644 4219 2406 4219 
Q 1781 4219 1451 3797 
Q 1122 3375 1075 2522 
Q 1259 2794 1537 2939 
Q 1816 3084 2150 3084 
Q 2853 3084 3261 2657 
Q 3669 2231 3669 1497 
Q 3669 778 3244 343 
Q 2819 -91 2113 -91 
Q 1303 -91 875 529 
Q 447 1150 447 2328 
Q 447 3434 972 4092 
Q 1497 4750 2381 4750 
Q 2619 4750 2861 4703 
Q 3103 4656 3366 4563 
z
" transform="scale(0.015625)"/>
       </defs>
       <use xlink:href="#DejaVuSans-36"/>
      </g>
     </g>
    </g>
    <g id="xtick_5">
     <g id="line2d_9">
      <path d="M 333.556364 307.584 
L 333.556364 41.472 
" clip-path="url(#p6083e3ccbe)" style="fill: none; stroke: #dddddd; stroke-linecap: square"/>
     </g>
     <g id="line2d_10">
      <g>
       <use xlink:href="#m0744dc6b31" x="333.556364" y="307.584" style="stroke: #000000; stroke-width: 0.8"/>
      </g>
     </g>
     <g id="text_5">
      <!-- 8 -->
      <g transform="translate(330.375114 322.182437) scale(0.1 -0.1)">
       <defs>
        <path id="DejaVuSans-38" d="M 2034 2216 
Q 1584 2216 1326 1975 
Q 1069 1734 1069 1313 
Q 1069 891 1326 650 
Q 1584 409 2034 409 
Q 2484 409 2743 651 
Q 3003 894 3003 1313 
Q 3003 1734 2745 1975 
Q 2488 2216 2034 2216 
z
M 1403 2484 
Q 997 2584 770 2862 
Q 544 3141 544 3541 
Q 544 4100 942 4425 
Q 1341 4750 2034 4750 
Q 2731 4750 3128 4425 
Q 3525 4100 3525 3541 
Q 3525 3141 3298 2862 
Q 3072 2584 2669 2484 
Q 3125 2378 3379 2068 
Q 3634 1759 3634 1313 
Q 3634 634 3220 271 
Q 2806 -91 2034 -91 
Q 1263 -91 848 271 
Q 434 634 434 1313 
Q 434 1759 690 2068 
Q 947 2378 1403 2484 
z
M 1172 3481 
Q 1172 3119 1398 2916 
Q 1625 2713 2034 2713 
Q 2441 2713 2670 2916 
Q 2900 3119 2900 3481 
Q 2900 3844 2670 4047 
Q 2441 4250 2034 4250 
Q 1625 4250 1398 4047 
Q 1172 3844 1172 3481 
z
" transform="scale(0.015625)"/>
       </defs>
       <use xlink:href="#DejaVuSans-38"/>
      </g>
     </g>
    </g>
    <g id="xtick_6">
     <g id="line2d_11">
      <path d="M 398.487273 307.584 
L 398.487273 41.472 
" clip-path="url(#p6083e3ccbe)" style="fill: none; stroke: #dddddd; stroke-linecap: square"/>
     </g>
     <g id="line2d_12">
      <g>
       <use xlink:href="#m0744dc6b31" x="398.487273" y="307.584" style="stroke: #000000; stroke-width: 0.8"/>
      </g>
     </g>
     <g id="text_6">
      <!-- 10 -->
      <g transform="translate(392.124773 322.182437) scale(0.1 -0.1)">
       <defs>
        <path id="DejaVuSans-31" d="M 794 531 
L 1825 531 
L 1825 4091 
L 703 3866 
L 703 4441 
L 1819 4666 
L 2450 4666 
L 2450 531 
L 3481 531 
L 3481 0 
L 794 0 
L 794 531 
z
" transform="scale(0.015625)"/>
       </defs>
       <use xlink:href="#DejaVuSans-31"/>
       <use xlink:href="#DejaVuSans-30" x="63.623047"/>
      </g>
     </g>
    </g>
    <g id="xtick_7">
     <g id="line2d_13">
      <path d="M 57.6 307.584 
L 57.6 41.472 
" clip-path="url(#p6083e3ccbe)" style="fill: none; stroke-dasharray: 0.8,1.32; stroke-dashoffset: 0; stroke: #eeeeee; stroke-width: 0.8"/>
     </g>
     <g id="line2d_14">
      <defs>
       <path id="m8a1b02994b" d="M 0 0 
L 0 2 
" style="stroke: #000000; stroke-width: 0.6"/>
      </defs>
      <g>
       <use xlink:href="#m8a1b02994b" x="57.6" y="307.584" style="stroke: #000000; stroke-width: 0.6"/>
      </g>
     </g>
    </g>
    <g id="xtick_8">
     <g id="line2d_15">
      <path d="M 90.065455 307.584 
L 90.065455 41.472 
" clip-path="url(#p6083e3ccbe)" style="fill: none; stroke-dasharray: 0.8,1.32; stroke-dashoffset: 0; stroke: #eeeeee; stroke-width: 0.8"/>
     </g>
     <g id="line2d_16">
      <g>
       <use xlink:href="#m8a1b02994b" x="90.065455" y="307.584" style="stroke: #000000; stroke-width: 0.6"/>
      </g>
     </g>
    </g>
    <g id="xtick_9">
     <g id="line2d_17">
      <path d="M 106.298182 307.584 
L 106.298182 41.472 
" clip-path="url(#p6083e3ccbe)" style="fill: none; stroke-dasharray: 0.8,1.32; stroke-dashoffset: 0; stroke: #eeeeee; stroke-width: 0.8"/>
     </g>
     <g id="line2d_18">
      <g>
       <use xlink:href="#m8a1b02994b" x="106.298182" y="307.584" style="stroke: #000000; stroke-width: 0.6"/>
      </g>
     </g>
    </g>
    <g id="xtick_10">
     <g id="line2d_19">
      <path d="M 122.530909 307.584 
L 122.530909 41.472 
" clip-path="url(#p6083e3ccbe)" style="fill: none; stroke-dasharray: 0.8,1.32; stroke-dashoffset: 0; stroke: #eeeeee; stroke-width: 0.8"/>
     </g>
     <g id="line2d_20">
      <g>
       <use xlink:href="#m8a1b02994b" x="122.530909" y="307.584" style="stroke: #000000; stroke-width: 0.6"/>
      </g>
     </g>
    </g>
    <g id="xtick_11">
     <g id="line2d_21">
      <path d="M 154.996364 307.584 
L 154.996364 41.472 
" clip-path="url(#p6083e3ccbe)" style="fill: none; stroke-dasharray: 0.8,1.32; stroke-dashoffset: 0; stroke: #eeeeee; stroke-width: 0.8"/>
     </g>
     <g id="line2d_22">
      <g>
       <use xlink:href="#m8a1b02994b" x="154.996364" y="307.584" style="stroke: #000000; stroke-width: 0.6"/>
      </g>
     </g>
    </g>
    <g id="xtick_12">
     <g id="line2d_23">
      <path d="M 171.229091 307.584 
L 171.229091 41.472 
" clip-path="url(#p6083e3ccbe)" style="fill: none; stroke-dasharray: 0.8,1.32; stroke-dashoffset: 0; stroke: #eeeeee; stroke-width: 0.8"/>
     </g>
     <g id="line2d_24">
      <g>
       <use xlink:href="#m8a1b02994b" x="171.229091" y="307.584" style="stroke: #000000; stroke-width: 0.6"/>
      </g>
     </g>
    </g>
    <g id="xtick_13">
     <g id="line2d_25">
      <path d="M 187.461818 307.584 
L 187.461818 41.472 
" clip-path="url(#p6083e3ccbe)" style="fill: none; stroke-dasharray: 0.8,1.32; stroke-dashoffset: 0; stroke: #eeeeee; stroke-width: 0.8"/>
     </g>
     <g id="line2d_26">
      <g>
       <use xlink:href="#m8a1b02994b" x="187.461818" y="307.584" style="stroke: #000000; stroke-width: 0.6"/>
      </g>
     </g>
    </g>
    <g id="xtick_14">
     <g id="line2d_27">
      <path d="M 219.927273 307.584 
L 219.927273 41.472 
" clip-path="url(#p6083e3ccbe)" style="fill: none; stroke-dasharray: 0.8,1.32; stroke-dashoffset: 0; stroke: #eeeeee; stroke-width: 0.8"/>
     </g>
     <g id="line2d_28">
      <g>
       <use xlink:href="#m8a1b02994b" x="219.927273" y="307.584" style="stroke: #000000; stroke-width: 0.6"/>
      </g>
     </g>
    </g>
    <g id="xtick_15">
     <g id="line2d_29">
      <path d="M 236.16 307.584 
L 236.16 41.472 
" clip-path="url(#p6083e3ccbe)" style="fill: none; stroke-dasharray: 0.8,1.32; stroke-dashoffset: 0; stroke: #eeeeee; stroke-width: 0.8"/>
     </g>
     <g id="line2d_30">
      <g>
       <use xlink:href="#m8a1b02994b" x="236.16" y="307.584" style="stroke: #000000; stroke-width: 0.6"/>
      </g>
     </g>
    </g>
    <g id="xtick_16">
     <g id="line2d_31">
      <path d="M 252.392727 307.584 
L 252.392727 41.472 
" clip-path="url(#p6083e3ccbe)" style="fill: none; stroke-dasharray: 0.8,1.32; stroke-dashoffset: 0; stroke: #eeeeee; stroke-width: 0.8"/>
     </g>
     <g id="line2d_32">
      <g>
       <use xlink:href="#m8a1b02994b" x="252.392727" y="307.584" style="stroke: #000000; stroke-width: 0.6"/>
      </g>
     </g>
    </g>
    <g id="xtick_17">
     <g id="line2d_33">
      <path d="M 284.858182 307.584 
L 284.858182 41.472 
" clip-path="url(#p6083e3ccbe)" style="fill: none; stroke-dasharray: 0.8,1.32; stroke-dashoffset: 0; stroke: #eeeeee; stroke-width: 0.8"/>
     </g>
     <g id="line2d_34">
      <g>
       <use xlink:href="#m8a1b02994b" x="284.858182" y="307.584" style="stroke: #000000; stroke-width: 0.6"/>
      </g>
     </g>
    </g>
    <g id="xtick_18">
     <g id="line2d_35">
      <path d="M 301.090909 307.584 
L 301.090909 41.472 
" clip-path="url(#p6083e3ccbe)" style="fill: none; stroke-dasharray: 0.8,1.32; stroke-dashoffset: 0; stroke: #eeeeee; stroke-width: 0.8"/>
     </g>
     <g id="line2d_36">
      <g>
       <use xlink:href="#m8a1b02994b" x="301.090909" y="307.584" style="stroke: #000000; stroke-width: 0.6"/>
      </g>
     </g>
    </g>
    <g id="xtick_19">
     <g id="line2d_37">
      <path d="M 317.323636 307.584 
L 317.323636 41.472 
" clip-path="url(#p6083e3ccbe)" style="fill: none; stroke-dasharray: 0.8,1.32; stroke-dashoffset: 0; stroke: #eeeeee; stroke-width: 0.8"/>
     </g>
     <g id="line2d_38">
      <g>
       <use xlink:href="#m8a1b02994b" x="317.323636" y="307.584" style="stroke: #000000; stroke-width: 0.6"/>
      </g>
     </g>
    </g>
    <g id="xtick_20">
     <g id="line2d_39">
      <path d="M 349.789091 307.584 
L 349.789091 41.472 
" clip-path="url(#p6083e3ccbe)" style="fill: none; stroke-dasharray: 0.8,1.32; stroke-dashoffset: 0; stroke: #eeeeee; stroke-width: 0.8"/>
     </g>
     <g id="line2d_40">
      <g>
       <use xlink:href="#m8a1b02994b" x="349.789091" y="307.584" style="stroke: #000000; stroke-width: 0.6"/>
      </g>
     </g>
    </g>
    <g id="xtick_21">
     <g id="line2d_41">
      <path d="M 366.021818 307.584 
L 366.021818 41.472 
" clip-path="url(#p6083e3ccbe)" style="fill: none; stroke-dasharray: 0.8,1.32; stroke-dashoffset: 0; stroke: #eeeeee; stroke-width: 0.8"/>
     </g>
     <g id="line2d_42">
      <g>
       <use xlink:href="#m8a1b02994b" x="366.021818" y="307.584" style="stroke: #000000; stroke-width: 0.6"/>
      </g>
     </g>
    </g>
    <g id="xtick_22">
     <g id="line2d_43">
      <path d="M 382.254545 307.584 
L 382.254545 41.472 
" clip-path="url(#p6083e3ccbe)" style="fill: none; stroke-dasharray: 0.8,1.32; stroke-dashoffset: 0; stroke: #eeeeee; stroke-width: 0.8"/>
     </g>
     <g id="line2d_44">
      <g>
       <use xlink:href="#m8a1b02994b" x="382.254545" y="307.584" style="stroke: #000000; stroke-width: 0.6"/>
      </g>
     </g>
    </g>
    <g id="xtick_23">
     <g id="line2d_45">
      <path d="M 414.72 307.584 
L 414.72 41.472 
" clip-path="url(#p6083e3ccbe)" style="fill: none; stroke-dasharray: 0.8,1.32; stroke-dashoffset: 0; stroke: #eeeeee; stroke-width: 0.8"/>
     </g>
     <g id="line2d_46">
      <g>
       <use xlink:href="#m8a1b02994b" x="414.72" y="307.584" style="stroke: #000000; stroke-width: 0.6"/>
      </g>
     </g>
    </g>
    <g id="text_7">
     <!-- Height (m) -->
     <g transform="translate(209.270156 335.860562) scale(0.1 -0.1)">
      <defs>
       <path id="DejaVuSans-48" d="M 628 4666 
L 1259 4666 
L 1259 2753 
L 3553 2753 
L 3553 4666 
L 4184 4666 
L 4184 0 
L 3553 0 
L 3553 2222 
L 1259 2222 
L 1259 0 
L 628 0 
L 628 4666 
z
" transform="scale(0.015625)"/>
       <path id="DejaVuSans-65" d="M 3597 1894 
L 3597 1613 
L 953 1613 
Q 991 1019 1311 708 
Q 1631 397 2203 397 
Q 2534 397 2845 478 
Q 3156 559 3463 722 
L 3463 178 
Q 3153 47 2828 -22 
Q 2503 -91 2169 -91 
Q 1331 -91 842 396 
Q 353 884 353 1716 
Q 353 2575 817 3079 
Q 1281 3584 2069 3584 
Q 2775 3584 3186 3129 
Q 3597 2675 3597 1894 
z
M 3022 2063 
Q 3016 2534 2758 2815 
Q 2500 3097 2075 3097 
Q 1594 3097 1305 2825 
Q 1016 2553 972 2059 
L 3022 2063 
z
" transform="scale(0.015625)"/>
       <path id="DejaVuSans-69" d="M 603 3500 
L 1178 3500 
L 1178 0 
L 603 0 
L 603 3500 
z
M 603 4863 
L 1178 4863 
L 1178 4134 
L 603 4134 
L 603 4863 
z
" transform="scale(0.015625)"/>
       <path id="DejaVuSans-67" d="M 2906 1791 
Q 2906 2416 2648 2759 
Q 2391 3103 1925 3103 
Q 1463 3103 1205 2759 
Q 947 2416 947 1791 
Q 947 1169 1205 825 
Q 1463 481 1925 481 
Q 2391 481 2648 825 
Q 2906 1169 2906 1791 
z
M 3481 434 
Q 3481 -459 3084 -895 
Q 2688 -1331 1869 -1331 
Q 1566 -1331 1297 -1286 
Q 1028 -1241 775 -1147 
L 775 -588 
Q 1028 -725 1275 -790 
Q 1522 -856 1778 -856 
Q 2344 -856 2625 -561 
Q 2906 -266 2906 331 
L 2906 616 
Q 2728 306 2450 153 
Q 2172 0 1784 0 
Q 1141 0 747 490 
Q 353 981 353 1791 
Q 353 2603 747 3093 
Q 1141 3584 1784 3584 
Q 2172 3584 2450 3431 
Q 2728 3278 2906 2969 
L 2906 3500 
L 3481 3500 
L 3481 434 
z
" transform="scale(0.015625)"/>
       <path id="DejaVuSans-68" d="M 3513 2113 
L 3513 0 
L 2938 0 
L 2938 2094 
Q 2938 2591 2744 2837 
Q 2550 3084 2163 3084 
Q 1697 3084 1428 2787 
Q 1159 2491 1159 1978 
L 1159 0 
L 581 0 
L 581 4863 
L 1159 4863 
L 1159 2956 
Q 1366 3272 1645 3428 
Q 1925 3584 2291 3584 
Q 2894 3584 3203 3211 
Q 3513 2838 3513 2113 
z
" transform="scale(0.015625)"/>
       <path id="DejaVuSans-74" d="M 1172 4494 
L 1172 3500 
L 2356 3500 
L 2356 3053 
L 1172 3053 
L 1172 1153 
Q 1172 725 1289 603 
Q 1406 481 1766 481 
L 2356 481 
L 2356 0 
L 1766 0 
Q 1100 0 847 248 
Q 594 497 594 1153 
L 594 3053 
L 172 3053 
L 172 3500 
L 594 3500 
L 594 4494 
L 1172 4494 
z
" transform="scale(0.015625)"/>
       <path id="DejaVuSans-20" transform="scale(0.015625)"/>
       <path id="DejaVuSans-28" d="M 1984 4856 
Q 1566 4138 1362 3434 
Q 1159 2731 1159 2009 
Q 1159 1288 1364 580 
Q 1569 -128 1984 -844 
L 1484 -844 
Q 1016 -109 783 600 
Q 550 1309 550 2009 
Q 550 2706 781 3412 
Q 1013 4119 1484 4856 
L 1984 4856 
z
" transform="scale(0.015625)"/>
       <path id="DejaVuSans-6d" d="M 3328 2828 
Q 3544 3216 3844 3400 
Q 4144 3584 4550 3584 
Q 5097 3584 5394 3201 
Q 5691 2819 5691 2113 
L 5691 0 
L 5113 0 
L 5113 2094 
Q 5113 2597 4934 2840 
Q 4756 3084 4391 3084 
Q 3944 3084 3684 2787 
Q 3425 2491 3425 1978 
L 3425 0 
L 2847 0 
L 2847 2094 
Q 2847 2600 2669 2842 
Q 2491 3084 2119 3084 
Q 1678 3084 1418 2786 
Q 1159 2488 1159 1978 
L 1159 0 
L 581 0 
L 581 3500 
L 1159 3500 
L 1159 2956 
Q 1356 3278 1631 3431 
Q 1906 3584 2284 3584 
Q 2666 3584 2933 3390 
Q 3200 3197 3328 2828 
z
" transform="scale(0.015625)"/>
       <path id="DejaVuSans-29" d="M 513 4856 
L 1013 4856 
Q 1481 4119 1714 3412 
Q 1947 2706 1947 2009 
Q 1947 1309 1714 600 
Q 1481 -109 1013 -844 
L 513 -844 
Q 928 -128 1133 580 
Q 1338 1288 1338 2009 
Q 1338 2731 1133 3434 
Q 928 4138 513 4856 
z
" transform="scale(0.015625)"/>
      </defs>
      <use xlink:href="#DejaVuSans-48"/>
      <use xlink:href="#DejaVuSans-65" x="75.195312"/>
      <use xlink:href="#DejaVuSans-69" x="136.71875"/>
      <use xlink:href="#DejaVuSans-67" x="164.501953"/>
      <use xlink:href="#DejaVuSans-68" x="227.978516"/>
      <use xlink:href="#DejaVuSans-74" x="291.357422"/>
      <use xlink:href="#DejaVuSans-20" x="330.566406"/>
      <use xlink:href="#DejaVuSans-28" x="362.353516"/>
      <use xlink:href="#DejaVuSans-6d" x="401.367188"/>
      <use xlink:href="#DejaVuSans-29" x="498.779297"/>
     </g>
    </g>
   </g>
   <g id="matplotlib.axis_2">
    <g id="ytick_1">
     <g id="line2d_47">
      <path d="M 57.6 295.488058 
L 414.72 295.488058 
" clip-path="url(#p6083e3ccbe)" style="fill: none; stroke: #dddddd; stroke-linecap: square"/>
     </g>
     <g id="line2d_48">
      <defs>
       <path id="m2266108a8a" d="M 0 0 
L -3.5 0 
" style="stroke: #000000; stroke-width: 0.8"/>
      </defs>
      <g>
       <use xlink:href="#m2266108a8a" x="57.6" y="295.488058" style="stroke: #000000; stroke-width: 0.8"/>
      </g>
     </g>
     <g id="text_8">
      <!-- 10 -->
      <g transform="translate(37.875 299.287277) scale(0.1 -0.1)">
       <use xlink:href="#DejaVuSans-31"/>
       <use xlink:href="#DejaVuSans-30" x="63.623047"/>
      </g>
     </g>
    </g>
    <g id="ytick_2">
     <g id="line2d_49">
      <path d="M 57.6 260.92805 
L 414.72 260.92805 
" clip-path="url(#p6083e3ccbe)" style="fill: none; stroke: #dddddd; stroke-linecap: square"/>
     </g>
     <g id="line2d_50">
      <g>
       <use xlink:href="#m2266108a8a" x="57.6" y="260.92805" style="stroke: #000000; stroke-width: 0.8"/>
      </g>
     </g>
     <g id="text_9">
      <!-- 20 -->
      <g transform="translate(37.875 264.727269) scale(0.1 -0.1)">
       <use xlink:href="#DejaVuSans-32"/>
       <use xlink:href="#DejaVuSans-30" x="63.623047"/>
      </g>
     </g>
    </g>
    <g id="ytick_3">
     <g id="line2d_51">
      <path d="M 57.6 226.368042 
L 414.72 226.368042 
" clip-path="url(#p6083e3ccbe)" style="fill: none; stroke: #dddddd; stroke-linecap: square"/>
     </g>
     <g id="line2d_52">
      <g>
       <use xlink:href="#m2266108a8a" x="57.6" y="226.368042" style="stroke: #000000; stroke-width: 0.8"/>
      </g>
     </g>
     <g id="text_10">
      <!-- 30 -->
      <g transform="translate(37.875 230.16726) scale(0.1 -0.1)">
       <defs>
        <path id="DejaVuSans-33" d="M 2597 2516 
Q 3050 2419 3304 2112 
Q 3559 1806 3559 1356 
Q 3559 666 3084 287 
Q 2609 -91 1734 -91 
Q 1441 -91 1130 -33 
Q 819 25 488 141 
L 488 750 
Q 750 597 1062 519 
Q 1375 441 1716 441 
Q 2309 441 2620 675 
Q 2931 909 2931 1356 
Q 2931 1769 2642 2001 
Q 2353 2234 1838 2234 
L 1294 2234 
L 1294 2753 
L 1863 2753 
Q 2328 2753 2575 2939 
Q 2822 3125 2822 3475 
Q 2822 3834 2567 4026 
Q 2313 4219 1838 4219 
Q 1578 4219 1281 4162 
Q 984 4106 628 3988 
L 628 4550 
Q 988 4650 1302 4700 
Q 1616 4750 1894 4750 
Q 2613 4750 3031 4423 
Q 3450 4097 3450 3541 
Q 3450 3153 3228 2886 
Q 3006 2619 2597 2516 
z
" transform="scale(0.015625)"/>
       </defs>
       <use xlink:href="#DejaVuSans-33"/>
       <use xlink:href="#DejaVuSans-30" x="63.623047"/>
      </g>
     </g>
    </g>
    <g id="ytick_4">
     <g id="line2d_53">
      <path d="M 57.6 191.808033 
L 414.72 191.808033 
" clip-path="url(#p6083e3ccbe)" style="fill: none; stroke: #dddddd; stroke-linecap: square"/>
     </g>
     <g id="line2d_54">
      <g>
       <use xlink:href="#m2266108a8a" x="57.6" y="191.808033" style="stroke: #000000; stroke-width: 0.8"/>
      </g>
     </g>
     <g id="text_11">
      <!-- 40 -->
      <g transform="translate(37.875 195.607252) scale(0.1 -0.1)">
       <use xlink:href="#DejaVuSans-34"/>
       <use xlink:href="#DejaVuSans-30" x="63.623047"/>
      </g>
     </g>
    </g>
    <g id="ytick_5">
     <g id="line2d_55">
      <path d="M 57.6 157.248025 
L 414.72 157.248025 
" clip-path="url(#p6083e3ccbe)" style="fill: none; stroke: #dddddd; stroke-linecap: square"/>
     </g>
     <g id="line2d_56">
      <g>
       <use xlink:href="#m2266108a8a" x="57.6" y="157.248025" style="stroke: #000000; stroke-width: 0.8"/>
      </g>
     </g>
     <g id="text_12">
      <!-- 50 -->
      <g transform="translate(37.875 161.047244) scale(0.1 -0.1)">
       <defs>
        <path id="DejaVuSans-35" d="M 691 4666 
L 3169 4666 
L 3169 4134 
L 1269 4134 
L 1269 2991 
Q 1406 3038 1543 3061 
Q 1681 3084 1819 3084 
Q 2600 3084 3056 2656 
Q 3513 2228 3513 1497 
Q 3513 744 3044 326 
Q 2575 -91 1722 -91 
Q 1428 -91 1123 -41 
Q 819 9 494 109 
L 494 744 
Q 775 591 1075 516 
Q 1375 441 1709 441 
Q 2250 441 2565 725 
Q 2881 1009 2881 1497 
Q 2881 1984 2565 2268 
Q 2250 2553 1709 2553 
Q 1456 2553 1204 2497 
Q 953 2441 691 2322 
L 691 4666 
z
" transform="scale(0.015625)"/>
       </defs>
       <use xlink:href="#DejaVuSans-35"/>
       <use xlink:href="#DejaVuSans-30" x="63.623047"/>
      </g>
     </g>
    </g>
    <g id="ytick_6">
     <g id="line2d_57">
      <path d="M 57.6 122.688017 
L 414.72 122.688017 
" clip-path="url(#p6083e3ccbe)" style="fill: none; stroke: #dddddd; stroke-linecap: square"/>
     </g>
     <g id="line2d_58">
      <g>
       <use xlink:href="#m2266108a8a" x="57.6" y="122.688017" style="stroke: #000000; stroke-width: 0.8"/>
      </g>
     </g>
     <g id="text_13">
      <!-- 60 -->
      <g transform="translate(37.875 126.487235) scale(0.1 -0.1)">
       <use xlink:href="#DejaVuSans-36"/>
       <use xlink:href="#DejaVuSans-30" x="63.623047"/>
      </g>
     </g>
    </g>
    <g id="ytick_7">
     <g id="line2d_59">
      <path d="M 57.6 88.128008 
L 414.72 88.128008 
" clip-path="url(#p6083e3ccbe)" style="fill: none; stroke: #dddddd; stroke-linecap: square"/>
     </g>
     <g id="line2d_60">
      <g>
       <use xlink:href="#m2266108a8a" x="57.6" y="88.128008" style="stroke: #000000; stroke-width: 0.8"/>
      </g>
     </g>
     <g id="text_14">
      <!-- 70 -->
      <g transform="translate(37.875 91.927227) scale(0.1 -0.1)">
       <defs>
        <path id="DejaVuSans-37" d="M 525 4666 
L 3525 4666 
L 3525 4397 
L 1831 0 
L 1172 0 
L 2766 4134 
L 525 4134 
L 525 4666 
z
" transform="scale(0.015625)"/>
       </defs>
       <use xlink:href="#DejaVuSans-37"/>
       <use xlink:href="#DejaVuSans-30" x="63.623047"/>
      </g>
     </g>
    </g>
    <g id="ytick_8">
     <g id="line2d_61">
      <path d="M 57.6 53.568 
L 414.72 53.568 
" clip-path="url(#p6083e3ccbe)" style="fill: none; stroke: #dddddd; stroke-linecap: square"/>
     </g>
     <g id="line2d_62">
      <g>
       <use xlink:href="#m2266108a8a" x="57.6" y="53.568" style="stroke: #000000; stroke-width: 0.8"/>
      </g>
     </g>
     <g id="text_15">
      <!-- 80 -->
      <g transform="translate(37.875 57.367219) scale(0.1 -0.1)">
       <use xlink:href="#DejaVuSans-38"/>
       <use xlink:href="#DejaVuSans-30" x="63.623047"/>
      </g>
     </g>
    </g>
    <g id="ytick_9">
     <g id="line2d_63">
      <path d="M 57.6 302.40006 
L 414.72 302.40006 
" clip-path="url(#p6083e3ccbe)" style="fill: none; stroke-dasharray: 0.8,1.32; stroke-dashoffset: 0; stroke: #eeeeee; stroke-width: 0.8"/>
     </g>
     <g id="line2d_64">
      <defs>
       <path id="m13fdb10ca3" d="M 0 0 
L -2 0 
" style="stroke: #000000; stroke-width: 0.6"/>
      </defs>
      <g>
       <use xlink:href="#m13fdb10ca3" x="57.6" y="302.40006" style="stroke: #000000; stroke-width: 0.6"/>
      </g>
     </g>
    </g>
    <g id="ytick_10">
     <g id="line2d_65">
      <path d="M 57.6 288.576057 
L 414.72 288.576057 
" clip-path="url(#p6083e3ccbe)" style="fill: none; stroke-dasharray: 0.8,1.32; stroke-dashoffset: 0; stroke: #eeeeee; stroke-width: 0.8"/>
     </g>
     <g id="line2d_66">
      <g>
       <use xlink:href="#m13fdb10ca3" x="57.6" y="288.576057" style="stroke: #000000; stroke-width: 0.6"/>
      </g>
     </g>
    </g>
    <g id="ytick_11">
     <g id="line2d_67">
      <path d="M 57.6 281.664055 
L 414.72 281.664055 
" clip-path="url(#p6083e3ccbe)" style="fill: none; stroke-dasharray: 0.8,1.32; stroke-dashoffset: 0; stroke: #eeeeee; stroke-width: 0.8"/>
     </g>
     <g id="line2d_68">
      <g>
       <use xlink:href="#m13fdb10ca3" x="57.6" y="281.664055" style="stroke: #000000; stroke-width: 0.6"/>
      </g>
     </g>
    </g>
    <g id="ytick_12">
     <g id="line2d_69">
      <path d="M 57.6 274.752053 
L 414.72 274.752053 
" clip-path="url(#p6083e3ccbe)" style="fill: none; stroke-dasharray: 0.8,1.32; stroke-dashoffset: 0; stroke: #eeeeee; stroke-width: 0.8"/>
     </g>
     <g id="line2d_70">
      <g>
       <use xlink:href="#m13fdb10ca3" x="57.6" y="274.752053" style="stroke: #000000; stroke-width: 0.6"/>
      </g>
     </g>
    </g>
    <g id="ytick_13">
     <g id="line2d_71">
      <path d="M 57.6 267.840052 
L 414.72 267.840052 
" clip-path="url(#p6083e3ccbe)" style="fill: none; stroke-dasharray: 0.8,1.32; stroke-dashoffset: 0; stroke: #eeeeee; stroke-width: 0.8"/>
     </g>
     <g id="line2d_72">
      <g>
       <use xlink:href="#m13fdb10ca3" x="57.6" y="267.840052" style="stroke: #000000; stroke-width: 0.6"/>
      </g>
     </g>
    </g>
    <g id="ytick_14">
     <g id="line2d_73">
      <path d="M 57.6 254.016048 
L 414.72 254.016048 
" clip-path="url(#p6083e3ccbe)" style="fill: none; stroke-dasharray: 0.8,1.32; stroke-dashoffset: 0; stroke: #eeeeee; stroke-width: 0.8"/>
     </g>
     <g id="line2d_74">
      <g>
       <use xlink:href="#m13fdb10ca3" x="57.6" y="254.016048" style="stroke: #000000; stroke-width: 0.6"/>
      </g>
     </g>
    </g>
    <g id="ytick_15">
     <g id="line2d_75">
      <path d="M 57.6 247.104047 
L 414.72 247.104047 
" clip-path="url(#p6083e3ccbe)" style="fill: none; stroke-dasharray: 0.8,1.32; stroke-dashoffset: 0; stroke: #eeeeee; stroke-width: 0.8"/>
     </g>
     <g id="line2d_76">
      <g>
       <use xlink:href="#m13fdb10ca3" x="57.6" y="247.104047" style="stroke: #000000; stroke-width: 0.6"/>
      </g>
     </g>
    </g>
    <g id="ytick_16">
     <g id="line2d_77">
      <path d="M 57.6 240.192045 
L 414.72 240.192045 
" clip-path="url(#p6083e3ccbe)" style="fill: none; stroke-dasharray: 0.8,1.32; stroke-dashoffset: 0; stroke: #eeeeee; stroke-width: 0.8"/>
     </g>
     <g id="line2d_78">
      <g>
       <use xlink:href="#m13fdb10ca3" x="57.6" y="240.192045" style="stroke: #000000; stroke-width: 0.6"/>
      </g>
     </g>
    </g>
    <g id="ytick_17">
     <g id="line2d_79">
      <path d="M 57.6 233.280043 
L 414.72 233.280043 
" clip-path="url(#p6083e3ccbe)" style="fill: none; stroke-dasharray: 0.8,1.32; stroke-dashoffset: 0; stroke: #eeeeee; stroke-width: 0.8"/>
     </g>
     <g id="line2d_80">
      <g>
       <use xlink:href="#m13fdb10ca3" x="57.6" y="233.280043" style="stroke: #000000; stroke-width: 0.6"/>
      </g>
     </g>
    </g>
    <g id="ytick_18">
     <g id="line2d_81">
      <path d="M 57.6 219.45604 
L 414.72 219.45604 
" clip-path="url(#p6083e3ccbe)" style="fill: none; stroke-dasharray: 0.8,1.32; stroke-dashoffset: 0; stroke: #eeeeee; stroke-width: 0.8"/>
     </g>
     <g id="line2d_82">
      <g>
       <use xlink:href="#m13fdb10ca3" x="57.6" y="219.45604" style="stroke: #000000; stroke-width: 0.6"/>
      </g>
     </g>
    </g>
    <g id="ytick_19">
     <g id="line2d_83">
      <path d="M 57.6 212.544038 
L 414.72 212.544038 
" clip-path="url(#p6083e3ccbe)" style="fill: none; stroke-dasharray: 0.8,1.32; stroke-dashoffset: 0; stroke: #eeeeee; stroke-width: 0.8"/>
     </g>
     <g id="line2d_84">
      <g>
       <use xlink:href="#m13fdb10ca3" x="57.6" y="212.544038" style="stroke: #000000; stroke-width: 0.6"/>
      </g>
     </g>
    </g>
    <g id="ytick_20">
     <g id="line2d_85">
      <path d="M 57.6 205.632037 
L 414.72 205.632037 
" clip-path="url(#p6083e3ccbe)" style="fill: none; stroke-dasharray: 0.8,1.32; stroke-dashoffset: 0; stroke: #eeeeee; stroke-width: 0.8"/>
     </g>
     <g id="line2d_86">
      <g>
       <use xlink:href="#m13fdb10ca3" x="57.6" y="205.632037" style="stroke: #000000; stroke-width: 0.6"/>
      </g>
     </g>
    </g>
    <g id="ytick_21">
     <g id="line2d_87">
      <path d="M 57.6 198.720035 
L 414.72 198.720035 
" clip-path="url(#p6083e3ccbe)" style="fill: none; stroke-dasharray: 0.8,1.32; stroke-dashoffset: 0; stroke: #eeeeee; stroke-width: 0.8"/>
     </g>
     <g id="line2d_88">
      <g>
       <use xlink:href="#m13fdb10ca3" x="57.6" y="198.720035" style="stroke: #000000; stroke-width: 0.6"/>
      </g>
     </g>
    </g>
    <g id="ytick_22">
     <g id="line2d_89">
      <path d="M 57.6 184.896032 
L 414.72 184.896032 
" clip-path="url(#p6083e3ccbe)" style="fill: none; stroke-dasharray: 0.8,1.32; stroke-dashoffset: 0; stroke: #eeeeee; stroke-width: 0.8"/>
     </g>
     <g id="line2d_90">
      <g>
       <use xlink:href="#m13fdb10ca3" x="57.6" y="184.896032" style="stroke: #000000; stroke-width: 0.6"/>
      </g>
     </g>
    </g>
    <g id="ytick_23">
     <g id="line2d_91">
      <path d="M 57.6 177.98403 
L 414.72 177.98403 
" clip-path="url(#p6083e3ccbe)" style="fill: none; stroke-dasharray: 0.8,1.32; stroke-dashoffset: 0; stroke: #eeeeee; stroke-width: 0.8"/>
     </g>
     <g id="line2d_92">
      <g>
       <use xlink:href="#m13fdb10ca3" x="57.6" y="177.98403" style="stroke: #000000; stroke-width: 0.6"/>
      </g>
     </g>
    </g>
    <g id="ytick_24">
     <g id="line2d_93">
      <path d="M 57.6 171.072028 
L 414.72 171.072028 
" clip-path="url(#p6083e3ccbe)" style="fill: none; stroke-dasharray: 0.8,1.32; stroke-dashoffset: 0; stroke: #eeeeee; stroke-width: 0.8"/>
     </g>
     <g id="line2d_94">
      <g>
       <use xlink:href="#m13fdb10ca3" x="57.6" y="171.072028" style="stroke: #000000; stroke-width: 0.6"/>
      </g>
     </g>
    </g>
    <g id="ytick_25">
     <g id="line2d_95">
      <path d="M 57.6 164.160027 
L 414.72 164.160027 
" clip-path="url(#p6083e3ccbe)" style="fill: none; stroke-dasharray: 0.8,1.32; stroke-dashoffset: 0; stroke: #eeeeee; stroke-width: 0.8"/>
     </g>
     <g id="line2d_96">
      <g>
       <use xlink:href="#m13fdb10ca3" x="57.6" y="164.160027" style="stroke: #000000; stroke-width: 0.6"/>
      </g>
     </g>
    </g>
    <g id="ytick_26">
     <g id="line2d_97">
      <path d="M 57.6 150.336023 
L 414.72 150.336023 
" clip-path="url(#p6083e3ccbe)" style="fill: none; stroke-dasharray: 0.8,1.32; stroke-dashoffset: 0; stroke: #eeeeee; stroke-width: 0.8"/>
     </g>
     <g id="line2d_98">
      <g>
       <use xlink:href="#m13fdb10ca3" x="57.6" y="150.336023" style="stroke: #000000; stroke-width: 0.6"/>
      </g>
     </g>
    </g>
    <g id="ytick_27">
     <g id="line2d_99">
      <path d="M 57.6 143.424022 
L 414.72 143.424022 
" clip-path="url(#p6083e3ccbe)" style="fill: none; stroke-dasharray: 0.8,1.32; stroke-dashoffset: 0; stroke: #eeeeee; stroke-width: 0.8"/>
     </g>
     <g id="line2d_100">
      <g>
       <use xlink:href="#m13fdb10ca3" x="57.6" y="143.424022" style="stroke: #000000; stroke-width: 0.6"/>
      </g>
     </g>
    </g>
    <g id="ytick_28">
     <g id="line2d_101">
      <path d="M 57.6 136.51202 
L 414.72 136.51202 
" clip-path="url(#p6083e3ccbe)" style="fill: none; stroke-dasharray: 0.8,1.32; stroke-dashoffset: 0; stroke: #eeeeee; stroke-width: 0.8"/>
     </g>
     <g id="line2d_102">
      <g>
       <use xlink:href="#m13fdb10ca3" x="57.6" y="136.51202" style="stroke: #000000; stroke-width: 0.6"/>
      </g>
     </g>
    </g>
    <g id="ytick_29">
     <g id="line2d_103">
      <path d="M 57.6 129.600018 
L 414.72 129.600018 
" clip-path="url(#p6083e3ccbe)" style="fill: none; stroke-dasharray: 0.8,1.32; stroke-dashoffset: 0; stroke: #eeeeee; stroke-width: 0.8"/>
     </g>
     <g id="line2d_104">
      <g>
       <use xlink:href="#m13fdb10ca3" x="57.6" y="129.600018" style="stroke: #000000; stroke-width: 0.6"/>
      </g>
     </g>
    </g>
    <g id="ytick_30">
     <g id="line2d_105">
      <path d="M 57.6 115.776015 
L 414.72 115.776015 
" clip-path="url(#p6083e3ccbe)" style="fill: none; stroke-dasharray: 0.8,1.32; stroke-dashoffset: 0; stroke: #eeeeee; stroke-width: 0.8"/>
     </g>
     <g id="line2d_106">
      <g>
       <use xlink:href="#m13fdb10ca3" x="57.6" y="115.776015" style="stroke: #000000; stroke-width: 0.6"/>
      </g>
     </g>
    </g>
    <g id="ytick_31">
     <g id="line2d_107">
      <path d="M 57.6 108.864013 
L 414.72 108.864013 
" clip-path="url(#p6083e3ccbe)" style="fill: none; stroke-dasharray: 0.8,1.32; stroke-dashoffset: 0; stroke: #eeeeee; stroke-width: 0.8"/>
     </g>
     <g id="line2d_108">
      <g>
       <use xlink:href="#m13fdb10ca3" x="57.6" y="108.864013" style="stroke: #000000; stroke-width: 0.6"/>
      </g>
     </g>
    </g>
    <g id="ytick_32">
     <g id="line2d_109">
      <path d="M 57.6 101.952012 
L 414.72 101.952012 
" clip-path="url(#p6083e3ccbe)" style="fill: none; stroke-dasharray: 0.8,1.32; stroke-dashoffset: 0; stroke: #eeeeee; stroke-width: 0.8"/>
     </g>
     <g id="line2d_110">
      <g>
       <use xlink:href="#m13fdb10ca3" x="57.6" y="101.952012" style="stroke: #000000; stroke-width: 0.6"/>
      </g>
     </g>
    </g>
    <g id="ytick_33">
     <g id="line2d_111">
      <path d="M 57.6 95.04001 
L 414.72 95.04001 
" clip-path="url(#p6083e3ccbe)" style="fill: none; stroke-dasharray: 0.8,1.32; stroke-dashoffset: 0; stroke: #eeeeee; stroke-width: 0.8"/>
     </g>
     <g id="line2d_112">
      <g>
       <use xlink:href="#m13fdb10ca3" x="57.6" y="95.04001" style="stroke: #000000; stroke-width: 0.6"/>
      </g>
     </g>
    </g>
    <g id="ytick_34">
     <g id="line2d_113">
      <path d="M 57.6 81.216007 
L 414.72 81.216007 
" clip-path="url(#p6083e3ccbe)" style="fill: none; stroke-dasharray: 0.8,1.32; stroke-dashoffset: 0; stroke: #eeeeee; stroke-width: 0.8"/>
     </g>
     <g id="line2d_114">
      <g>
       <use xlink:href="#m13fdb10ca3" x="57.6" y="81.216007" style="stroke: #000000; stroke-width: 0.6"/>
      </g>
     </g>
    </g>
    <g id="ytick_35">
     <g id="line2d_115">
      <path d="M 57.6 74.304005 
L 414.72 74.304005 
" clip-path="url(#p6083e3ccbe)" style="fill: none; stroke-dasharray: 0.8,1.32; stroke-dashoffset: 0; stroke: #eeeeee; stroke-width: 0.8"/>
     </g>
     <g id="line2d_116">
      <g>
       <use xlink:href="#m13fdb10ca3" x="57.6" y="74.304005" style="stroke: #000000; stroke-width: 0.6"/>
      </g>
     </g>
    </g>
    <g id="ytick_36">
     <g id="line2d_117">
      <path d="M 57.6 67.392003 
L 414.72 67.392003 
" clip-path="url(#p6083e3ccbe)" style="fill: none; stroke-dasharray: 0.8,1.32; stroke-dashoffset: 0; stroke: #eeeeee; stroke-width: 0.8"/>
     </g>
     <g id="line2d_118">
      <g>
       <use xlink:href="#m13fdb10ca3" x="57.6" y="67.392003" style="stroke: #000000; stroke-width: 0.6"/>
      </g>
     </g>
    </g>
    <g id="ytick_37">
     <g id="line2d_119">
      <path d="M 57.6 60.480002 
L 414.72 60.480002 
" clip-path="url(#p6083e3ccbe)" style="fill: none; stroke-dasharray: 0.8,1.32; stroke-dashoffset: 0; stroke: #eeeeee; stroke-width: 0.8"/>
     </g>
     <g id="line2d_120">
      <g>
       <use xlink:href="#m13fdb10ca3" x="57.6" y="60.480002" style="stroke: #000000; stroke-width: 0.6"/>
      </g>
     </g>
    </g>
    <g id="ytick_38">
     <g id="line2d_121">
      <path d="M 57.6 46.655998 
L 414.72 46.655998 
" clip-path="url(#p6083e3ccbe)" style="fill: none; stroke-dasharray: 0.8,1.32; stroke-dashoffset: 0; stroke: #eeeeee; stroke-width: 0.8"/>
     </g>
     <g id="line2d_122">
      <g>
       <use xlink:href="#m13fdb10ca3" x="57.6" y="46.655998" style="stroke: #000000; stroke-width: 0.6"/>
      </g>
     </g>
    </g>
    <g id="text_16">
     <!-- Temperature (℃) -->
     <g transform="translate(31.795312 217.303781) rotate(-90) scale(0.1 -0.1)">
      <defs>
       <path id="DejaVuSans-54" d="M -19 4666 
L 3928 4666 
L 3928 4134 
L 2272 4134 
L 2272 0 
L 1638 0 
L 1638 4134 
L -19 4134 
L -19 4666 
z
" transform="scale(0.015625)"/>
       <path id="DejaVuSans-70" d="M 1159 525 
L 1159 -1331 
L 581 -1331 
L 581 3500 
L 1159 3500 
L 1159 2969 
Q 1341 3281 1617 3432 
Q 1894 3584 2278 3584 
Q 2916 3584 3314 3078 
Q 3713 2572 3713 1747 
Q 3713 922 3314 415 
Q 2916 -91 2278 -91 
Q 1894 -91 1617 61 
Q 1341 213 1159 525 
z
M 3116 1747 
Q 3116 2381 2855 2742 
Q 2594 3103 2138 3103 
Q 1681 3103 1420 2742 
Q 1159 2381 1159 1747 
Q 1159 1113 1420 752 
Q 1681 391 2138 391 
Q 2594 391 2855 752 
Q 3116 1113 3116 1747 
z
" transform="scale(0.015625)"/>
       <path id="DejaVuSans-72" d="M 2631 2963 
Q 2534 3019 2420 3045 
Q 2306 3072 2169 3072 
Q 1681 3072 1420 2755 
Q 1159 2438 1159 1844 
L 1159 0 
L 581 0 
L 581 3500 
L 1159 3500 
L 1159 2956 
Q 1341 3275 1631 3429 
Q 1922 3584 2338 3584 
Q 2397 3584 2469 3576 
Q 2541 3569 2628 3553 
L 2631 2963 
z
" transform="scale(0.015625)"/>
       <path id="DejaVuSans-61" d="M 2194 1759 
Q 1497 1759 1228 1600 
Q 959 1441 959 1056 
Q 959 750 1161 570 
Q 1363 391 1709 391 
Q 2188 391 2477 730 
Q 2766 1069 2766 1631 
L 2766 1759 
L 2194 1759 
z
M 3341 1997 
L 3341 0 
L 2766 0 
L 2766 531 
Q 2569 213 2275 61 
Q 1981 -91 1556 -91 
Q 1019 -91 701 211 
Q 384 513 384 1019 
Q 384 1609 779 1909 
Q 1175 2209 1959 2209 
L 2766 2209 
L 2766 2266 
Q 2766 2663 2505 2880 
Q 2244 3097 1772 3097 
Q 1472 3097 1187 3025 
Q 903 2953 641 2809 
L 641 3341 
Q 956 3463 1253 3523 
Q 1550 3584 1831 3584 
Q 2591 3584 2966 3190 
Q 3341 2797 3341 1997 
z
" transform="scale(0.015625)"/>
       <path id="DejaVuSans-75" d="M 544 1381 
L 544 3500 
L 1119 3500 
L 1119 1403 
Q 1119 906 1312 657 
Q 1506 409 1894 409 
Q 2359 409 2629 706 
Q 2900 1003 2900 1516 
L 2900 3500 
L 3475 3500 
L 3475 0 
L 2900 0 
L 2900 538 
Q 2691 219 2414 64 
Q 2138 -91 1772 -91 
Q 1169 -91 856 284 
Q 544 659 544 1381 
z
M 1991 3584 
L 1991 3584 
z
" transform="scale(0.015625)"/>
       <path id="DejaVuSans-2103" d="M 1600 4347 
Q 1350 4347 1178 4173 
Q 1006 4000 1006 3750 
Q 1006 3503 1178 3333 
Q 1350 3163 1600 3163 
Q 1850 3163 2022 3333 
Q 2194 3503 2194 3750 
Q 2194 3997 2020 4172 
Q 1847 4347 1600 4347 
z
M 1600 4750 
Q 1800 4750 1984 4673 
Q 2169 4597 2303 4453 
Q 2447 4313 2519 4134 
Q 2591 3956 2591 3750 
Q 2591 3338 2302 3052 
Q 2013 2766 1594 2766 
Q 1172 2766 890 3047 
Q 609 3328 609 3750 
Q 609 4169 896 4459 
Q 1184 4750 1600 4750 
z
M 6738 4306 
L 6738 3641 
Q 6419 3938 6058 4084 
Q 5697 4231 5291 4231 
Q 4491 4231 4066 3742 
Q 3641 3253 3641 2328 
Q 3641 1406 4066 917 
Q 4491 428 5291 428 
Q 5697 428 6058 575 
Q 6419 722 6738 1019 
L 6738 359 
Q 6407 134 6036 21 
Q 5666 -91 5254 -91 
Q 4194 -91 3584 557 
Q 2975 1206 2975 2328 
Q 2975 3453 3584 4101 
Q 4194 4750 5254 4750 
Q 5672 4750 6042 4639 
Q 6413 4528 6738 4306 
z
" transform="scale(0.015625)"/>
      </defs>
      <use xlink:href="#DejaVuSans-54"/>
      <use xlink:href="#DejaVuSans-65" x="44.083984"/>
      <use xlink:href="#DejaVuSans-6d" x="105.607422"/>
      <use xlink:href="#DejaVuSans-70" x="203.019531"/>
      <use xlink:href="#DejaVuSans-65" x="266.496094"/>
      <use xlink:href="#DejaVuSans-72" x="328.019531"/>
      <use xlink:href="#DejaVuSans-61" x="369.132812"/>
      <use xlink:href="#DejaVuSans-74" x="430.412109"/>
      <use xlink:href="#DejaVuSans-75" x="469.621094"/>
      <use xlink:href="#DejaVuSans-72" x="533"/>
      <use xlink:href="#DejaVuSans-65" x="571.863281"/>
      <use xlink:href="#DejaVuSans-20" x="633.386719"/>
      <use xlink:href="#DejaVuSans-28" x="665.173828"/>
      <use xlink:href="#DejaVuSans-2103" x="704.1875"/>
      <use xlink:href="#DejaVuSans-29" x="816.492188"/>
     </g>
    </g>
   </g>
   <g id="line2d_123">
    <path d="M 73.832727 53.568 
L 77.079273 53.568 
L 80.325818 53.568 
L 83.572364 53.568 
L 86.818909 53.568 
L 90.065455 53.568 
L 93.312 53.568 
L 96.558545 53.568 
L 99.805091 53.568 
L 103.051636 53.568 
L 106.298182 53.568 
L 109.544727 53.568 
L 112.791273 53.568 
L 116.037818 53.568 
L 119.284364 53.568 
L 122.530909 53.568 
L 125.777455 53.568 
L 129.024 53.568 
L 132.270545 53.568 
L 135.517091 53.568 
L 138.763636 53.568 
L 142.010182 53.568 
L 145.256727 53.568 
L 148.503273 53.568 
L 151.749818 53.568 
L 154.996364 53.568 
L 158.242909 53.568 
L 161.489455 53.568 
L 164.736 53.568 
L 167.982545 53.568 
L 171.229091 53.568 
L 174.475636 53.568 
L 177.722182 53.568 
L 180.968727 53.568 
L 184.215273 53.568 
L 187.461818 53.568 
L 190.708364 53.568 
L 193.954909 53.568 
L 197.201455 53.568 
L 200.448 53.568 
L 203.694545 53.568 
L 206.941091 53.568 
L 210.187636 53.568 
L 213.434182 53.568 
L 216.680727 53.568 
L 219.927273 53.568 
L 223.173818 53.568 
L 226.420364 53.568 
L 229.666909 53.568 
L 232.913455 53.568 
L 236.16 53.568 
L 239.406545 53.568 
L 242.653091 53.568 
L 245.899636 53.568 
L 249.146182 53.568 
L 252.392727 53.568 
L 255.639273 53.568 
L 258.885818 53.568 
L 262.132364 53.568 
L 265.378909 53.568 
L 268.625455 53.568 
L 271.872 53.568 
L 275.118545 53.568 
L 278.365091 53.568 
L 281.611636 53.568 
L 284.858182 53.568 
L 288.104727 53.568 
L 291.351273 53.568 
L 294.597818 53.568 
L 297.844364 53.568 
L 301.090909 53.568 
L 304.337455 53.568 
L 307.584 53.568 
L 310.830545 53.568 
L 314.077091 53.568 
L 317.323636 53.568 
L 320.570182 53.568 
L 323.816727 53.568 
L 327.063273 53.568 
L 330.309818 53.568 
L 333.556364 53.568 
L 336.802909 53.568 
L 340.049455 53.568 
L 343.296 53.568 
L 346.542545 53.568 
L 349.789091 53.568 
L 353.035636 53.568 
L 356.282182 53.568 
L 359.528727 53.568 
L 362.775273 53.568 
L 366.021818 53.568 
L 369.268364 53.568 
L 372.514909 53.568 
L 375.761455 53.568 
L 379.008 53.568 
L 382.254545 53.568 
L 385.501091 53.568 
L 388.747636 53.568 
L 391.994182 53.568 
L 395.240727 53.568 
L 398.487273 53.568 
" clip-path="url(#p6083e3ccbe)" style="fill: none; stroke: #1f77b4; stroke-width: 1.5; stroke-linecap: square"/>
   </g>
   <g id="line2d_124">
    <path d="M 73.832727 274.358387 
L 77.079273 240.994037 
L 80.325818 216.516459 
L 83.572364 201.722935 
L 86.818909 194.234967 
L 90.065455 191.004329 
L 93.312 189.796619 
L 96.558545 189.399743 
L 99.805091 189.283663 
L 103.051636 189.253121 
L 106.298182 189.245826 
L 109.544727 189.244232 
L 112.791273 189.243912 
L 116.037818 189.243852 
L 119.284364 189.243841 
L 122.530909 189.24384 
L 125.777455 189.24384 
L 129.024 189.24384 
L 132.270545 189.243839 
L 135.517091 189.243839 
L 138.763636 189.243839 
L 142.010182 189.243839 
L 145.256727 189.243839 
L 148.503273 189.243839 
L 151.749818 189.243839 
L 154.996364 189.243839 
L 158.242909 189.243839 
L 161.489455 189.243839 
L 164.736 189.243839 
L 167.982545 189.243839 
L 171.229091 189.243839 
L 174.475636 189.243839 
L 177.722182 189.243839 
L 180.968727 189.243839 
L 184.215273 189.243839 
L 187.461818 189.243839 
L 190.708364 189.243839 
L 193.954909 189.243839 
L 197.201455 189.243839 
L 200.448 189.243839 
L 203.694545 189.243839 
L 206.941091 189.243839 
L 210.187636 189.243839 
L 213.434182 189.243839 
L 216.680727 189.243839 
L 219.927273 189.243839 
L 223.173818 189.243839 
L 226.420364 189.243839 
L 229.666909 189.243839 
L 232.913455 189.243839 
L 236.16 189.243839 
L 239.406545 189.243839 
L 242.653091 189.243839 
L 245.899636 189.243839 
L 249.146182 189.243839 
L 252.392727 189.243839 
L 255.639273 189.243839 
L 258.885818 189.243839 
L 262.132364 189.243839 
L 265.378909 189.243839 
L 268.625455 189.243839 
L 271.872 189.243839 
L 275.118545 189.243839 
L 278.365091 189.243839 
L 281.611636 189.243839 
L 284.858182 189.243839 
L 288.104727 189.243839 
L 291.351273 189.243839 
L 294.597818 189.243839 
L 297.844364 189.243839 
L 301.090909 189.243839 
L 304.337455 189.243839 
L 307.584 189.243839 
L 310.830545 189.243839 
L 314.077091 189.243839 
L 317.323636 189.243839 
L 320.570182 189.243839 
L 323.816727 189.243839 
L 327.063273 189.243839 
L 330.309818 189.243839 
L 333.556364 189.243839 
L 336.802909 189.243839 
L 340.049455 189.243839 
L 343.296 189.24384 
L 346.542545 189.24384 
L 349.789091 189.24384 
L 353.035636 189.243841 
L 356.282182 189.243852 
L 359.528727 189.243912 
L 362.775273 189.244232 
L 366.021818 189.245826 
L 369.268364 189.253121 
L 372.514909 189.283663 
L 375.761455 189.399743 
L 379.008 189.796619 
L 382.254545 191.004329 
L 385.501091 194.234967 
L 388.747636 201.722935 
L 391.994182 216.516459 
L 395.240727 240.994037 
L 398.487273 274.358387 
" clip-path="url(#p6083e3ccbe)" style="fill: none; stroke: #ff7f0e; stroke-width: 1.5; stroke-linecap: square"/>
   </g>
   <g id="line2d_125">
    <path d="M 73.832727 288.683937 
L 77.079273 277.661129 
L 80.325818 268.241681 
L 83.572364 260.959547 
L 86.818909 255.855311 
L 90.065455 252.601735 
L 93.312 250.708831 
L 96.558545 249.699667 
L 99.805091 249.204617 
L 103.051636 248.980243 
L 106.298182 248.885909 
L 109.544727 248.848979 
L 112.791273 248.835468 
L 116.037818 248.830833 
L 119.284364 248.829337 
L 122.530909 248.828882 
L 125.777455 248.828751 
L 129.024 248.828715 
L 132.270545 248.828706 
L 135.517091 248.828703 
L 138.763636 248.828703 
L 142.010182 248.828703 
L 145.256727 248.828703 
L 148.503273 248.828703 
L 151.749818 248.828703 
L 154.996364 248.828703 
L 158.242909 248.828703 
L 161.489455 248.828703 
L 164.736 248.828703 
L 167.982545 248.828703 
L 171.229091 248.828703 
L 174.475636 248.828703 
L 177.722182 248.828703 
L 180.968727 248.828703 
L 184.215273 248.828703 
L 187.461818 248.828703 
L 190.708364 248.828703 
L 193.954909 248.828703 
L 197.201455 248.828703 
L 200.448 248.828703 
L 203.694545 248.828703 
L 206.941091 248.828703 
L 210.187636 248.828703 
L 213.434182 248.828703 
L 216.680727 248.828703 
L 219.927273 248.828703 
L 223.173818 248.828703 
L 226.420364 248.828703 
L 229.666909 248.828703 
L 232.913455 248.828703 
L 236.16 248.828703 
L 239.406545 248.828703 
L 242.653091 248.828703 
L 245.899636 248.828703 
L 249.146182 248.828703 
L 252.392727 248.828703 
L 255.639273 248.828703 
L 258.885818 248.828703 
L 262.132364 248.828703 
L 265.378909 248.828703 
L 268.625455 248.828703 
L 271.872 248.828703 
L 275.118545 248.828703 
L 278.365091 248.828703 
L 281.611636 248.828703 
L 284.858182 248.828703 
L 288.104727 248.828703 
L 291.351273 248.828703 
L 294.597818 248.828703 
L 297.844364 248.828703 
L 301.090909 248.828703 
L 304.337455 248.828703 
L 307.584 248.828703 
L 310.830545 248.828703 
L 314.077091 248.828703 
L 317.323636 248.828703 
L 320.570182 248.828703 
L 323.816727 248.828703 
L 327.063273 248.828703 
L 330.309818 248.828703 
L 333.556364 248.828703 
L 336.802909 248.828703 
L 340.049455 248.828706 
L 343.296 248.828715 
L 346.542545 248.828751 
L 349.789091 248.828882 
L 353.035636 248.829337 
L 356.282182 248.830833 
L 359.528727 248.835468 
L 362.775273 248.848979 
L 366.021818 248.885909 
L 369.268364 248.980243 
L 372.514909 249.204617 
L 375.761455 249.699667 
L 379.008 250.708831 
L 382.254545 252.601735 
L 385.501091 255.855311 
L 388.747636 260.959547 
L 391.994182 268.241681 
L 395.240727 277.661129 
L 398.487273 288.683937 
" clip-path="url(#p6083e3ccbe)" style="fill: none; stroke: #2ca02c; stroke-width: 1.5; stroke-linecap: square"/>
   </g>
   <g id="line2d_126">
    <path d="M 73.832727 293.014943 
L 77.079273 288.971893 
L 80.325818 285.334039 
L 83.572364 282.273175 
L 86.818909 279.863435 
L 90.065455 278.086711 
L 93.312 276.858409 
L 96.558545 276.061093 
L 99.805091 275.574381 
L 103.051636 275.29451 
L 106.298182 275.142649 
L 109.544727 275.064751 
L 112.791273 275.026911 
L 116.037818 275.009471 
L 119.284364 275.001832 
L 122.530909 274.998646 
L 125.777455 274.99738 
L 129.024 274.996898 
L 132.270545 274.996724 
L 135.517091 274.996663 
L 138.763636 274.996642 
L 142.010182 274.996636 
L 145.256727 274.996634 
L 148.503273 274.996633 
L 151.749818 274.996633 
L 154.996364 274.996633 
L 158.242909 274.996633 
L 161.489455 274.996633 
L 164.736 274.996633 
L 167.982545 274.996633 
L 171.229091 274.996633 
L 174.475636 274.996633 
L 177.722182 274.996633 
L 180.968727 274.996633 
L 184.215273 274.996633 
L 187.461818 274.996633 
L 190.708364 274.996633 
L 193.954909 274.996633 
L 197.201455 274.996633 
L 200.448 274.996633 
L 203.694545 274.996633 
L 206.941091 274.996633 
L 210.187636 274.996633 
L 213.434182 274.996633 
L 216.680727 274.996633 
L 219.927273 274.996633 
L 223.173818 274.996633 
L 226.420364 274.996633 
L 229.666909 274.996633 
L 232.913455 274.996633 
L 236.16 274.996633 
L 239.406545 274.996633 
L 242.653091 274.996633 
L 245.899636 274.996633 
L 249.146182 274.996633 
L 252.392727 274.996633 
L 255.639273 274.996633 
L 258.885818 274.996633 
L 262.132364 274.996633 
L 265.378909 274.996633 
L 268.625455 274.996633 
L 271.872 274.996633 
L 275.118545 274.996633 
L 278.365091 274.996633 
L 281.611636 274.996633 
L 284.858182 274.996633 
L 288.104727 274.996633 
L 291.351273 274.996633 
L 294.597818 274.996633 
L 297.844364 274.996633 
L 301.090909 274.996633 
L 304.337455 274.996633 
L 307.584 274.996633 
L 310.830545 274.996633 
L 314.077091 274.996633 
L 317.323636 274.996633 
L 320.570182 274.996633 
L 323.816727 274.996633 
L 327.063273 274.996634 
L 330.309818 274.996636 
L 333.556364 274.996642 
L 336.802909 274.996663 
L 340.049455 274.996724 
L 343.296 274.996898 
L 346.542545 274.99738 
L 349.789091 274.998646 
L 353.035636 275.001832 
L 356.282182 275.009471 
L 359.528727 275.026911 
L 362.775273 275.064751 
L 366.021818 275.142649 
L 369.268364 275.29451 
L 372.514909 275.574381 
L 375.761455 276.061093 
L 379.008 276.858409 
L 382.254545 278.086711 
L 385.501091 279.863435 
L 388.747636 282.273175 
L 391.994182 285.334039 
L 395.240727 288.971893 
L 398.487273 293.014943 
" clip-path="url(#p6083e3ccbe)" style="fill: none; stroke: #d62728; stroke-width: 1.5; stroke-linecap: square"/>
   </g>
   <g id="line2d_127">
    <path d="M 73.832727 294.540727 
L 77.079273 292.984781 
L 80.325818 291.547846 
L 83.572364 290.286048 
L 86.818909 289.232245 
L 90.065455 288.394887 
L 93.312 287.761506 
L 96.558545 287.305169 
L 99.805091 286.991778 
L 103.051636 286.786469 
L 106.298182 286.658051 
L 109.544727 286.58129 
L 112.791273 286.537401 
L 116.037818 286.513373 
L 119.284364 286.500765 
L 122.530909 286.494418 
L 125.777455 286.49135 
L 129.024 286.489924 
L 132.270545 286.489286 
L 135.517091 286.489011 
L 138.763636 286.488897 
L 142.010182 286.488851 
L 145.256727 286.488834 
L 148.503273 286.488827 
L 151.749818 286.488825 
L 154.996364 286.488824 
L 158.242909 286.488823 
L 161.489455 286.488823 
L 164.736 286.488823 
L 167.982545 286.488823 
L 171.229091 286.488823 
L 174.475636 286.488823 
L 177.722182 286.488823 
L 180.968727 286.488823 
L 184.215273 286.488823 
L 187.461818 286.488823 
L 190.708364 286.488823 
L 193.954909 286.488823 
L 197.201455 286.488823 
L 200.448 286.488823 
L 203.694545 286.488823 
L 206.941091 286.488823 
L 210.187636 286.488823 
L 213.434182 286.488823 
L 216.680727 286.488823 
L 219.927273 286.488823 
L 223.173818 286.488823 
L 226.420364 286.488823 
L 229.666909 286.488823 
L 232.913455 286.488823 
L 236.16 286.488823 
L 239.406545 286.488823 
L 242.653091 286.488823 
L 245.899636 286.488823 
L 249.146182 286.488823 
L 252.392727 286.488823 
L 255.639273 286.488823 
L 258.885818 286.488823 
L 262.132364 286.488823 
L 265.378909 286.488823 
L 268.625455 286.488823 
L 271.872 286.488823 
L 275.118545 286.488823 
L 278.365091 286.488823 
L 281.611636 286.488823 
L 284.858182 286.488823 
L 288.104727 286.488823 
L 291.351273 286.488823 
L 294.597818 286.488823 
L 297.844364 286.488823 
L 301.090909 286.488823 
L 304.337455 286.488823 
L 307.584 286.488823 
L 310.830545 286.488823 
L 314.077091 286.488823 
L 317.323636 286.488824 
L 320.570182 286.488825 
L 323.816727 286.488827 
L 327.063273 286.488834 
L 330.309818 286.488851 
L 333.556364 286.488897 
L 336.802909 286.489011 
L 340.049455 286.489286 
L 343.296 286.489924 
L 346.542545 286.49135 
L 349.789091 286.494418 
L 353.035636 286.500765 
L 356.282182 286.513373 
L 359.528727 286.537401 
L 362.775273 286.58129 
L 366.021818 286.658051 
L 369.268364 286.786469 
L 372.514909 286.991778 
L 375.761455 287.305169 
L 379.008 287.761506 
L 382.254545 288.394887 
L 385.501091 289.232245 
L 388.747636 290.286048 
L 391.994182 291.547846 
L 395.240727 292.984781 
L 398.487273 294.540727 
" clip-path="url(#p6083e3ccbe)" style="fill: none; stroke: #9467bd; stroke-width: 1.5; stroke-linecap: square"/>
   </g>
   <g id="line2d_128">
    <path d="M 73.832727 295.1143 
L 77.079273 294.49867 
L 80.325818 293.921121 
L 83.572364 293.400728 
L 86.818909 292.950329 
L 90.065455 292.575811 
L 93.312 292.276536 
L 96.558545 292.046643 
L 99.805091 291.876817 
L 103.051636 291.756121 
L 106.298182 291.673556 
L 109.544727 291.619164 
L 112.791273 291.584638 
L 116.037818 291.563509 
L 119.284364 291.551036 
L 122.530909 291.543927 
L 125.777455 291.540015 
L 129.024 291.537934 
L 132.270545 291.536863 
L 135.517091 291.53633 
L 138.763636 291.536073 
L 142.010182 291.535953 
L 145.256727 291.535898 
L 148.503273 291.535874 
L 151.749818 291.535864 
L 154.996364 291.53586 
L 158.242909 291.535858 
L 161.489455 291.535858 
L 164.736 291.535857 
L 167.982545 291.535857 
L 171.229091 291.535857 
L 174.475636 291.535857 
L 177.722182 291.535857 
L 180.968727 291.535857 
L 184.215273 291.535857 
L 187.461818 291.535857 
L 190.708364 291.535857 
L 193.954909 291.535857 
L 197.201455 291.535857 
L 200.448 291.535857 
L 203.694545 291.535857 
L 206.941091 291.535857 
L 210.187636 291.535857 
L 213.434182 291.535857 
L 216.680727 291.535857 
L 219.927273 291.535857 
L 223.173818 291.535857 
L 226.420364 291.535857 
L 229.666909 291.535857 
L 232.913455 291.535857 
L 236.16 291.535857 
L 239.406545 291.535857 
L 242.653091 291.535857 
L 245.899636 291.535857 
L 249.146182 291.535857 
L 252.392727 291.535857 
L 255.639273 291.535857 
L 258.885818 291.535857 
L 262.132364 291.535857 
L 265.378909 291.535857 
L 268.625455 291.535857 
L 271.872 291.535857 
L 275.118545 291.535857 
L 278.365091 291.535857 
L 281.611636 291.535857 
L 284.858182 291.535857 
L 288.104727 291.535857 
L 291.351273 291.535857 
L 294.597818 291.535857 
L 297.844364 291.535857 
L 301.090909 291.535857 
L 304.337455 291.535857 
L 307.584 291.535857 
L 310.830545 291.535858 
L 314.077091 291.535858 
L 317.323636 291.53586 
L 320.570182 291.535864 
L 323.816727 291.535874 
L 327.063273 291.535898 
L 330.309818 291.535953 
L 333.556364 291.536073 
L 336.802909 291.53633 
L 340.049455 291.536863 
L 343.296 291.537934 
L 346.542545 291.540015 
L 349.789091 291.543927 
L 353.035636 291.551036 
L 356.282182 291.563509 
L 359.528727 291.584638 
L 362.775273 291.619164 
L 366.021818 291.673556 
L 369.268364 291.756121 
L 372.514909 291.876817 
L 375.761455 292.046643 
L 379.008 292.276536 
L 382.254545 292.575811 
L 385.501091 292.950329 
L 388.747636 293.400728 
L 391.994182 293.921121 
L 395.240727 294.49867 
L 398.487273 295.1143 
" clip-path="url(#p6083e3ccbe)" style="fill: none; stroke: #8c564b; stroke-width: 1.5; stroke-linecap: square"/>
   </g>
   <g id="line2d_129">
    <path d="M 73.832727 295.337768 
L 77.079273 295.089744 
L 80.325818 294.8546 
L 83.572364 294.639043 
L 86.818909 294.44797 
L 90.065455 294.284173 
L 93.312 294.148361 
L 96.558545 294.039424 
L 99.805091 293.954873 
L 103.051636 293.891358 
L 106.298182 293.845166 
L 109.544727 293.812632 
L 112.791273 293.790434 
L 116.037818 293.775755 
L 119.284364 293.766346 
L 122.530909 293.760496 
L 125.777455 293.756967 
L 129.024 293.7549 
L 132.270545 293.753725 
L 135.517091 293.753076 
L 138.763636 293.752728 
L 142.010182 293.752546 
L 145.256727 293.752453 
L 148.503273 293.752408 
L 151.749818 293.752386 
L 154.996364 293.752375 
L 158.242909 293.752371 
L 161.489455 293.752369 
L 164.736 293.752368 
L 167.982545 293.752367 
L 171.229091 293.752367 
L 174.475636 293.752367 
L 177.722182 293.752367 
L 180.968727 293.752367 
L 184.215273 293.752367 
L 187.461818 293.752367 
L 190.708364 293.752367 
L 193.954909 293.752367 
L 197.201455 293.752367 
L 200.448 293.752367 
L 203.694545 293.752367 
L 206.941091 293.752367 
L 210.187636 293.752367 
L 213.434182 293.752367 
L 216.680727 293.752367 
L 219.927273 293.752367 
L 223.173818 293.752367 
L 226.420364 293.752367 
L 229.666909 293.752367 
L 232.913455 293.752367 
L 236.16 293.752367 
L 239.406545 293.752367 
L 242.653091 293.752367 
L 245.899636 293.752367 
L 249.146182 293.752367 
L 252.392727 293.752367 
L 255.639273 293.752367 
L 258.885818 293.752367 
L 262.132364 293.752367 
L 265.378909 293.752367 
L 268.625455 293.752367 
L 271.872 293.752367 
L 275.118545 293.752367 
L 278.365091 293.752367 
L 281.611636 293.752367 
L 284.858182 293.752367 
L 288.104727 293.752367 
L 291.351273 293.752367 
L 294.597818 293.752367 
L 297.844364 293.752367 
L 301.090909 293.752367 
L 304.337455 293.752367 
L 307.584 293.752368 
L 310.830545 293.752369 
L 314.077091 293.752371 
L 317.323636 293.752375 
L 320.570182 293.752386 
L 323.816727 293.752408 
L 327.063273 293.752453 
L 330.309818 293.752546 
L 333.556364 293.752728 
L 336.802909 293.753076 
L 340.049455 293.753725 
L 343.296 293.7549 
L 346.542545 293.756967 
L 349.789091 293.760496 
L 353.035636 293.766346 
L 356.282182 293.775755 
L 359.528727 293.790434 
L 362.775273 293.812632 
L 366.021818 293.845166 
L 369.268364 293.891358 
L 372.514909 293.954873 
L 375.761455 294.039424 
L 379.008 294.148361 
L 382.254545 294.284173 
L 385.501091 294.44797 
L 388.747636 294.639043 
L 391.994182 294.8546 
L 395.240727 295.089744 
L 398.487273 295.337768 
" clip-path="url(#p6083e3ccbe)" style="fill: none; stroke: #e377c2; stroke-width: 1.5; stroke-linecap: square"/>
   </g>
   <g id="line2d_130">
    <path d="M 73.832727 295.426819 
L 77.079273 295.325616 
L 80.325818 295.228942 
L 83.572364 295.139221 
L 86.818909 295.058318 
L 90.065455 294.987433 
L 93.312 294.92708 
L 96.558545 294.87714 
L 99.805091 294.836973 
L 103.051636 294.805566 
L 106.298182 294.781688 
L 109.544727 294.764033 
L 112.791273 294.751334 
L 116.037818 294.742447 
L 119.284364 294.736395 
L 122.530909 294.732382 
L 125.777455 294.729791 
L 129.024 294.728162 
L 132.270545 294.727164 
L 135.517091 294.726568 
L 138.763636 294.726221 
L 142.010182 294.726024 
L 145.256727 294.725915 
L 148.503273 294.725856 
L 151.749818 294.725825 
L 154.996364 294.725809 
L 158.242909 294.725801 
L 161.489455 294.725797 
L 164.736 294.725795 
L 167.982545 294.725794 
L 171.229091 294.725794 
L 174.475636 294.725794 
L 177.722182 294.725794 
L 180.968727 294.725793 
L 184.215273 294.725793 
L 187.461818 294.725793 
L 190.708364 294.725793 
L 193.954909 294.725793 
L 197.201455 294.725793 
L 200.448 294.725793 
L 203.694545 294.725793 
L 206.941091 294.725793 
L 210.187636 294.725793 
L 213.434182 294.725793 
L 216.680727 294.725793 
L 219.927273 294.725793 
L 223.173818 294.725793 
L 226.420364 294.725793 
L 229.666909 294.725793 
L 232.913455 294.725793 
L 236.16 294.725793 
L 239.406545 294.725793 
L 242.653091 294.725793 
L 245.899636 294.725793 
L 249.146182 294.725793 
L 252.392727 294.725793 
L 255.639273 294.725793 
L 258.885818 294.725793 
L 262.132364 294.725793 
L 265.378909 294.725793 
L 268.625455 294.725793 
L 271.872 294.725793 
L 275.118545 294.725793 
L 278.365091 294.725793 
L 281.611636 294.725793 
L 284.858182 294.725793 
L 288.104727 294.725793 
L 291.351273 294.725793 
L 294.597818 294.725794 
L 297.844364 294.725794 
L 301.090909 294.725794 
L 304.337455 294.725794 
L 307.584 294.725795 
L 310.830545 294.725797 
L 314.077091 294.725801 
L 317.323636 294.725809 
L 320.570182 294.725825 
L 323.816727 294.725856 
L 327.063273 294.725915 
L 330.309818 294.726024 
L 333.556364 294.726221 
L 336.802909 294.726568 
L 340.049455 294.727164 
L 343.296 294.728162 
L 346.542545 294.729791 
L 349.789091 294.732382 
L 353.035636 294.736395 
L 356.282182 294.742447 
L 359.528727 294.751334 
L 362.775273 294.764033 
L 366.021818 294.781688 
L 369.268364 294.805566 
L 372.514909 294.836973 
L 375.761455 294.87714 
L 379.008 294.92708 
L 382.254545 294.987433 
L 385.501091 295.058318 
L 388.747636 295.139221 
L 391.994182 295.228942 
L 395.240727 295.325616 
L 398.487273 295.426819 
" clip-path="url(#p6083e3ccbe)" style="fill: none; stroke: #7f7f7f; stroke-width: 1.5; stroke-linecap: square"/>
   </g>
   <g id="line2d_131">
    <path d="M 73.832727 295.462859 
L 77.079273 295.421173 
L 80.325818 295.381126 
L 83.572364 295.343612 
L 86.818909 295.309348 
L 90.065455 295.27883 
L 93.312 295.252323 
L 96.558545 295.229868 
L 99.805091 295.211316 
L 103.051636 295.196364 
L 106.298182 295.184608 
L 109.544727 295.175588 
L 112.791273 295.168836 
L 116.037818 295.163902 
L 119.284364 295.160382 
L 122.530909 295.157931 
L 125.777455 295.156263 
L 129.024 295.155156 
L 132.270545 295.154437 
L 135.517091 295.153981 
L 138.763636 295.153698 
L 142.010182 295.153527 
L 145.256727 295.153426 
L 148.503273 295.153367 
L 151.749818 295.153333 
L 154.996364 295.153315 
L 158.242909 295.153305 
L 161.489455 295.153299 
L 164.736 295.153297 
L 167.982545 295.153295 
L 171.229091 295.153295 
L 174.475636 295.153294 
L 177.722182 295.153294 
L 180.968727 295.153294 
L 184.215273 295.153294 
L 187.461818 295.153294 
L 190.708364 295.153294 
L 193.954909 295.153294 
L 197.201455 295.153294 
L 200.448 295.153294 
L 203.694545 295.153294 
L 206.941091 295.153294 
L 210.187636 295.153294 
L 213.434182 295.153294 
L 216.680727 295.153294 
L 219.927273 295.153294 
L 223.173818 295.153294 
L 226.420364 295.153294 
L 229.666909 295.153294 
L 232.913455 295.153294 
L 236.16 295.153294 
L 239.406545 295.153294 
L 242.653091 295.153294 
L 245.899636 295.153294 
L 249.146182 295.153294 
L 252.392727 295.153294 
L 255.639273 295.153294 
L 258.885818 295.153294 
L 262.132364 295.153294 
L 265.378909 295.153294 
L 268.625455 295.153294 
L 271.872 295.153294 
L 275.118545 295.153294 
L 278.365091 295.153294 
L 281.611636 295.153294 
L 284.858182 295.153294 
L 288.104727 295.153294 
L 291.351273 295.153294 
L 294.597818 295.153294 
L 297.844364 295.153294 
L 301.090909 295.153295 
L 304.337455 295.153295 
L 307.584 295.153297 
L 310.830545 295.153299 
L 314.077091 295.153305 
L 317.323636 295.153315 
L 320.570182 295.153333 
L 323.816727 295.153367 
L 327.063273 295.153426 
L 330.309818 295.153527 
L 333.556364 295.153698 
L 336.802909 295.153981 
L 340.049455 295.154437 
L 343.296 295.155156 
L 346.542545 295.156263 
L 349.789091 295.157931 
L 353.035636 295.160382 
L 356.282182 295.163902 
L 359.528727 295.168836 
L 362.775273 295.175588 
L 366.021818 295.184608 
L 369.268364 295.196364 
L 372.514909 295.211316 
L 375.761455 295.229868 
L 379.008 295.252323 
L 382.254545 295.27883 
L 385.501091 295.309348 
L 388.747636 295.343612 
L 391.994182 295.381126 
L 395.240727 295.421173 
L 398.487273 295.462859 
" clip-path="url(#p6083e3ccbe)" style="fill: none; stroke: #bcbd22; stroke-width: 1.5; stroke-linecap: square"/>
   </g>
   <g id="line2d_132">
    <path d="M 73.832727 295.477611 
L 77.079273 295.460315 
L 80.325818 295.443624 
L 83.572364 295.427877 
L 86.818909 295.413349 
L 90.065455 295.400242 
L 93.312 295.38868 
L 96.558545 295.378704 
L 99.805091 295.370288 
L 103.051636 295.363342 
L 106.298182 295.357735 
L 109.544727 295.353307 
L 112.791273 295.349886 
L 116.037818 295.3473 
L 119.284364 295.345387 
L 122.530909 295.344001 
L 125.777455 295.343019 
L 129.024 295.342338 
L 132.270545 295.341875 
L 135.517091 295.341567 
L 138.763636 295.341367 
L 142.010182 295.341238 
L 145.256727 295.341158 
L 148.503273 295.341109 
L 151.749818 295.341079 
L 154.996364 295.341062 
L 158.242909 295.341052 
L 161.489455 295.341046 
L 164.736 295.341043 
L 167.982545 295.341041 
L 171.229091 295.341041 
L 174.475636 295.34104 
L 177.722182 295.34104 
L 180.968727 295.34104 
L 184.215273 295.34104 
L 187.461818 295.34104 
L 190.708364 295.34104 
L 193.954909 295.34104 
L 197.201455 295.34104 
L 200.448 295.34104 
L 203.694545 295.34104 
L 206.941091 295.34104 
L 210.187636 295.34104 
L 213.434182 295.34104 
L 216.680727 295.34104 
L 219.927273 295.34104 
L 223.173818 295.34104 
L 226.420364 295.34104 
L 229.666909 295.34104 
L 232.913455 295.34104 
L 236.16 295.34104 
L 239.406545 295.34104 
L 242.653091 295.34104 
L 245.899636 295.34104 
L 249.146182 295.34104 
L 252.392727 295.34104 
L 255.639273 295.34104 
L 258.885818 295.34104 
L 262.132364 295.34104 
L 265.378909 295.34104 
L 268.625455 295.34104 
L 271.872 295.34104 
L 275.118545 295.34104 
L 278.365091 295.34104 
L 281.611636 295.34104 
L 284.858182 295.34104 
L 288.104727 295.34104 
L 291.351273 295.34104 
L 294.597818 295.34104 
L 297.844364 295.34104 
L 301.090909 295.341041 
L 304.337455 295.341041 
L 307.584 295.341043 
L 310.830545 295.341046 
L 314.077091 295.341052 
L 317.323636 295.341062 
L 320.570182 295.341079 
L 323.816727 295.341109 
L 327.063273 295.341158 
L 330.309818 295.341238 
L 333.556364 295.341367 
L 336.802909 295.341567 
L 340.049455 295.341875 
L 343.296 295.342338 
L 346.542545 295.343019 
L 349.789091 295.344001 
L 353.035636 295.345387 
L 356.282182 295.3473 
L 359.528727 295.349886 
L 362.775273 295.353307 
L 366.021818 295.357735 
L 369.268364 295.363342 
L 372.514909 295.370288 
L 375.761455 295.378704 
L 379.008 295.38868 
L 382.254545 295.400242 
L 385.501091 295.413349 
L 388.747636 295.427877 
L 391.994182 295.443624 
L 395.240727 295.460315 
L 398.487273 295.477611 
" clip-path="url(#p6083e3ccbe)" style="fill: none; stroke: #17becf; stroke-width: 1.5; stroke-linecap: square"/>
   </g>
   <g id="line2d_133">
    <path d="M 73.832727 295.483701 
L 77.079273 295.476483 
L 80.325818 295.469492 
L 83.572364 295.462859 
L 86.818909 295.45669 
L 90.065455 295.451067 
L 93.312 295.446044 
L 96.558545 295.441647 
L 99.805091 295.437874 
L 103.051636 295.4347 
L 106.298182 295.432083 
L 109.544727 295.429968 
L 112.791273 295.428292 
L 116.037818 295.42699 
L 119.284364 295.425998 
L 122.530909 295.425257 
L 125.777455 295.424714 
L 129.024 295.424323 
L 132.270545 295.424048 
L 135.517091 295.423857 
L 138.763636 295.423728 
L 142.010182 295.423642 
L 145.256727 295.423586 
L 148.503273 295.423549 
L 151.749818 295.423527 
L 154.996364 295.423513 
L 158.242909 295.423504 
L 161.489455 295.423499 
L 164.736 295.423496 
L 167.982545 295.423494 
L 171.229091 295.423493 
L 174.475636 295.423493 
L 177.722182 295.423492 
L 180.968727 295.423492 
L 184.215273 295.423492 
L 187.461818 295.423492 
L 190.708364 295.423492 
L 193.954909 295.423492 
L 197.201455 295.423492 
L 200.448 295.423492 
L 203.694545 295.423492 
L 206.941091 295.423492 
L 210.187636 295.423492 
L 213.434182 295.423492 
L 216.680727 295.423492 
L 219.927273 295.423492 
L 223.173818 295.423492 
L 226.420364 295.423492 
L 229.666909 295.423492 
L 232.913455 295.423492 
L 236.16 295.423492 
L 239.406545 295.423492 
L 242.653091 295.423492 
L 245.899636 295.423492 
L 249.146182 295.423492 
L 252.392727 295.423492 
L 255.639273 295.423492 
L 258.885818 295.423492 
L 262.132364 295.423492 
L 265.378909 295.423492 
L 268.625455 295.423492 
L 271.872 295.423492 
L 275.118545 295.423492 
L 278.365091 295.423492 
L 281.611636 295.423492 
L 284.858182 295.423492 
L 288.104727 295.423492 
L 291.351273 295.423492 
L 294.597818 295.423492 
L 297.844364 295.423493 
L 301.090909 295.423493 
L 304.337455 295.423494 
L 307.584 295.423496 
L 310.830545 295.423499 
L 314.077091 295.423504 
L 317.323636 295.423513 
L 320.570182 295.423527 
L 323.816727 295.423549 
L 327.063273 295.423586 
L 330.309818 295.423642 
L 333.556364 295.423728 
L 336.802909 295.423857 
L 340.049455 295.424048 
L 343.296 295.424323 
L 346.542545 295.424714 
L 349.789091 295.425257 
L 353.035636 295.425998 
L 356.282182 295.42699 
L 359.528727 295.428292 
L 362.775273 295.429968 
L 366.021818 295.432083 
L 369.268364 295.4347 
L 372.514909 295.437874 
L 375.761455 295.441647 
L 379.008 295.446044 
L 382.254545 295.451067 
L 385.501091 295.45669 
L 388.747636 295.462859 
L 391.994182 295.469492 
L 395.240727 295.476483 
L 398.487273 295.483701 
" clip-path="url(#p6083e3ccbe)" style="fill: none; stroke: #1f77b4; stroke-width: 1.5; stroke-linecap: square"/>
   </g>
   <g id="line2d_134">
    <path d="M 73.832727 295.486232 
L 77.079273 295.483205 
L 80.325818 295.480266 
L 83.572364 295.477463 
L 86.818909 295.474839 
L 90.065455 295.472427 
L 93.312 295.470251 
L 96.558545 295.468323 
L 99.805091 295.466645 
L 103.051636 295.465212 
L 106.298182 295.464009 
L 109.544727 295.463019 
L 112.791273 295.462217 
L 116.037818 295.46158 
L 119.284364 295.461083 
L 122.530909 295.460702 
L 125.777455 295.460414 
L 129.024 295.460202 
L 132.270545 295.460047 
L 135.517091 295.459937 
L 138.763636 295.459859 
L 142.010182 295.459806 
L 145.256727 295.45977 
L 148.503273 295.459745 
L 151.749818 295.459729 
L 154.996364 295.459719 
L 158.242909 295.459713 
L 161.489455 295.459709 
L 164.736 295.459706 
L 167.982545 295.459705 
L 171.229091 295.459704 
L 174.475636 295.459703 
L 177.722182 295.459703 
L 180.968727 295.459703 
L 184.215273 295.459703 
L 187.461818 295.459703 
L 190.708364 295.459703 
L 193.954909 295.459703 
L 197.201455 295.459703 
L 200.448 295.459703 
L 203.694545 295.459703 
L 206.941091 295.459703 
L 210.187636 295.459703 
L 213.434182 295.459703 
L 216.680727 295.459703 
L 219.927273 295.459703 
L 223.173818 295.459703 
L 226.420364 295.459703 
L 229.666909 295.459703 
L 232.913455 295.459703 
L 236.16 295.459703 
L 239.406545 295.459703 
L 242.653091 295.459703 
L 245.899636 295.459703 
L 249.146182 295.459703 
L 252.392727 295.459703 
L 255.639273 295.459703 
L 258.885818 295.459703 
L 262.132364 295.459703 
L 265.378909 295.459703 
L 268.625455 295.459703 
L 271.872 295.459703 
L 275.118545 295.459703 
L 278.365091 295.459703 
L 281.611636 295.459703 
L 284.858182 295.459703 
L 288.104727 295.459703 
L 291.351273 295.459703 
L 294.597818 295.459703 
L 297.844364 295.459703 
L 301.090909 295.459704 
L 304.337455 295.459705 
L 307.584 295.459706 
L 310.830545 295.459709 
L 314.077091 295.459713 
L 317.323636 295.459719 
L 320.570182 295.459729 
L 323.816727 295.459745 
L 327.063273 295.45977 
L 330.309818 295.459806 
L 333.556364 295.459859 
L 336.802909 295.459937 
L 340.049455 295.460047 
L 343.296 295.460202 
L 346.542545 295.460414 
L 349.789091 295.460702 
L 353.035636 295.461083 
L 356.282182 295.46158 
L 359.528727 295.462217 
L 362.775273 295.463019 
L 366.021818 295.464009 
L 369.268364 295.465212 
L 372.514909 295.466645 
L 375.761455 295.468323 
L 379.008 295.470251 
L 382.254545 295.472427 
L 385.501091 295.474839 
L 388.747636 295.477463 
L 391.994182 295.480266 
L 395.240727 295.483205 
L 398.487273 295.486232 
" clip-path="url(#p6083e3ccbe)" style="fill: none; stroke: #ff7f0e; stroke-width: 1.5; stroke-linecap: square"/>
   </g>
   <g id="line2d_135">
    <path d="M 73.832727 295.48729 
L 77.079273 295.486016 
L 80.325818 295.484775 
L 83.572364 295.483588 
L 86.818909 295.48247 
L 90.065455 295.481436 
L 93.312 295.480494 
L 96.558545 295.479651 
L 99.805091 295.47891 
L 103.051636 295.478268 
L 106.298182 295.477721 
L 109.544727 295.477264 
L 112.791273 295.476887 
L 116.037818 295.476582 
L 119.284364 295.476339 
L 122.530909 295.476149 
L 125.777455 295.476002 
L 129.024 295.475891 
L 132.270545 295.475808 
L 135.517091 295.475747 
L 138.763636 295.475703 
L 142.010182 295.475672 
L 145.256727 295.47565 
L 148.503273 295.475635 
L 151.749818 295.475624 
L 154.996364 295.475618 
L 158.242909 295.475613 
L 161.489455 295.47561 
L 164.736 295.475608 
L 167.982545 295.475607 
L 171.229091 295.475606 
L 174.475636 295.475606 
L 177.722182 295.475606 
L 180.968727 295.475606 
L 184.215273 295.475605 
L 187.461818 295.475605 
L 190.708364 295.475605 
L 193.954909 295.475605 
L 197.201455 295.475605 
L 200.448 295.475605 
L 203.694545 295.475605 
L 206.941091 295.475605 
L 210.187636 295.475605 
L 213.434182 295.475605 
L 216.680727 295.475605 
L 219.927273 295.475605 
L 223.173818 295.475605 
L 226.420364 295.475605 
L 229.666909 295.475605 
L 232.913455 295.475605 
L 236.16 295.475605 
L 239.406545 295.475605 
L 242.653091 295.475605 
L 245.899636 295.475605 
L 249.146182 295.475605 
L 252.392727 295.475605 
L 255.639273 295.475605 
L 258.885818 295.475605 
L 262.132364 295.475605 
L 265.378909 295.475605 
L 268.625455 295.475605 
L 271.872 295.475605 
L 275.118545 295.475605 
L 278.365091 295.475605 
L 281.611636 295.475605 
L 284.858182 295.475605 
L 288.104727 295.475605 
L 291.351273 295.475606 
L 294.597818 295.475606 
L 297.844364 295.475606 
L 301.090909 295.475606 
L 304.337455 295.475607 
L 307.584 295.475608 
L 310.830545 295.47561 
L 314.077091 295.475613 
L 317.323636 295.475618 
L 320.570182 295.475624 
L 323.816727 295.475635 
L 327.063273 295.47565 
L 330.309818 295.475672 
L 333.556364 295.475703 
L 336.802909 295.475747 
L 340.049455 295.475808 
L 343.296 295.475891 
L 346.542545 295.476002 
L 349.789091 295.476149 
L 353.035636 295.476339 
L 356.282182 295.476582 
L 359.528727 295.476887 
L 362.775273 295.477264 
L 366.021818 295.477721 
L 369.268364 295.478268 
L 372.514909 295.47891 
L 375.761455 295.479651 
L 379.008 295.480494 
L 382.254545 295.481436 
L 385.501091 295.48247 
L 388.747636 295.483588 
L 391.994182 295.484775 
L 395.240727 295.486016 
L 398.487273 295.48729 
" clip-path="url(#p6083e3ccbe)" style="fill: none; stroke: #2ca02c; stroke-width: 1.5; stroke-linecap: square"/>
   </g>
   <g id="line2d_136">
    <path d="M 73.832727 295.487734 
L 77.079273 295.487196 
L 80.325818 295.486671 
L 83.572364 295.486167 
L 86.818909 295.48569 
L 90.065455 295.485246 
L 93.312 295.484839 
L 96.558545 295.484471 
L 99.805091 295.484145 
L 103.051636 295.483859 
L 106.298182 295.483613 
L 109.544727 295.483404 
L 112.791273 295.483229 
L 116.037818 295.483086 
L 119.284364 295.482969 
L 122.530909 295.482876 
L 125.777455 295.482803 
L 129.024 295.482747 
L 132.270545 295.482704 
L 135.517091 295.482671 
L 138.763636 295.482647 
L 142.010182 295.48263 
L 145.256727 295.482617 
L 148.503273 295.482608 
L 151.749818 295.482602 
L 154.996364 295.482598 
L 158.242909 295.482595 
L 161.489455 295.482593 
L 164.736 295.482592 
L 167.982545 295.482591 
L 171.229091 295.48259 
L 174.475636 295.48259 
L 177.722182 295.48259 
L 180.968727 295.48259 
L 184.215273 295.482589 
L 187.461818 295.482589 
L 190.708364 295.482589 
L 193.954909 295.482589 
L 197.201455 295.482589 
L 200.448 295.482589 
L 203.694545 295.482589 
L 206.941091 295.482589 
L 210.187636 295.482589 
L 213.434182 295.482589 
L 216.680727 295.482589 
L 219.927273 295.482589 
L 223.173818 295.482589 
L 226.420364 295.482589 
L 229.666909 295.482589 
L 232.913455 295.482589 
L 236.16 295.482589 
L 239.406545 295.482589 
L 242.653091 295.482589 
L 245.899636 295.482589 
L 249.146182 295.482589 
L 252.392727 295.482589 
L 255.639273 295.482589 
L 258.885818 295.482589 
L 262.132364 295.482589 
L 265.378909 295.482589 
L 268.625455 295.482589 
L 271.872 295.482589 
L 275.118545 295.482589 
L 278.365091 295.482589 
L 281.611636 295.482589 
L 284.858182 295.482589 
L 288.104727 295.482589 
L 291.351273 295.48259 
L 294.597818 295.48259 
L 297.844364 295.48259 
L 301.090909 295.48259 
L 304.337455 295.482591 
L 307.584 295.482592 
L 310.830545 295.482593 
L 314.077091 295.482595 
L 317.323636 295.482598 
L 320.570182 295.482602 
L 323.816727 295.482608 
L 327.063273 295.482617 
L 330.309818 295.48263 
L 333.556364 295.482647 
L 336.802909 295.482671 
L 340.049455 295.482704 
L 343.296 295.482747 
L 346.542545 295.482803 
L 349.789091 295.482876 
L 353.035636 295.482969 
L 356.282182 295.483086 
L 359.528727 295.483229 
L 362.775273 295.483404 
L 366.021818 295.483613 
L 369.268364 295.483859 
L 372.514909 295.484145 
L 375.761455 295.484471 
L 379.008 295.484839 
L 382.254545 295.485246 
L 385.501091 295.48569 
L 388.747636 295.486167 
L 391.994182 295.486671 
L 395.240727 295.487196 
L 398.487273 295.487734 
" clip-path="url(#p6083e3ccbe)" style="fill: none; stroke: #d62728; stroke-width: 1.5; stroke-linecap: square"/>
   </g>
   <g id="line2d_137">
    <path d="M 73.832727 295.487921 
L 77.079273 295.487693 
L 80.325818 295.48747 
L 83.572364 295.487256 
L 86.818909 295.487052 
L 90.065455 295.486861 
L 93.312 295.486685 
L 96.558545 295.486526 
L 99.805091 295.486382 
L 103.051636 295.486256 
L 106.298182 295.486145 
L 109.544727 295.486051 
L 112.791273 295.485971 
L 116.037818 295.485904 
L 119.284364 295.485849 
L 122.530909 295.485804 
L 125.777455 295.485769 
L 129.024 295.485741 
L 132.270545 295.485719 
L 135.517091 295.485702 
L 138.763636 295.485689 
L 142.010182 295.48568 
L 145.256727 295.485673 
L 148.503273 295.485668 
L 151.749818 295.485664 
L 154.996364 295.485662 
L 158.242909 295.48566 
L 161.489455 295.485659 
L 164.736 295.485658 
L 167.982545 295.485657 
L 171.229091 295.485657 
L 174.475636 295.485657 
L 177.722182 295.485657 
L 180.968727 295.485657 
L 184.215273 295.485657 
L 187.461818 295.485657 
L 190.708364 295.485657 
L 193.954909 295.485657 
L 197.201455 295.485656 
L 200.448 295.485656 
L 203.694545 295.485656 
L 206.941091 295.485656 
L 210.187636 295.485656 
L 213.434182 295.485656 
L 216.680727 295.485656 
L 219.927273 295.485656 
L 223.173818 295.485656 
L 226.420364 295.485656 
L 229.666909 295.485656 
L 232.913455 295.485656 
L 236.16 295.485656 
L 239.406545 295.485656 
L 242.653091 295.485656 
L 245.899636 295.485656 
L 249.146182 295.485656 
L 252.392727 295.485656 
L 255.639273 295.485656 
L 258.885818 295.485656 
L 262.132364 295.485656 
L 265.378909 295.485656 
L 268.625455 295.485656 
L 271.872 295.485656 
L 275.118545 295.485656 
L 278.365091 295.485657 
L 281.611636 295.485657 
L 284.858182 295.485657 
L 288.104727 295.485657 
L 291.351273 295.485657 
L 294.597818 295.485657 
L 297.844364 295.485657 
L 301.090909 295.485657 
L 304.337455 295.485657 
L 307.584 295.485658 
L 310.830545 295.485659 
L 314.077091 295.48566 
L 317.323636 295.485662 
L 320.570182 295.485664 
L 323.816727 295.485668 
L 327.063273 295.485673 
L 330.309818 295.48568 
L 333.556364 295.485689 
L 336.802909 295.485702 
L 340.049455 295.485719 
L 343.296 295.485741 
L 346.542545 295.485769 
L 349.789091 295.485804 
L 353.035636 295.485849 
L 356.282182 295.485904 
L 359.528727 295.485971 
L 362.775273 295.486051 
L 366.021818 295.486145 
L 369.268364 295.486256 
L 372.514909 295.486382 
L 375.761455 295.486526 
L 379.008 295.486685 
L 382.254545 295.486861 
L 385.501091 295.487052 
L 388.747636 295.487256 
L 391.994182 295.48747 
L 395.240727 295.487693 
L 398.487273 295.487921 
" clip-path="url(#p6083e3ccbe)" style="fill: none; stroke: #9467bd; stroke-width: 1.5; stroke-linecap: square"/>
   </g>
   <g id="line2d_138">
    <path d="M 73.832727 295.488 
L 77.079273 295.487903 
L 80.325818 295.487808 
L 83.572364 295.487717 
L 86.818909 295.48763 
L 90.065455 295.487548 
L 93.312 295.487472 
L 96.558545 295.487403 
L 99.805091 295.48734 
L 103.051636 295.487284 
L 106.298182 295.487235 
L 109.544727 295.487192 
L 112.791273 295.487156 
L 116.037818 295.487125 
L 119.284364 295.487099 
L 122.530909 295.487078 
L 125.777455 295.487061 
L 129.024 295.487047 
L 132.270545 295.487037 
L 135.517091 295.487028 
L 138.763636 295.487022 
L 142.010182 295.487017 
L 145.256727 295.487013 
L 148.503273 295.48701 
L 151.749818 295.487008 
L 154.996364 295.487007 
L 158.242909 295.487006 
L 161.489455 295.487005 
L 164.736 295.487005 
L 167.982545 295.487004 
L 171.229091 295.487004 
L 174.475636 295.487004 
L 177.722182 295.487004 
L 180.968727 295.487004 
L 184.215273 295.487004 
L 187.461818 295.487004 
L 190.708364 295.487004 
L 193.954909 295.487004 
L 197.201455 295.487004 
L 200.448 295.487003 
L 203.694545 295.487003 
L 206.941091 295.487003 
L 210.187636 295.487003 
L 213.434182 295.487003 
L 216.680727 295.487003 
L 219.927273 295.487003 
L 223.173818 295.487003 
L 226.420364 295.487003 
L 229.666909 295.487003 
L 232.913455 295.487003 
L 236.16 295.487003 
L 239.406545 295.487003 
L 242.653091 295.487003 
L 245.899636 295.487003 
L 249.146182 295.487003 
L 252.392727 295.487003 
L 255.639273 295.487003 
L 258.885818 295.487003 
L 262.132364 295.487003 
L 265.378909 295.487003 
L 268.625455 295.487003 
L 271.872 295.487003 
L 275.118545 295.487004 
L 278.365091 295.487004 
L 281.611636 295.487004 
L 284.858182 295.487004 
L 288.104727 295.487004 
L 291.351273 295.487004 
L 294.597818 295.487004 
L 297.844364 295.487004 
L 301.090909 295.487004 
L 304.337455 295.487004 
L 307.584 295.487005 
L 310.830545 295.487005 
L 314.077091 295.487006 
L 317.323636 295.487007 
L 320.570182 295.487008 
L 323.816727 295.48701 
L 327.063273 295.487013 
L 330.309818 295.487017 
L 333.556364 295.487022 
L 336.802909 295.487028 
L 340.049455 295.487037 
L 343.296 295.487047 
L 346.542545 295.487061 
L 349.789091 295.487078 
L 353.035636 295.487099 
L 356.282182 295.487125 
L 359.528727 295.487156 
L 362.775273 295.487192 
L 366.021818 295.487235 
L 369.268364 295.487284 
L 372.514909 295.48734 
L 375.761455 295.487403 
L 379.008 295.487472 
L 382.254545 295.487548 
L 385.501091 295.48763 
L 388.747636 295.487717 
L 391.994182 295.487808 
L 395.240727 295.487903 
L 398.487273 295.488 
" clip-path="url(#p6083e3ccbe)" style="fill: none; stroke: #8c564b; stroke-width: 1.5; stroke-linecap: square"/>
   </g>
   <g id="patch_3">
    <path d="M 57.6 307.584 
L 57.6 41.472 
" style="fill: none; stroke: #000000; stroke-width: 0.8; stroke-linejoin: miter; stroke-linecap: square"/>
   </g>
   <g id="patch_4">
    <path d="M 414.72 307.584 
L 414.72 41.472 
" style="fill: none; stroke: #000000; stroke-width: 0.8; stroke-linejoin: miter; stroke-linecap: square"/>
   </g>
   <g id="patch_5">
    <path d="M 57.6 307.584 
L 414.72 307.584 
" style="fill: none; stroke: #000000; stroke-width: 0.8; stroke-linejoin: miter; stroke-linecap: square"/>
   </g>
   <g id="patch_6">
    <path d="M 57.6 41.472 
L 414.72 41.472 
" style="fill: none; stroke: #000000; stroke-width: 0.8; stroke-linejoin: miter; stroke-linecap: square"/>
   </g>
   <g id="legend_1">
    <g id="patch_7">
     <path d="M 295.3075 299.000125 
L 407.72 299.000125 
Q 409.72 299.000125 409.72 297.000125 
L 409.72 48.472 
Q 409.72 46.472 407.72 46.472 
L 295.3075 46.472 
Q 293.3075 46.472 293.3075 48.472 
L 293.3075 297.000125 
Q 293.3075 299.000125 295.3075 299.000125 
z
" style="fill: #ffffff; opacity: 0.8; stroke: #cccccc; stroke-linejoin: miter"/>
    </g>
    <g id="text_17">
     <!-- Simulation time (day) -->
     <g transform="translate(297.3075 58.070437) scale(0.1 -0.1)">
      <defs>
       <path id="DejaVuSans-53" d="M 3425 4513 
L 3425 3897 
Q 3066 4069 2747 4153 
Q 2428 4238 2131 4238 
Q 1616 4238 1336 4038 
Q 1056 3838 1056 3469 
Q 1056 3159 1242 3001 
Q 1428 2844 1947 2747 
L 2328 2669 
Q 3034 2534 3370 2195 
Q 3706 1856 3706 1288 
Q 3706 609 3251 259 
Q 2797 -91 1919 -91 
Q 1588 -91 1214 -16 
Q 841 59 441 206 
L 441 856 
Q 825 641 1194 531 
Q 1563 422 1919 422 
Q 2459 422 2753 634 
Q 3047 847 3047 1241 
Q 3047 1584 2836 1778 
Q 2625 1972 2144 2069 
L 1759 2144 
Q 1053 2284 737 2584 
Q 422 2884 422 3419 
Q 422 4038 858 4394 
Q 1294 4750 2059 4750 
Q 2388 4750 2728 4690 
Q 3069 4631 3425 4513 
z
" transform="scale(0.015625)"/>
       <path id="DejaVuSans-6c" d="M 603 4863 
L 1178 4863 
L 1178 0 
L 603 0 
L 603 4863 
z
" transform="scale(0.015625)"/>
       <path id="DejaVuSans-6f" d="M 1959 3097 
Q 1497 3097 1228 2736 
Q 959 2375 959 1747 
Q 959 1119 1226 758 
Q 1494 397 1959 397 
Q 2419 397 2687 759 
Q 2956 1122 2956 1747 
Q 2956 2369 2687 2733 
Q 2419 3097 1959 3097 
z
M 1959 3584 
Q 2709 3584 3137 3096 
Q 3566 2609 3566 1747 
Q 3566 888 3137 398 
Q 2709 -91 1959 -91 
Q 1206 -91 779 398 
Q 353 888 353 1747 
Q 353 2609 779 3096 
Q 1206 3584 1959 3584 
z
" transform="scale(0.015625)"/>
       <path id="DejaVuSans-6e" d="M 3513 2113 
L 3513 0 
L 2938 0 
L 2938 2094 
Q 2938 2591 2744 2837 
Q 2550 3084 2163 3084 
Q 1697 3084 1428 2787 
Q 1159 2491 1159 1978 
L 1159 0 
L 581 0 
L 581 3500 
L 1159 3500 
L 1159 2956 
Q 1366 3272 1645 3428 
Q 1925 3584 2291 3584 
Q 2894 3584 3203 3211 
Q 3513 2838 3513 2113 
z
" transform="scale(0.015625)"/>
       <path id="DejaVuSans-64" d="M 2906 2969 
L 2906 4863 
L 3481 4863 
L 3481 0 
L 2906 0 
L 2906 525 
Q 2725 213 2448 61 
Q 2172 -91 1784 -91 
Q 1150 -91 751 415 
Q 353 922 353 1747 
Q 353 2572 751 3078 
Q 1150 3584 1784 3584 
Q 2172 3584 2448 3432 
Q 2725 3281 2906 2969 
z
M 947 1747 
Q 947 1113 1208 752 
Q 1469 391 1925 391 
Q 2381 391 2643 752 
Q 2906 1113 2906 1747 
Q 2906 2381 2643 2742 
Q 2381 3103 1925 3103 
Q 1469 3103 1208 2742 
Q 947 2381 947 1747 
z
" transform="scale(0.015625)"/>
       <path id="DejaVuSans-79" d="M 2059 -325 
Q 1816 -950 1584 -1140 
Q 1353 -1331 966 -1331 
L 506 -1331 
L 506 -850 
L 844 -850 
Q 1081 -850 1212 -737 
Q 1344 -625 1503 -206 
L 1606 56 
L 191 3500 
L 800 3500 
L 1894 763 
L 2988 3500 
L 3597 3500 
L 2059 -325 
z
" transform="scale(0.015625)"/>
      </defs>
      <use xlink:href="#DejaVuSans-53"/>
      <use xlink:href="#DejaVuSans-69" x="63.476562"/>
      <use xlink:href="#DejaVuSans-6d" x="91.259766"/>
      <use xlink:href="#DejaVuSans-75" x="188.671875"/>
      <use xlink:href="#DejaVuSans-6c" x="252.050781"/>
      <use xlink:href="#DejaVuSans-61" x="279.833984"/>
      <use xlink:href="#DejaVuSans-74" x="341.113281"/>
      <use xlink:href="#DejaVuSans-69" x="380.322266"/>
      <use xlink:href="#DejaVuSans-6f" x="408.105469"/>
      <use xlink:href="#DejaVuSans-6e" x="469.287109"/>
      <use xlink:href="#DejaVuSans-20" x="532.666016"/>
      <use xlink:href="#DejaVuSans-74" x="564.453125"/>
      <use xlink:href="#DejaVuSans-69" x="603.662109"/>
      <use xlink:href="#DejaVuSans-6d" x="631.445312"/>
      <use xlink:href="#DejaVuSans-65" x="728.857422"/>
      <use xlink:href="#DejaVuSans-20" x="790.380859"/>
      <use xlink:href="#DejaVuSans-28" x="822.167969"/>
      <use xlink:href="#DejaVuSans-64" x="861.181641"/>
      <use xlink:href="#DejaVuSans-61" x="924.658203"/>
      <use xlink:href="#DejaVuSans-79" x="985.9375"/>
      <use xlink:href="#DejaVuSans-29" x="1045.117188"/>
     </g>
    </g>
    <g id="line2d_139">
     <path d="M 326.380938 69.248562 
L 336.380938 69.248562 
L 346.380938 69.248562 
" style="fill: none; stroke: #1f77b4; stroke-width: 1.5; stroke-linecap: square"/>
    </g>
    <g id="text_18">
     <!-- 0.0 -->
     <g transform="translate(354.380938 72.748562) scale(0.1 -0.1)">
      <defs>
       <path id="DejaVuSans-2e" d="M 684 794 
L 1344 794 
L 1344 0 
L 684 0 
L 684 794 
z
" transform="scale(0.015625)"/>
      </defs>
      <use xlink:href="#DejaVuSans-30"/>
      <use xlink:href="#DejaVuSans-2e" x="63.623047"/>
      <use xlink:href="#DejaVuSans-30" x="95.410156"/>
     </g>
    </g>
    <g id="line2d_140">
     <path d="M 326.380938 83.926688 
L 336.380938 83.926688 
L 346.380938 83.926688 
" style="fill: none; stroke: #ff7f0e; stroke-width: 1.5; stroke-linecap: square"/>
    </g>
    <g id="text_19">
     <!-- 2.0 -->
     <g transform="translate(354.380938 87.426688) scale(0.1 -0.1)">
      <use xlink:href="#DejaVuSans-32"/>
      <use xlink:href="#DejaVuSans-2e" x="63.623047"/>
      <use xlink:href="#DejaVuSans-30" x="95.410156"/>
     </g>
    </g>
    <g id="line2d_141">
     <path d="M 326.380938 98.604813 
L 336.380938 98.604813 
L 346.380938 98.604813 
" style="fill: none; stroke: #2ca02c; stroke-width: 1.5; stroke-linecap: square"/>
    </g>
    <g id="text_20">
     <!-- 4.0 -->
     <g transform="translate(354.380938 102.104813) scale(0.1 -0.1)">
      <use xlink:href="#DejaVuSans-34"/>
      <use xlink:href="#DejaVuSans-2e" x="63.623047"/>
      <use xlink:href="#DejaVuSans-30" x="95.410156"/>
     </g>
    </g>
    <g id="line2d_142">
     <path d="M 326.380938 113.282938 
L 336.380938 113.282938 
L 346.380938 113.282938 
" style="fill: none; stroke: #d62728; stroke-width: 1.5; stroke-linecap: square"/>
    </g>
    <g id="text_21">
     <!-- 6.0 -->
     <g transform="translate(354.380938 116.782938) scale(0.1 -0.1)">
      <use xlink:href="#DejaVuSans-36"/>
      <use xlink:href="#DejaVuSans-2e" x="63.623047"/>
      <use xlink:href="#DejaVuSans-30" x="95.410156"/>
     </g>
    </g>
    <g id="line2d_143">
     <path d="M 326.380938 127.961062 
L 336.380938 127.961062 
L 346.380938 127.961062 
" style="fill: none; stroke: #9467bd; stroke-width: 1.5; stroke-linecap: square"/>
    </g>
    <g id="text_22">
     <!-- 8.0 -->
     <g transform="translate(354.380938 131.461062) scale(0.1 -0.1)">
      <use xlink:href="#DejaVuSans-38"/>
      <use xlink:href="#DejaVuSans-2e" x="63.623047"/>
      <use xlink:href="#DejaVuSans-30" x="95.410156"/>
     </g>
    </g>
    <g id="line2d_144">
     <path d="M 326.380938 142.639188 
L 336.380938 142.639188 
L 346.380938 142.639188 
" style="fill: none; stroke: #8c564b; stroke-width: 1.5; stroke-linecap: square"/>
    </g>
    <g id="text_23">
     <!-- 10.0 -->
     <g transform="translate(354.380938 146.139188) scale(0.1 -0.1)">
      <use xlink:href="#DejaVuSans-31"/>
      <use xlink:href="#DejaVuSans-30" x="63.623047"/>
      <use xlink:href="#DejaVuSans-2e" x="127.246094"/>
      <use xlink:href="#DejaVuSans-30" x="159.033203"/>
     </g>
    </g>
    <g id="line2d_145">
     <path d="M 326.380938 157.317312 
L 336.380938 157.317312 
L 346.380938 157.317312 
" style="fill: none; stroke: #e377c2; stroke-width: 1.5; stroke-linecap: square"/>
    </g>
    <g id="text_24">
     <!-- 12.0 -->
     <g transform="translate(354.380938 160.817312) scale(0.1 -0.1)">
      <use xlink:href="#DejaVuSans-31"/>
      <use xlink:href="#DejaVuSans-32" x="63.623047"/>
      <use xlink:href="#DejaVuSans-2e" x="127.246094"/>
      <use xlink:href="#DejaVuSans-30" x="159.033203"/>
     </g>
    </g>
    <g id="line2d_146">
     <path d="M 326.380938 171.995437 
L 336.380938 171.995437 
L 346.380938 171.995437 
" style="fill: none; stroke: #7f7f7f; stroke-width: 1.5; stroke-linecap: square"/>
    </g>
    <g id="text_25">
     <!-- 14.0 -->
     <g transform="translate(354.380938 175.495437) scale(0.1 -0.1)">
      <use xlink:href="#DejaVuSans-31"/>
      <use xlink:href="#DejaVuSans-34" x="63.623047"/>
      <use xlink:href="#DejaVuSans-2e" x="127.246094"/>
      <use xlink:href="#DejaVuSans-30" x="159.033203"/>
     </g>
    </g>
    <g id="line2d_147">
     <path d="M 326.380938 186.673563 
L 336.380938 186.673563 
L 346.380938 186.673563 
" style="fill: none; stroke: #bcbd22; stroke-width: 1.5; stroke-linecap: square"/>
    </g>
    <g id="text_26">
     <!-- 16.0 -->
     <g transform="translate(354.380938 190.173563) scale(0.1 -0.1)">
      <use xlink:href="#DejaVuSans-31"/>
      <use xlink:href="#DejaVuSans-36" x="63.623047"/>
      <use xlink:href="#DejaVuSans-2e" x="127.246094"/>
      <use xlink:href="#DejaVuSans-30" x="159.033203"/>
     </g>
    </g>
    <g id="line2d_148">
     <path d="M 326.380938 201.351687 
L 336.380938 201.351687 
L 346.380938 201.351687 
" style="fill: none; stroke: #17becf; stroke-width: 1.5; stroke-linecap: square"/>
    </g>
    <g id="text_27">
     <!-- 18.0 -->
     <g transform="translate(354.380938 204.851687) scale(0.1 -0.1)">
      <use xlink:href="#DejaVuSans-31"/>
      <use xlink:href="#DejaVuSans-38" x="63.623047"/>
      <use xlink:href="#DejaVuSans-2e" x="127.246094"/>
      <use xlink:href="#DejaVuSans-30" x="159.033203"/>
     </g>
    </g>
    <g id="line2d_149">
     <path d="M 326.380938 216.029812 
L 336.380938 216.029812 
L 346.380938 216.029812 
" style="fill: none; stroke: #1f77b4; stroke-width: 1.5; stroke-linecap: square"/>
    </g>
    <g id="text_28">
     <!-- 20.0 -->
     <g transform="translate(354.380938 219.529812) scale(0.1 -0.1)">
      <use xlink:href="#DejaVuSans-32"/>
      <use xlink:href="#DejaVuSans-30" x="63.623047"/>
      <use xlink:href="#DejaVuSans-2e" x="127.246094"/>
      <use xlink:href="#DejaVuSans-30" x="159.033203"/>
     </g>
    </g>
    <g id="line2d_150">
     <path d="M 326.380938 230.707937 
L 336.380938 230.707937 
L 346.380938 230.707937 
" style="fill: none; stroke: #ff7f0e; stroke-width: 1.5; stroke-linecap: square"/>
    </g>
    <g id="text_29">
     <!-- 22.0 -->
     <g transform="translate(354.380938 234.207937) scale(0.1 -0.1)">
      <use xlink:href="#DejaVuSans-32"/>
      <use xlink:href="#DejaVuSans-32" x="63.623047"/>
      <use xlink:href="#DejaVuSans-2e" x="127.246094"/>
      <use xlink:href="#DejaVuSans-30" x="159.033203"/>
     </g>
    </g>
    <g id="line2d_151">
     <path d="M 326.380938 245.386062 
L 336.380938 245.386062 
L 346.380938 245.386062 
" style="fill: none; stroke: #2ca02c; stroke-width: 1.5; stroke-linecap: square"/>
    </g>
    <g id="text_30">
     <!-- 24.0 -->
     <g transform="translate(354.380938 248.886062) scale(0.1 -0.1)">
      <use xlink:href="#DejaVuSans-32"/>
      <use xlink:href="#DejaVuSans-34" x="63.623047"/>
      <use xlink:href="#DejaVuSans-2e" x="127.246094"/>
      <use xlink:href="#DejaVuSans-30" x="159.033203"/>
     </g>
    </g>
    <g id="line2d_152">
     <path d="M 326.380938 260.064187 
L 336.380938 260.064187 
L 346.380938 260.064187 
" style="fill: none; stroke: #d62728; stroke-width: 1.5; stroke-linecap: square"/>
    </g>
    <g id="text_31">
     <!-- 26.0 -->
     <g transform="translate(354.380938 263.564187) scale(0.1 -0.1)">
      <use xlink:href="#DejaVuSans-32"/>
      <use xlink:href="#DejaVuSans-36" x="63.623047"/>
      <use xlink:href="#DejaVuSans-2e" x="127.246094"/>
      <use xlink:href="#DejaVuSans-30" x="159.033203"/>
     </g>
    </g>
    <g id="line2d_153">
     <path d="M 326.380938 274.742312 
L 336.380938 274.742312 
L 346.380938 274.742312 
" style="fill: none; stroke: #9467bd; stroke-width: 1.5; stroke-linecap: square"/>
    </g>
    <g id="text_32">
     <!-- 28.0 -->
     <g transform="translate(354.380938 278.242312) scale(0.1 -0.1)">
      <use xlink:href="#DejaVuSans-32"/>
      <use xlink:href="#DejaVuSans-38" x="63.623047"/>
      <use xlink:href="#DejaVuSans-2e" x="127.246094"/>
      <use xlink:href="#DejaVuSans-30" x="159.033203"/>
     </g>
    </g>
    <g id="line2d_154">
     <path d="M 326.380938 289.420437 
L 336.380938 289.420437 
L 346.380938 289.420437 
" style="fill: none; stroke: #8c564b; stroke-width: 1.5; stroke-linecap: square"/>
    </g>
    <g id="text_33">
     <!-- 30.0 -->
     <g transform="translate(354.380938 292.920437) scale(0.1 -0.1)">
      <use xlink:href="#DejaVuSans-33"/>
      <use xlink:href="#DejaVuSans-30" x="63.623047"/>
      <use xlink:href="#DejaVuSans-2e" x="127.246094"/>
      <use xlink:href="#DejaVuSans-30" x="159.033203"/>
     </g>
    </g>
   </g>
  </g>
 </g>
 <defs>
  <clipPath id="p6083e3ccbe">
   <rect x="57.6" y="41.472" width="357.12" height="266.112"/>
  </clipPath>
 </defs>
</svg>
