<?xml version="1.0" encoding="utf-8" standalone="no"?>
<!DOCTYPE svg PUBLIC "-//W3C//DTD SVG 1.1//EN"
  "http://www.w3.org/Graphics/SVG/1.1/DTD/svg11.dtd">
<svg xmlns:xlink="http://www.w3.org/1999/xlink" width="460.8pt" height="345.6pt" viewBox="0 0 460.8 345.6" xmlns="http://www.w3.org/2000/svg" version="1.1">
 <metadata>
  <rdf:RDF xmlns:dc="http://purl.org/dc/elements/1.1/" xmlns:cc="http://creativecommons.org/ns#" xmlns:rdf="http://www.w3.org/1999/02/22-rdf-syntax-ns#">
   <cc:Work>
    <dc:type rdf:resource="http://purl.org/dc/dcmitype/StillImage"/>
    <dc:date>2024-03-06T13:04:21.543835</dc:date>
    <dc:format>image/svg+xml</dc:format>
    <dc:creator>
     <cc:Agent>
      <dc:title>Matplotlib v3.8.3, https://matplotlib.org/</dc:title>
     </cc:Agent>
    </dc:creator>
   </cc:Work>
  </rdf:RDF>
 </metadata>
 <defs>
  <style type="text/css">*{stroke-linejoin: round; stroke-linecap: butt}</style>
 </defs>
 <g id="figure_1">
  <g id="patch_1">
   <path d="M 0 345.6 
L 460.8 345.6 
L 460.8 0 
L 0 0 
z
" style="fill: #ffffff"/>
  </g>
  <g id="axes_1">
   <g id="patch_2">
    <path d="M 57.6 307.584 
L 414.72 307.584 
L 414.72 41.472 
L 57.6 41.472 
z
" style="fill: #ffffff"/>
   </g>
   <g id="matplotlib.axis_1">
    <g id="xtick_1">
     <g id="line2d_1">
      <path d="M 73.832727 307.584 
L 73.832727 41.472 
" clip-path="url(#pf91093cad5)" style="fill: none; stroke: #dddddd; stroke-linecap: square"/>
     </g>
     <g id="line2d_2">
      <defs>
       <path id="m9a070e74e1" d="M 0 0 
L 0 3.5 
" style="stroke: #000000; stroke-width: 0.8"/>
      </defs>
      <g>
       <use xlink:href="#m9a070e74e1" x="73.832727" y="307.584" style="stroke: #000000; stroke-width: 0.8"/>
      </g>
     </g>
     <g id="text_1">
      <!-- 0.000 -->
      <g transform="translate(59.518665 322.182437) scale(0.1 -0.1)">
       <defs>
        <path id="DejaVuSans-30" d="M 2034 4250 
Q 1547 4250 1301 3770 
Q 1056 3291 1056 2328 
Q 1056 1369 1301 889 
Q 1547 409 2034 409 
Q 2525 409 2770 889 
Q 3016 1369 3016 2328 
Q 3016 3291 2770 3770 
Q 2525 4250 2034 4250 
z
M 2034 4750 
Q 2819 4750 3233 4129 
Q 3647 3509 3647 2328 
Q 3647 1150 3233 529 
Q 2819 -91 2034 -91 
Q 1250 -91 836 529 
Q 422 1150 422 2328 
Q 422 3509 836 4129 
Q 1250 4750 2034 4750 
z
" transform="scale(0.015625)"/>
        <path id="DejaVuSans-2e" d="M 684 794 
L 1344 794 
L 1344 0 
L 684 0 
L 684 794 
z
" transform="scale(0.015625)"/>
       </defs>
       <use xlink:href="#DejaVuSans-30"/>
       <use xlink:href="#DejaVuSans-2e" x="63.623047"/>
       <use xlink:href="#DejaVuSans-30" x="95.410156"/>
       <use xlink:href="#DejaVuSans-30" x="159.033203"/>
       <use xlink:href="#DejaVuSans-30" x="222.65625"/>
      </g>
     </g>
    </g>
    <g id="xtick_2">
     <g id="line2d_3">
      <path d="M 138.763636 307.584 
L 138.763636 41.472 
" clip-path="url(#pf91093cad5)" style="fill: none; stroke: #dddddd; stroke-linecap: square"/>
     </g>
     <g id="line2d_4">
      <g>
       <use xlink:href="#m9a070e74e1" x="138.763636" y="307.584" style="stroke: #000000; stroke-width: 0.8"/>
      </g>
     </g>
     <g id="text_2">
      <!-- 0.005 -->
      <g transform="translate(124.449574 322.182437) scale(0.1 -0.1)">
       <defs>
        <path id="DejaVuSans-35" d="M 691 4666 
L 3169 4666 
L 3169 4134 
L 1269 4134 
L 1269 2991 
Q 1406 3038 1543 3061 
Q 1681 3084 1819 3084 
Q 2600 3084 3056 2656 
Q 3513 2228 3513 1497 
Q 3513 744 3044 326 
Q 2575 -91 1722 -91 
Q 1428 -91 1123 -41 
Q 819 9 494 109 
L 494 744 
Q 775 591 1075 516 
Q 1375 441 1709 441 
Q 2250 441 2565 725 
Q 2881 1009 2881 1497 
Q 2881 1984 2565 2268 
Q 2250 2553 1709 2553 
Q 1456 2553 1204 2497 
Q 953 2441 691 2322 
L 691 4666 
z
" transform="scale(0.015625)"/>
       </defs>
       <use xlink:href="#DejaVuSans-30"/>
       <use xlink:href="#DejaVuSans-2e" x="63.623047"/>
       <use xlink:href="#DejaVuSans-30" x="95.410156"/>
       <use xlink:href="#DejaVuSans-30" x="159.033203"/>
       <use xlink:href="#DejaVuSans-35" x="222.65625"/>
      </g>
     </g>
    </g>
    <g id="xtick_3">
     <g id="line2d_5">
      <path d="M 203.694545 307.584 
L 203.694545 41.472 
" clip-path="url(#pf91093cad5)" style="fill: none; stroke: #dddddd; stroke-linecap: square"/>
     </g>
     <g id="line2d_6">
      <g>
       <use xlink:href="#m9a070e74e1" x="203.694545" y="307.584" style="stroke: #000000; stroke-width: 0.8"/>
      </g>
     </g>
     <g id="text_3">
      <!-- 0.010 -->
      <g transform="translate(189.380483 322.182437) scale(0.1 -0.1)">
       <defs>
        <path id="DejaVuSans-31" d="M 794 531 
L 1825 531 
L 1825 4091 
L 703 3866 
L 703 4441 
L 1819 4666 
L 2450 4666 
L 2450 531 
L 3481 531 
L 3481 0 
L 794 0 
L 794 531 
z
" transform="scale(0.015625)"/>
       </defs>
       <use xlink:href="#DejaVuSans-30"/>
       <use xlink:href="#DejaVuSans-2e" x="63.623047"/>
       <use xlink:href="#DejaVuSans-30" x="95.410156"/>
       <use xlink:href="#DejaVuSans-31" x="159.033203"/>
       <use xlink:href="#DejaVuSans-30" x="222.65625"/>
      </g>
     </g>
    </g>
    <g id="xtick_4">
     <g id="line2d_7">
      <path d="M 268.625455 307.584 
L 268.625455 41.472 
" clip-path="url(#pf91093cad5)" style="fill: none; stroke: #dddddd; stroke-linecap: square"/>
     </g>
     <g id="line2d_8">
      <g>
       <use xlink:href="#m9a070e74e1" x="268.625455" y="307.584" style="stroke: #000000; stroke-width: 0.8"/>
      </g>
     </g>
     <g id="text_4">
      <!-- 0.015 -->
      <g transform="translate(254.311392 322.182437) scale(0.1 -0.1)">
       <use xlink:href="#DejaVuSans-30"/>
       <use xlink:href="#DejaVuSans-2e" x="63.623047"/>
       <use xlink:href="#DejaVuSans-30" x="95.410156"/>
       <use xlink:href="#DejaVuSans-31" x="159.033203"/>
       <use xlink:href="#DejaVuSans-35" x="222.65625"/>
      </g>
     </g>
    </g>
    <g id="xtick_5">
     <g id="line2d_9">
      <path d="M 333.556364 307.584 
L 333.556364 41.472 
" clip-path="url(#pf91093cad5)" style="fill: none; stroke: #dddddd; stroke-linecap: square"/>
     </g>
     <g id="line2d_10">
      <g>
       <use xlink:href="#m9a070e74e1" x="333.556364" y="307.584" style="stroke: #000000; stroke-width: 0.8"/>
      </g>
     </g>
     <g id="text_5">
      <!-- 0.020 -->
      <g transform="translate(319.242301 322.182437) scale(0.1 -0.1)">
       <defs>
        <path id="DejaVuSans-32" d="M 1228 531 
L 3431 531 
L 3431 0 
L 469 0 
L 469 531 
Q 828 903 1448 1529 
Q 2069 2156 2228 2338 
Q 2531 2678 2651 2914 
Q 2772 3150 2772 3378 
Q 2772 3750 2511 3984 
Q 2250 4219 1831 4219 
Q 1534 4219 1204 4116 
Q 875 4013 500 3803 
L 500 4441 
Q 881 4594 1212 4672 
Q 1544 4750 1819 4750 
Q 2544 4750 2975 4387 
Q 3406 4025 3406 3419 
Q 3406 3131 3298 2873 
Q 3191 2616 2906 2266 
Q 2828 2175 2409 1742 
Q 1991 1309 1228 531 
z
" transform="scale(0.015625)"/>
       </defs>
       <use xlink:href="#DejaVuSans-30"/>
       <use xlink:href="#DejaVuSans-2e" x="63.623047"/>
       <use xlink:href="#DejaVuSans-30" x="95.410156"/>
       <use xlink:href="#DejaVuSans-32" x="159.033203"/>
       <use xlink:href="#DejaVuSans-30" x="222.65625"/>
      </g>
     </g>
    </g>
    <g id="xtick_6">
     <g id="line2d_11">
      <path d="M 398.487273 307.584 
L 398.487273 41.472 
" clip-path="url(#pf91093cad5)" style="fill: none; stroke: #dddddd; stroke-linecap: square"/>
     </g>
     <g id="line2d_12">
      <g>
       <use xlink:href="#m9a070e74e1" x="398.487273" y="307.584" style="stroke: #000000; stroke-width: 0.8"/>
      </g>
     </g>
     <g id="text_6">
      <!-- 0.025 -->
      <g transform="translate(384.17321 322.182437) scale(0.1 -0.1)">
       <use xlink:href="#DejaVuSans-30"/>
       <use xlink:href="#DejaVuSans-2e" x="63.623047"/>
       <use xlink:href="#DejaVuSans-30" x="95.410156"/>
       <use xlink:href="#DejaVuSans-32" x="159.033203"/>
       <use xlink:href="#DejaVuSans-35" x="222.65625"/>
      </g>
     </g>
    </g>
    <g id="xtick_7">
     <g id="line2d_13">
      <path d="M 60.846545 307.584 
L 60.846545 41.472 
" clip-path="url(#pf91093cad5)" style="fill: none; stroke-dasharray: 0.8,1.32; stroke-dashoffset: 0; stroke: #eeeeee; stroke-width: 0.8"/>
     </g>
     <g id="line2d_14">
      <defs>
       <path id="m684e52e701" d="M 0 0 
L 0 2 
" style="stroke: #000000; stroke-width: 0.6"/>
      </defs>
      <g>
       <use xlink:href="#m684e52e701" x="60.846545" y="307.584" style="stroke: #000000; stroke-width: 0.6"/>
      </g>
     </g>
    </g>
    <g id="xtick_8">
     <g id="line2d_15">
      <path d="M 86.818909 307.584 
L 86.818909 41.472 
" clip-path="url(#pf91093cad5)" style="fill: none; stroke-dasharray: 0.8,1.32; stroke-dashoffset: 0; stroke: #eeeeee; stroke-width: 0.8"/>
     </g>
     <g id="line2d_16">
      <g>
       <use xlink:href="#m684e52e701" x="86.818909" y="307.584" style="stroke: #000000; stroke-width: 0.6"/>
      </g>
     </g>
    </g>
    <g id="xtick_9">
     <g id="line2d_17">
      <path d="M 99.805091 307.584 
L 99.805091 41.472 
" clip-path="url(#pf91093cad5)" style="fill: none; stroke-dasharray: 0.8,1.32; stroke-dashoffset: 0; stroke: #eeeeee; stroke-width: 0.8"/>
     </g>
     <g id="line2d_18">
      <g>
       <use xlink:href="#m684e52e701" x="99.805091" y="307.584" style="stroke: #000000; stroke-width: 0.6"/>
      </g>
     </g>
    </g>
    <g id="xtick_10">
     <g id="line2d_19">
      <path d="M 112.791273 307.584 
L 112.791273 41.472 
" clip-path="url(#pf91093cad5)" style="fill: none; stroke-dasharray: 0.8,1.32; stroke-dashoffset: 0; stroke: #eeeeee; stroke-width: 0.8"/>
     </g>
     <g id="line2d_20">
      <g>
       <use xlink:href="#m684e52e701" x="112.791273" y="307.584" style="stroke: #000000; stroke-width: 0.6"/>
      </g>
     </g>
    </g>
    <g id="xtick_11">
     <g id="line2d_21">
      <path d="M 125.777455 307.584 
L 125.777455 41.472 
" clip-path="url(#pf91093cad5)" style="fill: none; stroke-dasharray: 0.8,1.32; stroke-dashoffset: 0; stroke: #eeeeee; stroke-width: 0.8"/>
     </g>
     <g id="line2d_22">
      <g>
       <use xlink:href="#m684e52e701" x="125.777455" y="307.584" style="stroke: #000000; stroke-width: 0.6"/>
      </g>
     </g>
    </g>
    <g id="xtick_12">
     <g id="line2d_23">
      <path d="M 151.749818 307.584 
L 151.749818 41.472 
" clip-path="url(#pf91093cad5)" style="fill: none; stroke-dasharray: 0.8,1.32; stroke-dashoffset: 0; stroke: #eeeeee; stroke-width: 0.8"/>
     </g>
     <g id="line2d_24">
      <g>
       <use xlink:href="#m684e52e701" x="151.749818" y="307.584" style="stroke: #000000; stroke-width: 0.6"/>
      </g>
     </g>
    </g>
    <g id="xtick_13">
     <g id="line2d_25">
      <path d="M 164.736 307.584 
L 164.736 41.472 
" clip-path="url(#pf91093cad5)" style="fill: none; stroke-dasharray: 0.8,1.32; stroke-dashoffset: 0; stroke: #eeeeee; stroke-width: 0.8"/>
     </g>
     <g id="line2d_26">
      <g>
       <use xlink:href="#m684e52e701" x="164.736" y="307.584" style="stroke: #000000; stroke-width: 0.6"/>
      </g>
     </g>
    </g>
    <g id="xtick_14">
     <g id="line2d_27">
      <path d="M 177.722182 307.584 
L 177.722182 41.472 
" clip-path="url(#pf91093cad5)" style="fill: none; stroke-dasharray: 0.8,1.32; stroke-dashoffset: 0; stroke: #eeeeee; stroke-width: 0.8"/>
     </g>
     <g id="line2d_28">
      <g>
       <use xlink:href="#m684e52e701" x="177.722182" y="307.584" style="stroke: #000000; stroke-width: 0.6"/>
      </g>
     </g>
    </g>
    <g id="xtick_15">
     <g id="line2d_29">
      <path d="M 190.708364 307.584 
L 190.708364 41.472 
" clip-path="url(#pf91093cad5)" style="fill: none; stroke-dasharray: 0.8,1.32; stroke-dashoffset: 0; stroke: #eeeeee; stroke-width: 0.8"/>
     </g>
     <g id="line2d_30">
      <g>
       <use xlink:href="#m684e52e701" x="190.708364" y="307.584" style="stroke: #000000; stroke-width: 0.6"/>
      </g>
     </g>
    </g>
    <g id="xtick_16">
     <g id="line2d_31">
      <path d="M 216.680727 307.584 
L 216.680727 41.472 
" clip-path="url(#pf91093cad5)" style="fill: none; stroke-dasharray: 0.8,1.32; stroke-dashoffset: 0; stroke: #eeeeee; stroke-width: 0.8"/>
     </g>
     <g id="line2d_32">
      <g>
       <use xlink:href="#m684e52e701" x="216.680727" y="307.584" style="stroke: #000000; stroke-width: 0.6"/>
      </g>
     </g>
    </g>
    <g id="xtick_17">
     <g id="line2d_33">
      <path d="M 229.666909 307.584 
L 229.666909 41.472 
" clip-path="url(#pf91093cad5)" style="fill: none; stroke-dasharray: 0.8,1.32; stroke-dashoffset: 0; stroke: #eeeeee; stroke-width: 0.8"/>
     </g>
     <g id="line2d_34">
      <g>
       <use xlink:href="#m684e52e701" x="229.666909" y="307.584" style="stroke: #000000; stroke-width: 0.6"/>
      </g>
     </g>
    </g>
    <g id="xtick_18">
     <g id="line2d_35">
      <path d="M 242.653091 307.584 
L 242.653091 41.472 
" clip-path="url(#pf91093cad5)" style="fill: none; stroke-dasharray: 0.8,1.32; stroke-dashoffset: 0; stroke: #eeeeee; stroke-width: 0.8"/>
     </g>
     <g id="line2d_36">
      <g>
       <use xlink:href="#m684e52e701" x="242.653091" y="307.584" style="stroke: #000000; stroke-width: 0.6"/>
      </g>
     </g>
    </g>
    <g id="xtick_19">
     <g id="line2d_37">
      <path d="M 255.639273 307.584 
L 255.639273 41.472 
" clip-path="url(#pf91093cad5)" style="fill: none; stroke-dasharray: 0.8,1.32; stroke-dashoffset: 0; stroke: #eeeeee; stroke-width: 0.8"/>
     </g>
     <g id="line2d_38">
      <g>
       <use xlink:href="#m684e52e701" x="255.639273" y="307.584" style="stroke: #000000; stroke-width: 0.6"/>
      </g>
     </g>
    </g>
    <g id="xtick_20">
     <g id="line2d_39">
      <path d="M 281.611636 307.584 
L 281.611636 41.472 
" clip-path="url(#pf91093cad5)" style="fill: none; stroke-dasharray: 0.8,1.32; stroke-dashoffset: 0; stroke: #eeeeee; stroke-width: 0.8"/>
     </g>
     <g id="line2d_40">
      <g>
       <use xlink:href="#m684e52e701" x="281.611636" y="307.584" style="stroke: #000000; stroke-width: 0.6"/>
      </g>
     </g>
    </g>
    <g id="xtick_21">
     <g id="line2d_41">
      <path d="M 294.597818 307.584 
L 294.597818 41.472 
" clip-path="url(#pf91093cad5)" style="fill: none; stroke-dasharray: 0.8,1.32; stroke-dashoffset: 0; stroke: #eeeeee; stroke-width: 0.8"/>
     </g>
     <g id="line2d_42">
      <g>
       <use xlink:href="#m684e52e701" x="294.597818" y="307.584" style="stroke: #000000; stroke-width: 0.6"/>
      </g>
     </g>
    </g>
    <g id="xtick_22">
     <g id="line2d_43">
      <path d="M 307.584 307.584 
L 307.584 41.472 
" clip-path="url(#pf91093cad5)" style="fill: none; stroke-dasharray: 0.8,1.32; stroke-dashoffset: 0; stroke: #eeeeee; stroke-width: 0.8"/>
     </g>
     <g id="line2d_44">
      <g>
       <use xlink:href="#m684e52e701" x="307.584" y="307.584" style="stroke: #000000; stroke-width: 0.6"/>
      </g>
     </g>
    </g>
    <g id="xtick_23">
     <g id="line2d_45">
      <path d="M 320.570182 307.584 
L 320.570182 41.472 
" clip-path="url(#pf91093cad5)" style="fill: none; stroke-dasharray: 0.8,1.32; stroke-dashoffset: 0; stroke: #eeeeee; stroke-width: 0.8"/>
     </g>
     <g id="line2d_46">
      <g>
       <use xlink:href="#m684e52e701" x="320.570182" y="307.584" style="stroke: #000000; stroke-width: 0.6"/>
      </g>
     </g>
    </g>
    <g id="xtick_24">
     <g id="line2d_47">
      <path d="M 346.542545 307.584 
L 346.542545 41.472 
" clip-path="url(#pf91093cad5)" style="fill: none; stroke-dasharray: 0.8,1.32; stroke-dashoffset: 0; stroke: #eeeeee; stroke-width: 0.8"/>
     </g>
     <g id="line2d_48">
      <g>
       <use xlink:href="#m684e52e701" x="346.542545" y="307.584" style="stroke: #000000; stroke-width: 0.6"/>
      </g>
     </g>
    </g>
    <g id="xtick_25">
     <g id="line2d_49">
      <path d="M 359.528727 307.584 
L 359.528727 41.472 
" clip-path="url(#pf91093cad5)" style="fill: none; stroke-dasharray: 0.8,1.32; stroke-dashoffset: 0; stroke: #eeeeee; stroke-width: 0.8"/>
     </g>
     <g id="line2d_50">
      <g>
       <use xlink:href="#m684e52e701" x="359.528727" y="307.584" style="stroke: #000000; stroke-width: 0.6"/>
      </g>
     </g>
    </g>
    <g id="xtick_26">
     <g id="line2d_51">
      <path d="M 372.514909 307.584 
L 372.514909 41.472 
" clip-path="url(#pf91093cad5)" style="fill: none; stroke-dasharray: 0.8,1.32; stroke-dashoffset: 0; stroke: #eeeeee; stroke-width: 0.8"/>
     </g>
     <g id="line2d_52">
      <g>
       <use xlink:href="#m684e52e701" x="372.514909" y="307.584" style="stroke: #000000; stroke-width: 0.6"/>
      </g>
     </g>
    </g>
    <g id="xtick_27">
     <g id="line2d_53">
      <path d="M 385.501091 307.584 
L 385.501091 41.472 
" clip-path="url(#pf91093cad5)" style="fill: none; stroke-dasharray: 0.8,1.32; stroke-dashoffset: 0; stroke: #eeeeee; stroke-width: 0.8"/>
     </g>
     <g id="line2d_54">
      <g>
       <use xlink:href="#m684e52e701" x="385.501091" y="307.584" style="stroke: #000000; stroke-width: 0.6"/>
      </g>
     </g>
    </g>
    <g id="xtick_28">
     <g id="line2d_55">
      <path d="M 411.473455 307.584 
L 411.473455 41.472 
" clip-path="url(#pf91093cad5)" style="fill: none; stroke-dasharray: 0.8,1.32; stroke-dashoffset: 0; stroke: #eeeeee; stroke-width: 0.8"/>
     </g>
     <g id="line2d_56">
      <g>
       <use xlink:href="#m684e52e701" x="411.473455" y="307.584" style="stroke: #000000; stroke-width: 0.6"/>
      </g>
     </g>
    </g>
    <g id="text_7">
     <!-- Sphere radial position (m) -->
     <g transform="translate(171.067031 335.860562) scale(0.1 -0.1)">
      <defs>
       <path id="DejaVuSans-53" d="M 3425 4513 
L 3425 3897 
Q 3066 4069 2747 4153 
Q 2428 4238 2131 4238 
Q 1616 4238 1336 4038 
Q 1056 3838 1056 3469 
Q 1056 3159 1242 3001 
Q 1428 2844 1947 2747 
L 2328 2669 
Q 3034 2534 3370 2195 
Q 3706 1856 3706 1288 
Q 3706 609 3251 259 
Q 2797 -91 1919 -91 
Q 1588 -91 1214 -16 
Q 841 59 441 206 
L 441 856 
Q 825 641 1194 531 
Q 1563 422 1919 422 
Q 2459 422 2753 634 
Q 3047 847 3047 1241 
Q 3047 1584 2836 1778 
Q 2625 1972 2144 2069 
L 1759 2144 
Q 1053 2284 737 2584 
Q 422 2884 422 3419 
Q 422 4038 858 4394 
Q 1294 4750 2059 4750 
Q 2388 4750 2728 4690 
Q 3069 4631 3425 4513 
z
" transform="scale(0.015625)"/>
       <path id="DejaVuSans-70" d="M 1159 525 
L 1159 -1331 
L 581 -1331 
L 581 3500 
L 1159 3500 
L 1159 2969 
Q 1341 3281 1617 3432 
Q 1894 3584 2278 3584 
Q 2916 3584 3314 3078 
Q 3713 2572 3713 1747 
Q 3713 922 3314 415 
Q 2916 -91 2278 -91 
Q 1894 -91 1617 61 
Q 1341 213 1159 525 
z
M 3116 1747 
Q 3116 2381 2855 2742 
Q 2594 3103 2138 3103 
Q 1681 3103 1420 2742 
Q 1159 2381 1159 1747 
Q 1159 1113 1420 752 
Q 1681 391 2138 391 
Q 2594 391 2855 752 
Q 3116 1113 3116 1747 
z
" transform="scale(0.015625)"/>
       <path id="DejaVuSans-68" d="M 3513 2113 
L 3513 0 
L 2938 0 
L 2938 2094 
Q 2938 2591 2744 2837 
Q 2550 3084 2163 3084 
Q 1697 3084 1428 2787 
Q 1159 2491 1159 1978 
L 1159 0 
L 581 0 
L 581 4863 
L 1159 4863 
L 1159 2956 
Q 1366 3272 1645 3428 
Q 1925 3584 2291 3584 
Q 2894 3584 3203 3211 
Q 3513 2838 3513 2113 
z
" transform="scale(0.015625)"/>
       <path id="DejaVuSans-65" d="M 3597 1894 
L 3597 1613 
L 953 1613 
Q 991 1019 1311 708 
Q 1631 397 2203 397 
Q 2534 397 2845 478 
Q 3156 559 3463 722 
L 3463 178 
Q 3153 47 2828 -22 
Q 2503 -91 2169 -91 
Q 1331 -91 842 396 
Q 353 884 353 1716 
Q 353 2575 817 3079 
Q 1281 3584 2069 3584 
Q 2775 3584 3186 3129 
Q 3597 2675 3597 1894 
z
M 3022 2063 
Q 3016 2534 2758 2815 
Q 2500 3097 2075 3097 
Q 1594 3097 1305 2825 
Q 1016 2553 972 2059 
L 3022 2063 
z
" transform="scale(0.015625)"/>
       <path id="DejaVuSans-72" d="M 2631 2963 
Q 2534 3019 2420 3045 
Q 2306 3072 2169 3072 
Q 1681 3072 1420 2755 
Q 1159 2438 1159 1844 
L 1159 0 
L 581 0 
L 581 3500 
L 1159 3500 
L 1159 2956 
Q 1341 3275 1631 3429 
Q 1922 3584 2338 3584 
Q 2397 3584 2469 3576 
Q 2541 3569 2628 3553 
L 2631 2963 
z
" transform="scale(0.015625)"/>
       <path id="DejaVuSans-20" transform="scale(0.015625)"/>
       <path id="DejaVuSans-61" d="M 2194 1759 
Q 1497 1759 1228 1600 
Q 959 1441 959 1056 
Q 959 750 1161 570 
Q 1363 391 1709 391 
Q 2188 391 2477 730 
Q 2766 1069 2766 1631 
L 2766 1759 
L 2194 1759 
z
M 3341 1997 
L 3341 0 
L 2766 0 
L 2766 531 
Q 2569 213 2275 61 
Q 1981 -91 1556 -91 
Q 1019 -91 701 211 
Q 384 513 384 1019 
Q 384 1609 779 1909 
Q 1175 2209 1959 2209 
L 2766 2209 
L 2766 2266 
Q 2766 2663 2505 2880 
Q 2244 3097 1772 3097 
Q 1472 3097 1187 3025 
Q 903 2953 641 2809 
L 641 3341 
Q 956 3463 1253 3523 
Q 1550 3584 1831 3584 
Q 2591 3584 2966 3190 
Q 3341 2797 3341 1997 
z
" transform="scale(0.015625)"/>
       <path id="DejaVuSans-64" d="M 2906 2969 
L 2906 4863 
L 3481 4863 
L 3481 0 
L 2906 0 
L 2906 525 
Q 2725 213 2448 61 
Q 2172 -91 1784 -91 
Q 1150 -91 751 415 
Q 353 922 353 1747 
Q 353 2572 751 3078 
Q 1150 3584 1784 3584 
Q 2172 3584 2448 3432 
Q 2725 3281 2906 2969 
z
M 947 1747 
Q 947 1113 1208 752 
Q 1469 391 1925 391 
Q 2381 391 2643 752 
Q 2906 1113 2906 1747 
Q 2906 2381 2643 2742 
Q 2381 3103 1925 3103 
Q 1469 3103 1208 2742 
Q 947 2381 947 1747 
z
" transform="scale(0.015625)"/>
       <path id="DejaVuSans-69" d="M 603 3500 
L 1178 3500 
L 1178 0 
L 603 0 
L 603 3500 
z
M 603 4863 
L 1178 4863 
L 1178 4134 
L 603 4134 
L 603 4863 
z
" transform="scale(0.015625)"/>
       <path id="DejaVuSans-6c" d="M 603 4863 
L 1178 4863 
L 1178 0 
L 603 0 
L 603 4863 
z
" transform="scale(0.015625)"/>
       <path id="DejaVuSans-6f" d="M 1959 3097 
Q 1497 3097 1228 2736 
Q 959 2375 959 1747 
Q 959 1119 1226 758 
Q 1494 397 1959 397 
Q 2419 397 2687 759 
Q 2956 1122 2956 1747 
Q 2956 2369 2687 2733 
Q 2419 3097 1959 3097 
z
M 1959 3584 
Q 2709 3584 3137 3096 
Q 3566 2609 3566 1747 
Q 3566 888 3137 398 
Q 2709 -91 1959 -91 
Q 1206 -91 779 398 
Q 353 888 353 1747 
Q 353 2609 779 3096 
Q 1206 3584 1959 3584 
z
" transform="scale(0.015625)"/>
       <path id="DejaVuSans-73" d="M 2834 3397 
L 2834 2853 
Q 2591 2978 2328 3040 
Q 2066 3103 1784 3103 
Q 1356 3103 1142 2972 
Q 928 2841 928 2578 
Q 928 2378 1081 2264 
Q 1234 2150 1697 2047 
L 1894 2003 
Q 2506 1872 2764 1633 
Q 3022 1394 3022 966 
Q 3022 478 2636 193 
Q 2250 -91 1575 -91 
Q 1294 -91 989 -36 
Q 684 19 347 128 
L 347 722 
Q 666 556 975 473 
Q 1284 391 1588 391 
Q 1994 391 2212 530 
Q 2431 669 2431 922 
Q 2431 1156 2273 1281 
Q 2116 1406 1581 1522 
L 1381 1569 
Q 847 1681 609 1914 
Q 372 2147 372 2553 
Q 372 3047 722 3315 
Q 1072 3584 1716 3584 
Q 2034 3584 2315 3537 
Q 2597 3491 2834 3397 
z
" transform="scale(0.015625)"/>
       <path id="DejaVuSans-74" d="M 1172 4494 
L 1172 3500 
L 2356 3500 
L 2356 3053 
L 1172 3053 
L 1172 1153 
Q 1172 725 1289 603 
Q 1406 481 1766 481 
L 2356 481 
L 2356 0 
L 1766 0 
Q 1100 0 847 248 
Q 594 497 594 1153 
L 594 3053 
L 172 3053 
L 172 3500 
L 594 3500 
L 594 4494 
L 1172 4494 
z
" transform="scale(0.015625)"/>
       <path id="DejaVuSans-6e" d="M 3513 2113 
L 3513 0 
L 2938 0 
L 2938 2094 
Q 2938 2591 2744 2837 
Q 2550 3084 2163 3084 
Q 1697 3084 1428 2787 
Q 1159 2491 1159 1978 
L 1159 0 
L 581 0 
L 581 3500 
L 1159 3500 
L 1159 2956 
Q 1366 3272 1645 3428 
Q 1925 3584 2291 3584 
Q 2894 3584 3203 3211 
Q 3513 2838 3513 2113 
z
" transform="scale(0.015625)"/>
       <path id="DejaVuSans-28" d="M 1984 4856 
Q 1566 4138 1362 3434 
Q 1159 2731 1159 2009 
Q 1159 1288 1364 580 
Q 1569 -128 1984 -844 
L 1484 -844 
Q 1016 -109 783 600 
Q 550 1309 550 2009 
Q 550 2706 781 3412 
Q 1013 4119 1484 4856 
L 1984 4856 
z
" transform="scale(0.015625)"/>
       <path id="DejaVuSans-6d" d="M 3328 2828 
Q 3544 3216 3844 3400 
Q 4144 3584 4550 3584 
Q 5097 3584 5394 3201 
Q 5691 2819 5691 2113 
L 5691 0 
L 5113 0 
L 5113 2094 
Q 5113 2597 4934 2840 
Q 4756 3084 4391 3084 
Q 3944 3084 3684 2787 
Q 3425 2491 3425 1978 
L 3425 0 
L 2847 0 
L 2847 2094 
Q 2847 2600 2669 2842 
Q 2491 3084 2119 3084 
Q 1678 3084 1418 2786 
Q 1159 2488 1159 1978 
L 1159 0 
L 581 0 
L 581 3500 
L 1159 3500 
L 1159 2956 
Q 1356 3278 1631 3431 
Q 1906 3584 2284 3584 
Q 2666 3584 2933 3390 
Q 3200 3197 3328 2828 
z
" transform="scale(0.015625)"/>
       <path id="DejaVuSans-29" d="M 513 4856 
L 1013 4856 
Q 1481 4119 1714 3412 
Q 1947 2706 1947 2009 
Q 1947 1309 1714 600 
Q 1481 -109 1013 -844 
L 513 -844 
Q 928 -128 1133 580 
Q 1338 1288 1338 2009 
Q 1338 2731 1133 3434 
Q 928 4138 513 4856 
z
" transform="scale(0.015625)"/>
      </defs>
      <use xlink:href="#DejaVuSans-53"/>
      <use xlink:href="#DejaVuSans-70" x="63.476562"/>
      <use xlink:href="#DejaVuSans-68" x="126.953125"/>
      <use xlink:href="#DejaVuSans-65" x="190.332031"/>
      <use xlink:href="#DejaVuSans-72" x="251.855469"/>
      <use xlink:href="#DejaVuSans-65" x="290.71875"/>
      <use xlink:href="#DejaVuSans-20" x="352.242188"/>
      <use xlink:href="#DejaVuSans-72" x="384.029297"/>
      <use xlink:href="#DejaVuSans-61" x="425.142578"/>
      <use xlink:href="#DejaVuSans-64" x="486.421875"/>
      <use xlink:href="#DejaVuSans-69" x="549.898438"/>
      <use xlink:href="#DejaVuSans-61" x="577.681641"/>
      <use xlink:href="#DejaVuSans-6c" x="638.960938"/>
      <use xlink:href="#DejaVuSans-20" x="666.744141"/>
      <use xlink:href="#DejaVuSans-70" x="698.53125"/>
      <use xlink:href="#DejaVuSans-6f" x="762.007812"/>
      <use xlink:href="#DejaVuSans-73" x="823.189453"/>
      <use xlink:href="#DejaVuSans-69" x="875.289062"/>
      <use xlink:href="#DejaVuSans-74" x="903.072266"/>
      <use xlink:href="#DejaVuSans-69" x="942.28125"/>
      <use xlink:href="#DejaVuSans-6f" x="970.064453"/>
      <use xlink:href="#DejaVuSans-6e" x="1031.246094"/>
      <use xlink:href="#DejaVuSans-20" x="1094.625"/>
      <use xlink:href="#DejaVuSans-28" x="1126.412109"/>
      <use xlink:href="#DejaVuSans-6d" x="1165.425781"/>
      <use xlink:href="#DejaVuSans-29" x="1262.837891"/>
     </g>
    </g>
   </g>
   <g id="matplotlib.axis_2">
    <g id="ytick_1">
     <g id="line2d_57">
      <path d="M 57.6 295.488 
L 414.72 295.488 
" clip-path="url(#pf91093cad5)" style="fill: none; stroke: #dddddd; stroke-linecap: square"/>
     </g>
     <g id="line2d_58">
      <defs>
       <path id="m5fef828069" d="M 0 0 
L -3.5 0 
" style="stroke: #000000; stroke-width: 0.8"/>
      </defs>
      <g>
       <use xlink:href="#m5fef828069" x="57.6" y="295.488" style="stroke: #000000; stroke-width: 0.8"/>
      </g>
     </g>
     <g id="text_8">
      <!-- 40 -->
      <g transform="translate(37.875 299.287219) scale(0.1 -0.1)">
       <defs>
        <path id="DejaVuSans-34" d="M 2419 4116 
L 825 1625 
L 2419 1625 
L 2419 4116 
z
M 2253 4666 
L 3047 4666 
L 3047 1625 
L 3713 1625 
L 3713 1100 
L 3047 1100 
L 3047 0 
L 2419 0 
L 2419 1100 
L 313 1100 
L 313 1709 
L 2253 4666 
z
" transform="scale(0.015625)"/>
       </defs>
       <use xlink:href="#DejaVuSans-34"/>
       <use xlink:href="#DejaVuSans-30" x="63.623047"/>
      </g>
     </g>
    </g>
    <g id="ytick_2">
     <g id="line2d_59">
      <path d="M 57.6 264.661312 
L 414.72 264.661312 
" clip-path="url(#pf91093cad5)" style="fill: none; stroke: #dddddd; stroke-linecap: square"/>
     </g>
     <g id="line2d_60">
      <g>
       <use xlink:href="#m5fef828069" x="57.6" y="264.661312" style="stroke: #000000; stroke-width: 0.8"/>
      </g>
     </g>
     <g id="text_9">
      <!-- 45 -->
      <g transform="translate(37.875 268.460531) scale(0.1 -0.1)">
       <use xlink:href="#DejaVuSans-34"/>
       <use xlink:href="#DejaVuSans-35" x="63.623047"/>
      </g>
     </g>
    </g>
    <g id="ytick_3">
     <g id="line2d_61">
      <path d="M 57.6 233.834625 
L 414.72 233.834625 
" clip-path="url(#pf91093cad5)" style="fill: none; stroke: #dddddd; stroke-linecap: square"/>
     </g>
     <g id="line2d_62">
      <g>
       <use xlink:href="#m5fef828069" x="57.6" y="233.834625" style="stroke: #000000; stroke-width: 0.8"/>
      </g>
     </g>
     <g id="text_10">
      <!-- 50 -->
      <g transform="translate(37.875 237.633844) scale(0.1 -0.1)">
       <use xlink:href="#DejaVuSans-35"/>
       <use xlink:href="#DejaVuSans-30" x="63.623047"/>
      </g>
     </g>
    </g>
    <g id="ytick_4">
     <g id="line2d_63">
      <path d="M 57.6 203.007937 
L 414.72 203.007937 
" clip-path="url(#pf91093cad5)" style="fill: none; stroke: #dddddd; stroke-linecap: square"/>
     </g>
     <g id="line2d_64">
      <g>
       <use xlink:href="#m5fef828069" x="57.6" y="203.007937" style="stroke: #000000; stroke-width: 0.8"/>
      </g>
     </g>
     <g id="text_11">
      <!-- 55 -->
      <g transform="translate(37.875 206.807156) scale(0.1 -0.1)">
       <use xlink:href="#DejaVuSans-35"/>
       <use xlink:href="#DejaVuSans-35" x="63.623047"/>
      </g>
     </g>
    </g>
    <g id="ytick_5">
     <g id="line2d_65">
      <path d="M 57.6 172.18125 
L 414.72 172.18125 
" clip-path="url(#pf91093cad5)" style="fill: none; stroke: #dddddd; stroke-linecap: square"/>
     </g>
     <g id="line2d_66">
      <g>
       <use xlink:href="#m5fef828069" x="57.6" y="172.18125" style="stroke: #000000; stroke-width: 0.8"/>
      </g>
     </g>
     <g id="text_12">
      <!-- 60 -->
      <g transform="translate(37.875 175.980468) scale(0.1 -0.1)">
       <defs>
        <path id="DejaVuSans-36" d="M 2113 2584 
Q 1688 2584 1439 2293 
Q 1191 2003 1191 1497 
Q 1191 994 1439 701 
Q 1688 409 2113 409 
Q 2538 409 2786 701 
Q 3034 994 3034 1497 
Q 3034 2003 2786 2293 
Q 2538 2584 2113 2584 
z
M 3366 4563 
L 3366 3988 
Q 3128 4100 2886 4159 
Q 2644 4219 2406 4219 
Q 1781 4219 1451 3797 
Q 1122 3375 1075 2522 
Q 1259 2794 1537 2939 
Q 1816 3084 2150 3084 
Q 2853 3084 3261 2657 
Q 3669 2231 3669 1497 
Q 3669 778 3244 343 
Q 2819 -91 2113 -91 
Q 1303 -91 875 529 
Q 447 1150 447 2328 
Q 447 3434 972 4092 
Q 1497 4750 2381 4750 
Q 2619 4750 2861 4703 
Q 3103 4656 3366 4563 
z
" transform="scale(0.015625)"/>
       </defs>
       <use xlink:href="#DejaVuSans-36"/>
       <use xlink:href="#DejaVuSans-30" x="63.623047"/>
      </g>
     </g>
    </g>
    <g id="ytick_6">
     <g id="line2d_67">
      <path d="M 57.6 141.354562 
L 414.72 141.354562 
" clip-path="url(#pf91093cad5)" style="fill: none; stroke: #dddddd; stroke-linecap: square"/>
     </g>
     <g id="line2d_68">
      <g>
       <use xlink:href="#m5fef828069" x="57.6" y="141.354562" style="stroke: #000000; stroke-width: 0.8"/>
      </g>
     </g>
     <g id="text_13">
      <!-- 65 -->
      <g transform="translate(37.875 145.153781) scale(0.1 -0.1)">
       <use xlink:href="#DejaVuSans-36"/>
       <use xlink:href="#DejaVuSans-35" x="63.623047"/>
      </g>
     </g>
    </g>
    <g id="ytick_7">
     <g id="line2d_69">
      <path d="M 57.6 110.527874 
L 414.72 110.527874 
" clip-path="url(#pf91093cad5)" style="fill: none; stroke: #dddddd; stroke-linecap: square"/>
     </g>
     <g id="line2d_70">
      <g>
       <use xlink:href="#m5fef828069" x="57.6" y="110.527874" style="stroke: #000000; stroke-width: 0.8"/>
      </g>
     </g>
     <g id="text_14">
      <!-- 70 -->
      <g transform="translate(37.875 114.327093) scale(0.1 -0.1)">
       <defs>
        <path id="DejaVuSans-37" d="M 525 4666 
L 3525 4666 
L 3525 4397 
L 1831 0 
L 1172 0 
L 2766 4134 
L 525 4134 
L 525 4666 
z
" transform="scale(0.015625)"/>
       </defs>
       <use xlink:href="#DejaVuSans-37"/>
       <use xlink:href="#DejaVuSans-30" x="63.623047"/>
      </g>
     </g>
    </g>
    <g id="ytick_8">
     <g id="line2d_71">
      <path d="M 57.6 79.701187 
L 414.72 79.701187 
" clip-path="url(#pf91093cad5)" style="fill: none; stroke: #dddddd; stroke-linecap: square"/>
     </g>
     <g id="line2d_72">
      <g>
       <use xlink:href="#m5fef828069" x="57.6" y="79.701187" style="stroke: #000000; stroke-width: 0.8"/>
      </g>
     </g>
     <g id="text_15">
      <!-- 75 -->
      <g transform="translate(37.875 83.500406) scale(0.1 -0.1)">
       <use xlink:href="#DejaVuSans-37"/>
       <use xlink:href="#DejaVuSans-35" x="63.623047"/>
      </g>
     </g>
    </g>
    <g id="ytick_9">
     <g id="line2d_73">
      <path d="M 57.6 48.874499 
L 414.72 48.874499 
" clip-path="url(#pf91093cad5)" style="fill: none; stroke: #dddddd; stroke-linecap: square"/>
     </g>
     <g id="line2d_74">
      <g>
       <use xlink:href="#m5fef828069" x="57.6" y="48.874499" style="stroke: #000000; stroke-width: 0.8"/>
      </g>
     </g>
     <g id="text_16">
      <!-- 80 -->
      <g transform="translate(37.875 52.673718) scale(0.1 -0.1)">
       <defs>
        <path id="DejaVuSans-38" d="M 2034 2216 
Q 1584 2216 1326 1975 
Q 1069 1734 1069 1313 
Q 1069 891 1326 650 
Q 1584 409 2034 409 
Q 2484 409 2743 651 
Q 3003 894 3003 1313 
Q 3003 1734 2745 1975 
Q 2488 2216 2034 2216 
z
M 1403 2484 
Q 997 2584 770 2862 
Q 544 3141 544 3541 
Q 544 4100 942 4425 
Q 1341 4750 2034 4750 
Q 2731 4750 3128 4425 
Q 3525 4100 3525 3541 
Q 3525 3141 3298 2862 
Q 3072 2584 2669 2484 
Q 3125 2378 3379 2068 
Q 3634 1759 3634 1313 
Q 3634 634 3220 271 
Q 2806 -91 2034 -91 
Q 1263 -91 848 271 
Q 434 634 434 1313 
Q 434 1759 690 2068 
Q 947 2378 1403 2484 
z
M 1172 3481 
Q 1172 3119 1398 2916 
Q 1625 2713 2034 2713 
Q 2441 2713 2670 2916 
Q 2900 3119 2900 3481 
Q 2900 3844 2670 4047 
Q 2441 4250 2034 4250 
Q 1625 4250 1398 4047 
Q 1172 3844 1172 3481 
z
" transform="scale(0.015625)"/>
       </defs>
       <use xlink:href="#DejaVuSans-38"/>
       <use xlink:href="#DejaVuSans-30" x="63.623047"/>
      </g>
     </g>
    </g>
    <g id="ytick_10">
     <g id="line2d_75">
      <path d="M 57.6 301.653338 
L 414.72 301.653338 
" clip-path="url(#pf91093cad5)" style="fill: none; stroke-dasharray: 0.8,1.32; stroke-dashoffset: 0; stroke: #eeeeee; stroke-width: 0.8"/>
     </g>
     <g id="line2d_76">
      <defs>
       <path id="m5565be13e8" d="M 0 0 
L -2 0 
" style="stroke: #000000; stroke-width: 0.6"/>
      </defs>
      <g>
       <use xlink:href="#m5565be13e8" x="57.6" y="301.653338" style="stroke: #000000; stroke-width: 0.6"/>
      </g>
     </g>
    </g>
    <g id="ytick_11">
     <g id="line2d_77">
      <path d="M 57.6 289.322662 
L 414.72 289.322662 
" clip-path="url(#pf91093cad5)" style="fill: none; stroke-dasharray: 0.8,1.32; stroke-dashoffset: 0; stroke: #eeeeee; stroke-width: 0.8"/>
     </g>
     <g id="line2d_78">
      <g>
       <use xlink:href="#m5565be13e8" x="57.6" y="289.322662" style="stroke: #000000; stroke-width: 0.6"/>
      </g>
     </g>
    </g>
    <g id="ytick_12">
     <g id="line2d_79">
      <path d="M 57.6 283.157325 
L 414.72 283.157325 
" clip-path="url(#pf91093cad5)" style="fill: none; stroke-dasharray: 0.8,1.32; stroke-dashoffset: 0; stroke: #eeeeee; stroke-width: 0.8"/>
     </g>
     <g id="line2d_80">
      <g>
       <use xlink:href="#m5565be13e8" x="57.6" y="283.157325" style="stroke: #000000; stroke-width: 0.6"/>
      </g>
     </g>
    </g>
    <g id="ytick_13">
     <g id="line2d_81">
      <path d="M 57.6 276.991987 
L 414.72 276.991987 
" clip-path="url(#pf91093cad5)" style="fill: none; stroke-dasharray: 0.8,1.32; stroke-dashoffset: 0; stroke: #eeeeee; stroke-width: 0.8"/>
     </g>
     <g id="line2d_82">
      <g>
       <use xlink:href="#m5565be13e8" x="57.6" y="276.991987" style="stroke: #000000; stroke-width: 0.6"/>
      </g>
     </g>
    </g>
    <g id="ytick_14">
     <g id="line2d_83">
      <path d="M 57.6 270.82665 
L 414.72 270.82665 
" clip-path="url(#pf91093cad5)" style="fill: none; stroke-dasharray: 0.8,1.32; stroke-dashoffset: 0; stroke: #eeeeee; stroke-width: 0.8"/>
     </g>
     <g id="line2d_84">
      <g>
       <use xlink:href="#m5565be13e8" x="57.6" y="270.82665" style="stroke: #000000; stroke-width: 0.6"/>
      </g>
     </g>
    </g>
    <g id="ytick_15">
     <g id="line2d_85">
      <path d="M 57.6 258.495975 
L 414.72 258.495975 
" clip-path="url(#pf91093cad5)" style="fill: none; stroke-dasharray: 0.8,1.32; stroke-dashoffset: 0; stroke: #eeeeee; stroke-width: 0.8"/>
     </g>
     <g id="line2d_86">
      <g>
       <use xlink:href="#m5565be13e8" x="57.6" y="258.495975" style="stroke: #000000; stroke-width: 0.6"/>
      </g>
     </g>
    </g>
    <g id="ytick_16">
     <g id="line2d_87">
      <path d="M 57.6 252.330637 
L 414.72 252.330637 
" clip-path="url(#pf91093cad5)" style="fill: none; stroke-dasharray: 0.8,1.32; stroke-dashoffset: 0; stroke: #eeeeee; stroke-width: 0.8"/>
     </g>
     <g id="line2d_88">
      <g>
       <use xlink:href="#m5565be13e8" x="57.6" y="252.330637" style="stroke: #000000; stroke-width: 0.6"/>
      </g>
     </g>
    </g>
    <g id="ytick_17">
     <g id="line2d_89">
      <path d="M 57.6 246.1653 
L 414.72 246.1653 
" clip-path="url(#pf91093cad5)" style="fill: none; stroke-dasharray: 0.8,1.32; stroke-dashoffset: 0; stroke: #eeeeee; stroke-width: 0.8"/>
     </g>
     <g id="line2d_90">
      <g>
       <use xlink:href="#m5565be13e8" x="57.6" y="246.1653" style="stroke: #000000; stroke-width: 0.6"/>
      </g>
     </g>
    </g>
    <g id="ytick_18">
     <g id="line2d_91">
      <path d="M 57.6 239.999962 
L 414.72 239.999962 
" clip-path="url(#pf91093cad5)" style="fill: none; stroke-dasharray: 0.8,1.32; stroke-dashoffset: 0; stroke: #eeeeee; stroke-width: 0.8"/>
     </g>
     <g id="line2d_92">
      <g>
       <use xlink:href="#m5565be13e8" x="57.6" y="239.999962" style="stroke: #000000; stroke-width: 0.6"/>
      </g>
     </g>
    </g>
    <g id="ytick_19">
     <g id="line2d_93">
      <path d="M 57.6 227.669287 
L 414.72 227.669287 
" clip-path="url(#pf91093cad5)" style="fill: none; stroke-dasharray: 0.8,1.32; stroke-dashoffset: 0; stroke: #eeeeee; stroke-width: 0.8"/>
     </g>
     <g id="line2d_94">
      <g>
       <use xlink:href="#m5565be13e8" x="57.6" y="227.669287" style="stroke: #000000; stroke-width: 0.6"/>
      </g>
     </g>
    </g>
    <g id="ytick_20">
     <g id="line2d_95">
      <path d="M 57.6 221.50395 
L 414.72 221.50395 
" clip-path="url(#pf91093cad5)" style="fill: none; stroke-dasharray: 0.8,1.32; stroke-dashoffset: 0; stroke: #eeeeee; stroke-width: 0.8"/>
     </g>
     <g id="line2d_96">
      <g>
       <use xlink:href="#m5565be13e8" x="57.6" y="221.50395" style="stroke: #000000; stroke-width: 0.6"/>
      </g>
     </g>
    </g>
    <g id="ytick_21">
     <g id="line2d_97">
      <path d="M 57.6 215.338612 
L 414.72 215.338612 
" clip-path="url(#pf91093cad5)" style="fill: none; stroke-dasharray: 0.8,1.32; stroke-dashoffset: 0; stroke: #eeeeee; stroke-width: 0.8"/>
     </g>
     <g id="line2d_98">
      <g>
       <use xlink:href="#m5565be13e8" x="57.6" y="215.338612" style="stroke: #000000; stroke-width: 0.6"/>
      </g>
     </g>
    </g>
    <g id="ytick_22">
     <g id="line2d_99">
      <path d="M 57.6 209.173275 
L 414.72 209.173275 
" clip-path="url(#pf91093cad5)" style="fill: none; stroke-dasharray: 0.8,1.32; stroke-dashoffset: 0; stroke: #eeeeee; stroke-width: 0.8"/>
     </g>
     <g id="line2d_100">
      <g>
       <use xlink:href="#m5565be13e8" x="57.6" y="209.173275" style="stroke: #000000; stroke-width: 0.6"/>
      </g>
     </g>
    </g>
    <g id="ytick_23">
     <g id="line2d_101">
      <path d="M 57.6 196.8426 
L 414.72 196.8426 
" clip-path="url(#pf91093cad5)" style="fill: none; stroke-dasharray: 0.8,1.32; stroke-dashoffset: 0; stroke: #eeeeee; stroke-width: 0.8"/>
     </g>
     <g id="line2d_102">
      <g>
       <use xlink:href="#m5565be13e8" x="57.6" y="196.8426" style="stroke: #000000; stroke-width: 0.6"/>
      </g>
     </g>
    </g>
    <g id="ytick_24">
     <g id="line2d_103">
      <path d="M 57.6 190.677262 
L 414.72 190.677262 
" clip-path="url(#pf91093cad5)" style="fill: none; stroke-dasharray: 0.8,1.32; stroke-dashoffset: 0; stroke: #eeeeee; stroke-width: 0.8"/>
     </g>
     <g id="line2d_104">
      <g>
       <use xlink:href="#m5565be13e8" x="57.6" y="190.677262" style="stroke: #000000; stroke-width: 0.6"/>
      </g>
     </g>
    </g>
    <g id="ytick_25">
     <g id="line2d_105">
      <path d="M 57.6 184.511925 
L 414.72 184.511925 
" clip-path="url(#pf91093cad5)" style="fill: none; stroke-dasharray: 0.8,1.32; stroke-dashoffset: 0; stroke: #eeeeee; stroke-width: 0.8"/>
     </g>
     <g id="line2d_106">
      <g>
       <use xlink:href="#m5565be13e8" x="57.6" y="184.511925" style="stroke: #000000; stroke-width: 0.6"/>
      </g>
     </g>
    </g>
    <g id="ytick_26">
     <g id="line2d_107">
      <path d="M 57.6 178.346587 
L 414.72 178.346587 
" clip-path="url(#pf91093cad5)" style="fill: none; stroke-dasharray: 0.8,1.32; stroke-dashoffset: 0; stroke: #eeeeee; stroke-width: 0.8"/>
     </g>
     <g id="line2d_108">
      <g>
       <use xlink:href="#m5565be13e8" x="57.6" y="178.346587" style="stroke: #000000; stroke-width: 0.6"/>
      </g>
     </g>
    </g>
    <g id="ytick_27">
     <g id="line2d_109">
      <path d="M 57.6 166.015912 
L 414.72 166.015912 
" clip-path="url(#pf91093cad5)" style="fill: none; stroke-dasharray: 0.8,1.32; stroke-dashoffset: 0; stroke: #eeeeee; stroke-width: 0.8"/>
     </g>
     <g id="line2d_110">
      <g>
       <use xlink:href="#m5565be13e8" x="57.6" y="166.015912" style="stroke: #000000; stroke-width: 0.6"/>
      </g>
     </g>
    </g>
    <g id="ytick_28">
     <g id="line2d_111">
      <path d="M 57.6 159.850575 
L 414.72 159.850575 
" clip-path="url(#pf91093cad5)" style="fill: none; stroke-dasharray: 0.8,1.32; stroke-dashoffset: 0; stroke: #eeeeee; stroke-width: 0.8"/>
     </g>
     <g id="line2d_112">
      <g>
       <use xlink:href="#m5565be13e8" x="57.6" y="159.850575" style="stroke: #000000; stroke-width: 0.6"/>
      </g>
     </g>
    </g>
    <g id="ytick_29">
     <g id="line2d_113">
      <path d="M 57.6 153.685237 
L 414.72 153.685237 
" clip-path="url(#pf91093cad5)" style="fill: none; stroke-dasharray: 0.8,1.32; stroke-dashoffset: 0; stroke: #eeeeee; stroke-width: 0.8"/>
     </g>
     <g id="line2d_114">
      <g>
       <use xlink:href="#m5565be13e8" x="57.6" y="153.685237" style="stroke: #000000; stroke-width: 0.6"/>
      </g>
     </g>
    </g>
    <g id="ytick_30">
     <g id="line2d_115">
      <path d="M 57.6 147.519899 
L 414.72 147.519899 
" clip-path="url(#pf91093cad5)" style="fill: none; stroke-dasharray: 0.8,1.32; stroke-dashoffset: 0; stroke: #eeeeee; stroke-width: 0.8"/>
     </g>
     <g id="line2d_116">
      <g>
       <use xlink:href="#m5565be13e8" x="57.6" y="147.519899" style="stroke: #000000; stroke-width: 0.6"/>
      </g>
     </g>
    </g>
    <g id="ytick_31">
     <g id="line2d_117">
      <path d="M 57.6 135.189224 
L 414.72 135.189224 
" clip-path="url(#pf91093cad5)" style="fill: none; stroke-dasharray: 0.8,1.32; stroke-dashoffset: 0; stroke: #eeeeee; stroke-width: 0.8"/>
     </g>
     <g id="line2d_118">
      <g>
       <use xlink:href="#m5565be13e8" x="57.6" y="135.189224" style="stroke: #000000; stroke-width: 0.6"/>
      </g>
     </g>
    </g>
    <g id="ytick_32">
     <g id="line2d_119">
      <path d="M 57.6 129.023887 
L 414.72 129.023887 
" clip-path="url(#pf91093cad5)" style="fill: none; stroke-dasharray: 0.8,1.32; stroke-dashoffset: 0; stroke: #eeeeee; stroke-width: 0.8"/>
     </g>
     <g id="line2d_120">
      <g>
       <use xlink:href="#m5565be13e8" x="57.6" y="129.023887" style="stroke: #000000; stroke-width: 0.6"/>
      </g>
     </g>
    </g>
    <g id="ytick_33">
     <g id="line2d_121">
      <path d="M 57.6 122.858549 
L 414.72 122.858549 
" clip-path="url(#pf91093cad5)" style="fill: none; stroke-dasharray: 0.8,1.32; stroke-dashoffset: 0; stroke: #eeeeee; stroke-width: 0.8"/>
     </g>
     <g id="line2d_122">
      <g>
       <use xlink:href="#m5565be13e8" x="57.6" y="122.858549" style="stroke: #000000; stroke-width: 0.6"/>
      </g>
     </g>
    </g>
    <g id="ytick_34">
     <g id="line2d_123">
      <path d="M 57.6 116.693212 
L 414.72 116.693212 
" clip-path="url(#pf91093cad5)" style="fill: none; stroke-dasharray: 0.8,1.32; stroke-dashoffset: 0; stroke: #eeeeee; stroke-width: 0.8"/>
     </g>
     <g id="line2d_124">
      <g>
       <use xlink:href="#m5565be13e8" x="57.6" y="116.693212" style="stroke: #000000; stroke-width: 0.6"/>
      </g>
     </g>
    </g>
    <g id="ytick_35">
     <g id="line2d_125">
      <path d="M 57.6 104.362537 
L 414.72 104.362537 
" clip-path="url(#pf91093cad5)" style="fill: none; stroke-dasharray: 0.8,1.32; stroke-dashoffset: 0; stroke: #eeeeee; stroke-width: 0.8"/>
     </g>
     <g id="line2d_126">
      <g>
       <use xlink:href="#m5565be13e8" x="57.6" y="104.362537" style="stroke: #000000; stroke-width: 0.6"/>
      </g>
     </g>
    </g>
    <g id="ytick_36">
     <g id="line2d_127">
      <path d="M 57.6 98.197199 
L 414.72 98.197199 
" clip-path="url(#pf91093cad5)" style="fill: none; stroke-dasharray: 0.8,1.32; stroke-dashoffset: 0; stroke: #eeeeee; stroke-width: 0.8"/>
     </g>
     <g id="line2d_128">
      <g>
       <use xlink:href="#m5565be13e8" x="57.6" y="98.197199" style="stroke: #000000; stroke-width: 0.6"/>
      </g>
     </g>
    </g>
    <g id="ytick_37">
     <g id="line2d_129">
      <path d="M 57.6 92.031862 
L 414.72 92.031862 
" clip-path="url(#pf91093cad5)" style="fill: none; stroke-dasharray: 0.8,1.32; stroke-dashoffset: 0; stroke: #eeeeee; stroke-width: 0.8"/>
     </g>
     <g id="line2d_130">
      <g>
       <use xlink:href="#m5565be13e8" x="57.6" y="92.031862" style="stroke: #000000; stroke-width: 0.6"/>
      </g>
     </g>
    </g>
    <g id="ytick_38">
     <g id="line2d_131">
      <path d="M 57.6 85.866524 
L 414.72 85.866524 
" clip-path="url(#pf91093cad5)" style="fill: none; stroke-dasharray: 0.8,1.32; stroke-dashoffset: 0; stroke: #eeeeee; stroke-width: 0.8"/>
     </g>
     <g id="line2d_132">
      <g>
       <use xlink:href="#m5565be13e8" x="57.6" y="85.866524" style="stroke: #000000; stroke-width: 0.6"/>
      </g>
     </g>
    </g>
    <g id="ytick_39">
     <g id="line2d_133">
      <path d="M 57.6 73.535849 
L 414.72 73.535849 
" clip-path="url(#pf91093cad5)" style="fill: none; stroke-dasharray: 0.8,1.32; stroke-dashoffset: 0; stroke: #eeeeee; stroke-width: 0.8"/>
     </g>
     <g id="line2d_134">
      <g>
       <use xlink:href="#m5565be13e8" x="57.6" y="73.535849" style="stroke: #000000; stroke-width: 0.6"/>
      </g>
     </g>
    </g>
    <g id="ytick_40">
     <g id="line2d_135">
      <path d="M 57.6 67.370512 
L 414.72 67.370512 
" clip-path="url(#pf91093cad5)" style="fill: none; stroke-dasharray: 0.8,1.32; stroke-dashoffset: 0; stroke: #eeeeee; stroke-width: 0.8"/>
     </g>
     <g id="line2d_136">
      <g>
       <use xlink:href="#m5565be13e8" x="57.6" y="67.370512" style="stroke: #000000; stroke-width: 0.6"/>
      </g>
     </g>
    </g>
    <g id="ytick_41">
     <g id="line2d_137">
      <path d="M 57.6 61.205174 
L 414.72 61.205174 
" clip-path="url(#pf91093cad5)" style="fill: none; stroke-dasharray: 0.8,1.32; stroke-dashoffset: 0; stroke: #eeeeee; stroke-width: 0.8"/>
     </g>
     <g id="line2d_138">
      <g>
       <use xlink:href="#m5565be13e8" x="57.6" y="61.205174" style="stroke: #000000; stroke-width: 0.6"/>
      </g>
     </g>
    </g>
    <g id="ytick_42">
     <g id="line2d_139">
      <path d="M 57.6 55.039837 
L 414.72 55.039837 
" clip-path="url(#pf91093cad5)" style="fill: none; stroke-dasharray: 0.8,1.32; stroke-dashoffset: 0; stroke: #eeeeee; stroke-width: 0.8"/>
     </g>
     <g id="line2d_140">
      <g>
       <use xlink:href="#m5565be13e8" x="57.6" y="55.039837" style="stroke: #000000; stroke-width: 0.6"/>
      </g>
     </g>
    </g>
    <g id="ytick_43">
     <g id="line2d_141">
      <path d="M 57.6 42.709162 
L 414.72 42.709162 
" clip-path="url(#pf91093cad5)" style="fill: none; stroke-dasharray: 0.8,1.32; stroke-dashoffset: 0; stroke: #eeeeee; stroke-width: 0.8"/>
     </g>
     <g id="line2d_142">
      <g>
       <use xlink:href="#m5565be13e8" x="57.6" y="42.709162" style="stroke: #000000; stroke-width: 0.6"/>
      </g>
     </g>
    </g>
    <g id="text_17">
     <!-- Temperature (℃) -->
     <g transform="translate(31.795312 217.303781) rotate(-90) scale(0.1 -0.1)">
      <defs>
       <path id="DejaVuSans-54" d="M -19 4666 
L 3928 4666 
L 3928 4134 
L 2272 4134 
L 2272 0 
L 1638 0 
L 1638 4134 
L -19 4134 
L -19 4666 
z
" transform="scale(0.015625)"/>
       <path id="DejaVuSans-75" d="M 544 1381 
L 544 3500 
L 1119 3500 
L 1119 1403 
Q 1119 906 1312 657 
Q 1506 409 1894 409 
Q 2359 409 2629 706 
Q 2900 1003 2900 1516 
L 2900 3500 
L 3475 3500 
L 3475 0 
L 2900 0 
L 2900 538 
Q 2691 219 2414 64 
Q 2138 -91 1772 -91 
Q 1169 -91 856 284 
Q 544 659 544 1381 
z
M 1991 3584 
L 1991 3584 
z
" transform="scale(0.015625)"/>
       <path id="DejaVuSans-2103" d="M 1600 4347 
Q 1350 4347 1178 4173 
Q 1006 4000 1006 3750 
Q 1006 3503 1178 3333 
Q 1350 3163 1600 3163 
Q 1850 3163 2022 3333 
Q 2194 3503 2194 3750 
Q 2194 3997 2020 4172 
Q 1847 4347 1600 4347 
z
M 1600 4750 
Q 1800 4750 1984 4673 
Q 2169 4597 2303 4453 
Q 2447 4313 2519 4134 
Q 2591 3956 2591 3750 
Q 2591 3338 2302 3052 
Q 2013 2766 1594 2766 
Q 1172 2766 890 3047 
Q 609 3328 609 3750 
Q 609 4169 896 4459 
Q 1184 4750 1600 4750 
z
M 6738 4306 
L 6738 3641 
Q 6419 3938 6058 4084 
Q 5697 4231 5291 4231 
Q 4491 4231 4066 3742 
Q 3641 3253 3641 2328 
Q 3641 1406 4066 917 
Q 4491 428 5291 428 
Q 5697 428 6058 575 
Q 6419 722 6738 1019 
L 6738 359 
Q 6407 134 6036 21 
Q 5666 -91 5254 -91 
Q 4194 -91 3584 557 
Q 2975 1206 2975 2328 
Q 2975 3453 3584 4101 
Q 4194 4750 5254 4750 
Q 5672 4750 6042 4639 
Q 6413 4528 6738 4306 
z
" transform="scale(0.015625)"/>
      </defs>
      <use xlink:href="#DejaVuSans-54"/>
      <use xlink:href="#DejaVuSans-65" x="44.083984"/>
      <use xlink:href="#DejaVuSans-6d" x="105.607422"/>
      <use xlink:href="#DejaVuSans-70" x="203.019531"/>
      <use xlink:href="#DejaVuSans-65" x="266.496094"/>
      <use xlink:href="#DejaVuSans-72" x="328.019531"/>
      <use xlink:href="#DejaVuSans-61" x="369.132812"/>
      <use xlink:href="#DejaVuSans-74" x="430.412109"/>
      <use xlink:href="#DejaVuSans-75" x="469.621094"/>
      <use xlink:href="#DejaVuSans-72" x="533"/>
      <use xlink:href="#DejaVuSans-65" x="571.863281"/>
      <use xlink:href="#DejaVuSans-20" x="633.386719"/>
      <use xlink:href="#DejaVuSans-28" x="665.173828"/>
      <use xlink:href="#DejaVuSans-2103" x="704.1875"/>
      <use xlink:href="#DejaVuSans-29" x="816.492188"/>
     </g>
    </g>
   </g>
   <g id="line2d_143">
    <path d="M 73.832727 295.488 
L 80.45833 295.488 
L 87.083933 295.488 
L 93.709536 295.488 
L 100.335139 295.488 
L 106.960742 295.488 
L 113.586345 295.488 
L 120.211948 295.488 
L 126.837551 295.488 
L 133.463154 295.488 
L 140.088757 295.488 
L 146.71436 295.488 
L 153.339963 295.488 
L 159.965566 295.488 
L 166.591169 295.488 
L 173.216772 295.488 
L 179.842375 295.488 
L 186.467978 295.488 
L 193.093581 295.488 
L 199.719184 295.488 
L 206.344787 295.488 
L 212.97039 295.488 
L 219.595993 295.488 
L 226.221596 295.488 
L 232.847199 295.488 
L 239.472801 295.488 
L 246.098404 295.488 
L 252.724007 295.488 
L 259.34961 295.488 
L 265.975213 295.488 
L 272.600816 295.488 
L 279.226419 295.488 
L 285.852022 295.488 
L 292.477625 295.488 
L 299.103228 295.488 
L 305.728831 295.488 
L 312.354434 295.488 
L 318.980037 295.488 
L 325.60564 295.488 
L 332.231243 295.488 
L 338.856846 295.488 
L 345.482449 295.488 
L 352.108052 295.488 
L 358.733655 295.488 
L 365.359258 295.488 
L 371.984861 295.488 
L 378.610464 295.488 
L 385.236067 295.488 
L 391.86167 295.488 
L 398.487273 295.488 
" clip-path="url(#pf91093cad5)" style="fill: none; stroke: #1f77b4; stroke-width: 1.5; stroke-linecap: square"/>
   </g>
   <g id="line2d_144">
    <path d="M 73.832727 294.560198 
L 80.45833 294.551454 
L 87.083933 294.525059 
L 93.709536 294.480406 
L 100.335139 294.416485 
L 106.960742 294.331869 
L 113.586345 294.224699 
L 120.211948 294.092666 
L 126.837551 293.932988 
L 133.463154 293.742392 
L 140.088757 293.517084 
L 146.71436 293.252727 
L 153.339963 292.944415 
L 159.965566 292.586648 
L 166.591169 292.173316 
L 173.216772 291.697676 
L 179.842375 291.152345 
L 186.467978 290.529293 
L 193.093581 289.819849 
L 199.719184 289.014713 
L 206.344787 288.103981 
L 212.97039 287.077184 
L 219.595993 285.923337 
L 226.221596 284.631007 
L 232.847199 283.188396 
L 239.472801 281.583436 
L 246.098404 279.803902 
L 252.724007 277.837544 
L 259.34961 275.672229 
L 265.975213 273.296101 
L 272.600816 270.697745 
L 279.226419 267.866372 
L 285.852022 264.792002 
L 292.477625 261.465652 
L 299.103228 257.87953 
L 305.728831 254.027216 
L 312.354434 249.903845 
L 318.980037 245.506274 
L 325.60564 240.833227 
L 332.231243 235.885437 
L 338.856846 230.665743 
L 345.482449 225.17918 
L 352.108052 219.433024 
L 358.733655 213.436811 
L 365.359258 207.202327 
L 371.984861 200.743551 
L 378.610464 194.076574 
L 385.236067 187.21948 
L 391.86167 180.192189 
L 398.487273 173.016283 
" clip-path="url(#pf91093cad5)" style="fill: none; stroke: #ff7f0e; stroke-width: 1.5; stroke-linecap: square"/>
   </g>
   <g id="line2d_145">
    <path d="M 73.832727 276.458134 
L 80.45833 276.412128 
L 87.083933 276.273995 
L 93.709536 276.043309 
L 100.335139 275.719368 
L 106.960742 275.301202 
L 113.586345 274.787579 
L 120.211948 274.177018 
L 126.837551 273.467802 
L 133.463154 272.657998 
L 140.088757 271.74547 
L 146.71436 270.727909 
L 153.339963 269.60285 
L 159.965566 268.367703 
L 166.591169 267.019779 
L 173.216772 265.556323 
L 179.842375 263.974541 
L 186.467978 262.271641 
L 193.093581 260.444862 
L 199.719184 258.491516 
L 206.344787 256.40902 
L 212.97039 254.194941 
L 219.595993 251.847027 
L 226.221596 249.363252 
L 232.847199 246.741853 
L 239.472801 243.981366 
L 246.098404 241.080663 
L 252.724007 238.038992 
L 259.34961 234.856006 
L 265.975213 231.531798 
L 272.600816 228.066929 
L 279.226419 224.462455 
L 285.852022 220.71995 
L 292.477625 216.841527 
L 299.103228 212.829854 
L 305.728831 208.688166 
L 312.354434 204.420271 
L 318.980037 200.030556 
L 325.60564 195.523983 
L 332.231243 190.906085 
L 338.856846 186.182953 
L 345.482449 181.361222 
L 352.108052 176.448047 
L 358.733655 171.451082 
L 365.359258 166.378447 
L 371.984861 161.238694 
L 378.610464 156.040771 
L 385.236067 150.793977 
L 391.86167 145.507918 
L 398.487273 140.192461 
" clip-path="url(#pf91093cad5)" style="fill: none; stroke: #2ca02c; stroke-width: 1.5; stroke-linecap: square"/>
   </g>
   <g id="line2d_146">
    <path d="M 73.832727 242.640525 
L 80.45833 242.583716 
L 87.083933 242.413289 
L 93.709536 242.129238 
L 100.335139 241.731554 
L 106.960742 241.220232 
L 113.586345 240.59527 
L 120.211948 239.856673 
L 126.837551 239.004465 
L 133.463154 238.03869 
L 140.088757 236.95942 
L 146.71436 235.766767 
L 153.339963 234.460887 
L 159.965566 233.041994 
L 166.591169 231.510369 
L 173.216772 229.866368 
L 179.842375 228.110436 
L 186.467978 226.243119 
L 193.093581 224.26507 
L 199.719184 222.177067 
L 206.344787 219.98002 
L 212.97039 217.674984 
L 219.595993 215.263169 
L 226.221596 212.745947 
L 232.847199 210.12487 
L 239.472801 207.401669 
L 246.098404 204.578272 
L 252.724007 201.656802 
L 259.34961 198.63959 
L 265.975213 195.529178 
L 272.600816 192.328323 
L 279.226419 189.040001 
L 285.852022 185.667407 
L 292.477625 182.213958 
L 299.103228 178.683287 
L 305.728831 175.079248 
L 312.354434 171.405905 
L 318.980037 167.667532 
L 325.60564 163.868603 
L 332.231243 160.013785 
L 338.856846 156.10793 
L 345.482449 152.156062 
L 352.108052 148.163365 
L 358.733655 144.135172 
L 365.359258 140.076949 
L 371.984861 135.994279 
L 378.610464 131.892847 
L 385.236067 127.778422 
L 391.86167 123.65684 
L 398.487273 119.533983 
" clip-path="url(#pf91093cad5)" style="fill: none; stroke: #d62728; stroke-width: 1.5; stroke-linecap: square"/>
   </g>
   <g id="line2d_147">
    <path d="M 73.832727 207.695915 
L 80.45833 207.643532 
L 87.083933 207.486416 
L 93.709536 207.224694 
L 100.335139 206.858579 
L 106.960742 206.388366 
L 113.586345 205.814439 
L 120.211948 205.137265 
L 126.837551 204.357404 
L 133.463154 203.475503 
L 140.088757 202.492301 
L 146.71436 201.408631 
L 153.339963 200.22542 
L 159.965566 198.943693 
L 166.591169 197.564573 
L 173.216772 196.089285 
L 179.842375 194.519157 
L 186.467978 192.855622 
L 193.093581 191.100219 
L 199.719184 189.254598 
L 206.344787 187.320517 
L 212.97039 185.299848 
L 219.595993 183.194574 
L 226.221596 181.006793 
L 232.847199 178.738718 
L 239.472801 176.392678 
L 246.098404 173.971114 
L 252.724007 171.476584 
L 259.34961 168.91176 
L 265.975213 166.279426 
L 272.600816 163.582476 
L 279.226419 160.823915 
L 285.852022 158.006852 
L 292.477625 155.134502 
L 299.103228 152.210177 
L 305.728831 149.237286 
L 312.354434 146.219328 
L 318.980037 143.15989 
L 325.60564 140.062638 
L 332.231243 136.931311 
L 338.856846 133.76972 
L 345.482449 130.581734 
L 352.108052 127.371277 
L 358.733655 124.14232 
L 365.359258 120.898874 
L 371.984861 117.644976 
L 378.610464 114.384688 
L 385.236067 111.122086 
L 391.86167 107.861247 
L 398.487273 104.606246 
" clip-path="url(#pf91093cad5)" style="fill: none; stroke: #9467bd; stroke-width: 1.5; stroke-linecap: square"/>
   </g>
   <g id="line2d_148">
    <path d="M 73.832727 177.098644 
L 80.45833 177.054486 
L 87.083933 176.92205 
L 93.709536 176.701483 
L 100.335139 176.393026 
L 106.960742 175.997018 
L 113.586345 175.513891 
L 120.211948 174.944177 
L 126.837551 174.288502 
L 133.463154 173.547587 
L 140.088757 172.722251 
L 146.71436 171.813406 
L 153.339963 170.822059 
L 159.965566 169.749314 
L 166.591169 168.596367 
L 173.216772 167.364508 
L 179.842375 166.055118 
L 186.467978 164.669673 
L 193.093581 163.209738 
L 199.719184 161.676969 
L 206.344787 160.073109 
L 212.97039 158.399991 
L 219.595993 156.659534 
L 226.221596 154.853738 
L 232.847199 152.984691 
L 239.472801 151.054557 
L 246.098404 149.065583 
L 252.724007 147.020088 
L 259.34961 144.920468 
L 265.975213 142.769191 
L 272.600816 140.568789 
L 279.226419 138.321864 
L 285.852022 136.031077 
L 292.477625 133.69915 
L 299.103228 131.328857 
L 305.728831 128.923026 
L 312.354434 126.484529 
L 318.980037 124.016285 
L 325.60564 121.521247 
L 332.231243 119.002405 
L 338.856846 116.462778 
L 345.482449 113.905408 
L 352.108052 111.333359 
L 358.733655 108.749706 
L 365.359258 106.157536 
L 371.984861 103.55994 
L 378.610464 100.960006 
L 385.236067 98.360819 
L 391.86167 95.765447 
L 398.487273 93.176945 
" clip-path="url(#pf91093cad5)" style="fill: none; stroke: #8c564b; stroke-width: 1.5; stroke-linecap: square"/>
   </g>
   <g id="line2d_149">
    <path d="M 73.832727 151.773095 
L 80.45833 151.737058 
L 87.083933 151.62898 
L 93.709536 151.448994 
L 100.335139 151.197317 
L 106.960742 150.87425 
L 113.586345 150.480184 
L 120.211948 150.015591 
L 126.837551 149.481032 
L 133.463154 148.87715 
L 140.088757 148.204672 
L 146.71436 147.46441 
L 153.339963 146.657254 
L 159.965566 145.784179 
L 166.591169 144.846238 
L 173.216772 143.844563 
L 179.842375 142.780364 
L 186.467978 141.654925 
L 193.093581 140.469607 
L 199.719184 139.225844 
L 206.344787 137.925139 
L 212.97039 136.569065 
L 219.595993 135.159264 
L 226.221596 133.697442 
L 232.847199 132.185368 
L 239.472801 130.624874 
L 246.098404 129.017847 
L 252.724007 127.366233 
L 259.34961 125.67203 
L 265.975213 123.937288 
L 272.600816 122.164103 
L 279.226419 120.35462 
L 285.852022 118.511021 
L 292.477625 116.635531 
L 299.103228 114.730409 
L 305.728831 112.797947 
L 312.354434 110.840467 
L 318.980037 108.860315 
L 325.60564 106.859862 
L 332.231243 104.841496 
L 338.856846 102.807622 
L 345.482449 100.760653 
L 352.108052 98.703015 
L 358.733655 96.637134 
L 365.359258 94.56544 
L 371.984861 92.490356 
L 378.610464 90.414302 
L 385.236067 88.339685 
L 391.86167 86.268897 
L 398.487273 84.204313 
" clip-path="url(#pf91093cad5)" style="fill: none; stroke: #e377c2; stroke-width: 1.5; stroke-linecap: square"/>
   </g>
   <g id="line2d_150">
    <path d="M 73.832727 131.249296 
L 80.45833 131.220252 
L 87.083933 131.13315 
L 93.709536 130.988099 
L 100.335139 130.785281 
L 106.960742 130.524947 
L 113.586345 130.207423 
L 120.211948 129.833104 
L 126.837551 129.402456 
L 133.463154 128.916015 
L 140.088757 128.374386 
L 146.71436 127.778243 
L 153.339963 127.128328 
L 159.965566 126.425448 
L 166.591169 125.670477 
L 173.216772 124.864352 
L 179.842375 124.008075 
L 186.467978 123.102707 
L 193.093581 122.14937 
L 199.719184 121.149246 
L 206.344787 120.103573 
L 212.97039 119.013643 
L 219.595993 117.880803 
L 226.221596 116.706451 
L 232.847199 115.492034 
L 239.472801 114.239048 
L 246.098404 112.949033 
L 252.724007 111.623574 
L 259.34961 110.264293 
L 265.975213 108.872855 
L 272.600816 107.450959 
L 279.226419 106.000338 
L 285.852022 104.522757 
L 292.477625 103.020009 
L 299.103228 101.493912 
L 305.728831 99.94631 
L 312.354434 98.379065 
L 318.980037 96.794059 
L 325.60564 95.193189 
L 332.231243 93.578363 
L 338.856846 91.951499 
L 345.482449 90.314524 
L 352.108052 88.669366 
L 358.733655 87.017954 
L 365.359258 85.362218 
L 371.984861 83.704081 
L 378.610464 82.04546 
L 385.236067 80.388259 
L 391.86167 78.734371 
L 398.487273 77.085674 
" clip-path="url(#pf91093cad5)" style="fill: none; stroke: #7f7f7f; stroke-width: 1.5; stroke-linecap: square"/>
   </g>
   <g id="line2d_151">
    <path d="M 73.832727 114.754375 
L 80.45833 114.731084 
L 87.083933 114.661235 
L 93.709536 114.544917 
L 100.335139 114.382277 
L 106.960742 114.173522 
L 113.586345 113.918913 
L 120.211948 113.618774 
L 126.837551 113.273482 
L 133.463154 112.883472 
L 140.088757 112.449238 
L 146.71436 111.971324 
L 153.339963 111.450334 
L 159.965566 110.886923 
L 166.591169 110.281798 
L 173.216772 109.635721 
L 179.842375 108.949501 
L 186.467978 108.223999 
L 193.093581 107.460123 
L 199.719184 106.658829 
L 206.344787 105.821118 
L 212.97039 104.948034 
L 219.595993 104.040666 
L 226.221596 103.100141 
L 232.847199 102.127627 
L 239.472801 101.12433 
L 246.098404 100.091491 
L 252.724007 99.030385 
L 259.34961 97.942319 
L 265.975213 96.828631 
L 272.600816 95.690687 
L 279.226419 94.529878 
L 285.852022 93.34762 
L 292.477625 92.145352 
L 299.103228 90.924533 
L 305.728831 89.686637 
L 312.354434 88.433158 
L 318.980037 87.165599 
L 325.60564 85.885479 
L 332.231243 84.594321 
L 338.856846 83.293659 
L 345.482449 81.98503 
L 352.108052 80.669973 
L 358.733655 79.350026 
L 365.359258 78.026728 
L 371.984861 76.70161 
L 378.610464 75.3762 
L 385.236067 74.052013 
L 391.86167 72.730557 
L 398.487273 71.413324 
" clip-path="url(#pf91093cad5)" style="fill: none; stroke: #bcbd22; stroke-width: 1.5; stroke-linecap: square"/>
   </g>
   <g id="line2d_152">
    <path d="M 73.832727 101.541471 
L 80.45833 101.52283 
L 87.083933 101.466929 
L 93.709536 101.373839 
L 100.335139 101.243678 
L 106.960742 101.076612 
L 113.586345 100.872852 
L 120.211948 100.632657 
L 126.837551 100.356332 
L 133.463154 100.044228 
L 140.088757 99.696739 
L 146.71436 99.314305 
L 153.339963 98.897411 
L 159.965566 98.446584 
L 166.591169 97.962392 
L 173.216772 97.445447 
L 179.842375 96.8964 
L 186.467978 96.315942 
L 193.093581 95.704804 
L 199.719184 95.063752 
L 206.344787 94.39359 
L 212.97039 93.695158 
L 219.595993 92.969327 
L 226.221596 92.217004 
L 232.847199 91.439125 
L 239.472801 90.636657 
L 246.098404 89.810595 
L 252.724007 88.961962 
L 259.34961 88.091804 
L 265.975213 87.201194 
L 272.600816 86.291226 
L 279.226419 85.363014 
L 285.852022 84.417692 
L 292.477625 83.456412 
L 299.103228 82.480339 
L 305.728831 81.490656 
L 312.354434 80.488554 
L 318.980037 79.475238 
L 325.60564 78.45192 
L 332.231243 77.419819 
L 338.856846 76.380159 
L 345.482449 75.334169 
L 352.108052 74.283078 
L 358.733655 73.228114 
L 365.359258 72.170506 
L 371.984861 71.111475 
L 378.610464 70.052242 
L 385.236067 68.994015 
L 391.86167 67.937997 
L 398.487273 66.885378 
" clip-path="url(#pf91093cad5)" style="fill: none; stroke: #17becf; stroke-width: 1.5; stroke-linecap: square"/>
   </g>
   <g id="line2d_153">
    <path d="M 73.832727 90.971757 
L 80.45833 90.956852 
L 87.083933 90.912149 
L 93.709536 90.837709 
L 100.335139 90.733624 
L 106.960742 90.600028 
L 113.586345 90.43709 
L 120.211948 90.245019 
L 126.837551 90.024057 
L 133.463154 89.774486 
L 140.088757 89.496623 
L 146.71436 89.19082 
L 153.339963 88.857464 
L 159.965566 88.496979 
L 166.591169 88.109819 
L 173.216772 87.696475 
L 179.842375 87.257469 
L 186.467978 86.793353 
L 193.093581 86.304713 
L 199.719184 85.792162 
L 206.344787 85.256345 
L 212.97039 84.697933 
L 219.595993 84.117625 
L 226.221596 83.516145 
L 232.847199 82.894245 
L 239.472801 82.252696 
L 246.098404 81.592296 
L 252.724007 80.913863 
L 259.34961 80.218235 
L 265.975213 79.50627 
L 272.600816 78.778841 
L 279.226419 78.036842 
L 285.852022 77.281179 
L 292.477625 76.512772 
L 299.103228 75.732554 
L 305.728831 74.94147 
L 312.354434 74.140473 
L 318.980037 73.330525 
L 325.60564 72.512596 
L 332.231243 71.68766 
L 338.856846 70.856695 
L 345.482449 70.020682 
L 352.108052 69.180605 
L 358.733655 68.337443 
L 365.359258 67.492179 
L 371.984861 66.64579 
L 378.610464 65.799247 
L 385.236067 64.953519 
L 391.86167 64.109564 
L 398.487273 63.268334 
" clip-path="url(#pf91093cad5)" style="fill: none; stroke: #1f77b4; stroke-width: 1.5; stroke-linecap: square"/>
   </g>
   <g id="line2d_154">
    <path d="M 73.832727 82.521071 
L 80.45833 82.509156 
L 87.083933 82.473421 
L 93.709536 82.413913 
L 100.335139 82.330707 
L 106.960742 82.223911 
L 113.586345 82.093659 
L 120.211948 81.940118 
L 126.837551 81.763483 
L 133.463154 81.563978 
L 140.088757 81.341857 
L 146.71436 81.097402 
L 153.339963 80.830924 
L 159.965566 80.542759 
L 166.591169 80.233274 
L 173.216772 79.902858 
L 179.842375 79.551931 
L 186.467978 79.180934 
L 193.093581 78.790335 
L 199.719184 78.380626 
L 206.344787 77.952321 
L 212.97039 77.505958 
L 219.595993 77.042095 
L 226.221596 76.561313 
L 232.847199 76.06421 
L 239.472801 75.551406 
L 246.098404 75.023537 
L 252.724007 74.481258 
L 259.34961 73.925239 
L 265.975213 73.356165 
L 272.600816 72.774735 
L 279.226419 72.181664 
L 285.852022 71.577675 
L 292.477625 70.963505 
L 299.103228 70.339899 
L 305.728831 69.707612 
L 312.354434 69.067406 
L 318.980037 68.420052 
L 325.60564 67.766321 
L 332.231243 67.106995 
L 338.856846 66.442855 
L 345.482449 65.774684 
L 352.108052 65.103268 
L 358.733655 64.429391 
L 365.359258 63.753837 
L 371.984861 63.077387 
L 378.610464 62.400818 
L 385.236067 61.724903 
L 391.86167 61.050408 
L 398.487273 60.378094 
" clip-path="url(#pf91093cad5)" style="fill: none; stroke: #ff7f0e; stroke-width: 1.5; stroke-linecap: square"/>
   </g>
   <g id="line2d_155">
    <path d="M 73.832727 75.766078 
L 80.45833 75.756554 
L 87.083933 75.727991 
L 93.709536 75.680426 
L 100.335139 75.613921 
L 106.960742 75.528559 
L 113.586345 75.42445 
L 120.211948 75.301725 
L 126.837551 75.160542 
L 133.463154 75.00108 
L 140.088757 74.823541 
L 146.71436 74.628151 
L 153.339963 74.415158 
L 159.965566 74.184832 
L 166.591169 73.937465 
L 173.216772 73.67337 
L 179.842375 73.39288 
L 186.467978 73.09635 
L 193.093581 72.784153 
L 199.719184 72.456683 
L 206.344787 72.11435 
L 212.97039 71.757585 
L 219.595993 71.386833 
L 226.221596 71.00256 
L 232.847199 70.605243 
L 239.472801 70.195377 
L 246.098404 69.773473 
L 252.724007 69.340052 
L 259.34961 68.89565 
L 265.975213 68.440815 
L 272.600816 67.976107 
L 279.226419 67.502095 
L 285.852022 67.019359 
L 292.477625 66.528486 
L 299.103228 66.030074 
L 305.728831 65.524725 
L 312.354434 65.013049 
L 318.980037 64.495659 
L 325.60564 63.973176 
L 332.231243 63.446222 
L 338.856846 62.915421 
L 345.482449 62.381401 
L 352.108052 61.844788 
L 358.733655 61.306209 
L 365.359258 60.766292 
L 371.984861 60.225659 
L 378.610464 59.684932 
L 385.236067 59.144729 
L 391.86167 58.605662 
L 398.487273 58.068338 
" clip-path="url(#pf91093cad5)" style="fill: none; stroke: #2ca02c; stroke-width: 1.5; stroke-linecap: square"/>
   </g>
   <g id="line2d_156">
    <path d="M 73.832727 70.367006 
L 80.45833 70.359394 
L 87.083933 70.336565 
L 93.709536 70.298549 
L 100.335139 70.245395 
L 106.960742 70.177169 
L 113.586345 70.09396 
L 120.211948 69.995872 
L 126.837551 69.883031 
L 133.463154 69.755581 
L 140.088757 69.613683 
L 146.71436 69.457518 
L 153.339963 69.287284 
L 159.965566 69.103196 
L 166.591169 68.905489 
L 173.216772 68.694411 
L 179.842375 68.470231 
L 186.467978 68.233231 
L 193.093581 67.983709 
L 199.719184 67.72198 
L 206.344787 67.448373 
L 212.97039 67.163231 
L 219.595993 66.866911 
L 226.221596 66.559784 
L 232.847199 66.242233 
L 239.472801 65.914653 
L 246.098404 65.57745 
L 252.724007 65.231044 
L 259.34961 64.875862 
L 265.975213 64.512342 
L 272.600816 64.140932 
L 279.226419 63.762086 
L 285.852022 63.376267 
L 292.477625 62.983947 
L 299.103228 62.5856 
L 305.728831 62.181711 
L 312.354434 61.772764 
L 318.980037 61.359252 
L 325.60564 60.94167 
L 332.231243 60.520514 
L 338.856846 60.096285 
L 345.482449 59.669483 
L 352.108052 59.240609 
L 358.733655 58.810165 
L 365.359258 58.37865 
L 371.984861 57.946565 
L 378.610464 57.514405 
L 385.236067 57.082663 
L 391.86167 56.65183 
L 398.487273 56.222391 
" clip-path="url(#pf91093cad5)" style="fill: none; stroke: #d62728; stroke-width: 1.5; stroke-linecap: square"/>
   </g>
   <g id="line2d_157">
    <path d="M 73.832727 66.051841 
L 80.45833 66.045757 
L 87.083933 66.027512 
L 93.709536 65.997128 
L 100.335139 65.954645 
L 106.960742 65.900117 
L 113.586345 65.833613 
L 120.211948 65.755218 
L 126.837551 65.665032 
L 133.463154 65.563169 
L 140.088757 65.44976 
L 146.71436 65.324947 
L 153.339963 65.188891 
L 159.965566 65.041762 
L 166.591169 64.883748 
L 173.216772 64.715048 
L 179.842375 64.535876 
L 186.467978 64.346457 
L 193.093581 64.147032 
L 199.719184 63.93785 
L 206.344787 63.719175 
L 212.97039 63.491281 
L 219.595993 63.254453 
L 226.221596 63.008988 
L 232.847199 62.755192 
L 239.472801 62.49338 
L 246.098404 62.223878 
L 252.724007 61.947021 
L 259.34961 61.663149 
L 265.975213 61.372614 
L 272.600816 61.075773 
L 279.226419 60.772989 
L 285.852022 60.464633 
L 292.477625 60.15108 
L 299.103228 59.832711 
L 305.728831 59.509912 
L 312.354434 59.183072 
L 318.980037 58.852584 
L 325.60564 58.518842 
L 332.231243 58.182244 
L 338.856846 57.84319 
L 345.482449 57.50208 
L 352.108052 57.159314 
L 358.733655 56.815293 
L 365.359258 56.470417 
L 371.984861 56.125085 
L 378.610464 55.779693 
L 385.236067 55.434636 
L 391.86167 55.090305 
L 398.487273 54.747088 
" clip-path="url(#pf91093cad5)" style="fill: none; stroke: #9467bd; stroke-width: 1.5; stroke-linecap: square"/>
   </g>
   <g id="line2d_158">
    <path d="M 73.832727 62.60303 
L 80.45833 62.598168 
L 87.083933 62.583585 
L 93.709536 62.559302 
L 100.335139 62.525348 
L 106.960742 62.481768 
L 113.586345 62.428616 
L 120.211948 62.365961 
L 126.837551 62.293882 
L 133.463154 62.212471 
L 140.088757 62.121831 
L 146.71436 62.022077 
L 153.339963 61.913337 
L 159.965566 61.795748 
L 166.591169 61.669459 
L 173.216772 61.534629 
L 179.842375 61.39143 
L 186.467978 61.240042 
L 193.093581 61.080656 
L 199.719184 60.913473 
L 206.344787 60.738702 
L 212.97039 60.556563 
L 219.595993 60.367284 
L 226.221596 60.171102 
L 232.847199 59.968262 
L 239.472801 59.759015 
L 246.098404 59.543623 
L 252.724007 59.322352 
L 259.34961 59.095475 
L 265.975213 58.863272 
L 272.600816 58.626029 
L 279.226419 58.384037 
L 285.852022 58.137591 
L 292.477625 57.886992 
L 299.103228 57.632545 
L 305.728831 57.374556 
L 312.354434 57.113338 
L 318.980037 56.849204 
L 325.60564 56.582469 
L 332.231243 56.313453 
L 338.856846 56.042473 
L 345.482449 55.76985 
L 352.108052 55.495904 
L 358.733655 55.220955 
L 365.359258 54.945323 
L 371.984861 54.669326 
L 378.610464 54.393281 
L 385.236067 54.117504 
L 391.86167 53.842307 
L 398.487273 53.568 
" clip-path="url(#pf91093cad5)" style="fill: none; stroke: #8c564b; stroke-width: 1.5; stroke-linecap: square"/>
   </g>
   <g id="patch_3">
    <path d="M 57.6 307.584 
L 57.6 41.472 
" style="fill: none; stroke: #000000; stroke-width: 0.8; stroke-linejoin: miter; stroke-linecap: square"/>
   </g>
   <g id="patch_4">
    <path d="M 414.72 307.584 
L 414.72 41.472 
" style="fill: none; stroke: #000000; stroke-width: 0.8; stroke-linejoin: miter; stroke-linecap: square"/>
   </g>
   <g id="patch_5">
    <path d="M 57.6 307.584 
L 414.72 307.584 
" style="fill: none; stroke: #000000; stroke-width: 0.8; stroke-linejoin: miter; stroke-linecap: square"/>
   </g>
   <g id="patch_6">
    <path d="M 57.6 41.472 
L 414.72 41.472 
" style="fill: none; stroke: #000000; stroke-width: 0.8; stroke-linejoin: miter; stroke-linecap: square"/>
   </g>
   <g id="legend_1">
    <g id="patch_7">
     <path d="M 308.493438 299.000125 
L 407.72 299.000125 
Q 409.72 299.000125 409.72 297.000125 
L 409.72 48.472 
Q 409.72 46.472 407.72 46.472 
L 308.493438 46.472 
Q 306.493438 46.472 306.493438 48.472 
L 306.493438 297.000125 
Q 306.493438 299.000125 308.493438 299.000125 
z
" style="fill: #ffffff; opacity: 0.8; stroke: #cccccc; stroke-linejoin: miter"/>
    </g>
    <g id="text_18">
     <!-- Simulation time (s) -->
     <g transform="translate(310.493438 58.070437) scale(0.1 -0.1)">
      <use xlink:href="#DejaVuSans-53"/>
      <use xlink:href="#DejaVuSans-69" x="63.476562"/>
      <use xlink:href="#DejaVuSans-6d" x="91.259766"/>
      <use xlink:href="#DejaVuSans-75" x="188.671875"/>
      <use xlink:href="#DejaVuSans-6c" x="252.050781"/>
      <use xlink:href="#DejaVuSans-61" x="279.833984"/>
      <use xlink:href="#DejaVuSans-74" x="341.113281"/>
      <use xlink:href="#DejaVuSans-69" x="380.322266"/>
      <use xlink:href="#DejaVuSans-6f" x="408.105469"/>
      <use xlink:href="#DejaVuSans-6e" x="469.287109"/>
      <use xlink:href="#DejaVuSans-20" x="532.666016"/>
      <use xlink:href="#DejaVuSans-74" x="564.453125"/>
      <use xlink:href="#DejaVuSans-69" x="603.662109"/>
      <use xlink:href="#DejaVuSans-6d" x="631.445312"/>
      <use xlink:href="#DejaVuSans-65" x="728.857422"/>
      <use xlink:href="#DejaVuSans-20" x="790.380859"/>
      <use xlink:href="#DejaVuSans-28" x="822.167969"/>
      <use xlink:href="#DejaVuSans-73" x="861.181641"/>
      <use xlink:href="#DejaVuSans-29" x="913.28125"/>
     </g>
    </g>
    <g id="line2d_159">
     <path d="M 329.792656 69.248562 
L 339.792656 69.248562 
L 349.792656 69.248562 
" style="fill: none; stroke: #1f77b4; stroke-width: 1.5; stroke-linecap: square"/>
    </g>
    <g id="text_19">
     <!-- 0.0 -->
     <g transform="translate(357.792656 72.748562) scale(0.1 -0.1)">
      <use xlink:href="#DejaVuSans-30"/>
      <use xlink:href="#DejaVuSans-2e" x="63.623047"/>
      <use xlink:href="#DejaVuSans-30" x="95.410156"/>
     </g>
    </g>
    <g id="line2d_160">
     <path d="M 329.792656 83.926688 
L 339.792656 83.926688 
L 349.792656 83.926688 
" style="fill: none; stroke: #ff7f0e; stroke-width: 1.5; stroke-linecap: square"/>
    </g>
    <g id="text_20">
     <!-- 60.0 -->
     <g transform="translate(357.792656 87.426688) scale(0.1 -0.1)">
      <use xlink:href="#DejaVuSans-36"/>
      <use xlink:href="#DejaVuSans-30" x="63.623047"/>
      <use xlink:href="#DejaVuSans-2e" x="127.246094"/>
      <use xlink:href="#DejaVuSans-30" x="159.033203"/>
     </g>
    </g>
    <g id="line2d_161">
     <path d="M 329.792656 98.604813 
L 339.792656 98.604813 
L 349.792656 98.604813 
" style="fill: none; stroke: #2ca02c; stroke-width: 1.5; stroke-linecap: square"/>
    </g>
    <g id="text_21">
     <!-- 120.0 -->
     <g transform="translate(357.792656 102.104813) scale(0.1 -0.1)">
      <use xlink:href="#DejaVuSans-31"/>
      <use xlink:href="#DejaVuSans-32" x="63.623047"/>
      <use xlink:href="#DejaVuSans-30" x="127.246094"/>
      <use xlink:href="#DejaVuSans-2e" x="190.869141"/>
      <use xlink:href="#DejaVuSans-30" x="222.65625"/>
     </g>
    </g>
    <g id="line2d_162">
     <path d="M 329.792656 113.282938 
L 339.792656 113.282938 
L 349.792656 113.282938 
" style="fill: none; stroke: #d62728; stroke-width: 1.5; stroke-linecap: square"/>
    </g>
    <g id="text_22">
     <!-- 180.0 -->
     <g transform="translate(357.792656 116.782938) scale(0.1 -0.1)">
      <use xlink:href="#DejaVuSans-31"/>
      <use xlink:href="#DejaVuSans-38" x="63.623047"/>
      <use xlink:href="#DejaVuSans-30" x="127.246094"/>
      <use xlink:href="#DejaVuSans-2e" x="190.869141"/>
      <use xlink:href="#DejaVuSans-30" x="222.65625"/>
     </g>
    </g>
    <g id="line2d_163">
     <path d="M 329.792656 127.961062 
L 339.792656 127.961062 
L 349.792656 127.961062 
" style="fill: none; stroke: #9467bd; stroke-width: 1.5; stroke-linecap: square"/>
    </g>
    <g id="text_23">
     <!-- 240.0 -->
     <g transform="translate(357.792656 131.461062) scale(0.1 -0.1)">
      <use xlink:href="#DejaVuSans-32"/>
      <use xlink:href="#DejaVuSans-34" x="63.623047"/>
      <use xlink:href="#DejaVuSans-30" x="127.246094"/>
      <use xlink:href="#DejaVuSans-2e" x="190.869141"/>
      <use xlink:href="#DejaVuSans-30" x="222.65625"/>
     </g>
    </g>
    <g id="line2d_164">
     <path d="M 329.792656 142.639188 
L 339.792656 142.639188 
L 349.792656 142.639188 
" style="fill: none; stroke: #8c564b; stroke-width: 1.5; stroke-linecap: square"/>
    </g>
    <g id="text_24">
     <!-- 300.0 -->
     <g transform="translate(357.792656 146.139188) scale(0.1 -0.1)">
      <defs>
       <path id="DejaVuSans-33" d="M 2597 2516 
Q 3050 2419 3304 2112 
Q 3559 1806 3559 1356 
Q 3559 666 3084 287 
Q 2609 -91 1734 -91 
Q 1441 -91 1130 -33 
Q 819 25 488 141 
L 488 750 
Q 750 597 1062 519 
Q 1375 441 1716 441 
Q 2309 441 2620 675 
Q 2931 909 2931 1356 
Q 2931 1769 2642 2001 
Q 2353 2234 1838 2234 
L 1294 2234 
L 1294 2753 
L 1863 2753 
Q 2328 2753 2575 2939 
Q 2822 3125 2822 3475 
Q 2822 3834 2567 4026 
Q 2313 4219 1838 4219 
Q 1578 4219 1281 4162 
Q 984 4106 628 3988 
L 628 4550 
Q 988 4650 1302 4700 
Q 1616 4750 1894 4750 
Q 2613 4750 3031 4423 
Q 3450 4097 3450 3541 
Q 3450 3153 3228 2886 
Q 3006 2619 2597 2516 
z
" transform="scale(0.015625)"/>
      </defs>
      <use xlink:href="#DejaVuSans-33"/>
      <use xlink:href="#DejaVuSans-30" x="63.623047"/>
      <use xlink:href="#DejaVuSans-30" x="127.246094"/>
      <use xlink:href="#DejaVuSans-2e" x="190.869141"/>
      <use xlink:href="#DejaVuSans-30" x="222.65625"/>
     </g>
    </g>
    <g id="line2d_165">
     <path d="M 329.792656 157.317312 
L 339.792656 157.317312 
L 349.792656 157.317312 
" style="fill: none; stroke: #e377c2; stroke-width: 1.5; stroke-linecap: square"/>
    </g>
    <g id="text_25">
     <!-- 360.0 -->
     <g transform="translate(357.792656 160.817312) scale(0.1 -0.1)">
      <use xlink:href="#DejaVuSans-33"/>
      <use xlink:href="#DejaVuSans-36" x="63.623047"/>
      <use xlink:href="#DejaVuSans-30" x="127.246094"/>
      <use xlink:href="#DejaVuSans-2e" x="190.869141"/>
      <use xlink:href="#DejaVuSans-30" x="222.65625"/>
     </g>
    </g>
    <g id="line2d_166">
     <path d="M 329.792656 171.995437 
L 339.792656 171.995437 
L 349.792656 171.995437 
" style="fill: none; stroke: #7f7f7f; stroke-width: 1.5; stroke-linecap: square"/>
    </g>
    <g id="text_26">
     <!-- 420.0 -->
     <g transform="translate(357.792656 175.495437) scale(0.1 -0.1)">
      <use xlink:href="#DejaVuSans-34"/>
      <use xlink:href="#DejaVuSans-32" x="63.623047"/>
      <use xlink:href="#DejaVuSans-30" x="127.246094"/>
      <use xlink:href="#DejaVuSans-2e" x="190.869141"/>
      <use xlink:href="#DejaVuSans-30" x="222.65625"/>
     </g>
    </g>
    <g id="line2d_167">
     <path d="M 329.792656 186.673563 
L 339.792656 186.673563 
L 349.792656 186.673563 
" style="fill: none; stroke: #bcbd22; stroke-width: 1.5; stroke-linecap: square"/>
    </g>
    <g id="text_27">
     <!-- 480.0 -->
     <g transform="translate(357.792656 190.173563) scale(0.1 -0.1)">
      <use xlink:href="#DejaVuSans-34"/>
      <use xlink:href="#DejaVuSans-38" x="63.623047"/>
      <use xlink:href="#DejaVuSans-30" x="127.246094"/>
      <use xlink:href="#DejaVuSans-2e" x="190.869141"/>
      <use xlink:href="#DejaVuSans-30" x="222.65625"/>
     </g>
    </g>
    <g id="line2d_168">
     <path d="M 329.792656 201.351687 
L 339.792656 201.351687 
L 349.792656 201.351687 
" style="fill: none; stroke: #17becf; stroke-width: 1.5; stroke-linecap: square"/>
    </g>
    <g id="text_28">
     <!-- 540.0 -->
     <g transform="translate(357.792656 204.851687) scale(0.1 -0.1)">
      <use xlink:href="#DejaVuSans-35"/>
      <use xlink:href="#DejaVuSans-34" x="63.623047"/>
      <use xlink:href="#DejaVuSans-30" x="127.246094"/>
      <use xlink:href="#DejaVuSans-2e" x="190.869141"/>
      <use xlink:href="#DejaVuSans-30" x="222.65625"/>
     </g>
    </g>
    <g id="line2d_169">
     <path d="M 329.792656 216.029812 
L 339.792656 216.029812 
L 349.792656 216.029812 
" style="fill: none; stroke: #1f77b4; stroke-width: 1.5; stroke-linecap: square"/>
    </g>
    <g id="text_29">
     <!-- 600.0 -->
     <g transform="translate(357.792656 219.529812) scale(0.1 -0.1)">
      <use xlink:href="#DejaVuSans-36"/>
      <use xlink:href="#DejaVuSans-30" x="63.623047"/>
      <use xlink:href="#DejaVuSans-30" x="127.246094"/>
      <use xlink:href="#DejaVuSans-2e" x="190.869141"/>
      <use xlink:href="#DejaVuSans-30" x="222.65625"/>
     </g>
    </g>
    <g id="line2d_170">
     <path d="M 329.792656 230.707937 
L 339.792656 230.707937 
L 349.792656 230.707937 
" style="fill: none; stroke: #ff7f0e; stroke-width: 1.5; stroke-linecap: square"/>
    </g>
    <g id="text_30">
     <!-- 660.0 -->
     <g transform="translate(357.792656 234.207937) scale(0.1 -0.1)">
      <use xlink:href="#DejaVuSans-36"/>
      <use xlink:href="#DejaVuSans-36" x="63.623047"/>
      <use xlink:href="#DejaVuSans-30" x="127.246094"/>
      <use xlink:href="#DejaVuSans-2e" x="190.869141"/>
      <use xlink:href="#DejaVuSans-30" x="222.65625"/>
     </g>
    </g>
    <g id="line2d_171">
     <path d="M 329.792656 245.386062 
L 339.792656 245.386062 
L 349.792656 245.386062 
" style="fill: none; stroke: #2ca02c; stroke-width: 1.5; stroke-linecap: square"/>
    </g>
    <g id="text_31">
     <!-- 720.0 -->
     <g transform="translate(357.792656 248.886062) scale(0.1 -0.1)">
      <use xlink:href="#DejaVuSans-37"/>
      <use xlink:href="#DejaVuSans-32" x="63.623047"/>
      <use xlink:href="#DejaVuSans-30" x="127.246094"/>
      <use xlink:href="#DejaVuSans-2e" x="190.869141"/>
      <use xlink:href="#DejaVuSans-30" x="222.65625"/>
     </g>
    </g>
    <g id="line2d_172">
     <path d="M 329.792656 260.064187 
L 339.792656 260.064187 
L 349.792656 260.064187 
" style="fill: none; stroke: #d62728; stroke-width: 1.5; stroke-linecap: square"/>
    </g>
    <g id="text_32">
     <!-- 780.0 -->
     <g transform="translate(357.792656 263.564187) scale(0.1 -0.1)">
      <use xlink:href="#DejaVuSans-37"/>
      <use xlink:href="#DejaVuSans-38" x="63.623047"/>
      <use xlink:href="#DejaVuSans-30" x="127.246094"/>
      <use xlink:href="#DejaVuSans-2e" x="190.869141"/>
      <use xlink:href="#DejaVuSans-30" x="222.65625"/>
     </g>
    </g>
    <g id="line2d_173">
     <path d="M 329.792656 274.742312 
L 339.792656 274.742312 
L 349.792656 274.742312 
" style="fill: none; stroke: #9467bd; stroke-width: 1.5; stroke-linecap: square"/>
    </g>
    <g id="text_33">
     <!-- 840.0 -->
     <g transform="translate(357.792656 278.242312) scale(0.1 -0.1)">
      <use xlink:href="#DejaVuSans-38"/>
      <use xlink:href="#DejaVuSans-34" x="63.623047"/>
      <use xlink:href="#DejaVuSans-30" x="127.246094"/>
      <use xlink:href="#DejaVuSans-2e" x="190.869141"/>
      <use xlink:href="#DejaVuSans-30" x="222.65625"/>
     </g>
    </g>
    <g id="line2d_174">
     <path d="M 329.792656 289.420437 
L 339.792656 289.420437 
L 349.792656 289.420437 
" style="fill: none; stroke: #8c564b; stroke-width: 1.5; stroke-linecap: square"/>
    </g>
    <g id="text_34">
     <!-- 900.0 -->
     <g transform="translate(357.792656 292.920437) scale(0.1 -0.1)">
      <defs>
       <path id="DejaVuSans-39" d="M 703 97 
L 703 672 
Q 941 559 1184 500 
Q 1428 441 1663 441 
Q 2288 441 2617 861 
Q 2947 1281 2994 2138 
Q 2813 1869 2534 1725 
Q 2256 1581 1919 1581 
Q 1219 1581 811 2004 
Q 403 2428 403 3163 
Q 403 3881 828 4315 
Q 1253 4750 1959 4750 
Q 2769 4750 3195 4129 
Q 3622 3509 3622 2328 
Q 3622 1225 3098 567 
Q 2575 -91 1691 -91 
Q 1453 -91 1209 -44 
Q 966 3 703 97 
z
M 1959 2075 
Q 2384 2075 2632 2365 
Q 2881 2656 2881 3163 
Q 2881 3666 2632 3958 
Q 2384 4250 1959 4250 
Q 1534 4250 1286 3958 
Q 1038 3666 1038 3163 
Q 1038 2656 1286 2365 
Q 1534 2075 1959 2075 
z
" transform="scale(0.015625)"/>
      </defs>
      <use xlink:href="#DejaVuSans-39"/>
      <use xlink:href="#DejaVuSans-30" x="63.623047"/>
      <use xlink:href="#DejaVuSans-30" x="127.246094"/>
      <use xlink:href="#DejaVuSans-2e" x="190.869141"/>
      <use xlink:href="#DejaVuSans-30" x="222.65625"/>
     </g>
    </g>
   </g>
  </g>
 </g>
 <defs>
  <clipPath id="pf91093cad5">
   <rect x="57.6" y="41.472" width="357.12" height="266.112"/>
  </clipPath>
 </defs>
</svg>
