<?xml version="1.0" encoding="utf-8" standalone="no"?>
<!DOCTYPE svg PUBLIC "-//W3C//DTD SVG 1.1//EN"
  "http://www.w3.org/Graphics/SVG/1.1/DTD/svg11.dtd">
<svg xmlns:xlink="http://www.w3.org/1999/xlink" width="460.8pt" height="345.6pt" viewBox="0 0 460.8 345.6" xmlns="http://www.w3.org/2000/svg" version="1.1">
 <metadata>
  <rdf:RDF xmlns:dc="http://purl.org/dc/elements/1.1/" xmlns:cc="http://creativecommons.org/ns#" xmlns:rdf="http://www.w3.org/1999/02/22-rdf-syntax-ns#">
   <cc:Work>
    <dc:type rdf:resource="http://purl.org/dc/dcmitype/StillImage"/>
    <dc:date>2024-04-25T08:40:56.446864</dc:date>
    <dc:format>image/svg+xml</dc:format>
    <dc:creator>
     <cc:Agent>
      <dc:title>Matplotlib v3.8.3, https://matplotlib.org/</dc:title>
     </cc:Agent>
    </dc:creator>
   </cc:Work>
  </rdf:RDF>
 </metadata>
 <defs>
  <style type="text/css">*{stroke-linejoin: round; stroke-linecap: butt}</style>
 </defs>
 <g id="figure_1">
  <g id="patch_1">
   <path d="M 0 345.6 
L 460.8 345.6 
L 460.8 0 
L 0 0 
z
" style="fill: #ffffff"/>
  </g>
  <g id="axes_1">
   <g id="patch_2">
    <path d="M 57.6 307.584 
L 414.72 307.584 
L 414.72 41.472 
L 57.6 41.472 
z
" style="fill: #ffffff"/>
   </g>
   <g id="matplotlib.axis_1">
    <g id="xtick_1">
     <g id="line2d_1">
      <path d="M 73.832727 307.584 
L 73.832727 41.472 
" clip-path="url(#pb235bcb14e)" style="fill: none; stroke: #dddddd; stroke-linecap: square"/>
     </g>
     <g id="line2d_2">
      <defs>
       <path id="m7c563d1474" d="M 0 0 
L 0 3.5 
" style="stroke: #000000; stroke-width: 0.8"/>
      </defs>
      <g>
       <use xlink:href="#m7c563d1474" x="73.832727" y="307.584" style="stroke: #000000; stroke-width: 0.8"/>
      </g>
     </g>
     <g id="text_1">
      <!-- 0.0 -->
      <g transform="translate(65.881165 322.182437) scale(0.1 -0.1)">
       <defs>
        <path id="DejaVuSans-30" d="M 2034 4250 
Q 1547 4250 1301 3770 
Q 1056 3291 1056 2328 
Q 1056 1369 1301 889 
Q 1547 409 2034 409 
Q 2525 409 2770 889 
Q 3016 1369 3016 2328 
Q 3016 3291 2770 3770 
Q 2525 4250 2034 4250 
z
M 2034 4750 
Q 2819 4750 3233 4129 
Q 3647 3509 3647 2328 
Q 3647 1150 3233 529 
Q 2819 -91 2034 -91 
Q 1250 -91 836 529 
Q 422 1150 422 2328 
Q 422 3509 836 4129 
Q 1250 4750 2034 4750 
z
" transform="scale(0.015625)"/>
        <path id="DejaVuSans-2e" d="M 684 794 
L 1344 794 
L 1344 0 
L 684 0 
L 684 794 
z
" transform="scale(0.015625)"/>
       </defs>
       <use xlink:href="#DejaVuSans-30"/>
       <use xlink:href="#DejaVuSans-2e" x="63.623047"/>
       <use xlink:href="#DejaVuSans-30" x="95.410156"/>
      </g>
     </g>
    </g>
    <g id="xtick_2">
     <g id="line2d_3">
      <path d="M 138.763636 307.584 
L 138.763636 41.472 
" clip-path="url(#pb235bcb14e)" style="fill: none; stroke: #dddddd; stroke-linecap: square"/>
     </g>
     <g id="line2d_4">
      <g>
       <use xlink:href="#m7c563d1474" x="138.763636" y="307.584" style="stroke: #000000; stroke-width: 0.8"/>
      </g>
     </g>
     <g id="text_2">
      <!-- 0.2 -->
      <g transform="translate(130.812074 322.182437) scale(0.1 -0.1)">
       <defs>
        <path id="DejaVuSans-32" d="M 1228 531 
L 3431 531 
L 3431 0 
L 469 0 
L 469 531 
Q 828 903 1448 1529 
Q 2069 2156 2228 2338 
Q 2531 2678 2651 2914 
Q 2772 3150 2772 3378 
Q 2772 3750 2511 3984 
Q 2250 4219 1831 4219 
Q 1534 4219 1204 4116 
Q 875 4013 500 3803 
L 500 4441 
Q 881 4594 1212 4672 
Q 1544 4750 1819 4750 
Q 2544 4750 2975 4387 
Q 3406 4025 3406 3419 
Q 3406 3131 3298 2873 
Q 3191 2616 2906 2266 
Q 2828 2175 2409 1742 
Q 1991 1309 1228 531 
z
" transform="scale(0.015625)"/>
       </defs>
       <use xlink:href="#DejaVuSans-30"/>
       <use xlink:href="#DejaVuSans-2e" x="63.623047"/>
       <use xlink:href="#DejaVuSans-32" x="95.410156"/>
      </g>
     </g>
    </g>
    <g id="xtick_3">
     <g id="line2d_5">
      <path d="M 203.694545 307.584 
L 203.694545 41.472 
" clip-path="url(#pb235bcb14e)" style="fill: none; stroke: #dddddd; stroke-linecap: square"/>
     </g>
     <g id="line2d_6">
      <g>
       <use xlink:href="#m7c563d1474" x="203.694545" y="307.584" style="stroke: #000000; stroke-width: 0.8"/>
      </g>
     </g>
     <g id="text_3">
      <!-- 0.4 -->
      <g transform="translate(195.742983 322.182437) scale(0.1 -0.1)">
       <defs>
        <path id="DejaVuSans-34" d="M 2419 4116 
L 825 1625 
L 2419 1625 
L 2419 4116 
z
M 2253 4666 
L 3047 4666 
L 3047 1625 
L 3713 1625 
L 3713 1100 
L 3047 1100 
L 3047 0 
L 2419 0 
L 2419 1100 
L 313 1100 
L 313 1709 
L 2253 4666 
z
" transform="scale(0.015625)"/>
       </defs>
       <use xlink:href="#DejaVuSans-30"/>
       <use xlink:href="#DejaVuSans-2e" x="63.623047"/>
       <use xlink:href="#DejaVuSans-34" x="95.410156"/>
      </g>
     </g>
    </g>
    <g id="xtick_4">
     <g id="line2d_7">
      <path d="M 268.625455 307.584 
L 268.625455 41.472 
" clip-path="url(#pb235bcb14e)" style="fill: none; stroke: #dddddd; stroke-linecap: square"/>
     </g>
     <g id="line2d_8">
      <g>
       <use xlink:href="#m7c563d1474" x="268.625455" y="307.584" style="stroke: #000000; stroke-width: 0.8"/>
      </g>
     </g>
     <g id="text_4">
      <!-- 0.6 -->
      <g transform="translate(260.673892 322.182437) scale(0.1 -0.1)">
       <defs>
        <path id="DejaVuSans-36" d="M 2113 2584 
Q 1688 2584 1439 2293 
Q 1191 2003 1191 1497 
Q 1191 994 1439 701 
Q 1688 409 2113 409 
Q 2538 409 2786 701 
Q 3034 994 3034 1497 
Q 3034 2003 2786 2293 
Q 2538 2584 2113 2584 
z
M 3366 4563 
L 3366 3988 
Q 3128 4100 2886 4159 
Q 2644 4219 2406 4219 
Q 1781 4219 1451 3797 
Q 1122 3375 1075 2522 
Q 1259 2794 1537 2939 
Q 1816 3084 2150 3084 
Q 2853 3084 3261 2657 
Q 3669 2231 3669 1497 
Q 3669 778 3244 343 
Q 2819 -91 2113 -91 
Q 1303 -91 875 529 
Q 447 1150 447 2328 
Q 447 3434 972 4092 
Q 1497 4750 2381 4750 
Q 2619 4750 2861 4703 
Q 3103 4656 3366 4563 
z
" transform="scale(0.015625)"/>
       </defs>
       <use xlink:href="#DejaVuSans-30"/>
       <use xlink:href="#DejaVuSans-2e" x="63.623047"/>
       <use xlink:href="#DejaVuSans-36" x="95.410156"/>
      </g>
     </g>
    </g>
    <g id="xtick_5">
     <g id="line2d_9">
      <path d="M 333.556364 307.584 
L 333.556364 41.472 
" clip-path="url(#pb235bcb14e)" style="fill: none; stroke: #dddddd; stroke-linecap: square"/>
     </g>
     <g id="line2d_10">
      <g>
       <use xlink:href="#m7c563d1474" x="333.556364" y="307.584" style="stroke: #000000; stroke-width: 0.8"/>
      </g>
     </g>
     <g id="text_5">
      <!-- 0.8 -->
      <g transform="translate(325.604801 322.182437) scale(0.1 -0.1)">
       <defs>
        <path id="DejaVuSans-38" d="M 2034 2216 
Q 1584 2216 1326 1975 
Q 1069 1734 1069 1313 
Q 1069 891 1326 650 
Q 1584 409 2034 409 
Q 2484 409 2743 651 
Q 3003 894 3003 1313 
Q 3003 1734 2745 1975 
Q 2488 2216 2034 2216 
z
M 1403 2484 
Q 997 2584 770 2862 
Q 544 3141 544 3541 
Q 544 4100 942 4425 
Q 1341 4750 2034 4750 
Q 2731 4750 3128 4425 
Q 3525 4100 3525 3541 
Q 3525 3141 3298 2862 
Q 3072 2584 2669 2484 
Q 3125 2378 3379 2068 
Q 3634 1759 3634 1313 
Q 3634 634 3220 271 
Q 2806 -91 2034 -91 
Q 1263 -91 848 271 
Q 434 634 434 1313 
Q 434 1759 690 2068 
Q 947 2378 1403 2484 
z
M 1172 3481 
Q 1172 3119 1398 2916 
Q 1625 2713 2034 2713 
Q 2441 2713 2670 2916 
Q 2900 3119 2900 3481 
Q 2900 3844 2670 4047 
Q 2441 4250 2034 4250 
Q 1625 4250 1398 4047 
Q 1172 3844 1172 3481 
z
" transform="scale(0.015625)"/>
       </defs>
       <use xlink:href="#DejaVuSans-30"/>
       <use xlink:href="#DejaVuSans-2e" x="63.623047"/>
       <use xlink:href="#DejaVuSans-38" x="95.410156"/>
      </g>
     </g>
    </g>
    <g id="xtick_6">
     <g id="line2d_11">
      <path d="M 398.487273 307.584 
L 398.487273 41.472 
" clip-path="url(#pb235bcb14e)" style="fill: none; stroke: #dddddd; stroke-linecap: square"/>
     </g>
     <g id="line2d_12">
      <g>
       <use xlink:href="#m7c563d1474" x="398.487273" y="307.584" style="stroke: #000000; stroke-width: 0.8"/>
      </g>
     </g>
     <g id="text_6">
      <!-- 1.0 -->
      <g transform="translate(390.53571 322.182437) scale(0.1 -0.1)">
       <defs>
        <path id="DejaVuSans-31" d="M 794 531 
L 1825 531 
L 1825 4091 
L 703 3866 
L 703 4441 
L 1819 4666 
L 2450 4666 
L 2450 531 
L 3481 531 
L 3481 0 
L 794 0 
L 794 531 
z
" transform="scale(0.015625)"/>
       </defs>
       <use xlink:href="#DejaVuSans-31"/>
       <use xlink:href="#DejaVuSans-2e" x="63.623047"/>
       <use xlink:href="#DejaVuSans-30" x="95.410156"/>
      </g>
     </g>
    </g>
    <g id="xtick_7">
     <g id="line2d_13">
      <path d="M 57.6 307.584 
L 57.6 41.472 
" clip-path="url(#pb235bcb14e)" style="fill: none; stroke-dasharray: 0.8,1.32; stroke-dashoffset: 0; stroke: #eeeeee; stroke-width: 0.8"/>
     </g>
     <g id="line2d_14">
      <defs>
       <path id="mca3387f6cc" d="M 0 0 
L 0 2 
" style="stroke: #000000; stroke-width: 0.6"/>
      </defs>
      <g>
       <use xlink:href="#mca3387f6cc" x="57.6" y="307.584" style="stroke: #000000; stroke-width: 0.6"/>
      </g>
     </g>
    </g>
    <g id="xtick_8">
     <g id="line2d_15">
      <path d="M 90.065455 307.584 
L 90.065455 41.472 
" clip-path="url(#pb235bcb14e)" style="fill: none; stroke-dasharray: 0.8,1.32; stroke-dashoffset: 0; stroke: #eeeeee; stroke-width: 0.8"/>
     </g>
     <g id="line2d_16">
      <g>
       <use xlink:href="#mca3387f6cc" x="90.065455" y="307.584" style="stroke: #000000; stroke-width: 0.6"/>
      </g>
     </g>
    </g>
    <g id="xtick_9">
     <g id="line2d_17">
      <path d="M 106.298182 307.584 
L 106.298182 41.472 
" clip-path="url(#pb235bcb14e)" style="fill: none; stroke-dasharray: 0.8,1.32; stroke-dashoffset: 0; stroke: #eeeeee; stroke-width: 0.8"/>
     </g>
     <g id="line2d_18">
      <g>
       <use xlink:href="#mca3387f6cc" x="106.298182" y="307.584" style="stroke: #000000; stroke-width: 0.6"/>
      </g>
     </g>
    </g>
    <g id="xtick_10">
     <g id="line2d_19">
      <path d="M 122.530909 307.584 
L 122.530909 41.472 
" clip-path="url(#pb235bcb14e)" style="fill: none; stroke-dasharray: 0.8,1.32; stroke-dashoffset: 0; stroke: #eeeeee; stroke-width: 0.8"/>
     </g>
     <g id="line2d_20">
      <g>
       <use xlink:href="#mca3387f6cc" x="122.530909" y="307.584" style="stroke: #000000; stroke-width: 0.6"/>
      </g>
     </g>
    </g>
    <g id="xtick_11">
     <g id="line2d_21">
      <path d="M 154.996364 307.584 
L 154.996364 41.472 
" clip-path="url(#pb235bcb14e)" style="fill: none; stroke-dasharray: 0.8,1.32; stroke-dashoffset: 0; stroke: #eeeeee; stroke-width: 0.8"/>
     </g>
     <g id="line2d_22">
      <g>
       <use xlink:href="#mca3387f6cc" x="154.996364" y="307.584" style="stroke: #000000; stroke-width: 0.6"/>
      </g>
     </g>
    </g>
    <g id="xtick_12">
     <g id="line2d_23">
      <path d="M 171.229091 307.584 
L 171.229091 41.472 
" clip-path="url(#pb235bcb14e)" style="fill: none; stroke-dasharray: 0.8,1.32; stroke-dashoffset: 0; stroke: #eeeeee; stroke-width: 0.8"/>
     </g>
     <g id="line2d_24">
      <g>
       <use xlink:href="#mca3387f6cc" x="171.229091" y="307.584" style="stroke: #000000; stroke-width: 0.6"/>
      </g>
     </g>
    </g>
    <g id="xtick_13">
     <g id="line2d_25">
      <path d="M 187.461818 307.584 
L 187.461818 41.472 
" clip-path="url(#pb235bcb14e)" style="fill: none; stroke-dasharray: 0.8,1.32; stroke-dashoffset: 0; stroke: #eeeeee; stroke-width: 0.8"/>
     </g>
     <g id="line2d_26">
      <g>
       <use xlink:href="#mca3387f6cc" x="187.461818" y="307.584" style="stroke: #000000; stroke-width: 0.6"/>
      </g>
     </g>
    </g>
    <g id="xtick_14">
     <g id="line2d_27">
      <path d="M 219.927273 307.584 
L 219.927273 41.472 
" clip-path="url(#pb235bcb14e)" style="fill: none; stroke-dasharray: 0.8,1.32; stroke-dashoffset: 0; stroke: #eeeeee; stroke-width: 0.8"/>
     </g>
     <g id="line2d_28">
      <g>
       <use xlink:href="#mca3387f6cc" x="219.927273" y="307.584" style="stroke: #000000; stroke-width: 0.6"/>
      </g>
     </g>
    </g>
    <g id="xtick_15">
     <g id="line2d_29">
      <path d="M 236.16 307.584 
L 236.16 41.472 
" clip-path="url(#pb235bcb14e)" style="fill: none; stroke-dasharray: 0.8,1.32; stroke-dashoffset: 0; stroke: #eeeeee; stroke-width: 0.8"/>
     </g>
     <g id="line2d_30">
      <g>
       <use xlink:href="#mca3387f6cc" x="236.16" y="307.584" style="stroke: #000000; stroke-width: 0.6"/>
      </g>
     </g>
    </g>
    <g id="xtick_16">
     <g id="line2d_31">
      <path d="M 252.392727 307.584 
L 252.392727 41.472 
" clip-path="url(#pb235bcb14e)" style="fill: none; stroke-dasharray: 0.8,1.32; stroke-dashoffset: 0; stroke: #eeeeee; stroke-width: 0.8"/>
     </g>
     <g id="line2d_32">
      <g>
       <use xlink:href="#mca3387f6cc" x="252.392727" y="307.584" style="stroke: #000000; stroke-width: 0.6"/>
      </g>
     </g>
    </g>
    <g id="xtick_17">
     <g id="line2d_33">
      <path d="M 284.858182 307.584 
L 284.858182 41.472 
" clip-path="url(#pb235bcb14e)" style="fill: none; stroke-dasharray: 0.8,1.32; stroke-dashoffset: 0; stroke: #eeeeee; stroke-width: 0.8"/>
     </g>
     <g id="line2d_34">
      <g>
       <use xlink:href="#mca3387f6cc" x="284.858182" y="307.584" style="stroke: #000000; stroke-width: 0.6"/>
      </g>
     </g>
    </g>
    <g id="xtick_18">
     <g id="line2d_35">
      <path d="M 301.090909 307.584 
L 301.090909 41.472 
" clip-path="url(#pb235bcb14e)" style="fill: none; stroke-dasharray: 0.8,1.32; stroke-dashoffset: 0; stroke: #eeeeee; stroke-width: 0.8"/>
     </g>
     <g id="line2d_36">
      <g>
       <use xlink:href="#mca3387f6cc" x="301.090909" y="307.584" style="stroke: #000000; stroke-width: 0.6"/>
      </g>
     </g>
    </g>
    <g id="xtick_19">
     <g id="line2d_37">
      <path d="M 317.323636 307.584 
L 317.323636 41.472 
" clip-path="url(#pb235bcb14e)" style="fill: none; stroke-dasharray: 0.8,1.32; stroke-dashoffset: 0; stroke: #eeeeee; stroke-width: 0.8"/>
     </g>
     <g id="line2d_38">
      <g>
       <use xlink:href="#mca3387f6cc" x="317.323636" y="307.584" style="stroke: #000000; stroke-width: 0.6"/>
      </g>
     </g>
    </g>
    <g id="xtick_20">
     <g id="line2d_39">
      <path d="M 349.789091 307.584 
L 349.789091 41.472 
" clip-path="url(#pb235bcb14e)" style="fill: none; stroke-dasharray: 0.8,1.32; stroke-dashoffset: 0; stroke: #eeeeee; stroke-width: 0.8"/>
     </g>
     <g id="line2d_40">
      <g>
       <use xlink:href="#mca3387f6cc" x="349.789091" y="307.584" style="stroke: #000000; stroke-width: 0.6"/>
      </g>
     </g>
    </g>
    <g id="xtick_21">
     <g id="line2d_41">
      <path d="M 366.021818 307.584 
L 366.021818 41.472 
" clip-path="url(#pb235bcb14e)" style="fill: none; stroke-dasharray: 0.8,1.32; stroke-dashoffset: 0; stroke: #eeeeee; stroke-width: 0.8"/>
     </g>
     <g id="line2d_42">
      <g>
       <use xlink:href="#mca3387f6cc" x="366.021818" y="307.584" style="stroke: #000000; stroke-width: 0.6"/>
      </g>
     </g>
    </g>
    <g id="xtick_22">
     <g id="line2d_43">
      <path d="M 382.254545 307.584 
L 382.254545 41.472 
" clip-path="url(#pb235bcb14e)" style="fill: none; stroke-dasharray: 0.8,1.32; stroke-dashoffset: 0; stroke: #eeeeee; stroke-width: 0.8"/>
     </g>
     <g id="line2d_44">
      <g>
       <use xlink:href="#mca3387f6cc" x="382.254545" y="307.584" style="stroke: #000000; stroke-width: 0.6"/>
      </g>
     </g>
    </g>
    <g id="xtick_23">
     <g id="line2d_45">
      <path d="M 414.72 307.584 
L 414.72 41.472 
" clip-path="url(#pb235bcb14e)" style="fill: none; stroke-dasharray: 0.8,1.32; stroke-dashoffset: 0; stroke: #eeeeee; stroke-width: 0.8"/>
     </g>
     <g id="line2d_46">
      <g>
       <use xlink:href="#mca3387f6cc" x="414.72" y="307.584" style="stroke: #000000; stroke-width: 0.6"/>
      </g>
     </g>
    </g>
    <g id="text_7">
     <!-- Cylinder position (m) -->
     <g transform="translate(183.701406 335.860562) scale(0.1 -0.1)">
      <defs>
       <path id="DejaVuSans-43" d="M 4122 4306 
L 4122 3641 
Q 3803 3938 3442 4084 
Q 3081 4231 2675 4231 
Q 1875 4231 1450 3742 
Q 1025 3253 1025 2328 
Q 1025 1406 1450 917 
Q 1875 428 2675 428 
Q 3081 428 3442 575 
Q 3803 722 4122 1019 
L 4122 359 
Q 3791 134 3420 21 
Q 3050 -91 2638 -91 
Q 1578 -91 968 557 
Q 359 1206 359 2328 
Q 359 3453 968 4101 
Q 1578 4750 2638 4750 
Q 3056 4750 3426 4639 
Q 3797 4528 4122 4306 
z
" transform="scale(0.015625)"/>
       <path id="DejaVuSans-79" d="M 2059 -325 
Q 1816 -950 1584 -1140 
Q 1353 -1331 966 -1331 
L 506 -1331 
L 506 -850 
L 844 -850 
Q 1081 -850 1212 -737 
Q 1344 -625 1503 -206 
L 1606 56 
L 191 3500 
L 800 3500 
L 1894 763 
L 2988 3500 
L 3597 3500 
L 2059 -325 
z
" transform="scale(0.015625)"/>
       <path id="DejaVuSans-6c" d="M 603 4863 
L 1178 4863 
L 1178 0 
L 603 0 
L 603 4863 
z
" transform="scale(0.015625)"/>
       <path id="DejaVuSans-69" d="M 603 3500 
L 1178 3500 
L 1178 0 
L 603 0 
L 603 3500 
z
M 603 4863 
L 1178 4863 
L 1178 4134 
L 603 4134 
L 603 4863 
z
" transform="scale(0.015625)"/>
       <path id="DejaVuSans-6e" d="M 3513 2113 
L 3513 0 
L 2938 0 
L 2938 2094 
Q 2938 2591 2744 2837 
Q 2550 3084 2163 3084 
Q 1697 3084 1428 2787 
Q 1159 2491 1159 1978 
L 1159 0 
L 581 0 
L 581 3500 
L 1159 3500 
L 1159 2956 
Q 1366 3272 1645 3428 
Q 1925 3584 2291 3584 
Q 2894 3584 3203 3211 
Q 3513 2838 3513 2113 
z
" transform="scale(0.015625)"/>
       <path id="DejaVuSans-64" d="M 2906 2969 
L 2906 4863 
L 3481 4863 
L 3481 0 
L 2906 0 
L 2906 525 
Q 2725 213 2448 61 
Q 2172 -91 1784 -91 
Q 1150 -91 751 415 
Q 353 922 353 1747 
Q 353 2572 751 3078 
Q 1150 3584 1784 3584 
Q 2172 3584 2448 3432 
Q 2725 3281 2906 2969 
z
M 947 1747 
Q 947 1113 1208 752 
Q 1469 391 1925 391 
Q 2381 391 2643 752 
Q 2906 1113 2906 1747 
Q 2906 2381 2643 2742 
Q 2381 3103 1925 3103 
Q 1469 3103 1208 2742 
Q 947 2381 947 1747 
z
" transform="scale(0.015625)"/>
       <path id="DejaVuSans-65" d="M 3597 1894 
L 3597 1613 
L 953 1613 
Q 991 1019 1311 708 
Q 1631 397 2203 397 
Q 2534 397 2845 478 
Q 3156 559 3463 722 
L 3463 178 
Q 3153 47 2828 -22 
Q 2503 -91 2169 -91 
Q 1331 -91 842 396 
Q 353 884 353 1716 
Q 353 2575 817 3079 
Q 1281 3584 2069 3584 
Q 2775 3584 3186 3129 
Q 3597 2675 3597 1894 
z
M 3022 2063 
Q 3016 2534 2758 2815 
Q 2500 3097 2075 3097 
Q 1594 3097 1305 2825 
Q 1016 2553 972 2059 
L 3022 2063 
z
" transform="scale(0.015625)"/>
       <path id="DejaVuSans-72" d="M 2631 2963 
Q 2534 3019 2420 3045 
Q 2306 3072 2169 3072 
Q 1681 3072 1420 2755 
Q 1159 2438 1159 1844 
L 1159 0 
L 581 0 
L 581 3500 
L 1159 3500 
L 1159 2956 
Q 1341 3275 1631 3429 
Q 1922 3584 2338 3584 
Q 2397 3584 2469 3576 
Q 2541 3569 2628 3553 
L 2631 2963 
z
" transform="scale(0.015625)"/>
       <path id="DejaVuSans-20" transform="scale(0.015625)"/>
       <path id="DejaVuSans-70" d="M 1159 525 
L 1159 -1331 
L 581 -1331 
L 581 3500 
L 1159 3500 
L 1159 2969 
Q 1341 3281 1617 3432 
Q 1894 3584 2278 3584 
Q 2916 3584 3314 3078 
Q 3713 2572 3713 1747 
Q 3713 922 3314 415 
Q 2916 -91 2278 -91 
Q 1894 -91 1617 61 
Q 1341 213 1159 525 
z
M 3116 1747 
Q 3116 2381 2855 2742 
Q 2594 3103 2138 3103 
Q 1681 3103 1420 2742 
Q 1159 2381 1159 1747 
Q 1159 1113 1420 752 
Q 1681 391 2138 391 
Q 2594 391 2855 752 
Q 3116 1113 3116 1747 
z
" transform="scale(0.015625)"/>
       <path id="DejaVuSans-6f" d="M 1959 3097 
Q 1497 3097 1228 2736 
Q 959 2375 959 1747 
Q 959 1119 1226 758 
Q 1494 397 1959 397 
Q 2419 397 2687 759 
Q 2956 1122 2956 1747 
Q 2956 2369 2687 2733 
Q 2419 3097 1959 3097 
z
M 1959 3584 
Q 2709 3584 3137 3096 
Q 3566 2609 3566 1747 
Q 3566 888 3137 398 
Q 2709 -91 1959 -91 
Q 1206 -91 779 398 
Q 353 888 353 1747 
Q 353 2609 779 3096 
Q 1206 3584 1959 3584 
z
" transform="scale(0.015625)"/>
       <path id="DejaVuSans-73" d="M 2834 3397 
L 2834 2853 
Q 2591 2978 2328 3040 
Q 2066 3103 1784 3103 
Q 1356 3103 1142 2972 
Q 928 2841 928 2578 
Q 928 2378 1081 2264 
Q 1234 2150 1697 2047 
L 1894 2003 
Q 2506 1872 2764 1633 
Q 3022 1394 3022 966 
Q 3022 478 2636 193 
Q 2250 -91 1575 -91 
Q 1294 -91 989 -36 
Q 684 19 347 128 
L 347 722 
Q 666 556 975 473 
Q 1284 391 1588 391 
Q 1994 391 2212 530 
Q 2431 669 2431 922 
Q 2431 1156 2273 1281 
Q 2116 1406 1581 1522 
L 1381 1569 
Q 847 1681 609 1914 
Q 372 2147 372 2553 
Q 372 3047 722 3315 
Q 1072 3584 1716 3584 
Q 2034 3584 2315 3537 
Q 2597 3491 2834 3397 
z
" transform="scale(0.015625)"/>
       <path id="DejaVuSans-74" d="M 1172 4494 
L 1172 3500 
L 2356 3500 
L 2356 3053 
L 1172 3053 
L 1172 1153 
Q 1172 725 1289 603 
Q 1406 481 1766 481 
L 2356 481 
L 2356 0 
L 1766 0 
Q 1100 0 847 248 
Q 594 497 594 1153 
L 594 3053 
L 172 3053 
L 172 3500 
L 594 3500 
L 594 4494 
L 1172 4494 
z
" transform="scale(0.015625)"/>
       <path id="DejaVuSans-28" d="M 1984 4856 
Q 1566 4138 1362 3434 
Q 1159 2731 1159 2009 
Q 1159 1288 1364 580 
Q 1569 -128 1984 -844 
L 1484 -844 
Q 1016 -109 783 600 
Q 550 1309 550 2009 
Q 550 2706 781 3412 
Q 1013 4119 1484 4856 
L 1984 4856 
z
" transform="scale(0.015625)"/>
       <path id="DejaVuSans-6d" d="M 3328 2828 
Q 3544 3216 3844 3400 
Q 4144 3584 4550 3584 
Q 5097 3584 5394 3201 
Q 5691 2819 5691 2113 
L 5691 0 
L 5113 0 
L 5113 2094 
Q 5113 2597 4934 2840 
Q 4756 3084 4391 3084 
Q 3944 3084 3684 2787 
Q 3425 2491 3425 1978 
L 3425 0 
L 2847 0 
L 2847 2094 
Q 2847 2600 2669 2842 
Q 2491 3084 2119 3084 
Q 1678 3084 1418 2786 
Q 1159 2488 1159 1978 
L 1159 0 
L 581 0 
L 581 3500 
L 1159 3500 
L 1159 2956 
Q 1356 3278 1631 3431 
Q 1906 3584 2284 3584 
Q 2666 3584 2933 3390 
Q 3200 3197 3328 2828 
z
" transform="scale(0.015625)"/>
       <path id="DejaVuSans-29" d="M 513 4856 
L 1013 4856 
Q 1481 4119 1714 3412 
Q 1947 2706 1947 2009 
Q 1947 1309 1714 600 
Q 1481 -109 1013 -844 
L 513 -844 
Q 928 -128 1133 580 
Q 1338 1288 1338 2009 
Q 1338 2731 1133 3434 
Q 928 4138 513 4856 
z
" transform="scale(0.015625)"/>
      </defs>
      <use xlink:href="#DejaVuSans-43"/>
      <use xlink:href="#DejaVuSans-79" x="69.824219"/>
      <use xlink:href="#DejaVuSans-6c" x="129.003906"/>
      <use xlink:href="#DejaVuSans-69" x="156.787109"/>
      <use xlink:href="#DejaVuSans-6e" x="184.570312"/>
      <use xlink:href="#DejaVuSans-64" x="247.949219"/>
      <use xlink:href="#DejaVuSans-65" x="311.425781"/>
      <use xlink:href="#DejaVuSans-72" x="372.949219"/>
      <use xlink:href="#DejaVuSans-20" x="414.0625"/>
      <use xlink:href="#DejaVuSans-70" x="445.849609"/>
      <use xlink:href="#DejaVuSans-6f" x="509.326172"/>
      <use xlink:href="#DejaVuSans-73" x="570.507812"/>
      <use xlink:href="#DejaVuSans-69" x="622.607422"/>
      <use xlink:href="#DejaVuSans-74" x="650.390625"/>
      <use xlink:href="#DejaVuSans-69" x="689.599609"/>
      <use xlink:href="#DejaVuSans-6f" x="717.382812"/>
      <use xlink:href="#DejaVuSans-6e" x="778.564453"/>
      <use xlink:href="#DejaVuSans-20" x="841.943359"/>
      <use xlink:href="#DejaVuSans-28" x="873.730469"/>
      <use xlink:href="#DejaVuSans-6d" x="912.744141"/>
      <use xlink:href="#DejaVuSans-29" x="1010.15625"/>
     </g>
    </g>
   </g>
   <g id="matplotlib.axis_2">
    <g id="ytick_1">
     <g id="line2d_47">
      <path d="M 57.6 257.290105 
L 414.72 257.290105 
" clip-path="url(#pb235bcb14e)" style="fill: none; stroke: #dddddd; stroke-linecap: square"/>
     </g>
     <g id="line2d_48">
      <defs>
       <path id="md0bf01dc28" d="M 0 0 
L -3.5 0 
" style="stroke: #000000; stroke-width: 0.8"/>
      </defs>
      <g>
       <use xlink:href="#md0bf01dc28" x="57.6" y="257.290105" style="stroke: #000000; stroke-width: 0.8"/>
      </g>
     </g>
     <g id="text_8">
      <!-- 100 -->
      <g transform="translate(31.5125 261.089324) scale(0.1 -0.1)">
       <use xlink:href="#DejaVuSans-31"/>
       <use xlink:href="#DejaVuSans-30" x="63.623047"/>
       <use xlink:href="#DejaVuSans-30" x="127.246094"/>
      </g>
     </g>
    </g>
    <g id="ytick_2">
     <g id="line2d_49">
      <path d="M 57.6 206.359579 
L 414.72 206.359579 
" clip-path="url(#pb235bcb14e)" style="fill: none; stroke: #dddddd; stroke-linecap: square"/>
     </g>
     <g id="line2d_50">
      <g>
       <use xlink:href="#md0bf01dc28" x="57.6" y="206.359579" style="stroke: #000000; stroke-width: 0.8"/>
      </g>
     </g>
     <g id="text_9">
      <!-- 200 -->
      <g transform="translate(31.5125 210.158798) scale(0.1 -0.1)">
       <use xlink:href="#DejaVuSans-32"/>
       <use xlink:href="#DejaVuSans-30" x="63.623047"/>
       <use xlink:href="#DejaVuSans-30" x="127.246094"/>
      </g>
     </g>
    </g>
    <g id="ytick_3">
     <g id="line2d_51">
      <path d="M 57.6 155.429053 
L 414.72 155.429053 
" clip-path="url(#pb235bcb14e)" style="fill: none; stroke: #dddddd; stroke-linecap: square"/>
     </g>
     <g id="line2d_52">
      <g>
       <use xlink:href="#md0bf01dc28" x="57.6" y="155.429053" style="stroke: #000000; stroke-width: 0.8"/>
      </g>
     </g>
     <g id="text_10">
      <!-- 300 -->
      <g transform="translate(31.5125 159.228271) scale(0.1 -0.1)">
       <defs>
        <path id="DejaVuSans-33" d="M 2597 2516 
Q 3050 2419 3304 2112 
Q 3559 1806 3559 1356 
Q 3559 666 3084 287 
Q 2609 -91 1734 -91 
Q 1441 -91 1130 -33 
Q 819 25 488 141 
L 488 750 
Q 750 597 1062 519 
Q 1375 441 1716 441 
Q 2309 441 2620 675 
Q 2931 909 2931 1356 
Q 2931 1769 2642 2001 
Q 2353 2234 1838 2234 
L 1294 2234 
L 1294 2753 
L 1863 2753 
Q 2328 2753 2575 2939 
Q 2822 3125 2822 3475 
Q 2822 3834 2567 4026 
Q 2313 4219 1838 4219 
Q 1578 4219 1281 4162 
Q 984 4106 628 3988 
L 628 4550 
Q 988 4650 1302 4700 
Q 1616 4750 1894 4750 
Q 2613 4750 3031 4423 
Q 3450 4097 3450 3541 
Q 3450 3153 3228 2886 
Q 3006 2619 2597 2516 
z
" transform="scale(0.015625)"/>
       </defs>
       <use xlink:href="#DejaVuSans-33"/>
       <use xlink:href="#DejaVuSans-30" x="63.623047"/>
       <use xlink:href="#DejaVuSans-30" x="127.246094"/>
      </g>
     </g>
    </g>
    <g id="ytick_4">
     <g id="line2d_53">
      <path d="M 57.6 104.498526 
L 414.72 104.498526 
" clip-path="url(#pb235bcb14e)" style="fill: none; stroke: #dddddd; stroke-linecap: square"/>
     </g>
     <g id="line2d_54">
      <g>
       <use xlink:href="#md0bf01dc28" x="57.6" y="104.498526" style="stroke: #000000; stroke-width: 0.8"/>
      </g>
     </g>
     <g id="text_11">
      <!-- 400 -->
      <g transform="translate(31.5125 108.297745) scale(0.1 -0.1)">
       <use xlink:href="#DejaVuSans-34"/>
       <use xlink:href="#DejaVuSans-30" x="63.623047"/>
       <use xlink:href="#DejaVuSans-30" x="127.246094"/>
      </g>
     </g>
    </g>
    <g id="ytick_5">
     <g id="line2d_55">
      <path d="M 57.6 53.568 
L 414.72 53.568 
" clip-path="url(#pb235bcb14e)" style="fill: none; stroke: #dddddd; stroke-linecap: square"/>
     </g>
     <g id="line2d_56">
      <g>
       <use xlink:href="#md0bf01dc28" x="57.6" y="53.568" style="stroke: #000000; stroke-width: 0.8"/>
      </g>
     </g>
     <g id="text_12">
      <!-- 500 -->
      <g transform="translate(31.5125 57.367219) scale(0.1 -0.1)">
       <defs>
        <path id="DejaVuSans-35" d="M 691 4666 
L 3169 4666 
L 3169 4134 
L 1269 4134 
L 1269 2991 
Q 1406 3038 1543 3061 
Q 1681 3084 1819 3084 
Q 2600 3084 3056 2656 
Q 3513 2228 3513 1497 
Q 3513 744 3044 326 
Q 2575 -91 1722 -91 
Q 1428 -91 1123 -41 
Q 819 9 494 109 
L 494 744 
Q 775 591 1075 516 
Q 1375 441 1709 441 
Q 2250 441 2565 725 
Q 2881 1009 2881 1497 
Q 2881 1984 2565 2268 
Q 2250 2553 1709 2553 
Q 1456 2553 1204 2497 
Q 953 2441 691 2322 
L 691 4666 
z
" transform="scale(0.015625)"/>
       </defs>
       <use xlink:href="#DejaVuSans-35"/>
       <use xlink:href="#DejaVuSans-30" x="63.623047"/>
       <use xlink:href="#DejaVuSans-30" x="127.246094"/>
      </g>
     </g>
    </g>
    <g id="ytick_6">
     <g id="line2d_57">
      <path d="M 57.6 298.034526 
L 414.72 298.034526 
" clip-path="url(#pb235bcb14e)" style="fill: none; stroke-dasharray: 0.8,1.32; stroke-dashoffset: 0; stroke: #eeeeee; stroke-width: 0.8"/>
     </g>
     <g id="line2d_58">
      <defs>
       <path id="mf6b867d08c" d="M 0 0 
L -2 0 
" style="stroke: #000000; stroke-width: 0.6"/>
      </defs>
      <g>
       <use xlink:href="#mf6b867d08c" x="57.6" y="298.034526" style="stroke: #000000; stroke-width: 0.6"/>
      </g>
     </g>
    </g>
    <g id="ytick_7">
     <g id="line2d_59">
      <path d="M 57.6 287.848421 
L 414.72 287.848421 
" clip-path="url(#pb235bcb14e)" style="fill: none; stroke-dasharray: 0.8,1.32; stroke-dashoffset: 0; stroke: #eeeeee; stroke-width: 0.8"/>
     </g>
     <g id="line2d_60">
      <g>
       <use xlink:href="#mf6b867d08c" x="57.6" y="287.848421" style="stroke: #000000; stroke-width: 0.6"/>
      </g>
     </g>
    </g>
    <g id="ytick_8">
     <g id="line2d_61">
      <path d="M 57.6 277.662316 
L 414.72 277.662316 
" clip-path="url(#pb235bcb14e)" style="fill: none; stroke-dasharray: 0.8,1.32; stroke-dashoffset: 0; stroke: #eeeeee; stroke-width: 0.8"/>
     </g>
     <g id="line2d_62">
      <g>
       <use xlink:href="#mf6b867d08c" x="57.6" y="277.662316" style="stroke: #000000; stroke-width: 0.6"/>
      </g>
     </g>
    </g>
    <g id="ytick_9">
     <g id="line2d_63">
      <path d="M 57.6 267.476211 
L 414.72 267.476211 
" clip-path="url(#pb235bcb14e)" style="fill: none; stroke-dasharray: 0.8,1.32; stroke-dashoffset: 0; stroke: #eeeeee; stroke-width: 0.8"/>
     </g>
     <g id="line2d_64">
      <g>
       <use xlink:href="#mf6b867d08c" x="57.6" y="267.476211" style="stroke: #000000; stroke-width: 0.6"/>
      </g>
     </g>
    </g>
    <g id="ytick_10">
     <g id="line2d_65">
      <path d="M 57.6 247.104 
L 414.72 247.104 
" clip-path="url(#pb235bcb14e)" style="fill: none; stroke-dasharray: 0.8,1.32; stroke-dashoffset: 0; stroke: #eeeeee; stroke-width: 0.8"/>
     </g>
     <g id="line2d_66">
      <g>
       <use xlink:href="#mf6b867d08c" x="57.6" y="247.104" style="stroke: #000000; stroke-width: 0.6"/>
      </g>
     </g>
    </g>
    <g id="ytick_11">
     <g id="line2d_67">
      <path d="M 57.6 236.917895 
L 414.72 236.917895 
" clip-path="url(#pb235bcb14e)" style="fill: none; stroke-dasharray: 0.8,1.32; stroke-dashoffset: 0; stroke: #eeeeee; stroke-width: 0.8"/>
     </g>
     <g id="line2d_68">
      <g>
       <use xlink:href="#mf6b867d08c" x="57.6" y="236.917895" style="stroke: #000000; stroke-width: 0.6"/>
      </g>
     </g>
    </g>
    <g id="ytick_12">
     <g id="line2d_69">
      <path d="M 57.6 226.731789 
L 414.72 226.731789 
" clip-path="url(#pb235bcb14e)" style="fill: none; stroke-dasharray: 0.8,1.32; stroke-dashoffset: 0; stroke: #eeeeee; stroke-width: 0.8"/>
     </g>
     <g id="line2d_70">
      <g>
       <use xlink:href="#mf6b867d08c" x="57.6" y="226.731789" style="stroke: #000000; stroke-width: 0.6"/>
      </g>
     </g>
    </g>
    <g id="ytick_13">
     <g id="line2d_71">
      <path d="M 57.6 216.545684 
L 414.72 216.545684 
" clip-path="url(#pb235bcb14e)" style="fill: none; stroke-dasharray: 0.8,1.32; stroke-dashoffset: 0; stroke: #eeeeee; stroke-width: 0.8"/>
     </g>
     <g id="line2d_72">
      <g>
       <use xlink:href="#mf6b867d08c" x="57.6" y="216.545684" style="stroke: #000000; stroke-width: 0.6"/>
      </g>
     </g>
    </g>
    <g id="ytick_14">
     <g id="line2d_73">
      <path d="M 57.6 196.173474 
L 414.72 196.173474 
" clip-path="url(#pb235bcb14e)" style="fill: none; stroke-dasharray: 0.8,1.32; stroke-dashoffset: 0; stroke: #eeeeee; stroke-width: 0.8"/>
     </g>
     <g id="line2d_74">
      <g>
       <use xlink:href="#mf6b867d08c" x="57.6" y="196.173474" style="stroke: #000000; stroke-width: 0.6"/>
      </g>
     </g>
    </g>
    <g id="ytick_15">
     <g id="line2d_75">
      <path d="M 57.6 185.987368 
L 414.72 185.987368 
" clip-path="url(#pb235bcb14e)" style="fill: none; stroke-dasharray: 0.8,1.32; stroke-dashoffset: 0; stroke: #eeeeee; stroke-width: 0.8"/>
     </g>
     <g id="line2d_76">
      <g>
       <use xlink:href="#mf6b867d08c" x="57.6" y="185.987368" style="stroke: #000000; stroke-width: 0.6"/>
      </g>
     </g>
    </g>
    <g id="ytick_16">
     <g id="line2d_77">
      <path d="M 57.6 175.801263 
L 414.72 175.801263 
" clip-path="url(#pb235bcb14e)" style="fill: none; stroke-dasharray: 0.8,1.32; stroke-dashoffset: 0; stroke: #eeeeee; stroke-width: 0.8"/>
     </g>
     <g id="line2d_78">
      <g>
       <use xlink:href="#mf6b867d08c" x="57.6" y="175.801263" style="stroke: #000000; stroke-width: 0.6"/>
      </g>
     </g>
    </g>
    <g id="ytick_17">
     <g id="line2d_79">
      <path d="M 57.6 165.615158 
L 414.72 165.615158 
" clip-path="url(#pb235bcb14e)" style="fill: none; stroke-dasharray: 0.8,1.32; stroke-dashoffset: 0; stroke: #eeeeee; stroke-width: 0.8"/>
     </g>
     <g id="line2d_80">
      <g>
       <use xlink:href="#mf6b867d08c" x="57.6" y="165.615158" style="stroke: #000000; stroke-width: 0.6"/>
      </g>
     </g>
    </g>
    <g id="ytick_18">
     <g id="line2d_81">
      <path d="M 57.6 145.242947 
L 414.72 145.242947 
" clip-path="url(#pb235bcb14e)" style="fill: none; stroke-dasharray: 0.8,1.32; stroke-dashoffset: 0; stroke: #eeeeee; stroke-width: 0.8"/>
     </g>
     <g id="line2d_82">
      <g>
       <use xlink:href="#mf6b867d08c" x="57.6" y="145.242947" style="stroke: #000000; stroke-width: 0.6"/>
      </g>
     </g>
    </g>
    <g id="ytick_19">
     <g id="line2d_83">
      <path d="M 57.6 135.056842 
L 414.72 135.056842 
" clip-path="url(#pb235bcb14e)" style="fill: none; stroke-dasharray: 0.8,1.32; stroke-dashoffset: 0; stroke: #eeeeee; stroke-width: 0.8"/>
     </g>
     <g id="line2d_84">
      <g>
       <use xlink:href="#mf6b867d08c" x="57.6" y="135.056842" style="stroke: #000000; stroke-width: 0.6"/>
      </g>
     </g>
    </g>
    <g id="ytick_20">
     <g id="line2d_85">
      <path d="M 57.6 124.870737 
L 414.72 124.870737 
" clip-path="url(#pb235bcb14e)" style="fill: none; stroke-dasharray: 0.8,1.32; stroke-dashoffset: 0; stroke: #eeeeee; stroke-width: 0.8"/>
     </g>
     <g id="line2d_86">
      <g>
       <use xlink:href="#mf6b867d08c" x="57.6" y="124.870737" style="stroke: #000000; stroke-width: 0.6"/>
      </g>
     </g>
    </g>
    <g id="ytick_21">
     <g id="line2d_87">
      <path d="M 57.6 114.684632 
L 414.72 114.684632 
" clip-path="url(#pb235bcb14e)" style="fill: none; stroke-dasharray: 0.8,1.32; stroke-dashoffset: 0; stroke: #eeeeee; stroke-width: 0.8"/>
     </g>
     <g id="line2d_88">
      <g>
       <use xlink:href="#mf6b867d08c" x="57.6" y="114.684632" style="stroke: #000000; stroke-width: 0.6"/>
      </g>
     </g>
    </g>
    <g id="ytick_22">
     <g id="line2d_89">
      <path d="M 57.6 94.312421 
L 414.72 94.312421 
" clip-path="url(#pb235bcb14e)" style="fill: none; stroke-dasharray: 0.8,1.32; stroke-dashoffset: 0; stroke: #eeeeee; stroke-width: 0.8"/>
     </g>
     <g id="line2d_90">
      <g>
       <use xlink:href="#mf6b867d08c" x="57.6" y="94.312421" style="stroke: #000000; stroke-width: 0.6"/>
      </g>
     </g>
    </g>
    <g id="ytick_23">
     <g id="line2d_91">
      <path d="M 57.6 84.126316 
L 414.72 84.126316 
" clip-path="url(#pb235bcb14e)" style="fill: none; stroke-dasharray: 0.8,1.32; stroke-dashoffset: 0; stroke: #eeeeee; stroke-width: 0.8"/>
     </g>
     <g id="line2d_92">
      <g>
       <use xlink:href="#mf6b867d08c" x="57.6" y="84.126316" style="stroke: #000000; stroke-width: 0.6"/>
      </g>
     </g>
    </g>
    <g id="ytick_24">
     <g id="line2d_93">
      <path d="M 57.6 73.940211 
L 414.72 73.940211 
" clip-path="url(#pb235bcb14e)" style="fill: none; stroke-dasharray: 0.8,1.32; stroke-dashoffset: 0; stroke: #eeeeee; stroke-width: 0.8"/>
     </g>
     <g id="line2d_94">
      <g>
       <use xlink:href="#mf6b867d08c" x="57.6" y="73.940211" style="stroke: #000000; stroke-width: 0.6"/>
      </g>
     </g>
    </g>
    <g id="ytick_25">
     <g id="line2d_95">
      <path d="M 57.6 63.754105 
L 414.72 63.754105 
" clip-path="url(#pb235bcb14e)" style="fill: none; stroke-dasharray: 0.8,1.32; stroke-dashoffset: 0; stroke: #eeeeee; stroke-width: 0.8"/>
     </g>
     <g id="line2d_96">
      <g>
       <use xlink:href="#mf6b867d08c" x="57.6" y="63.754105" style="stroke: #000000; stroke-width: 0.6"/>
      </g>
     </g>
    </g>
    <g id="ytick_26">
     <g id="line2d_97">
      <path d="M 57.6 43.381895 
L 414.72 43.381895 
" clip-path="url(#pb235bcb14e)" style="fill: none; stroke-dasharray: 0.8,1.32; stroke-dashoffset: 0; stroke: #eeeeee; stroke-width: 0.8"/>
     </g>
     <g id="line2d_98">
      <g>
       <use xlink:href="#mf6b867d08c" x="57.6" y="43.381895" style="stroke: #000000; stroke-width: 0.6"/>
      </g>
     </g>
    </g>
    <g id="text_13">
     <!-- Temperature (℃) -->
     <g transform="translate(25.432812 217.303781) rotate(-90) scale(0.1 -0.1)">
      <defs>
       <path id="DejaVuSans-54" d="M -19 4666 
L 3928 4666 
L 3928 4134 
L 2272 4134 
L 2272 0 
L 1638 0 
L 1638 4134 
L -19 4134 
L -19 4666 
z
" transform="scale(0.015625)"/>
       <path id="DejaVuSans-61" d="M 2194 1759 
Q 1497 1759 1228 1600 
Q 959 1441 959 1056 
Q 959 750 1161 570 
Q 1363 391 1709 391 
Q 2188 391 2477 730 
Q 2766 1069 2766 1631 
L 2766 1759 
L 2194 1759 
z
M 3341 1997 
L 3341 0 
L 2766 0 
L 2766 531 
Q 2569 213 2275 61 
Q 1981 -91 1556 -91 
Q 1019 -91 701 211 
Q 384 513 384 1019 
Q 384 1609 779 1909 
Q 1175 2209 1959 2209 
L 2766 2209 
L 2766 2266 
Q 2766 2663 2505 2880 
Q 2244 3097 1772 3097 
Q 1472 3097 1187 3025 
Q 903 2953 641 2809 
L 641 3341 
Q 956 3463 1253 3523 
Q 1550 3584 1831 3584 
Q 2591 3584 2966 3190 
Q 3341 2797 3341 1997 
z
" transform="scale(0.015625)"/>
       <path id="DejaVuSans-75" d="M 544 1381 
L 544 3500 
L 1119 3500 
L 1119 1403 
Q 1119 906 1312 657 
Q 1506 409 1894 409 
Q 2359 409 2629 706 
Q 2900 1003 2900 1516 
L 2900 3500 
L 3475 3500 
L 3475 0 
L 2900 0 
L 2900 538 
Q 2691 219 2414 64 
Q 2138 -91 1772 -91 
Q 1169 -91 856 284 
Q 544 659 544 1381 
z
M 1991 3584 
L 1991 3584 
z
" transform="scale(0.015625)"/>
       <path id="DejaVuSans-2103" d="M 1600 4347 
Q 1350 4347 1178 4173 
Q 1006 4000 1006 3750 
Q 1006 3503 1178 3333 
Q 1350 3163 1600 3163 
Q 1850 3163 2022 3333 
Q 2194 3503 2194 3750 
Q 2194 3997 2020 4172 
Q 1847 4347 1600 4347 
z
M 1600 4750 
Q 1800 4750 1984 4673 
Q 2169 4597 2303 4453 
Q 2447 4313 2519 4134 
Q 2591 3956 2591 3750 
Q 2591 3338 2302 3052 
Q 2013 2766 1594 2766 
Q 1172 2766 890 3047 
Q 609 3328 609 3750 
Q 609 4169 896 4459 
Q 1184 4750 1600 4750 
z
M 6738 4306 
L 6738 3641 
Q 6419 3938 6058 4084 
Q 5697 4231 5291 4231 
Q 4491 4231 4066 3742 
Q 3641 3253 3641 2328 
Q 3641 1406 4066 917 
Q 4491 428 5291 428 
Q 5697 428 6058 575 
Q 6419 722 6738 1019 
L 6738 359 
Q 6407 134 6036 21 
Q 5666 -91 5254 -91 
Q 4194 -91 3584 557 
Q 2975 1206 2975 2328 
Q 2975 3453 3584 4101 
Q 4194 4750 5254 4750 
Q 5672 4750 6042 4639 
Q 6413 4528 6738 4306 
z
" transform="scale(0.015625)"/>
      </defs>
      <use xlink:href="#DejaVuSans-54"/>
      <use xlink:href="#DejaVuSans-65" x="44.083984"/>
      <use xlink:href="#DejaVuSans-6d" x="105.607422"/>
      <use xlink:href="#DejaVuSans-70" x="203.019531"/>
      <use xlink:href="#DejaVuSans-65" x="266.496094"/>
      <use xlink:href="#DejaVuSans-72" x="328.019531"/>
      <use xlink:href="#DejaVuSans-61" x="369.132812"/>
      <use xlink:href="#DejaVuSans-74" x="430.412109"/>
      <use xlink:href="#DejaVuSans-75" x="469.621094"/>
      <use xlink:href="#DejaVuSans-72" x="533"/>
      <use xlink:href="#DejaVuSans-65" x="571.863281"/>
      <use xlink:href="#DejaVuSans-20" x="633.386719"/>
      <use xlink:href="#DejaVuSans-28" x="665.173828"/>
      <use xlink:href="#DejaVuSans-2103" x="704.1875"/>
      <use xlink:href="#DejaVuSans-29" x="816.492188"/>
     </g>
    </g>
   </g>
   <g id="line2d_99">
    <path d="M 73.832727 295.488 
L 80.45833 295.488 
L 87.083933 295.488 
L 93.709536 295.488 
L 100.335139 295.488 
L 106.960742 295.488 
L 113.586345 295.488 
L 120.211948 295.488 
L 126.837551 295.488 
L 133.463154 295.488 
L 140.088757 295.488 
L 146.71436 295.488 
L 153.339963 295.488 
L 159.965566 295.488 
L 166.591169 295.488 
L 173.216772 295.488 
L 179.842375 295.488 
L 186.467978 295.488 
L 193.093581 295.488 
L 199.719184 295.488 
L 206.344787 295.488 
L 212.97039 295.488 
L 219.595993 295.488 
L 226.221596 295.488 
L 232.847199 295.488 
L 239.472801 295.488 
L 246.098404 295.488 
L 252.724007 295.488 
L 259.34961 295.488 
L 265.975213 295.488 
L 272.600816 295.488 
L 279.226419 295.488 
L 285.852022 295.488 
L 292.477625 295.488 
L 299.103228 295.488 
L 305.728831 295.488 
L 312.354434 295.488 
L 318.980037 295.488 
L 325.60564 295.488 
L 332.231243 295.488 
L 338.856846 295.488 
L 345.482449 295.488 
L 352.108052 295.488 
L 358.733655 295.488 
L 365.359258 295.488 
L 371.984861 295.488 
L 378.610464 295.488 
L 385.236067 295.488 
L 391.86167 295.488 
L 398.487273 295.488 
" clip-path="url(#pb235bcb14e)" style="fill: none; stroke: #1f77b4; stroke-width: 1.5; stroke-linecap: square"/>
   </g>
   <g id="line2d_100">
    <path d="M 73.832727 53.568 
L 80.45833 75.404441 
L 87.083933 98.127439 
L 93.709536 120.74498 
L 100.335139 142.517136 
L 106.960742 162.927535 
L 113.586345 181.651162 
L 120.211948 198.519672 
L 126.837551 213.486508 
L 133.463154 226.594266 
L 140.088757 237.946199 
L 146.71436 247.682825 
L 153.339963 255.963827 
L 159.965566 262.954788 
L 166.591169 268.818021 
L 173.216772 273.70666 
L 179.842375 277.761217 
L 186.467978 281.107916 
L 193.093581 283.858268 
L 199.719184 286.109461 
L 206.344787 287.945251 
L 212.97039 289.437132 
L 219.595993 290.645636 
L 226.221596 291.621643 
L 232.847199 292.407655 
L 239.472801 293.038972 
L 246.098404 293.544763 
L 252.724007 293.94902 
L 259.34961 294.271395 
L 265.975213 294.527919 
L 272.600816 294.731624 
L 279.226419 294.893069 
L 285.852022 295.02078 
L 292.477625 295.121626 
L 299.103228 295.201119 
L 305.728831 295.263678 
L 312.354434 295.312832 
L 318.980037 295.351393 
L 325.60564 295.3816 
L 332.231243 295.405229 
L 338.856846 295.423687 
L 345.482449 295.438087 
L 352.108052 295.449306 
L 358.733655 295.458035 
L 365.359258 295.46482 
L 371.984861 295.470087 
L 378.610464 295.474171 
L 385.236067 295.477335 
L 391.86167 295.479776 
L 398.487273 295.480819 
" clip-path="url(#pb235bcb14e)" style="fill: none; stroke: #ff7f0e; stroke-width: 1.5; stroke-linecap: square"/>
   </g>
   <g id="line2d_101">
    <path d="M 73.832727 53.568 
L 80.45833 60.956172 
L 87.083933 70.746422 
L 93.709536 82.468469 
L 100.335139 95.642457 
L 106.960742 109.803424 
L 113.586345 124.519497 
L 120.211948 139.404844 
L 126.837551 154.127999 
L 133.463154 168.416084 
L 140.088757 182.055358 
L 146.71436 194.888708 
L 153.339963 206.810763 
L 159.965566 217.761416 
L 166.591169 227.718515 
L 173.216772 236.690383 
L 179.842375 244.708686 
L 186.467978 251.821998 
L 193.093581 258.090246 
L 199.719184 263.580113 
L 206.344787 268.361363 
L 212.97039 272.504023 
L 219.595993 276.076296 
L 226.221596 279.143102 
L 232.847199 281.765115 
L 239.472801 283.998203 
L 246.098404 285.893172 
L 252.724007 287.495735 
L 259.34961 288.846649 
L 265.975213 289.981958 
L 272.600816 290.933309 
L 279.226419 291.728316 
L 285.852022 292.390927 
L 292.477625 292.941806 
L 299.103228 293.398696 
L 305.728831 293.776762 
L 312.354434 294.088913 
L 318.980037 294.346097 
L 325.60564 294.55756 
L 332.231243 294.73109 
L 338.856846 294.873221 
L 345.482449 294.989424 
L 352.108052 295.084259 
L 358.733655 295.161526 
L 365.359258 295.224373 
L 371.984861 295.275412 
L 378.610464 295.316796 
L 385.236067 295.3503 
L 391.86167 295.377315 
L 398.487273 295.389125 
" clip-path="url(#pb235bcb14e)" style="fill: none; stroke: #2ca02c; stroke-width: 1.5; stroke-linecap: square"/>
   </g>
   <g id="line2d_102">
    <path d="M 73.832727 53.568 
L 80.45833 56.076518 
L 87.083933 60.108798 
L 93.709536 65.656631 
L 100.335139 72.643185 
L 106.960742 80.937761 
L 113.586345 90.369874 
L 120.211948 100.742306 
L 126.837551 111.842931 
L 133.463154 123.455181 
L 140.088757 135.367046 
L 146.71436 147.378529 
L 153.339963 159.307476 
L 159.965566 170.993771 
L 166.591169 182.301921 
L 173.216772 193.122148 
L 179.842375 203.370166 
L 186.467978 212.985886 
L 193.093581 221.931316 
L 199.719184 230.187938 
L 206.344787 237.753802 
L 212.97039 244.640565 
L 219.595993 250.870628 
L 226.221596 256.474494 
L 232.847199 261.488415 
L 239.472801 265.95237 
L 246.098404 269.908366 
L 252.724007 273.399064 
L 259.34961 276.466688 
L 265.975213 279.152202 
L 272.600816 281.494705 
L 279.226419 283.531011 
L 285.852022 285.295387 
L 292.477625 286.819417 
L 299.103228 288.131955 
L 305.728831 289.259163 
L 312.354434 290.224597 
L 318.980037 291.049336 
L 325.60564 291.752134 
L 332.231243 292.34959 
L 338.856846 292.856327 
L 345.482449 293.285168 
L 352.108052 293.647313 
L 358.733655 293.952503 
L 365.359258 294.209184 
L 371.984861 294.424648 
L 378.610464 294.605177 
L 385.236067 294.756159 
L 391.86167 294.881849 
L 398.487273 294.937725 
" clip-path="url(#pb235bcb14e)" style="fill: none; stroke: #d62728; stroke-width: 1.5; stroke-linecap: square"/>
   </g>
   <g id="line2d_103">
    <path d="M 73.832727 53.568 
L 80.45833 54.421526 
L 87.083933 56.033054 
L 93.709536 58.518421 
L 100.335139 61.95441 
L 106.960742 66.378862 
L 113.586345 71.79263 
L 120.211948 78.162893 
L 126.837551 85.427415 
L 133.463154 93.499414 
L 140.088757 102.272771 
L 146.71436 111.627344 
L 153.339963 121.434202 
L 159.965566 131.560614 
L 166.591169 141.874634 
L 173.216772 152.249162 
L 179.842375 162.565373 
L 186.467978 172.715434 
L 193.093581 182.604484 
L 199.719184 192.151858 
L 206.344787 201.291617 
L 212.97039 209.972455 
L 219.595993 218.157078 
L 226.221596 225.821185 
L 232.847199 232.952162 
L 239.472801 239.547603 
L 246.098404 245.613761 
L 252.724007 251.16401 
L 259.34961 256.217368 
L 265.975213 260.797151 
L 272.600816 264.929749 
L 279.226419 268.64357 
L 285.852022 271.968133 
L 292.477625 274.93332 
L 299.103228 277.56876 
L 305.728831 279.903351 
L 312.354434 281.964893 
L 318.980037 283.779816 
L 325.60564 285.372996 
L 332.231243 286.767645 
L 338.856846 287.985248 
L 345.482449 289.045555 
L 352.108052 289.966608 
L 358.733655 290.764793 
L 365.359258 291.45491 
L 371.984861 292.050267 
L 378.610464 292.562773 
L 385.236067 293.003033 
L 391.86167 293.379312 
L 398.487273 293.548777 
" clip-path="url(#pb235bcb14e)" style="fill: none; stroke: #9467bd; stroke-width: 1.5; stroke-linecap: square"/>
   </g>
   <g id="line2d_104">
    <path d="M 73.832727 53.568 
L 80.45833 53.858897 
L 87.083933 54.48922 
L 93.709536 55.561581 
L 100.335139 57.168573 
L 106.960742 59.388476 
L 113.586345 62.282184 
L 120.211948 65.891275 
L 126.837551 70.237122 
L 133.463154 75.320922 
L 140.088757 81.124497 
L 146.71436 87.611739 
L 153.339963 94.730573 
L 159.965566 102.415296 
L 166.591169 110.589204 
L 173.216772 119.167373 
L 179.842375 128.059507 
L 186.467978 137.172734 
L 193.093581 146.414279 
L 199.719184 155.69391 
L 206.344787 164.926084 
L 212.97039 174.031742 
L 219.595993 182.939718 
L 226.221596 191.587724 
L 232.847199 199.922944 
L 239.472801 207.902242 
L 246.098404 215.492035 
L 252.724007 222.667891 
L 259.34961 229.413896 
L 265.975213 235.721871 
L 272.600816 241.590477 
L 279.226419 247.024285 
L 285.852022 252.032829 
L 292.477625 256.629692 
L 299.103228 260.831647 
L 305.728831 264.657871 
L 312.354434 268.129238 
L 318.980037 271.267706 
L 325.60564 274.095784 
L 332.231243 276.636088 
L 338.856846 278.910972 
L 345.482449 280.942239 
L 352.108052 282.750908 
L 358.733655 284.357044 
L 365.359258 285.779635 
L 371.984861 287.03651 
L 378.610464 288.144298 
L 385.236067 289.118387 
L 391.86167 289.970155 
L 398.487273 290.357555 
" clip-path="url(#pb235bcb14e)" style="fill: none; stroke: #8c564b; stroke-width: 1.5; stroke-linecap: square"/>
   </g>
   <g id="line2d_105">
    <path d="M 73.832727 53.568 
L 80.45833 53.667293 
L 87.083933 53.909892 
L 93.709536 54.359994 
L 100.335139 55.084635 
L 106.960742 56.150395 
L 113.586345 57.620344 
L 120.211948 59.551334 
L 126.837551 61.991734 
L 133.463154 64.97965 
L 140.088757 68.541644 
L 146.71436 72.691954 
L 153.339963 77.43218 
L 159.965566 82.75141 
L 166.591169 88.626743 
L 173.216772 95.024157 
L 179.842375 101.89966 
L 186.467978 109.200698 
L 193.093581 116.867729 
L 199.719184 124.835926 
L 206.344787 133.036946 
L 212.97039 141.400698 
L 219.595993 149.857058 
L 226.221596 158.337472 
L 232.847199 166.776402 
L 239.472801 175.11257 
L 246.098404 183.289975 
L 252.724007 191.258656 
L 259.34961 198.975217 
L 265.975213 206.403097 
L 272.600816 213.512622 
L 279.226419 220.280856 
L 285.852022 226.691297 
L 292.477625 232.73343 
L 299.103228 238.402195 
L 305.728831 243.697395 
L 312.354434 248.623068 
L 318.980037 253.186859 
L 325.60564 257.399404 
L 332.231243 261.273748 
L 338.856846 264.8248 
L 345.482449 268.068847 
L 352.108052 271.023108 
L 358.733655 273.705355 
L 365.359258 276.133581 
L 371.984861 278.325723 
L 378.610464 280.299427 
L 385.236067 282.07182 
L 391.86167 283.653741 
L 398.487273 284.37794 
" clip-path="url(#pb235bcb14e)" style="fill: none; stroke: #e377c2; stroke-width: 1.5; stroke-linecap: square"/>
   </g>
   <g id="line2d_106">
    <path d="M 73.832727 53.568 
L 80.45833 53.601942 
L 87.083933 53.694159 
L 93.709536 53.879118 
L 100.335139 54.196866 
L 106.960742 54.691578 
L 113.586345 55.409893 
L 120.211948 56.39915 
L 126.837551 57.705616 
L 133.463154 59.372791 
L 140.088757 61.439863 
L 146.71436 63.940345 
L 153.339963 66.900948 
L 159.965566 70.340707 
L 166.591169 74.270369 
L 173.216772 78.692044 
L 179.842375 83.599125 
L 186.467978 88.976446 
L 193.093581 94.800679 
L 199.719184 101.040934 
L 206.344787 107.659542 
L 212.97039 114.613001 
L 219.595993 121.85303 
L 226.221596 129.32772 
L 232.847199 136.982733 
L 239.472801 144.76251 
L 246.098404 152.611454 
L 252.724007 160.475054 
L 259.34961 168.300911 
L 265.975213 176.039636 
L 272.600816 183.645614 
L 279.226419 191.077597 
L 285.852022 198.299137 
L 292.477625 205.278855 
L 299.103228 211.990554 
L 305.728831 218.413188 
L 312.354434 224.530713 
L 318.980037 230.331832 
L 325.60564 235.809662 
L 332.231243 240.961345 
L 338.856846 245.78762 
L 345.482449 250.292381 
L 352.108052 254.482225 
L 358.733655 258.366018 
L 365.359258 261.954473 
L 371.984861 265.259763 
L 378.610464 268.295164 
L 385.236067 271.074636 
L 391.86167 273.602643 
L 398.487273 274.763243 
" clip-path="url(#pb235bcb14e)" style="fill: none; stroke: #7f7f7f; stroke-width: 1.5; stroke-linecap: square"/>
   </g>
   <g id="line2d_107">
    <path d="M 73.832727 53.568 
L 80.45833 53.579619 
L 87.083933 53.614331 
L 93.709536 53.689067 
L 100.335139 53.825332 
L 106.960742 54.048901 
L 113.586345 54.389276 
L 120.211948 54.878929 
L 126.837551 55.552402 
L 133.463154 56.445283 
L 140.088757 57.593136 
L 146.71436 59.030409 
L 153.339963 60.789381 
L 159.965566 62.899163 
L 166.591169 65.384812 
L 173.216772 68.266559 
L 179.842375 71.559172 
L 186.467978 75.271487 
L 193.093581 79.406086 
L 199.719184 83.959145 
L 206.344787 88.920448 
L 212.97039 94.273546 
L 219.595993 99.996083 
L 226.221596 106.06024 
L 232.847199 112.433316 
L 239.472801 119.078404 
L 246.098404 125.955158 
L 252.724007 133.020621 
L 259.34961 140.230082 
L 265.975213 147.537959 
L 272.600816 154.898655 
L 279.226419 162.267384 
L 285.852022 169.60093 
L 292.477625 176.858326 
L 299.103228 184.001436 
L 305.728831 190.995429 
L 312.354434 197.809131 
L 318.980037 204.415275 
L 325.60564 210.790622 
L 332.231243 216.915993 
L 338.856846 222.776197 
L 345.482449 228.359886 
L 352.108052 233.659342 
L 358.733655 238.670211 
L 365.359258 243.391206 
L 371.984861 247.823788 
L 378.610464 251.971825 
L 385.236067 255.841114 
L 391.86167 259.423356 
L 398.487273 261.066036 
" clip-path="url(#pb235bcb14e)" style="fill: none; stroke: #bcbd22; stroke-width: 1.5; stroke-linecap: square"/>
   </g>
   <g id="line2d_108">
    <path d="M 73.832727 53.568 
L 80.45833 53.571983 
L 87.083933 53.584947 
L 93.709536 53.614735 
L 100.335139 53.67212 
L 106.960742 53.770966 
L 113.586345 53.92824 
L 120.211948 54.163874 
L 126.837551 54.500482 
L 133.463154 54.962945 
L 140.088757 55.577883 
L 146.71436 56.373042 
L 153.339963 57.376611 
L 159.965566 58.616509 
L 166.591169 60.119653 
L 173.216772 61.911242 
L 179.842375 64.014075 
L 186.467978 66.447924 
L 193.093581 69.228971 
L 199.719184 72.369338 
L 206.344787 75.876707 
L 212.97039 79.754043 
L 219.595993 83.999423 
L 226.221596 88.605982 
L 232.847199 93.561962 
L 239.472801 98.850869 
L 246.098404 104.45174 
L 252.724007 110.339498 
L 259.34961 116.485394 
L 265.975213 122.857529 
L 272.600816 129.421427 
L 279.226419 136.140662 
L 285.852022 142.977508 
L 292.477625 149.8936 
L 299.103228 156.850583 
L 305.728831 163.810746 
L 312.354434 170.737596 
L 318.980037 177.596394 
L 325.60564 184.354604 
L 332.231243 190.98228 
L 338.856846 197.452358 
L 345.482449 203.74087 
L 352.108052 209.827071 
L 358.733655 215.693493 
L 365.359258 221.325916 
L 371.984861 226.713291 
L 378.610464 231.847593 
L 385.236067 236.7234 
L 391.86167 241.314951 
L 398.487273 243.409798 
" clip-path="url(#pb235bcb14e)" style="fill: none; stroke: #17becf; stroke-width: 1.5; stroke-linecap: square"/>
   </g>
   <g id="line2d_109">
    <path d="M 73.832727 53.568 
L 80.45833 53.569367 
L 87.083933 53.574178 
L 93.709536 53.585917 
L 100.335139 53.609721 
L 106.960742 53.652631 
L 113.586345 53.723785 
L 120.211948 53.834537 
L 126.837551 53.998481 
L 133.463154 54.231399 
L 140.088757 54.551101 
L 146.71436 54.977196 
L 153.339963 55.530767 
L 159.965566 56.23399 
L 166.591169 57.109692 
L 173.216772 58.18087 
L 179.842375 59.47018 
L 186.467978 60.999422 
L 193.093581 62.789027 
L 199.719184 64.857555 
L 206.344787 67.221238 
L 212.97039 69.89355 
L 219.595993 72.884848 
L 226.221596 76.202055 
L 232.847199 79.848428 
L 239.472801 83.823389 
L 246.098404 88.122437 
L 252.724007 92.73714 
L 259.34961 97.655204 
L 265.975213 102.860621 
L 272.600816 108.333889 
L 279.226419 114.052306 
L 285.852022 119.990324 
L 292.477625 126.119955 
L 299.103228 132.41123 
L 305.728831 138.832678 
L 312.354434 145.351842 
L 318.980037 151.935788 
L 325.60564 158.551617 
L 332.231243 165.166958 
L 338.856846 171.750423 
L 345.482449 178.272033 
L 352.108052 184.703577 
L 358.733655 191.018931 
L 365.359258 197.194301 
L 371.984861 203.208407 
L 378.610464 209.042605 
L 385.236067 214.68059 
L 391.86167 220.07811 
L 398.487273 222.520447 
" clip-path="url(#pb235bcb14e)" style="fill: none; stroke: #1f77b4; stroke-width: 1.5; stroke-linecap: square"/>
   </g>
   <g id="patch_3">
    <path d="M 57.6 307.584 
L 57.6 41.472 
" style="fill: none; stroke: #000000; stroke-width: 0.8; stroke-linejoin: miter; stroke-linecap: square"/>
   </g>
   <g id="patch_4">
    <path d="M 414.72 307.584 
L 414.72 41.472 
" style="fill: none; stroke: #000000; stroke-width: 0.8; stroke-linejoin: miter; stroke-linecap: square"/>
   </g>
   <g id="patch_5">
    <path d="M 57.6 307.584 
L 414.72 307.584 
" style="fill: none; stroke: #000000; stroke-width: 0.8; stroke-linejoin: miter; stroke-linecap: square"/>
   </g>
   <g id="patch_6">
    <path d="M 57.6 41.472 
L 414.72 41.472 
" style="fill: none; stroke: #000000; stroke-width: 0.8; stroke-linejoin: miter; stroke-linecap: square"/>
   </g>
   <g id="legend_1">
    <g id="patch_7">
     <path d="M 307.365313 225.6095 
L 407.72 225.6095 
Q 409.72 225.6095 409.72 223.6095 
L 409.72 48.472 
Q 409.72 46.472 407.72 46.472 
L 307.365313 46.472 
Q 305.365313 46.472 305.365313 48.472 
L 305.365313 223.6095 
Q 305.365313 225.6095 307.365313 225.6095 
z
" style="fill: #ffffff; opacity: 0.8; stroke: #cccccc; stroke-linejoin: miter"/>
    </g>
    <g id="text_14">
     <!-- Simulation time (h) -->
     <g transform="translate(309.365313 58.070437) scale(0.1 -0.1)">
      <defs>
       <path id="DejaVuSans-53" d="M 3425 4513 
L 3425 3897 
Q 3066 4069 2747 4153 
Q 2428 4238 2131 4238 
Q 1616 4238 1336 4038 
Q 1056 3838 1056 3469 
Q 1056 3159 1242 3001 
Q 1428 2844 1947 2747 
L 2328 2669 
Q 3034 2534 3370 2195 
Q 3706 1856 3706 1288 
Q 3706 609 3251 259 
Q 2797 -91 1919 -91 
Q 1588 -91 1214 -16 
Q 841 59 441 206 
L 441 856 
Q 825 641 1194 531 
Q 1563 422 1919 422 
Q 2459 422 2753 634 
Q 3047 847 3047 1241 
Q 3047 1584 2836 1778 
Q 2625 1972 2144 2069 
L 1759 2144 
Q 1053 2284 737 2584 
Q 422 2884 422 3419 
Q 422 4038 858 4394 
Q 1294 4750 2059 4750 
Q 2388 4750 2728 4690 
Q 3069 4631 3425 4513 
z
" transform="scale(0.015625)"/>
       <path id="DejaVuSans-68" d="M 3513 2113 
L 3513 0 
L 2938 0 
L 2938 2094 
Q 2938 2591 2744 2837 
Q 2550 3084 2163 3084 
Q 1697 3084 1428 2787 
Q 1159 2491 1159 1978 
L 1159 0 
L 581 0 
L 581 4863 
L 1159 4863 
L 1159 2956 
Q 1366 3272 1645 3428 
Q 1925 3584 2291 3584 
Q 2894 3584 3203 3211 
Q 3513 2838 3513 2113 
z
" transform="scale(0.015625)"/>
      </defs>
      <use xlink:href="#DejaVuSans-53"/>
      <use xlink:href="#DejaVuSans-69" x="63.476562"/>
      <use xlink:href="#DejaVuSans-6d" x="91.259766"/>
      <use xlink:href="#DejaVuSans-75" x="188.671875"/>
      <use xlink:href="#DejaVuSans-6c" x="252.050781"/>
      <use xlink:href="#DejaVuSans-61" x="279.833984"/>
      <use xlink:href="#DejaVuSans-74" x="341.113281"/>
      <use xlink:href="#DejaVuSans-69" x="380.322266"/>
      <use xlink:href="#DejaVuSans-6f" x="408.105469"/>
      <use xlink:href="#DejaVuSans-6e" x="469.287109"/>
      <use xlink:href="#DejaVuSans-20" x="532.666016"/>
      <use xlink:href="#DejaVuSans-74" x="564.453125"/>
      <use xlink:href="#DejaVuSans-69" x="603.662109"/>
      <use xlink:href="#DejaVuSans-6d" x="631.445312"/>
      <use xlink:href="#DejaVuSans-65" x="728.857422"/>
      <use xlink:href="#DejaVuSans-20" x="790.380859"/>
      <use xlink:href="#DejaVuSans-28" x="822.167969"/>
      <use xlink:href="#DejaVuSans-68" x="861.181641"/>
      <use xlink:href="#DejaVuSans-29" x="924.560547"/>
     </g>
    </g>
    <g id="line2d_110">
     <path d="M 332.409844 69.248562 
L 342.409844 69.248562 
L 352.409844 69.248562 
" style="fill: none; stroke: #1f77b4; stroke-width: 1.5; stroke-linecap: square"/>
    </g>
    <g id="text_15">
     <!-- 0.0 -->
     <g transform="translate(360.409844 72.748562) scale(0.1 -0.1)">
      <use xlink:href="#DejaVuSans-30"/>
      <use xlink:href="#DejaVuSans-2e" x="63.623047"/>
      <use xlink:href="#DejaVuSans-30" x="95.410156"/>
     </g>
    </g>
    <g id="line2d_111">
     <path d="M 332.409844 83.926688 
L 342.409844 83.926688 
L 352.409844 83.926688 
" style="fill: none; stroke: #ff7f0e; stroke-width: 1.5; stroke-linecap: square"/>
    </g>
    <g id="text_16">
     <!-- 1.0 -->
     <g transform="translate(360.409844 87.426688) scale(0.1 -0.1)">
      <use xlink:href="#DejaVuSans-31"/>
      <use xlink:href="#DejaVuSans-2e" x="63.623047"/>
      <use xlink:href="#DejaVuSans-30" x="95.410156"/>
     </g>
    </g>
    <g id="line2d_112">
     <path d="M 332.409844 98.604813 
L 342.409844 98.604813 
L 352.409844 98.604813 
" style="fill: none; stroke: #2ca02c; stroke-width: 1.5; stroke-linecap: square"/>
    </g>
    <g id="text_17">
     <!-- 2.0 -->
     <g transform="translate(360.409844 102.104813) scale(0.1 -0.1)">
      <use xlink:href="#DejaVuSans-32"/>
      <use xlink:href="#DejaVuSans-2e" x="63.623047"/>
      <use xlink:href="#DejaVuSans-30" x="95.410156"/>
     </g>
    </g>
    <g id="line2d_113">
     <path d="M 332.409844 113.282938 
L 342.409844 113.282938 
L 352.409844 113.282938 
" style="fill: none; stroke: #d62728; stroke-width: 1.5; stroke-linecap: square"/>
    </g>
    <g id="text_18">
     <!-- 3.0 -->
     <g transform="translate(360.409844 116.782938) scale(0.1 -0.1)">
      <use xlink:href="#DejaVuSans-33"/>
      <use xlink:href="#DejaVuSans-2e" x="63.623047"/>
      <use xlink:href="#DejaVuSans-30" x="95.410156"/>
     </g>
    </g>
    <g id="line2d_114">
     <path d="M 332.409844 127.961063 
L 342.409844 127.961063 
L 352.409844 127.961063 
" style="fill: none; stroke: #9467bd; stroke-width: 1.5; stroke-linecap: square"/>
    </g>
    <g id="text_19">
     <!-- 4.0 -->
     <g transform="translate(360.409844 131.461063) scale(0.1 -0.1)">
      <use xlink:href="#DejaVuSans-34"/>
      <use xlink:href="#DejaVuSans-2e" x="63.623047"/>
      <use xlink:href="#DejaVuSans-30" x="95.410156"/>
     </g>
    </g>
    <g id="line2d_115">
     <path d="M 332.409844 142.639187 
L 342.409844 142.639187 
L 352.409844 142.639187 
" style="fill: none; stroke: #8c564b; stroke-width: 1.5; stroke-linecap: square"/>
    </g>
    <g id="text_20">
     <!-- 5.0 -->
     <g transform="translate(360.409844 146.139187) scale(0.1 -0.1)">
      <use xlink:href="#DejaVuSans-35"/>
      <use xlink:href="#DejaVuSans-2e" x="63.623047"/>
      <use xlink:href="#DejaVuSans-30" x="95.410156"/>
     </g>
    </g>
    <g id="line2d_116">
     <path d="M 332.409844 157.317313 
L 342.409844 157.317313 
L 352.409844 157.317313 
" style="fill: none; stroke: #e377c2; stroke-width: 1.5; stroke-linecap: square"/>
    </g>
    <g id="text_21">
     <!-- 6.0 -->
     <g transform="translate(360.409844 160.817313) scale(0.1 -0.1)">
      <use xlink:href="#DejaVuSans-36"/>
      <use xlink:href="#DejaVuSans-2e" x="63.623047"/>
      <use xlink:href="#DejaVuSans-30" x="95.410156"/>
     </g>
    </g>
    <g id="line2d_117">
     <path d="M 332.409844 171.995437 
L 342.409844 171.995437 
L 352.409844 171.995437 
" style="fill: none; stroke: #7f7f7f; stroke-width: 1.5; stroke-linecap: square"/>
    </g>
    <g id="text_22">
     <!-- 7.0 -->
     <g transform="translate(360.409844 175.495437) scale(0.1 -0.1)">
      <defs>
       <path id="DejaVuSans-37" d="M 525 4666 
L 3525 4666 
L 3525 4397 
L 1831 0 
L 1172 0 
L 2766 4134 
L 525 4134 
L 525 4666 
z
" transform="scale(0.015625)"/>
      </defs>
      <use xlink:href="#DejaVuSans-37"/>
      <use xlink:href="#DejaVuSans-2e" x="63.623047"/>
      <use xlink:href="#DejaVuSans-30" x="95.410156"/>
     </g>
    </g>
    <g id="line2d_118">
     <path d="M 332.409844 186.673563 
L 342.409844 186.673563 
L 352.409844 186.673563 
" style="fill: none; stroke: #bcbd22; stroke-width: 1.5; stroke-linecap: square"/>
    </g>
    <g id="text_23">
     <!-- 8.0 -->
     <g transform="translate(360.409844 190.173563) scale(0.1 -0.1)">
      <use xlink:href="#DejaVuSans-38"/>
      <use xlink:href="#DejaVuSans-2e" x="63.623047"/>
      <use xlink:href="#DejaVuSans-30" x="95.410156"/>
     </g>
    </g>
    <g id="line2d_119">
     <path d="M 332.409844 201.351687 
L 342.409844 201.351687 
L 352.409844 201.351687 
" style="fill: none; stroke: #17becf; stroke-width: 1.5; stroke-linecap: square"/>
    </g>
    <g id="text_24">
     <!-- 9.0 -->
     <g transform="translate(360.409844 204.851687) scale(0.1 -0.1)">
      <defs>
       <path id="DejaVuSans-39" d="M 703 97 
L 703 672 
Q 941 559 1184 500 
Q 1428 441 1663 441 
Q 2288 441 2617 861 
Q 2947 1281 2994 2138 
Q 2813 1869 2534 1725 
Q 2256 1581 1919 1581 
Q 1219 1581 811 2004 
Q 403 2428 403 3163 
Q 403 3881 828 4315 
Q 1253 4750 1959 4750 
Q 2769 4750 3195 4129 
Q 3622 3509 3622 2328 
Q 3622 1225 3098 567 
Q 2575 -91 1691 -91 
Q 1453 -91 1209 -44 
Q 966 3 703 97 
z
M 1959 2075 
Q 2384 2075 2632 2365 
Q 2881 2656 2881 3163 
Q 2881 3666 2632 3958 
Q 2384 4250 1959 4250 
Q 1534 4250 1286 3958 
Q 1038 3666 1038 3163 
Q 1038 2656 1286 2365 
Q 1534 2075 1959 2075 
z
" transform="scale(0.015625)"/>
      </defs>
      <use xlink:href="#DejaVuSans-39"/>
      <use xlink:href="#DejaVuSans-2e" x="63.623047"/>
      <use xlink:href="#DejaVuSans-30" x="95.410156"/>
     </g>
    </g>
    <g id="line2d_120">
     <path d="M 332.409844 216.029812 
L 342.409844 216.029812 
L 352.409844 216.029812 
" style="fill: none; stroke: #1f77b4; stroke-width: 1.5; stroke-linecap: square"/>
    </g>
    <g id="text_25">
     <!-- 10.0 -->
     <g transform="translate(360.409844 219.529812) scale(0.1 -0.1)">
      <use xlink:href="#DejaVuSans-31"/>
      <use xlink:href="#DejaVuSans-30" x="63.623047"/>
      <use xlink:href="#DejaVuSans-2e" x="127.246094"/>
      <use xlink:href="#DejaVuSans-30" x="159.033203"/>
     </g>
    </g>
   </g>
  </g>
 </g>
 <defs>
  <clipPath id="pb235bcb14e">
   <rect x="57.6" y="41.472" width="357.12" height="266.112"/>
  </clipPath>
 </defs>
</svg>
