<?xml version="1.0" encoding="utf-8"?>
<!-- Generator: Adobe Illustrator 27.3.1, SVG Export Plug-In . SVG Version: 6.00 Build 0)  -->
<svg version="1.1" xmlns="http://www.w3.org/2000/svg" xmlns:xlink="http://www.w3.org/1999/xlink" x="0px" y="0px"
	 viewBox="0 0 1000 1000" style="enable-background:new 0 0 1000 1000;" xml:space="preserve">
<style type="text/css">
	.st0{fill:none;stroke:#000000;stroke-miterlimit:10;}
	.st1{fill:#FFFFFF;stroke:#000000;stroke-miterlimit:10;}
	.st2{fill:#414042;stroke:#F1F2F2;stroke-miterlimit:10;}
	.st3{fill:#58595B;stroke:#F1F2F2;stroke-miterlimit:10;}
	.st4{fill:#808285;stroke:#F1F2F2;stroke-miterlimit:10;}
	.st5{fill:#A7A9AC;stroke:#F1F2F2;stroke-miterlimit:10;}
	.st6{fill:#D1D3D4;stroke:#F1F2F2;stroke-miterlimit:10;}
	.st7{fill:#E6E7E8;stroke:#F1F2F2;stroke-miterlimit:10;}
	.st8{fill:none;stroke:#F1F2F2;stroke-miterlimit:10;}
</style>
<g id="Tank">
	<ellipse class="st0" cx="562.7" cy="461.2" rx="65.5" ry="23"/>
	<ellipse class="st1" cx="562.7" cy="706.2" rx="65.5" ry="23"/>
	<line class="st0" x1="497.2" y1="461.2" x2="497.2" y2="706.2"/>
	<line class="st0" x1="628.1" y1="461.2" x2="628.1" y2="706.2"/>
</g>
<g id="Cell_highlight">
	<g id="Stones">
		<g>
			<g>
				
					<image style="overflow:visible;" width="512" height="512" xlink:href="1E7ED155.png"  transform="matrix(4.031250e-02 0 0 4.031250e-02 520.1729 686.091)">
				</image>
			</g>
		</g>
		<g>
			<g>
				
					<image style="overflow:visible;" width="512" height="512" xlink:href="1E7ED157.png"  transform="matrix(4.031250e-02 0 0 4.031250e-02 539.9399 683.0751)">
				</image>
			</g>
		</g>
		<g>
			<g>
				
					<image style="overflow:visible;" width="512" height="512" xlink:href="1E7ED152.png"  transform="matrix(4.031250e-02 0 0 4.031250e-02 501.2896 692.1279)">
				</image>
			</g>
		</g>
		<g>
			<g>
				
					<image style="overflow:visible;" width="512" height="512" xlink:href="1E7ED153.png"  transform="matrix(4.031250e-02 0 0 4.031250e-02 550.136 693.6738)">
				</image>
			</g>
		</g>
		<g>
			<g>
				
					<image style="overflow:visible;" width="512" height="512" xlink:href="1E7ED15D.png"  transform="matrix(4.031250e-02 0 0 4.031250e-02 511.1778 702.8077)">
				</image>
			</g>
		</g>
		<g>
			<g>
				
					<image style="overflow:visible;" width="512" height="512" xlink:href="1E7ED15F.png"  transform="matrix(4.031250e-02 0 0 4.031250e-02 527.9399 696.8765)">
				</image>
			</g>
		</g>
		<g>
			<g>
				
					<image style="overflow:visible;" width="512" height="512" xlink:href="1E7ED150.png"  transform="matrix(4.031250e-02 0 0 4.031250e-02 539.6454 707.8088)">
				</image>
			</g>
		</g>
		<g>
			<g>
				
					<image style="overflow:visible;" width="512" height="512" xlink:href="1E7ED151.png"  transform="matrix(4.031250e-02 0 0 4.031250e-02 505.7067 683.4777)">
				</image>
			</g>
		</g>
		<g>
			<g>
				
					<image style="overflow:visible;" width="512" height="512" xlink:href="1E7ED156.png"  transform="matrix(4.031250e-02 0 0 4.031250e-02 497.1668 668.6863)">
				</image>
			</g>
		</g>
		<g>
			<g>
				
					<image style="overflow:visible;" width="512" height="512" xlink:href="6854415E.png"  transform="matrix(4.031250e-02 0 0 4.031250e-02 498.5259 648.545)">
				</image>
			</g>
		</g>
		<g>
			<g>
				
					<image style="overflow:visible;" width="512" height="512" xlink:href="68544159.png"  transform="matrix(4.031250e-02 0 0 4.031250e-02 516.6025 638.0174)">
				</image>
			</g>
		</g>
		<g>
			<g>
				
					<image style="overflow:visible;" width="512" height="512" xlink:href="6854415A.png"  transform="matrix(4.031250e-02 0 0 4.031250e-02 537.4368 634.2628)">
				</image>
			</g>
		</g>
		<g>
			<g>
				
					<image style="overflow:visible;" width="512" height="512" xlink:href="68544158.png"  transform="matrix(4.031250e-02 0 0 4.031250e-02 558.3448 634.7781)">
				</image>
			</g>
		</g>
		<g>
			<g>
				
					<image style="overflow:visible;" width="512" height="512" xlink:href="68544156.png"  transform="matrix(4.031250e-02 0 0 4.031250e-02 561.0687 650.3855)">
				</image>
			</g>
		</g>
		<g>
			<g>
				
					<image style="overflow:visible;" width="512" height="512" xlink:href="68544149.png"  transform="matrix(4.031250e-02 0 0 4.031250e-02 541.9276 647.2198)">
				</image>
			</g>
		</g>
		<g>
			<g>
				
					<image style="overflow:visible;" width="512" height="512" xlink:href="6854414A.png"  transform="matrix(4.031250e-02 0 0 4.031250e-02 522.8417 653.772)">
				</image>
			</g>
		</g>
		<g>
			<g>
				
					<image style="overflow:visible;" width="512" height="512" xlink:href="68544148.png"  transform="matrix(4.031250e-02 0 0 4.031250e-02 511.5044 662.3855)">
				</image>
			</g>
		</g>
		<g>
			<g>
				
					<image style="overflow:visible;" width="512" height="512" xlink:href="6854414E.png"  transform="matrix(4.031250e-02 0 0 4.031250e-02 556.5779 668.6863)">
				</image>
			</g>
		</g>
		<g>
			<g>
				
					<image style="overflow:visible;" width="512" height="512" xlink:href="6854414B.png"  transform="matrix(4.031250e-02 0 0 4.031250e-02 540.6761 664.6677)">
				</image>
			</g>
		</g>
		<g>
			<g>
				
					<image style="overflow:visible;" width="512" height="512" xlink:href="6854416D.png"  transform="matrix(4.031250e-02 0 0 4.031250e-02 524.627 671.8914)">
				</image>
			</g>
		</g>
		<g>
			<g>
				
					<image style="overflow:visible;" width="512" height="512" xlink:href="6854416F.png"  transform="matrix(4.031250e-02 0 0 4.031250e-02 549.3632 685.0601)">
				</image>
			</g>
		</g>
		<g>
			<g>
				
					<image style="overflow:visible;" width="512" height="512" xlink:href="6854416C.png"  transform="matrix(4.031250e-02 0 0 4.031250e-02 551.4798 656.6357)">
				</image>
			</g>
		</g>
		<g>
			<g>
				
					<image style="overflow:visible;" width="512" height="512" xlink:href="6854416B.png"  transform="matrix(4.031250e-02 0 0 4.031250e-02 530.6638 653.3402)">
				</image>
			</g>
		</g>
		<g>
			<g>
				
					<image style="overflow:visible;" width="512" height="512" xlink:href="68544165.png"  transform="matrix(4.031250e-02 0 0 4.031250e-02 525.5657 639.8125)">
				</image>
			</g>
		</g>
		<g>
			<g>
				
					<image style="overflow:visible;" width="512" height="512" xlink:href="68544167.png"  transform="matrix(4.031250e-02 0 0 4.031250e-02 508.7221 646.7781)">
				</image>
			</g>
		</g>
		<g>
			<g>
				
					<image style="overflow:visible;" width="512" height="512" xlink:href="68544164.png"  transform="matrix(4.031250e-02 0 0 4.031250e-02 578.1485 636.2433)">
				</image>
			</g>
		</g>
		<g>
			<g>
				
					<image style="overflow:visible;" width="512" height="512" xlink:href="6854419B.png"  transform="matrix(4.031250e-02 0 0 4.031250e-02 599.4982 641.9931)">
				</image>
			</g>
		</g>
		<g>
			<g>
				
					<image style="overflow:visible;" width="512" height="512" xlink:href="6854419D.png"  transform="matrix(4.031250e-02 0 0 4.031250e-02 606.8601 657.9683)">
				</image>
			</g>
		</g>
		<g>
			<g>
				
					<image style="overflow:visible;" width="512" height="512" xlink:href="6854419F.png"  transform="matrix(4.031250e-02 0 0 4.031250e-02 587.8662 656.6357)">
				</image>
			</g>
		</g>
		<g>
			<g>
				
					<image style="overflow:visible;" width="512" height="512" xlink:href="68544180.png"  transform="matrix(4.031250e-02 0 0 4.031250e-02 573.584 653.3402)">
				</image>
			</g>
		</g>
		<g>
			<g>
				
					<image style="overflow:visible;" width="512" height="512" xlink:href="685441BF.png"  transform="matrix(4.031250e-02 0 0 4.031250e-02 591.5472 639.8125)">
				</image>
			</g>
		</g>
		<g>
			<g>
				
					<image style="overflow:visible;" width="512" height="512" xlink:href="68544181.png"  transform="matrix(4.031250e-02 0 0 4.031250e-02 553.2466 634.2628)">
				</image>
			</g>
		</g>
		<g>
			<g>
				
					<image style="overflow:visible;" width="512" height="512" xlink:href="68544183.png"  transform="matrix(4.031250e-02 0 0 4.031250e-02 606.1996 675.8948)">
				</image>
			</g>
		</g>
		<g>
			<g>
				
					<image style="overflow:visible;" width="512" height="512" xlink:href="68544186.png"  transform="matrix(4.031250e-02 0 0 4.031250e-02 589.8918 669.0113)">
				</image>
			</g>
		</g>
		<g>
			<g>
				
					<image style="overflow:visible;" width="512" height="512" xlink:href="68544187.png"  transform="matrix(4.031250e-02 0 0 4.031250e-02 574.0994 671.7355)">
				</image>
			</g>
		</g>
		<g>
			<g>
				
					<image style="overflow:visible;" width="512" height="512" xlink:href="68544182.png"  transform="matrix(4.031250e-02 0 0 4.031250e-02 606.1996 696.2872)">
				</image>
			</g>
		</g>
		<g>
			<g>
				
					<image style="overflow:visible;" width="512" height="512" xlink:href="6854418D.png"  transform="matrix(4.031250e-02 0 0 4.031250e-02 589.3019 684.461)">
				</image>
			</g>
		</g>
		<g>
			<g>
				
					<image style="overflow:visible;" width="512" height="512" xlink:href="6854418E.png"  transform="matrix(4.031250e-02 0 0 4.031250e-02 570.9337 688.0787)">
				</image>
			</g>
		</g>
		<g>
			<g>
				
					<image style="overflow:visible;" width="512" height="512" xlink:href="6854418F.png"  transform="matrix(4.031250e-02 0 0 4.031250e-02 590.4429 699.3426)">
				</image>
			</g>
		</g>
		<g>
			<g>
				
					<image style="overflow:visible;" width="512" height="512" xlink:href="685441EB.png"  transform="matrix(4.031250e-02 0 0 4.031250e-02 580.2467 706.1041)">
				</image>
			</g>
		</g>
		<g>
			<g>
				
					<image style="overflow:visible;" width="512" height="512" xlink:href="685441ED.png"  transform="matrix(4.031250e-02 0 0 4.031250e-02 565.1914 700.5941)">
				</image>
			</g>
		</g>
		<g>
			<g>
				
					<image style="overflow:visible;" width="512" height="512" xlink:href="685441EF.png"  transform="matrix(4.031250e-02 0 0 4.031250e-02 560.3323 708.7407)">
				</image>
			</g>
		</g>
		<g>
			<g>
				
					<image style="overflow:visible;" width="512" height="512" xlink:href="685441EA.png"  transform="matrix(4.031250e-02 0 0 4.031250e-02 581.351 689.6984)">
				</image>
			</g>
		</g>
		<g>
			<g>
				
					<image style="overflow:visible;" width="512" height="512" xlink:href="685441E9.png"  transform="matrix(4.031250e-02 0 0 4.031250e-02 585.3448 653.3402)">
				</image>
			</g>
		</g>
		<g>
			<g>
				
					<image style="overflow:visible;" width="512" height="512" xlink:href="685441E5.png"  transform="matrix(4.031250e-02 0 0 4.031250e-02 563.4429 675.8948)">
				</image>
			</g>
		</g>
		<g>
			<g>
				
					<image style="overflow:visible;" width="902" height="902" xlink:href="685441E7.png"  transform="matrix(0.24 0 0 0.24 184.6182 495.3151)">
				</image>
			</g>
		</g>
	</g>
</g>
<g id="Stone_highlight">
	<g id="Discretisation">
		<ellipse class="st0" cx="562.7" cy="656.8" rx="65.5" ry="23"/>
		<ellipse class="st0" cx="562.8" cy="607.3" rx="65.5" ry="23"/>
		<ellipse class="st0" cx="562.8" cy="559" rx="65.5" ry="23"/>
		<ellipse class="st0" cx="562.8" cy="509.6" rx="65.5" ry="23"/>
	</g>
	<g>
		<g>
			<line class="st0" x1="494.1" y1="674.8" x2="409.5" y2="642.5"/>
			<g>
				<path d="M403.9,640.3c3,0,7-0.4,9.7-1.4l-3.3,3.8l-0.1,5.1C408.8,645.3,406.2,642.3,403.9,640.3z"/>
			</g>
		</g>
	</g>
	<g id="discretisation">
		<path class="st2" d="M358.2,665.7c17.7-156.8-54.4-170.9-65.4-170.9c-37.7,0-105.7,25.2-108,107.4
			C184.8,674.8,307,680,358.2,665.7"/>
		<path class="st3" d="M347.2,655.7c-42.8,12-144.8,7.7-144.8-52.9c0-49.5,40.7-90.2,90.2-90.2c9.2,0,69.5,11.8,54.7,143.1"/>
		<path class="st4" d="M220.8,603.4c0,48.4,81.4,51.9,115.6,42.3l0-0.6C348.2,540.4,300.1,531,292.8,531h-0.2
			c-39.4,0-71.8,32.4-71.8,71.8"/>
		<path class="st5" d="M238.8,603.4c0,36.3,61.1,38.9,86.7,31.7l0.2-0.3c8.9-79-27.4-86.1-32.9-86.1v0c-29.6,0-54,24.4-54,54"/>
		<path class="st6" d="M314.5,623.8c-17.1,4.8-57.7,3.1-57.7-21.1v0c0-19.7,16.2-35.9,35.9-35.9h0c3.7,0,27.9,4.8,22,57.5"/>
		<path class="st7" d="M303.6,613.3c-8.5,2.4-28.9,1.5-28.9-10.6h0.1c0-9.8,8-17.8,17.8-17.8l0.2-0.1c1.8,0,14,2.4,11,28.7"/>
		<line class="st8" x1="184.8" y1="602.7" x2="292.8" y2="602.7"/>
		<line class="st8" x1="292.8" y1="494.8" x2="292.8" y2="602.7"/>
		<line class="st8" x1="292.8" y1="602.7" x2="358.2" y2="666.1"/>
	</g>
</g>
</svg>
